  0
SECTION
  2
HEADER
  9
$ACADVER
  1
AC1009
  9
$FILLMODE
 70
1
  9
$EXTMIN
 10
-0.3048
 20
-0.9591
 30
0.0000
  9
$EXTMAX
 10
19.8738
 20
10.2126
 30
0.0000
  0
ENDSEC
  0
SECTION
  2
TABLES
  0
TABLE
  2
LTYPE
 70
1
  0
LTYPE
  2
CONTINUOUS
 70
64
  3
Solid line
 72
65
 73
0
 40
0
  0
ENDTAB
  0
TABLE
  2
LAYER
 70
255
  0
LAYER
  2
1
 70
64
 62
22
  6
CONTINUOUS
  0
LAYER
  2
16
 70
64
 62
175
  6
CONTINUOUS
  0
LAYER
  2
17
 70
64
 62
82
  6
CONTINUOUS
  0
LAYER
  2
18
 70
64
 62
82
  6
CONTINUOUS
  0
LAYER
  2
19
 70
64
 62
53
  6
CONTINUOUS
  0
LAYER
  2
20
 70
64
 62
7
  6
CONTINUOUS
  0
LAYER
  2
21
 70
64
 62
253
  6
CONTINUOUS
  0
LAYER
  2
22
 70
64
 62
253
  6
CONTINUOUS
  0
LAYER
  2
23
 70
64
 62
7
  6
CONTINUOUS
  0
LAYER
  2
24
 70
64
 62
7
  6
CONTINUOUS
  0
LAYER
  2
26
 70
64
 62
253
  6
CONTINUOUS
  0
LAYER
  2
28
 70
64
 62
253
  6
CONTINUOUS
  0
LAYER
  2
39
 70
64
 62
22
  6
CONTINUOUS
  0
LAYER
  2
40
 70
64
 62
175
  6
CONTINUOUS
  0
LAYER
  2
41
 70
64
 62
22
  6
CONTINUOUS
  0
LAYER
  2
42
 70
64
 62
175
  6
CONTINUOUS
  0
LAYER
  2
43
 70
64
 62
82
  6
CONTINUOUS
  0
LAYER
  2
48
 70
64
 62
253
  6
CONTINUOUS
  0
LAYER
  2
49
 70
64
 62
253
  6
CONTINUOUS
  0
LAYER
  2
51
 70
64
 62
253
  6
CONTINUOUS
  0
LAYER
  2
52
 70
64
 62
253
  6
CONTINUOUS
  0
ENDTAB
  0
ENDSEC
  0
SECTION
  2
BLOCKS
  0
BLOCK
  8
0
  2
RECT
 70
64
 10
0.0000
 20
0.0000
 30
0.0000
  3
RECT
  0
SOLID
  8
0
 10
-0.5000
 20
-0.5000
 30
0.0000
 11
0.5000
 21
-0.5000
 31
0.0000
 12
-0.5000
 22
0.5000
 32
0.0000
 13
0.5000
 23
0.5000
 33
0.0000
  0
ENDBLK
  8
0
  0
BLOCK
  8
0
  2
PIE
 70
64
 10
0.0000
 20
0.0000
 30
0.0000
  3
PIE
  0
POLYLINE
  8
0
 66
1
 10
0.0000
 20
0.0000
 30
0.0000
 40
0.5000
 41
0.5000
 70
0
  0
VERTEX
  8
0
 10
0.0000
 20
-0.2500
 30
0.0000
 42
1.0000
  0
VERTEX
  8
0
 10
0.0000
 20
0.2500
 30
0.0000
 42
1.0000
  0
VERTEX
  8
0
 10
0.0000
 20
-0.2500
 30
0.0000
  0
SEQEND
  8
0
  0
ENDBLK
  8
0
  0
BLOCK
  8
0
  2
OCTAGONP
 70
64
 10
0.0000
 20
0.0000
 30
0.0000
  3
OCTAGONP
  0
POLYLINE
  8
0
 66
1
 10
0.0000
 20
0.0000
 30
0.0000
 40
0.5000
 41
0.5000
 70
0
  0
VERTEX
  8
0
 10
-0.2500
 20
-0.1036
 30
0.0000
  0
VERTEX
  8
0
 10
-0.2500
 20
0.1036
 30
0.0000
  0
VERTEX
  8
0
 10
-0.1036
 20
0.2500
 30
0.0000
  0
VERTEX
  8
0
 10
0.1036
 20
0.2500
 30
0.0000
  0
VERTEX
  8
0
 10
0.2500
 20
0.1036
 30
0.0000
  0
VERTEX
  8
0
 10
0.2500
 20
-0.1036
 30
0.0000
  0
VERTEX
  8
0
 10
0.1036
 20
-0.2500
 30
0.0000
  0
VERTEX
  8
0
 10
-0.1036
 20
-0.2500
 30
0.0000
  0
VERTEX
  8
0
 10
-0.2500
 20
-0.1036
 30
0.0000
  0
VERTEX
  8
0
 10
-0.2500
 20
0.1036
 30
0.0000
  0
SEQEND
  8
0
  0
ENDBLK
  8
0
  0
BLOCK
  8
0
  2
SQUAREP
 70
64
 10
0.0000
 20
0.0000
 30
0.0000
  3
SQUAREP
  0
SOLID
  8
0
 10
-0.5000
 20
-0.5000
 30
0.0000
 11
0.5000
 21
-0.5000
 31
0.0000
 12
-0.5000
 22
0.5000
 32
0.0000
 13
0.5000
 23
0.5000
 33
0.0000
  0
ENDBLK
  8
0
  0
BLOCK
  8
0
  2
ROUNDP
 70
64
 10
0.0000
 20
0.0000
 30
0.0000
  3
ROUNDP
  0
POLYLINE
  8
0
 66
1
 10
0.0000
 20
0.0000
 30
0.0000
 40
0.5000
 41
0.5000
 70
0
  0
VERTEX
  8
0
 10
0.0000
 20
-0.2500
 30
0.0000
 42
1.0000
  0
VERTEX
  8
0
 10
0.0000
 20
0.2500
 30
0.0000
 42
1.0000
  0
VERTEX
  8
0
 10
0.0000
 20
-0.2500
 30
0.0000
  0
SEQEND
  8
0
  0
ENDBLK
  8
0
  0
BLOCK
  8
0
  2
ANNULUSP
 70
64
 10
0.0000
 20
0.0000
 30
0.0000
  3
ANNULUSP
  0
POLYLINE
  8
0
 66
1
 10
0.0000
 20
0.0000
 30
0.0000
 40
0.5000
 41
0.5000
 70
0
  0
VERTEX
  8
0
 10
0.0000
 20
-0.2500
 30
0.0000
 42
1.0000
  0
VERTEX
  8
0
 10
0.0000
 20
0.2500
 30
0.0000
 42
1.0000
  0
VERTEX
  8
0
 10
0.0000
 20
-0.2500
 30
0.0000
  0
SEQEND
  8
0
  0
ENDBLK
  8
0
  0
BLOCK
  8
0
  2
THERMALP
 70
64
 10
0.0000
 20
0.0000
 30
0.0000
  3
THERMALP
  0
POLYLINE
  8
0
 66
1
 10
0.0000
 20
0.0000
 30
0.0000
 40
0.1000
 41
0.1000
 70
0
  0
VERTEX
  8
0
 10
-0.2379
 20
0.4500
 30
0.0000
  0
VERTEX
  8
0
 10
0.2379
 20
0.4500
 30
0.0000
  0
SEQEND
  8
0
  0
POLYLINE
  8
0
 66
1
 10
0.0000
 20
0.0000
 30
0.0000
 40
0.0500
 41
0.0500
 70
0
  0
VERTEX
  8
0
 10
0.2379
 20
0.4250
 30
0.0000
 42
1.0000
  0
VERTEX
  8
0
 10
0.2379
 20
0.4750
 30
0.0000
  0
SEQEND
  8
0
  0
POLYLINE
  8
0
 66
1
 10
0.0000
 20
0.0000
 30
0.0000
 40
0.0500
 41
0.0500
 70
0
  0
VERTEX
  8
0
 10
-0.2379
 20
0.4750
 30
0.0000
 42
1.0000
  0
VERTEX
  8
0
 10
-0.2379
 20
0.4250
 30
0.0000
  0
SEQEND
  8
0
  0
POLYLINE
  8
0
 66
1
 10
0.0000
 20
0.0000
 30
0.0000
 40
0.1000
 41
0.1000
 70
0
  0
VERTEX
  8
0
 10
0.4500
 20
0.2379
 30
0.0000
  0
VERTEX
  8
0
 10
0.4500
 20
-0.2379
 30
0.0000
  0
SEQEND
  8
0
  0
POLYLINE
  8
0
 66
1
 10
0.0000
 20
0.0000
 30
0.0000
 40
0.0500
 41
0.0500
 70
0
  0
VERTEX
  8
0
 10
0.4250
 20
-0.2379
 30
0.0000
 42
1.0000
  0
VERTEX
  8
0
 10
0.4750
 20
-0.2379
 30
0.0000
  0
SEQEND
  8
0
  0
POLYLINE
  8
0
 66
1
 10
0.0000
 20
0.0000
 30
0.0000
 40
0.0500
 41
0.0500
 70
0
  0
VERTEX
  8
0
 10
0.4750
 20
0.2379
 30
0.0000
 42
1.0000
  0
VERTEX
  8
0
 10
0.4250
 20
0.2379
 30
0.0000
  0
SEQEND
  8
0
  0
POLYLINE
  8
0
 66
1
 10
0.0000
 20
0.0000
 30
0.0000
 40
0.1000
 41
0.1000
 70
0
  0
VERTEX
  8
0
 10
0.2379
 20
-0.4500
 30
0.0000
  0
VERTEX
  8
0
 10
-0.2379
 20
-0.4500
 30
0.0000
  0
SEQEND
  8
0
  0
POLYLINE
  8
0
 66
1
 10
0.0000
 20
0.0000
 30
0.0000
 40
0.0500
 41
0.0500
 70
0
  0
VERTEX
  8
0
 10
-0.2379
 20
-0.4250
 30
0.0000
 42
1.0000
  0
VERTEX
  8
0
 10
-0.2379
 20
-0.4750
 30
0.0000
  0
SEQEND
  8
0
  0
POLYLINE
  8
0
 66
1
 10
0.0000
 20
0.0000
 30
0.0000
 40
0.0500
 41
0.0500
 70
0
  0
VERTEX
  8
0
 10
0.2379
 20
-0.4750
 30
0.0000
 42
1.0000
  0
VERTEX
  8
0
 10
0.2379
 20
-0.4250
 30
0.0000
  0
SEQEND
  8
0
  0
POLYLINE
  8
0
 66
1
 10
0.0000
 20
0.0000
 30
0.0000
 40
0.1000
 41
0.1000
 70
0
  0
VERTEX
  8
0
 10
-0.4500
 20
-0.2379
 30
0.0000
  0
VERTEX
  8
0
 10
-0.4500
 20
0.2379
 30
0.0000
  0
SEQEND
  8
0
  0
POLYLINE
  8
0
 66
1
 10
0.0000
 20
0.0000
 30
0.0000
 40
0.0500
 41
0.0500
 70
0
  0
VERTEX
  8
0
 10
-0.4250
 20
0.2379
 30
0.0000
 42
1.0000
  0
VERTEX
  8
0
 10
-0.4750
 20
0.2379
 30
0.0000
  0
SEQEND
  8
0
  0
POLYLINE
  8
0
 66
1
 10
0.0000
 20
0.0000
 30
0.0000
 40
0.0500
 41
0.0500
 70
0
  0
VERTEX
  8
0
 10
-0.4750
 20
-0.2379
 30
0.0000
 42
1.0000
  0
VERTEX
  8
0
 10
-0.4250
 20
-0.2379
 30
0.0000
  0
SEQEND
  8
0
  0
ENDBLK
  8
0
  0
BLOCK
  8
0
  2
OCTAGONV
 70
64
 10
0.0000
 20
0.0000
 30
0.0000
  3
OCTAGONV
  0
POLYLINE
  8
0
 66
1
 10
0.0000
 20
0.0000
 30
0.0000
 40
0.5000
 41
0.5000
 70
0
  0
VERTEX
  8
0
 10
-0.2500
 20
-0.1036
 30
0.0000
  0
VERTEX
  8
0
 10
-0.2500
 20
0.1036
 30
0.0000
  0
VERTEX
  8
0
 10
-0.1036
 20
0.2500
 30
0.0000
  0
VERTEX
  8
0
 10
0.1036
 20
0.2500
 30
0.0000
  0
VERTEX
  8
0
 10
0.2500
 20
0.1036
 30
0.0000
  0
VERTEX
  8
0
 10
0.2500
 20
-0.1036
 30
0.0000
  0
VERTEX
  8
0
 10
0.1036
 20
-0.2500
 30
0.0000
  0
VERTEX
  8
0
 10
-0.1036
 20
-0.2500
 30
0.0000
  0
VERTEX
  8
0
 10
-0.2500
 20
-0.1036
 30
0.0000
  0
VERTEX
  8
0
 10
-0.2500
 20
0.1036
 30
0.0000
  0
SEQEND
  8
0
  0
ENDBLK
  8
0
  0
BLOCK
  8
0
  2
SQUAREV
 70
64
 10
0.0000
 20
0.0000
 30
0.0000
  3
SQUAREV
  0
SOLID
  8
0
 10
-0.5000
 20
-0.5000
 30
0.0000
 11
0.5000
 21
-0.5000
 31
0.0000
 12
-0.5000
 22
0.5000
 32
0.0000
 13
0.5000
 23
0.5000
 33
0.0000
  0
ENDBLK
  8
0
  0
BLOCK
  8
0
  2
ROUNDV
 70
64
 10
0.0000
 20
0.0000
 30
0.0000
  3
ROUNDV
  0
POLYLINE
  8
0
 66
1
 10
0.0000
 20
0.0000
 30
0.0000
 40
0.5000
 41
0.5000
 70
0
  0
VERTEX
  8
0
 10
0.0000
 20
-0.2500
 30
0.0000
 42
1.0000
  0
VERTEX
  8
0
 10
0.0000
 20
0.2500
 30
0.0000
 42
1.0000
  0
VERTEX
  8
0
 10
0.0000
 20
-0.2500
 30
0.0000
  0
SEQEND
  8
0
  0
ENDBLK
  8
0
  0
BLOCK
  8
0
  2
ANNULUSV
 70
64
 10
0.0000
 20
0.0000
 30
0.0000
  3
ANNULUSV
  0
POLYLINE
  8
0
 66
1
 10
0.0000
 20
0.0000
 30
0.0000
 40
0.5000
 41
0.5000
 70
0
  0
VERTEX
  8
0
 10
0.0000
 20
-0.2500
 30
0.0000
 42
1.0000
  0
VERTEX
  8
0
 10
0.0000
 20
0.2500
 30
0.0000
 42
1.0000
  0
VERTEX
  8
0
 10
0.0000
 20
-0.2500
 30
0.0000
  0
SEQEND
  8
0
  0
ENDBLK
  8
0
  0
BLOCK
  8
0
  2
THERMALV
 70
64
 10
0.0000
 20
0.0000
 30
0.0000
  3
THERMALV
  0
POLYLINE
  8
0
 66
1
 10
0.0000
 20
0.0000
 30
0.0000
 40
0.1000
 41
0.1000
 70
0
  0
VERTEX
  8
0
 10
-0.2379
 20
0.4500
 30
0.0000
  0
VERTEX
  8
0
 10
0.2379
 20
0.4500
 30
0.0000
  0
SEQEND
  8
0
  0
POLYLINE
  8
0
 66
1
 10
0.0000
 20
0.0000
 30
0.0000
 40
0.0500
 41
0.0500
 70
0
  0
VERTEX
  8
0
 10
0.2379
 20
0.4250
 30
0.0000
 42
1.0000
  0
VERTEX
  8
0
 10
0.2379
 20
0.4750
 30
0.0000
  0
SEQEND
  8
0
  0
POLYLINE
  8
0
 66
1
 10
0.0000
 20
0.0000
 30
0.0000
 40
0.0500
 41
0.0500
 70
0
  0
VERTEX
  8
0
 10
-0.2379
 20
0.4750
 30
0.0000
 42
1.0000
  0
VERTEX
  8
0
 10
-0.2379
 20
0.4250
 30
0.0000
  0
SEQEND
  8
0
  0
POLYLINE
  8
0
 66
1
 10
0.0000
 20
0.0000
 30
0.0000
 40
0.1000
 41
0.1000
 70
0
  0
VERTEX
  8
0
 10
0.4500
 20
0.2379
 30
0.0000
  0
VERTEX
  8
0
 10
0.4500
 20
-0.2379
 30
0.0000
  0
SEQEND
  8
0
  0
POLYLINE
  8
0
 66
1
 10
0.0000
 20
0.0000
 30
0.0000
 40
0.0500
 41
0.0500
 70
0
  0
VERTEX
  8
0
 10
0.4250
 20
-0.2379
 30
0.0000
 42
1.0000
  0
VERTEX
  8
0
 10
0.4750
 20
-0.2379
 30
0.0000
  0
SEQEND
  8
0
  0
POLYLINE
  8
0
 66
1
 10
0.0000
 20
0.0000
 30
0.0000
 40
0.0500
 41
0.0500
 70
0
  0
VERTEX
  8
0
 10
0.4750
 20
0.2379
 30
0.0000
 42
1.0000
  0
VERTEX
  8
0
 10
0.4250
 20
0.2379
 30
0.0000
  0
SEQEND
  8
0
  0
POLYLINE
  8
0
 66
1
 10
0.0000
 20
0.0000
 30
0.0000
 40
0.1000
 41
0.1000
 70
0
  0
VERTEX
  8
0
 10
0.2379
 20
-0.4500
 30
0.0000
  0
VERTEX
  8
0
 10
-0.2379
 20
-0.4500
 30
0.0000
  0
SEQEND
  8
0
  0
POLYLINE
  8
0
 66
1
 10
0.0000
 20
0.0000
 30
0.0000
 40
0.0500
 41
0.0500
 70
0
  0
VERTEX
  8
0
 10
-0.2379
 20
-0.4250
 30
0.0000
 42
1.0000
  0
VERTEX
  8
0
 10
-0.2379
 20
-0.4750
 30
0.0000
  0
SEQEND
  8
0
  0
POLYLINE
  8
0
 66
1
 10
0.0000
 20
0.0000
 30
0.0000
 40
0.0500
 41
0.0500
 70
0
  0
VERTEX
  8
0
 10
0.2379
 20
-0.4750
 30
0.0000
 42
1.0000
  0
VERTEX
  8
0
 10
0.2379
 20
-0.4250
 30
0.0000
  0
SEQEND
  8
0
  0
POLYLINE
  8
0
 66
1
 10
0.0000
 20
0.0000
 30
0.0000
 40
0.1000
 41
0.1000
 70
0
  0
VERTEX
  8
0
 10
-0.4500
 20
-0.2379
 30
0.0000
  0
VERTEX
  8
0
 10
-0.4500
 20
0.2379
 30
0.0000
  0
SEQEND
  8
0
  0
POLYLINE
  8
0
 66
1
 10
0.0000
 20
0.0000
 30
0.0000
 40
0.0500
 41
0.0500
 70
0
  0
VERTEX
  8
0
 10
-0.4250
 20
0.2379
 30
0.0000
 42
1.0000
  0
VERTEX
  8
0
 10
-0.4750
 20
0.2379
 30
0.0000
  0
SEQEND
  8
0
  0
POLYLINE
  8
0
 66
1
 10
0.0000
 20
0.0000
 30
0.0000
 40
0.0500
 41
0.0500
 70
0
  0
VERTEX
  8
0
 10
-0.4750
 20
-0.2379
 30
0.0000
 42
1.0000
  0
VERTEX
  8
0
 10
-0.4250
 20
-0.2379
 30
0.0000
  0
SEQEND
  8
0
  0
ENDBLK
  8
0
  0
BLOCK
  8
0
  2
LONGP100
 70
64
 10
0.0000
 20
0.0000
 30
0.0000
  3
LONGP100
  0
POLYLINE
  8
0
 66
1
 10
0.0000
 20
0.0000
 30
0.0000
 40
1.0000
 41
1.0000
 70
0
  0
VERTEX
  8
0
 10
-0.5000
 20
0.0000
 30
0.0000
  0
VERTEX
  8
0
 10
0.5000
 20
0.0000
 30
0.0000
  0
SEQEND
  8
0
  0
POLYLINE
  8
0
 66
1
 10
0.0000
 20
0.0000
 30
0.0000
 40
0.5000
 41
0.5000
 70
0
  0
VERTEX
  8
0
 10
0.5000
 20
-0.2500
 30
0.0000
 42
1.0000
  0
VERTEX
  8
0
 10
0.5000
 20
0.2500
 30
0.0000
  0
SEQEND
  8
0
  0
POLYLINE
  8
0
 66
1
 10
0.0000
 20
0.0000
 30
0.0000
 40
0.5000
 41
0.5000
 70
0
  0
VERTEX
  8
0
 10
-0.5000
 20
0.2500
 30
0.0000
 42
1.0000
  0
VERTEX
  8
0
 10
-0.5000
 20
-0.2500
 30
0.0000
  0
SEQEND
  8
0
  0
ENDBLK
  8
0
  0
ENDSEC
  0
SECTION
  2
ENTITIES
  0
LINE
  8
20
 10
0.0000
 20
0.0000
 30
0.0000
 11
18.8285
 21
0.0393
 31
0.0000
  0
LINE
  8
20
 10
18.8285
 20
0.0393
 30
0.0000
 11
18.8109
 21
9.2366
 31
0.0000
  0
LINE
  8
20
 10
18.8109
 20
9.2366
 30
0.0000
 11
-0.0005
 21
9.2370
 31
0.0000
  0
LINE
  8
20
 10
-0.0005
 20
9.2370
 30
0.0000
 11
0.0000
 21
0.0000
 31
0.0000
  0
POINT
  8
23
 10
16.2508
 20
4.7980
 30
0.0000
  0
POLYLINE
  8
21
 66
1
 10
0.0000
 20
0.0000
 30
0.0000
 40
0.1524
 41
0.1524
 70
0
  0
VERTEX
  8
21
 10
14.7268
 20
5.4330
 30
0.0000
  0
VERTEX
  8
21
 10
14.7268
 20
4.1630
 30
0.0000
  0
SEQEND
  8
0
  0
POLYLINE
  8
21
 66
1
 10
0.0000
 20
0.0000
 30
0.0000
 40
0.0762
 41
0.0762
 70
0
  0
VERTEX
  8
21
 10
14.6887
 20
4.1630
 30
0.0000
 42
1.0000
  0
VERTEX
  8
21
 10
14.7649
 20
4.1630
 30
0.0000
  0
SEQEND
  8
0
  0
POLYLINE
  8
21
 66
1
 10
0.0000
 20
0.0000
 30
0.0000
 40
0.0762
 41
0.0762
 70
0
  0
VERTEX
  8
21
 10
14.7649
 20
5.4330
 30
0.0000
 42
1.0000
  0
VERTEX
  8
21
 10
14.6887
 20
5.4330
 30
0.0000
  0
SEQEND
  8
0
  0
POLYLINE
  8
21
 66
1
 10
0.0000
 20
0.0000
 30
0.0000
 40
0.1524
 41
0.1524
 70
0
  0
VERTEX
  8
21
 10
16.8858
 20
3.2740
 30
0.0000
  0
VERTEX
  8
21
 10
17.7748
 20
4.1630
 30
0.0000
  0
SEQEND
  8
0
  0
POLYLINE
  8
21
 66
1
 10
0.0000
 20
0.0000
 30
0.0000
 40
0.0762
 41
0.0762
 70
0
  0
VERTEX
  8
21
 10
17.8017
 20
4.1361
 30
0.0000
 42
1.0000
  0
VERTEX
  8
21
 10
17.7479
 20
4.1899
 30
0.0000
  0
SEQEND
  8
0
  0
POLYLINE
  8
21
 66
1
 10
0.0000
 20
0.0000
 30
0.0000
 40
0.0762
 41
0.0762
 70
0
  0
VERTEX
  8
21
 10
16.8589
 20
3.3009
 30
0.0000
 42
1.0000
  0
VERTEX
  8
21
 10
16.9127
 20
3.2471
 30
0.0000
  0
SEQEND
  8
0
  0
POLYLINE
  8
21
 66
1
 10
0.0000
 20
0.0000
 30
0.0000
 40
0.1524
 41
0.1524
 70
0
  0
VERTEX
  8
21
 10
16.8858
 20
6.3220
 30
0.0000
  0
VERTEX
  8
21
 10
17.7748
 20
5.4330
 30
0.0000
  0
SEQEND
  8
0
  0
POLYLINE
  8
21
 66
1
 10
0.0000
 20
0.0000
 30
0.0000
 40
0.0762
 41
0.0762
 70
0
  0
VERTEX
  8
21
 10
17.7479
 20
5.4061
 30
0.0000
 42
1.0000
  0
VERTEX
  8
21
 10
17.8017
 20
5.4599
 30
0.0000
  0
SEQEND
  8
0
  0
POLYLINE
  8
21
 66
1
 10
0.0000
 20
0.0000
 30
0.0000
 40
0.0762
 41
0.0762
 70
0
  0
VERTEX
  8
21
 10
16.9127
 20
6.3489
 30
0.0000
 42
1.0000
  0
VERTEX
  8
21
 10
16.8589
 20
6.2951
 30
0.0000
  0
SEQEND
  8
0
  0
POLYLINE
  8
21
 66
1
 10
0.0000
 20
0.0000
 30
0.0000
 40
0.1524
 41
0.1524
 70
0
  0
VERTEX
  8
21
 10
17.7748
 20
5.4330
 30
0.0000
  0
VERTEX
  8
21
 10
17.7748
 20
4.1630
 30
0.0000
  0
SEQEND
  8
0
  0
POLYLINE
  8
21
 66
1
 10
0.0000
 20
0.0000
 30
0.0000
 40
0.0762
 41
0.0762
 70
0
  0
VERTEX
  8
21
 10
17.7367
 20
4.1630
 30
0.0000
 42
1.0000
  0
VERTEX
  8
21
 10
17.8129
 20
4.1630
 30
0.0000
  0
SEQEND
  8
0
  0
POLYLINE
  8
21
 66
1
 10
0.0000
 20
0.0000
 30
0.0000
 40
0.0762
 41
0.0762
 70
0
  0
VERTEX
  8
21
 10
17.8129
 20
5.4330
 30
0.0000
 42
1.0000
  0
VERTEX
  8
21
 10
17.7367
 20
5.4330
 30
0.0000
  0
SEQEND
  8
0
  0
POLYLINE
  8
21
 66
1
 10
0.0000
 20
0.0000
 30
0.0000
 40
0.1524
 41
0.1524
 70
0
  0
VERTEX
  8
21
 10
14.7268
 20
5.4330
 30
0.0000
  0
VERTEX
  8
21
 10
15.6158
 20
6.3220
 30
0.0000
  0
SEQEND
  8
0
  0
POLYLINE
  8
21
 66
1
 10
0.0000
 20
0.0000
 30
0.0000
 40
0.0762
 41
0.0762
 70
0
  0
VERTEX
  8
21
 10
15.6427
 20
6.2951
 30
0.0000
 42
1.0000
  0
VERTEX
  8
21
 10
15.5889
 20
6.3489
 30
0.0000
  0
SEQEND
  8
0
  0
POLYLINE
  8
21
 66
1
 10
0.0000
 20
0.0000
 30
0.0000
 40
0.0762
 41
0.0762
 70
0
  0
VERTEX
  8
21
 10
14.6999
 20
5.4599
 30
0.0000
 42
1.0000
  0
VERTEX
  8
21
 10
14.7537
 20
5.4061
 30
0.0000
  0
SEQEND
  8
0
  0
POLYLINE
  8
21
 66
1
 10
0.0000
 20
0.0000
 30
0.0000
 40
0.1524
 41
0.1524
 70
0
  0
VERTEX
  8
21
 10
15.6158
 20
6.3220
 30
0.0000
  0
VERTEX
  8
21
 10
16.8858
 20
6.3220
 30
0.0000
  0
SEQEND
  8
0
  0
POLYLINE
  8
21
 66
1
 10
0.0000
 20
0.0000
 30
0.0000
 40
0.0762
 41
0.0762
 70
0
  0
VERTEX
  8
21
 10
16.8858
 20
6.2839
 30
0.0000
 42
1.0000
  0
VERTEX
  8
21
 10
16.8858
 20
6.3601
 30
0.0000
  0
SEQEND
  8
0
  0
POLYLINE
  8
21
 66
1
 10
0.0000
 20
0.0000
 30
0.0000
 40
0.0762
 41
0.0762
 70
0
  0
VERTEX
  8
21
 10
15.6158
 20
6.3601
 30
0.0000
 42
1.0000
  0
VERTEX
  8
21
 10
15.6158
 20
6.2839
 30
0.0000
  0
SEQEND
  8
0
  0
POLYLINE
  8
21
 66
1
 10
0.0000
 20
0.0000
 30
0.0000
 40
0.1524
 41
0.1524
 70
0
  0
VERTEX
  8
21
 10
15.6158
 20
3.2740
 30
0.0000
  0
VERTEX
  8
21
 10
14.7268
 20
4.1630
 30
0.0000
  0
SEQEND
  8
0
  0
POLYLINE
  8
21
 66
1
 10
0.0000
 20
0.0000
 30
0.0000
 40
0.0762
 41
0.0762
 70
0
  0
VERTEX
  8
21
 10
14.7537
 20
4.1899
 30
0.0000
 42
1.0000
  0
VERTEX
  8
21
 10
14.6999
 20
4.1361
 30
0.0000
  0
SEQEND
  8
0
  0
POLYLINE
  8
21
 66
1
 10
0.0000
 20
0.0000
 30
0.0000
 40
0.0762
 41
0.0762
 70
0
  0
VERTEX
  8
21
 10
15.5889
 20
3.2471
 30
0.0000
 42
1.0000
  0
VERTEX
  8
21
 10
15.6427
 20
3.3009
 30
0.0000
  0
SEQEND
  8
0
  0
POLYLINE
  8
21
 66
1
 10
0.0000
 20
0.0000
 30
0.0000
 40
0.1524
 41
0.1524
 70
0
  0
VERTEX
  8
21
 10
16.8858
 20
3.2740
 30
0.0000
  0
VERTEX
  8
21
 10
15.6158
 20
3.2740
 30
0.0000
  0
SEQEND
  8
0
  0
POLYLINE
  8
21
 66
1
 10
0.0000
 20
0.0000
 30
0.0000
 40
0.0762
 41
0.0762
 70
0
  0
VERTEX
  8
21
 10
15.6158
 20
3.3121
 30
0.0000
 42
1.0000
  0
VERTEX
  8
21
 10
15.6158
 20
3.2359
 30
0.0000
  0
SEQEND
  8
0
  0
POLYLINE
  8
21
 66
1
 10
0.0000
 20
0.0000
 30
0.0000
 40
0.0762
 41
0.0762
 70
0
  0
VERTEX
  8
21
 10
16.8858
 20
3.2359
 30
0.0000
 42
1.0000
  0
VERTEX
  8
21
 10
16.8858
 20
3.3121
 30
0.0000
  0
SEQEND
  8
0
  0
POLYLINE
  8
51
 66
1
 10
0.0000
 20
0.0000
 30
0.0000
 40
0.1524
 41
0.1524
 70
0
  0
VERTEX
  8
51
 10
16.2508
 20
4.0360
 30
0.0000
 42
1.0000
  0
VERTEX
  8
51
 10
16.2508
 20
5.5600
 30
0.0000
 42
1.0000
  0
VERTEX
  8
51
 10
16.2508
 20
4.0360
 30
0.0000
  0
SEQEND
  8
0
  0
POLYLINE
  8
51
 66
1
 10
0.0000
 20
0.0000
 30
0.0000
 40
0.2540
 41
0.2540
 70
0
  0
VERTEX
  8
51
 10
16.2508
 20
4.4170
 30
0.0000
 42
1.0000
  0
VERTEX
  8
51
 10
16.2508
 20
5.1790
 30
0.0000
 42
1.0000
  0
VERTEX
  8
51
 10
16.2508
 20
4.4170
 30
0.0000
  0
SEQEND
  8
0
  0
INSERT
  8
17
  2
OCTAGONP
 10
16.2508
 20
4.7980
 30
0.0000
 41
2.5400
 42
2.5400
 43
1.0000
 50
0.0000
  0
INSERT
  8
17
  2
OCTAGONP
 10
16.2508
 20
4.7980
 30
0.0000
 41
2.5400
 42
2.5400
 43
1.0000
 50
0.0000
  0
POINT
  8
23
 10
2.4862
 20
4.8270
 30
0.0000
  0
POLYLINE
  8
21
 66
1
 10
0.0000
 20
0.0000
 30
0.0000
 40
0.1524
 41
0.1524
 70
0
  0
VERTEX
  8
21
 10
0.9622
 20
5.4620
 30
0.0000
  0
VERTEX
  8
21
 10
0.9622
 20
4.1920
 30
0.0000
  0
SEQEND
  8
0
  0
POLYLINE
  8
21
 66
1
 10
0.0000
 20
0.0000
 30
0.0000
 40
0.0762
 41
0.0762
 70
0
  0
VERTEX
  8
21
 10
0.9241
 20
4.1920
 30
0.0000
 42
1.0000
  0
VERTEX
  8
21
 10
1.0003
 20
4.1920
 30
0.0000
  0
SEQEND
  8
0
  0
POLYLINE
  8
21
 66
1
 10
0.0000
 20
0.0000
 30
0.0000
 40
0.0762
 41
0.0762
 70
0
  0
VERTEX
  8
21
 10
1.0003
 20
5.4620
 30
0.0000
 42
1.0000
  0
VERTEX
  8
21
 10
0.9241
 20
5.4620
 30
0.0000
  0
SEQEND
  8
0
  0
POLYLINE
  8
21
 66
1
 10
0.0000
 20
0.0000
 30
0.0000
 40
0.1524
 41
0.1524
 70
0
  0
VERTEX
  8
21
 10
3.1212
 20
3.3030
 30
0.0000
  0
VERTEX
  8
21
 10
4.0102
 20
4.1920
 30
0.0000
  0
SEQEND
  8
0
  0
POLYLINE
  8
21
 66
1
 10
0.0000
 20
0.0000
 30
0.0000
 40
0.0762
 41
0.0762
 70
0
  0
VERTEX
  8
21
 10
4.0371
 20
4.1651
 30
0.0000
 42
1.0000
  0
VERTEX
  8
21
 10
3.9833
 20
4.2190
 30
0.0000
  0
SEQEND
  8
0
  0
POLYLINE
  8
21
 66
1
 10
0.0000
 20
0.0000
 30
0.0000
 40
0.0762
 41
0.0762
 70
0
  0
VERTEX
  8
21
 10
3.0943
 20
3.3300
 30
0.0000
 42
1.0000
  0
VERTEX
  8
21
 10
3.1481
 20
3.2761
 30
0.0000
  0
SEQEND
  8
0
  0
POLYLINE
  8
21
 66
1
 10
0.0000
 20
0.0000
 30
0.0000
 40
0.1524
 41
0.1524
 70
0
  0
VERTEX
  8
21
 10
3.1212
 20
6.3510
 30
0.0000
  0
VERTEX
  8
21
 10
4.0102
 20
5.4620
 30
0.0000
  0
SEQEND
  8
0
  0
POLYLINE
  8
21
 66
1
 10
0.0000
 20
0.0000
 30
0.0000
 40
0.0762
 41
0.0762
 70
0
  0
VERTEX
  8
21
 10
3.9833
 20
5.4351
 30
0.0000
 42
1.0000
  0
VERTEX
  8
21
 10
4.0371
 20
5.4890
 30
0.0000
  0
SEQEND
  8
0
  0
POLYLINE
  8
21
 66
1
 10
0.0000
 20
0.0000
 30
0.0000
 40
0.0762
 41
0.0762
 70
0
  0
VERTEX
  8
21
 10
3.1481
 20
6.3780
 30
0.0000
 42
1.0000
  0
VERTEX
  8
21
 10
3.0943
 20
6.3241
 30
0.0000
  0
SEQEND
  8
0
  0
POLYLINE
  8
21
 66
1
 10
0.0000
 20
0.0000
 30
0.0000
 40
0.1524
 41
0.1524
 70
0
  0
VERTEX
  8
21
 10
4.0102
 20
5.4620
 30
0.0000
  0
VERTEX
  8
21
 10
4.0102
 20
4.1920
 30
0.0000
  0
SEQEND
  8
0
  0
POLYLINE
  8
21
 66
1
 10
0.0000
 20
0.0000
 30
0.0000
 40
0.0762
 41
0.0762
 70
0
  0
VERTEX
  8
21
 10
3.9721
 20
4.1920
 30
0.0000
 42
1.0000
  0
VERTEX
  8
21
 10
4.0483
 20
4.1920
 30
0.0000
  0
SEQEND
  8
0
  0
POLYLINE
  8
21
 66
1
 10
0.0000
 20
0.0000
 30
0.0000
 40
0.0762
 41
0.0762
 70
0
  0
VERTEX
  8
21
 10
4.0483
 20
5.4620
 30
0.0000
 42
1.0000
  0
VERTEX
  8
21
 10
3.9721
 20
5.4620
 30
0.0000
  0
SEQEND
  8
0
  0
POLYLINE
  8
21
 66
1
 10
0.0000
 20
0.0000
 30
0.0000
 40
0.1524
 41
0.1524
 70
0
  0
VERTEX
  8
21
 10
0.9622
 20
5.4620
 30
0.0000
  0
VERTEX
  8
21
 10
1.8512
 20
6.3510
 30
0.0000
  0
SEQEND
  8
0
  0
POLYLINE
  8
21
 66
1
 10
0.0000
 20
0.0000
 30
0.0000
 40
0.0762
 41
0.0762
 70
0
  0
VERTEX
  8
21
 10
1.8781
 20
6.3241
 30
0.0000
 42
1.0000
  0
VERTEX
  8
21
 10
1.8243
 20
6.3780
 30
0.0000
  0
SEQEND
  8
0
  0
POLYLINE
  8
21
 66
1
 10
0.0000
 20
0.0000
 30
0.0000
 40
0.0762
 41
0.0762
 70
0
  0
VERTEX
  8
21
 10
0.9353
 20
5.4890
 30
0.0000
 42
1.0000
  0
VERTEX
  8
21
 10
0.9891
 20
5.4351
 30
0.0000
  0
SEQEND
  8
0
  0
POLYLINE
  8
21
 66
1
 10
0.0000
 20
0.0000
 30
0.0000
 40
0.1524
 41
0.1524
 70
0
  0
VERTEX
  8
21
 10
1.8512
 20
6.3510
 30
0.0000
  0
VERTEX
  8
21
 10
3.1212
 20
6.3510
 30
0.0000
  0
SEQEND
  8
0
  0
POLYLINE
  8
21
 66
1
 10
0.0000
 20
0.0000
 30
0.0000
 40
0.0762
 41
0.0762
 70
0
  0
VERTEX
  8
21
 10
3.1212
 20
6.3129
 30
0.0000
 42
1.0000
  0
VERTEX
  8
21
 10
3.1212
 20
6.3891
 30
0.0000
  0
SEQEND
  8
0
  0
POLYLINE
  8
21
 66
1
 10
0.0000
 20
0.0000
 30
0.0000
 40
0.0762
 41
0.0762
 70
0
  0
VERTEX
  8
21
 10
1.8512
 20
6.3891
 30
0.0000
 42
1.0000
  0
VERTEX
  8
21
 10
1.8512
 20
6.3129
 30
0.0000
  0
SEQEND
  8
0
  0
POLYLINE
  8
21
 66
1
 10
0.0000
 20
0.0000
 30
0.0000
 40
0.1524
 41
0.1524
 70
0
  0
VERTEX
  8
21
 10
1.8512
 20
3.3030
 30
0.0000
  0
VERTEX
  8
21
 10
0.9622
 20
4.1920
 30
0.0000
  0
SEQEND
  8
0
  0
POLYLINE
  8
21
 66
1
 10
0.0000
 20
0.0000
 30
0.0000
 40
0.0762
 41
0.0762
 70
0
  0
VERTEX
  8
21
 10
0.9891
 20
4.2190
 30
0.0000
 42
1.0000
  0
VERTEX
  8
21
 10
0.9353
 20
4.1651
 30
0.0000
  0
SEQEND
  8
0
  0
POLYLINE
  8
21
 66
1
 10
0.0000
 20
0.0000
 30
0.0000
 40
0.0762
 41
0.0762
 70
0
  0
VERTEX
  8
21
 10
1.8243
 20
3.2761
 30
0.0000
 42
1.0000
  0
VERTEX
  8
21
 10
1.8781
 20
3.3300
 30
0.0000
  0
SEQEND
  8
0
  0
POLYLINE
  8
21
 66
1
 10
0.0000
 20
0.0000
 30
0.0000
 40
0.1524
 41
0.1524
 70
0
  0
VERTEX
  8
21
 10
3.1212
 20
3.3030
 30
0.0000
  0
VERTEX
  8
21
 10
1.8512
 20
3.3030
 30
0.0000
  0
SEQEND
  8
0
  0
POLYLINE
  8
21
 66
1
 10
0.0000
 20
0.0000
 30
0.0000
 40
0.0762
 41
0.0762
 70
0
  0
VERTEX
  8
21
 10
1.8512
 20
3.3411
 30
0.0000
 42
1.0000
  0
VERTEX
  8
21
 10
1.8512
 20
3.2649
 30
0.0000
  0
SEQEND
  8
0
  0
POLYLINE
  8
21
 66
1
 10
0.0000
 20
0.0000
 30
0.0000
 40
0.0762
 41
0.0762
 70
0
  0
VERTEX
  8
21
 10
3.1212
 20
3.2649
 30
0.0000
 42
1.0000
  0
VERTEX
  8
21
 10
3.1212
 20
3.3411
 30
0.0000
  0
SEQEND
  8
0
  0
POLYLINE
  8
51
 66
1
 10
0.0000
 20
0.0000
 30
0.0000
 40
0.1524
 41
0.1524
 70
0
  0
VERTEX
  8
51
 10
2.4862
 20
4.0650
 30
0.0000
 42
1.0000
  0
VERTEX
  8
51
 10
2.4862
 20
5.5890
 30
0.0000
 42
1.0000
  0
VERTEX
  8
51
 10
2.4862
 20
4.0650
 30
0.0000
  0
SEQEND
  8
0
  0
POLYLINE
  8
51
 66
1
 10
0.0000
 20
0.0000
 30
0.0000
 40
0.2540
 41
0.2540
 70
0
  0
VERTEX
  8
51
 10
2.4862
 20
4.4460
 30
0.0000
 42
1.0000
  0
VERTEX
  8
51
 10
2.4862
 20
5.2080
 30
0.0000
 42
1.0000
  0
VERTEX
  8
51
 10
2.4862
 20
4.4460
 30
0.0000
  0
SEQEND
  8
0
  0
INSERT
  8
17
  2
OCTAGONP
 10
2.4862
 20
4.8270
 30
0.0000
 41
2.5400
 42
2.5400
 43
1.0000
 50
0.0000
  0
INSERT
  8
17
  2
OCTAGONP
 10
2.4862
 20
4.8270
 30
0.0000
 41
2.5400
 42
2.5400
 43
1.0000
 50
0.0000
  0
POINT
  8
23
 10
9.5648
 20
4.8033
 30
0.0000
  0
POLYLINE
  8
21
 66
1
 10
0.0000
 20
0.0000
 30
0.0000
 40
0.1524
 41
0.1524
 70
0
  0
VERTEX
  8
21
 10
12.8668
 20
4.0413
 30
0.0000
  0
VERTEX
  8
21
 10
12.6128
 20
4.0413
 30
0.0000
  0
SEQEND
  8
0
  0
POLYLINE
  8
21
 66
1
 10
0.0000
 20
0.0000
 30
0.0000
 40
0.0762
 41
0.0762
 70
0
  0
VERTEX
  8
21
 10
12.6128
 20
4.0794
 30
0.0000
 42
1.0000
  0
VERTEX
  8
21
 10
12.6128
 20
4.0032
 30
0.0000
  0
SEQEND
  8
0
  0
POLYLINE
  8
21
 66
1
 10
0.0000
 20
0.0000
 30
0.0000
 40
0.0762
 41
0.0762
 70
0
  0
VERTEX
  8
21
 10
12.8668
 20
4.0032
 30
0.0000
 42
1.0000
  0
VERTEX
  8
21
 10
12.8668
 20
4.0794
 30
0.0000
  0
SEQEND
  8
0
  0
POLYLINE
  8
21
 66
1
 10
0.0000
 20
0.0000
 30
0.0000
 40
0.1524
 41
0.1524
 70
0
  0
VERTEX
  8
21
 10
12.8668
 20
4.0413
 30
0.0000
  0
VERTEX
  8
21
 10
12.8668
 20
5.5653
 30
0.0000
  0
SEQEND
  8
0
  0
POLYLINE
  8
21
 66
1
 10
0.0000
 20
0.0000
 30
0.0000
 40
0.0762
 41
0.0762
 70
0
  0
VERTEX
  8
21
 10
12.9049
 20
5.5653
 30
0.0000
 42
1.0000
  0
VERTEX
  8
21
 10
12.8287
 20
5.5653
 30
0.0000
  0
SEQEND
  8
0
  0
POLYLINE
  8
21
 66
1
 10
0.0000
 20
0.0000
 30
0.0000
 40
0.0762
 41
0.0762
 70
0
  0
VERTEX
  8
21
 10
12.8287
 20
4.0413
 30
0.0000
 42
1.0000
  0
VERTEX
  8
21
 10
12.9049
 20
4.0413
 30
0.0000
  0
SEQEND
  8
0
  0
POLYLINE
  8
21
 66
1
 10
0.0000
 20
0.0000
 30
0.0000
 40
0.1524
 41
0.1524
 70
0
  0
VERTEX
  8
21
 10
12.6128
 20
5.5653
 30
0.0000
  0
VERTEX
  8
21
 10
12.8668
 20
5.5653
 30
0.0000
  0
SEQEND
  8
0
  0
POLYLINE
  8
21
 66
1
 10
0.0000
 20
0.0000
 30
0.0000
 40
0.0762
 41
0.0762
 70
0
  0
VERTEX
  8
21
 10
12.8668
 20
5.5272
 30
0.0000
 42
1.0000
  0
VERTEX
  8
21
 10
12.8668
 20
5.6034
 30
0.0000
  0
SEQEND
  8
0
  0
POLYLINE
  8
21
 66
1
 10
0.0000
 20
0.0000
 30
0.0000
 40
0.0762
 41
0.0762
 70
0
  0
VERTEX
  8
21
 10
12.6128
 20
5.6034
 30
0.0000
 42
1.0000
  0
VERTEX
  8
21
 10
12.6128
 20
5.5272
 30
0.0000
  0
SEQEND
  8
0
  0
POLYLINE
  8
51
 66
1
 10
0.0000
 20
0.0000
 30
0.0000
 40
0.1524
 41
0.1524
 70
0
  0
VERTEX
  8
51
 10
12.6128
 20
5.8193
 30
0.0000
  0
VERTEX
  8
51
 10
12.6128
 20
7.3433
 30
0.0000
  0
SEQEND
  8
0
  0
POLYLINE
  8
51
 66
1
 10
0.0000
 20
0.0000
 30
0.0000
 40
0.0762
 41
0.0762
 70
0
  0
VERTEX
  8
51
 10
12.6509
 20
7.3433
 30
0.0000
 42
1.0000
  0
VERTEX
  8
51
 10
12.5747
 20
7.3433
 30
0.0000
  0
SEQEND
  8
0
  0
POLYLINE
  8
51
 66
1
 10
0.0000
 20
0.0000
 30
0.0000
 40
0.0762
 41
0.0762
 70
0
  0
VERTEX
  8
51
 10
12.5747
 20
5.8193
 30
0.0000
 42
1.0000
  0
VERTEX
  8
51
 10
12.6509
 20
5.8193
 30
0.0000
  0
SEQEND
  8
0
  0
POLYLINE
  8
21
 66
1
 10
0.0000
 20
0.0000
 30
0.0000
 40
0.1524
 41
0.1524
 70
0
  0
VERTEX
  8
21
 10
6.2628
 20
5.5653
 30
0.0000
  0
VERTEX
  8
21
 10
6.5168
 20
5.5653
 30
0.0000
  0
SEQEND
  8
0
  0
POLYLINE
  8
21
 66
1
 10
0.0000
 20
0.0000
 30
0.0000
 40
0.0762
 41
0.0762
 70
0
  0
VERTEX
  8
21
 10
6.5168
 20
5.5272
 30
0.0000
 42
1.0000
  0
VERTEX
  8
21
 10
6.5168
 20
5.6034
 30
0.0000
  0
SEQEND
  8
0
  0
POLYLINE
  8
21
 66
1
 10
0.0000
 20
0.0000
 30
0.0000
 40
0.0762
 41
0.0762
 70
0
  0
VERTEX
  8
21
 10
6.2628
 20
5.6034
 30
0.0000
 42
1.0000
  0
VERTEX
  8
21
 10
6.2628
 20
5.5272
 30
0.0000
  0
SEQEND
  8
0
  0
POLYLINE
  8
21
 66
1
 10
0.0000
 20
0.0000
 30
0.0000
 40
0.1524
 41
0.1524
 70
0
  0
VERTEX
  8
21
 10
6.2628
 20
5.5653
 30
0.0000
  0
VERTEX
  8
21
 10
6.2628
 20
4.0413
 30
0.0000
  0
SEQEND
  8
0
  0
POLYLINE
  8
21
 66
1
 10
0.0000
 20
0.0000
 30
0.0000
 40
0.0762
 41
0.0762
 70
0
  0
VERTEX
  8
21
 10
6.2247
 20
4.0413
 30
0.0000
 42
1.0000
  0
VERTEX
  8
21
 10
6.3009
 20
4.0413
 30
0.0000
  0
SEQEND
  8
0
  0
POLYLINE
  8
21
 66
1
 10
0.0000
 20
0.0000
 30
0.0000
 40
0.0762
 41
0.0762
 70
0
  0
VERTEX
  8
21
 10
6.3009
 20
5.5653
 30
0.0000
 42
1.0000
  0
VERTEX
  8
21
 10
6.2247
 20
5.5653
 30
0.0000
  0
SEQEND
  8
0
  0
POLYLINE
  8
21
 66
1
 10
0.0000
 20
0.0000
 30
0.0000
 40
0.1524
 41
0.1524
 70
0
  0
VERTEX
  8
21
 10
6.5168
 20
4.0413
 30
0.0000
  0
VERTEX
  8
21
 10
6.2628
 20
4.0413
 30
0.0000
  0
SEQEND
  8
0
  0
POLYLINE
  8
21
 66
1
 10
0.0000
 20
0.0000
 30
0.0000
 40
0.0762
 41
0.0762
 70
0
  0
VERTEX
  8
21
 10
6.2628
 20
4.0794
 30
0.0000
 42
1.0000
  0
VERTEX
  8
21
 10
6.2628
 20
4.0032
 30
0.0000
  0
SEQEND
  8
0
  0
POLYLINE
  8
21
 66
1
 10
0.0000
 20
0.0000
 30
0.0000
 40
0.0762
 41
0.0762
 70
0
  0
VERTEX
  8
21
 10
6.5168
 20
4.0032
 30
0.0000
 42
1.0000
  0
VERTEX
  8
21
 10
6.5168
 20
4.0794
 30
0.0000
  0
SEQEND
  8
0
  0
POLYLINE
  8
51
 66
1
 10
0.0000
 20
0.0000
 30
0.0000
 40
0.1524
 41
0.1524
 70
0
  0
VERTEX
  8
51
 10
12.6128
 20
7.3433
 30
0.0000
  0
VERTEX
  8
51
 10
12.1048
 20
7.8513
 30
0.0000
  0
SEQEND
  8
0
  0
POLYLINE
  8
51
 66
1
 10
0.0000
 20
0.0000
 30
0.0000
 40
0.0762
 41
0.0762
 70
0
  0
VERTEX
  8
51
 10
12.1317
 20
7.8783
 30
0.0000
 42
1.0000
  0
VERTEX
  8
51
 10
12.0778
 20
7.8244
 30
0.0000
  0
SEQEND
  8
0
  0
POLYLINE
  8
51
 66
1
 10
0.0000
 20
0.0000
 30
0.0000
 40
0.0762
 41
0.0762
 70
0
  0
VERTEX
  8
51
 10
12.5858
 20
7.3164
 30
0.0000
 42
1.0000
  0
VERTEX
  8
51
 10
12.6397
 20
7.3703
 30
0.0000
  0
SEQEND
  8
0
  0
POLYLINE
  8
51
 66
1
 10
0.0000
 20
0.0000
 30
0.0000
 40
0.1524
 41
0.1524
 70
0
  0
VERTEX
  8
51
 10
12.1048
 20
1.7553
 30
0.0000
  0
VERTEX
  8
51
 10
12.6128
 20
2.2633
 30
0.0000
  0
SEQEND
  8
0
  0
POLYLINE
  8
51
 66
1
 10
0.0000
 20
0.0000
 30
0.0000
 40
0.0762
 41
0.0762
 70
0
  0
VERTEX
  8
51
 10
12.6397
 20
2.2364
 30
0.0000
 42
1.0000
  0
VERTEX
  8
51
 10
12.5858
 20
2.2903
 30
0.0000
  0
SEQEND
  8
0
  0
POLYLINE
  8
51
 66
1
 10
0.0000
 20
0.0000
 30
0.0000
 40
0.0762
 41
0.0762
 70
0
  0
VERTEX
  8
51
 10
12.0778
 20
1.7823
 30
0.0000
 42
1.0000
  0
VERTEX
  8
51
 10
12.1317
 20
1.7284
 30
0.0000
  0
SEQEND
  8
0
  0
POLYLINE
  8
51
 66
1
 10
0.0000
 20
0.0000
 30
0.0000
 40
0.1524
 41
0.1524
 70
0
  0
VERTEX
  8
51
 10
12.6128
 20
2.2633
 30
0.0000
  0
VERTEX
  8
51
 10
12.6128
 20
3.7873
 30
0.0000
  0
SEQEND
  8
0
  0
POLYLINE
  8
51
 66
1
 10
0.0000
 20
0.0000
 30
0.0000
 40
0.0762
 41
0.0762
 70
0
  0
VERTEX
  8
51
 10
12.6509
 20
3.7873
 30
0.0000
 42
1.0000
  0
VERTEX
  8
51
 10
12.5747
 20
3.7873
 30
0.0000
  0
SEQEND
  8
0
  0
POLYLINE
  8
51
 66
1
 10
0.0000
 20
0.0000
 30
0.0000
 40
0.0762
 41
0.0762
 70
0
  0
VERTEX
  8
51
 10
12.5747
 20
2.2633
 30
0.0000
 42
1.0000
  0
VERTEX
  8
51
 10
12.6509
 20
2.2633
 30
0.0000
  0
SEQEND
  8
0
  0
POLYLINE
  8
51
 66
1
 10
0.0000
 20
0.0000
 30
0.0000
 40
0.1524
 41
0.1524
 70
0
  0
VERTEX
  8
51
 10
7.0248
 20
7.8513
 30
0.0000
  0
VERTEX
  8
51
 10
6.5168
 20
7.3433
 30
0.0000
  0
SEQEND
  8
0
  0
POLYLINE
  8
51
 66
1
 10
0.0000
 20
0.0000
 30
0.0000
 40
0.0762
 41
0.0762
 70
0
  0
VERTEX
  8
51
 10
6.4898
 20
7.3703
 30
0.0000
 42
1.0000
  0
VERTEX
  8
51
 10
6.5437
 20
7.3164
 30
0.0000
  0
SEQEND
  8
0
  0
POLYLINE
  8
51
 66
1
 10
0.0000
 20
0.0000
 30
0.0000
 40
0.0762
 41
0.0762
 70
0
  0
VERTEX
  8
51
 10
7.0517
 20
7.8244
 30
0.0000
 42
1.0000
  0
VERTEX
  8
51
 10
6.9978
 20
7.8783
 30
0.0000
  0
SEQEND
  8
0
  0
POLYLINE
  8
51
 66
1
 10
0.0000
 20
0.0000
 30
0.0000
 40
0.1524
 41
0.1524
 70
0
  0
VERTEX
  8
51
 10
6.5168
 20
7.3433
 30
0.0000
  0
VERTEX
  8
51
 10
6.5168
 20
5.8193
 30
0.0000
  0
SEQEND
  8
0
  0
POLYLINE
  8
51
 66
1
 10
0.0000
 20
0.0000
 30
0.0000
 40
0.0762
 41
0.0762
 70
0
  0
VERTEX
  8
51
 10
6.4787
 20
5.8193
 30
0.0000
 42
1.0000
  0
VERTEX
  8
51
 10
6.5549
 20
5.8193
 30
0.0000
  0
SEQEND
  8
0
  0
POLYLINE
  8
51
 66
1
 10
0.0000
 20
0.0000
 30
0.0000
 40
0.0762
 41
0.0762
 70
0
  0
VERTEX
  8
51
 10
6.5549
 20
7.3433
 30
0.0000
 42
1.0000
  0
VERTEX
  8
51
 10
6.4787
 20
7.3433
 30
0.0000
  0
SEQEND
  8
0
  0
POLYLINE
  8
51
 66
1
 10
0.0000
 20
0.0000
 30
0.0000
 40
0.1524
 41
0.1524
 70
0
  0
VERTEX
  8
51
 10
7.0248
 20
1.7553
 30
0.0000
  0
VERTEX
  8
51
 10
6.5168
 20
2.2633
 30
0.0000
  0
SEQEND
  8
0
  0
POLYLINE
  8
51
 66
1
 10
0.0000
 20
0.0000
 30
0.0000
 40
0.0762
 41
0.0762
 70
0
  0
VERTEX
  8
51
 10
6.5437
 20
2.2903
 30
0.0000
 42
1.0000
  0
VERTEX
  8
51
 10
6.4898
 20
2.2364
 30
0.0000
  0
SEQEND
  8
0
  0
POLYLINE
  8
51
 66
1
 10
0.0000
 20
0.0000
 30
0.0000
 40
0.0762
 41
0.0762
 70
0
  0
VERTEX
  8
51
 10
6.9978
 20
1.7284
 30
0.0000
 42
1.0000
  0
VERTEX
  8
51
 10
7.0517
 20
1.7823
 30
0.0000
  0
SEQEND
  8
0
  0
POLYLINE
  8
51
 66
1
 10
0.0000
 20
0.0000
 30
0.0000
 40
0.1524
 41
0.1524
 70
0
  0
VERTEX
  8
51
 10
6.5168
 20
2.2633
 30
0.0000
  0
VERTEX
  8
51
 10
6.5168
 20
3.7873
 30
0.0000
  0
SEQEND
  8
0
  0
POLYLINE
  8
51
 66
1
 10
0.0000
 20
0.0000
 30
0.0000
 40
0.0762
 41
0.0762
 70
0
  0
VERTEX
  8
51
 10
6.5549
 20
3.7873
 30
0.0000
 42
1.0000
  0
VERTEX
  8
51
 10
6.4787
 20
3.7873
 30
0.0000
  0
SEQEND
  8
0
  0
POLYLINE
  8
51
 66
1
 10
0.0000
 20
0.0000
 30
0.0000
 40
0.0762
 41
0.0762
 70
0
  0
VERTEX
  8
51
 10
6.4787
 20
2.2633
 30
0.0000
 42
1.0000
  0
VERTEX
  8
51
 10
6.5549
 20
2.2633
 30
0.0000
  0
SEQEND
  8
0
  0
POLYLINE
  8
51
 66
1
 10
0.0000
 20
0.0000
 30
0.0000
 40
0.0508
 41
0.0508
 70
0
  0
VERTEX
  8
51
 10
8.2948
 20
6.0733
 30
0.0000
  0
VERTEX
  8
51
 10
8.2948
 20
3.5333
 30
0.0000
  0
SEQEND
  8
0
  0
POLYLINE
  8
51
 66
1
 10
0.0000
 20
0.0000
 30
0.0000
 40
0.0254
 41
0.0254
 70
0
  0
VERTEX
  8
51
 10
8.2821
 20
3.5333
 30
0.0000
 42
1.0000
  0
VERTEX
  8
51
 10
8.3075
 20
3.5333
 30
0.0000
  0
SEQEND
  8
0
  0
POLYLINE
  8
51
 66
1
 10
0.0000
 20
0.0000
 30
0.0000
 40
0.0254
 41
0.0254
 70
0
  0
VERTEX
  8
51
 10
8.3075
 20
6.0733
 30
0.0000
 42
1.0000
  0
VERTEX
  8
51
 10
8.2821
 20
6.0733
 30
0.0000
  0
SEQEND
  8
0
  0
POLYLINE
  8
51
 66
1
 10
0.0000
 20
0.0000
 30
0.0000
 40
0.0508
 41
0.0508
 70
0
  0
VERTEX
  8
51
 10
10.8348
 20
3.5333
 30
0.0000
  0
VERTEX
  8
51
 10
8.2948
 20
3.5333
 30
0.0000
  0
SEQEND
  8
0
  0
POLYLINE
  8
51
 66
1
 10
0.0000
 20
0.0000
 30
0.0000
 40
0.0254
 41
0.0254
 70
0
  0
VERTEX
  8
51
 10
8.2948
 20
3.5460
 30
0.0000
 42
1.0000
  0
VERTEX
  8
51
 10
8.2948
 20
3.5206
 30
0.0000
  0
SEQEND
  8
0
  0
POLYLINE
  8
51
 66
1
 10
0.0000
 20
0.0000
 30
0.0000
 40
0.0254
 41
0.0254
 70
0
  0
VERTEX
  8
51
 10
10.8348
 20
3.5206
 30
0.0000
 42
1.0000
  0
VERTEX
  8
51
 10
10.8348
 20
3.5460
 30
0.0000
  0
SEQEND
  8
0
  0
POLYLINE
  8
51
 66
1
 10
0.0000
 20
0.0000
 30
0.0000
 40
0.0508
 41
0.0508
 70
0
  0
VERTEX
  8
51
 10
10.8348
 20
3.5333
 30
0.0000
  0
VERTEX
  8
51
 10
10.8348
 20
6.0733
 30
0.0000
  0
SEQEND
  8
0
  0
POLYLINE
  8
51
 66
1
 10
0.0000
 20
0.0000
 30
0.0000
 40
0.0254
 41
0.0254
 70
0
  0
VERTEX
  8
51
 10
10.8475
 20
6.0733
 30
0.0000
 42
1.0000
  0
VERTEX
  8
51
 10
10.8221
 20
6.0733
 30
0.0000
  0
SEQEND
  8
0
  0
POLYLINE
  8
51
 66
1
 10
0.0000
 20
0.0000
 30
0.0000
 40
0.0254
 41
0.0254
 70
0
  0
VERTEX
  8
51
 10
10.8221
 20
3.5333
 30
0.0000
 42
1.0000
  0
VERTEX
  8
51
 10
10.8475
 20
3.5333
 30
0.0000
  0
SEQEND
  8
0
  0
POLYLINE
  8
51
 66
1
 10
0.0000
 20
0.0000
 30
0.0000
 40
0.0508
 41
0.0508
 70
0
  0
VERTEX
  8
51
 10
8.2948
 20
6.0733
 30
0.0000
  0
VERTEX
  8
51
 10
10.8348
 20
6.0733
 30
0.0000
  0
SEQEND
  8
0
  0
POLYLINE
  8
51
 66
1
 10
0.0000
 20
0.0000
 30
0.0000
 40
0.0254
 41
0.0254
 70
0
  0
VERTEX
  8
51
 10
10.8348
 20
6.0606
 30
0.0000
 42
1.0000
  0
VERTEX
  8
51
 10
10.8348
 20
6.0860
 30
0.0000
  0
SEQEND
  8
0
  0
POLYLINE
  8
51
 66
1
 10
0.0000
 20
0.0000
 30
0.0000
 40
0.0254
 41
0.0254
 70
0
  0
VERTEX
  8
51
 10
8.2948
 20
6.0860
 30
0.0000
 42
1.0000
  0
VERTEX
  8
51
 10
8.2948
 20
6.0606
 30
0.0000
  0
SEQEND
  8
0
  0
POLYLINE
  8
21
 66
1
 10
0.0000
 20
0.0000
 30
0.0000
 40
0.0508
 41
0.0508
 70
0
  0
VERTEX
  8
21
 10
8.2948
 20
7.8513
 30
0.0000
  0
VERTEX
  8
21
 10
8.2948
 20
7.5973
 30
0.0000
  0
SEQEND
  8
0
  0
POLYLINE
  8
21
 66
1
 10
0.0000
 20
0.0000
 30
0.0000
 40
0.0254
 41
0.0254
 70
0
  0
VERTEX
  8
21
 10
8.2821
 20
7.5973
 30
0.0000
 42
1.0000
  0
VERTEX
  8
21
 10
8.3075
 20
7.5973
 30
0.0000
  0
SEQEND
  8
0
  0
POLYLINE
  8
21
 66
1
 10
0.0000
 20
0.0000
 30
0.0000
 40
0.0254
 41
0.0254
 70
0
  0
VERTEX
  8
21
 10
8.3075
 20
7.8513
 30
0.0000
 42
1.0000
  0
VERTEX
  8
21
 10
8.2821
 20
7.8513
 30
0.0000
  0
SEQEND
  8
0
  0
POLYLINE
  8
21
 66
1
 10
0.0000
 20
0.0000
 30
0.0000
 40
0.0508
 41
0.0508
 70
0
  0
VERTEX
  8
21
 10
10.8348
 20
7.5973
 30
0.0000
  0
VERTEX
  8
21
 10
8.2948
 20
7.5973
 30
0.0000
  0
SEQEND
  8
0
  0
POLYLINE
  8
21
 66
1
 10
0.0000
 20
0.0000
 30
0.0000
 40
0.0254
 41
0.0254
 70
0
  0
VERTEX
  8
21
 10
8.2948
 20
7.6100
 30
0.0000
 42
1.0000
  0
VERTEX
  8
21
 10
8.2948
 20
7.5846
 30
0.0000
  0
SEQEND
  8
0
  0
POLYLINE
  8
21
 66
1
 10
0.0000
 20
0.0000
 30
0.0000
 40
0.0254
 41
0.0254
 70
0
  0
VERTEX
  8
21
 10
10.8348
 20
7.5846
 30
0.0000
 42
1.0000
  0
VERTEX
  8
21
 10
10.8348
 20
7.6100
 30
0.0000
  0
SEQEND
  8
0
  0
POLYLINE
  8
21
 66
1
 10
0.0000
 20
0.0000
 30
0.0000
 40
0.0508
 41
0.0508
 70
0
  0
VERTEX
  8
21
 10
10.8348
 20
7.5973
 30
0.0000
  0
VERTEX
  8
21
 10
10.8348
 20
7.8513
 30
0.0000
  0
SEQEND
  8
0
  0
POLYLINE
  8
21
 66
1
 10
0.0000
 20
0.0000
 30
0.0000
 40
0.0254
 41
0.0254
 70
0
  0
VERTEX
  8
21
 10
10.8475
 20
7.8513
 30
0.0000
 42
1.0000
  0
VERTEX
  8
21
 10
10.8221
 20
7.8513
 30
0.0000
  0
SEQEND
  8
0
  0
POLYLINE
  8
21
 66
1
 10
0.0000
 20
0.0000
 30
0.0000
 40
0.0254
 41
0.0254
 70
0
  0
VERTEX
  8
21
 10
10.8221
 20
7.5973
 30
0.0000
 42
1.0000
  0
VERTEX
  8
21
 10
10.8475
 20
7.5973
 30
0.0000
  0
SEQEND
  8
0
  0
POLYLINE
  8
21
 66
1
 10
0.0000
 20
0.0000
 30
0.0000
 40
0.0508
 41
0.0508
 70
0
  0
VERTEX
  8
21
 10
10.7078
 20
2.0093
 30
0.0000
  0
VERTEX
  8
21
 10
8.2948
 20
2.0093
 30
0.0000
  0
SEQEND
  8
0
  0
POLYLINE
  8
21
 66
1
 10
0.0000
 20
0.0000
 30
0.0000
 40
0.0254
 41
0.0254
 70
0
  0
VERTEX
  8
21
 10
8.2948
 20
2.0220
 30
0.0000
 42
1.0000
  0
VERTEX
  8
21
 10
8.2948
 20
1.9966
 30
0.0000
  0
SEQEND
  8
0
  0
POLYLINE
  8
21
 66
1
 10
0.0000
 20
0.0000
 30
0.0000
 40
0.0254
 41
0.0254
 70
0
  0
VERTEX
  8
21
 10
10.7078
 20
1.9966
 30
0.0000
 42
1.0000
  0
VERTEX
  8
21
 10
10.7078
 20
2.0220
 30
0.0000
  0
SEQEND
  8
0
  0
POLYLINE
  8
21
 66
1
 10
0.0000
 20
0.0000
 30
0.0000
 40
0.0508
 41
0.0508
 70
0
  0
VERTEX
  8
21
 10
10.7078
 20
2.0093
 30
0.0000
  0
VERTEX
  8
21
 10
10.7078
 20
1.7553
 30
0.0000
  0
SEQEND
  8
0
  0
POLYLINE
  8
21
 66
1
 10
0.0000
 20
0.0000
 30
0.0000
 40
0.0254
 41
0.0254
 70
0
  0
VERTEX
  8
21
 10
10.6951
 20
1.7553
 30
0.0000
 42
1.0000
  0
VERTEX
  8
21
 10
10.7205
 20
1.7553
 30
0.0000
  0
SEQEND
  8
0
  0
POLYLINE
  8
21
 66
1
 10
0.0000
 20
0.0000
 30
0.0000
 40
0.0254
 41
0.0254
 70
0
  0
VERTEX
  8
21
 10
10.7205
 20
2.0093
 30
0.0000
 42
1.0000
  0
VERTEX
  8
21
 10
10.6951
 20
2.0093
 30
0.0000
  0
SEQEND
  8
0
  0
POLYLINE
  8
21
 66
1
 10
0.0000
 20
0.0000
 30
0.0000
 40
0.0508
 41
0.0508
 70
0
  0
VERTEX
  8
21
 10
8.2948
 20
2.0093
 30
0.0000
  0
VERTEX
  8
21
 10
8.2948
 20
1.7553
 30
0.0000
  0
SEQEND
  8
0
  0
POLYLINE
  8
21
 66
1
 10
0.0000
 20
0.0000
 30
0.0000
 40
0.0254
 41
0.0254
 70
0
  0
VERTEX
  8
21
 10
8.2821
 20
1.7553
 30
0.0000
 42
1.0000
  0
VERTEX
  8
21
 10
8.3075
 20
1.7553
 30
0.0000
  0
SEQEND
  8
0
  0
POLYLINE
  8
21
 66
1
 10
0.0000
 20
0.0000
 30
0.0000
 40
0.0254
 41
0.0254
 70
0
  0
VERTEX
  8
21
 10
8.3075
 20
2.0093
 30
0.0000
 42
1.0000
  0
VERTEX
  8
21
 10
8.2821
 20
2.0093
 30
0.0000
  0
SEQEND
  8
0
  0
POLYLINE
  8
51
 66
1
 10
0.0000
 20
0.0000
 30
0.0000
 40
0.1524
 41
0.1524
 70
0
  0
VERTEX
  8
51
 10
12.1048
 20
1.7553
 30
0.0000
  0
VERTEX
  8
51
 10
11.7238
 20
1.7553
 30
0.0000
  0
SEQEND
  8
0
  0
POLYLINE
  8
51
 66
1
 10
0.0000
 20
0.0000
 30
0.0000
 40
0.0762
 41
0.0762
 70
0
  0
VERTEX
  8
51
 10
11.7238
 20
1.7934
 30
0.0000
 42
1.0000
  0
VERTEX
  8
51
 10
11.7238
 20
1.7172
 30
0.0000
  0
SEQEND
  8
0
  0
POLYLINE
  8
51
 66
1
 10
0.0000
 20
0.0000
 30
0.0000
 40
0.0762
 41
0.0762
 70
0
  0
VERTEX
  8
51
 10
12.1048
 20
1.7172
 30
0.0000
 42
1.0000
  0
VERTEX
  8
51
 10
12.1048
 20
1.7934
 30
0.0000
  0
SEQEND
  8
0
  0
POLYLINE
  8
51
 66
1
 10
0.0000
 20
0.0000
 30
0.0000
 40
0.1524
 41
0.1524
 70
0
  0
VERTEX
  8
51
 10
7.0248
 20
1.7553
 30
0.0000
  0
VERTEX
  8
51
 10
7.4058
 20
1.7553
 30
0.0000
  0
SEQEND
  8
0
  0
POLYLINE
  8
51
 66
1
 10
0.0000
 20
0.0000
 30
0.0000
 40
0.0762
 41
0.0762
 70
0
  0
VERTEX
  8
51
 10
7.4058
 20
1.7172
 30
0.0000
 42
1.0000
  0
VERTEX
  8
51
 10
7.4058
 20
1.7934
 30
0.0000
  0
SEQEND
  8
0
  0
POLYLINE
  8
51
 66
1
 10
0.0000
 20
0.0000
 30
0.0000
 40
0.0762
 41
0.0762
 70
0
  0
VERTEX
  8
51
 10
7.0248
 20
1.7934
 30
0.0000
 42
1.0000
  0
VERTEX
  8
51
 10
7.0248
 20
1.7172
 30
0.0000
  0
SEQEND
  8
0
  0
POLYLINE
  8
21
 66
1
 10
0.0000
 20
0.0000
 30
0.0000
 40
0.1524
 41
0.1524
 70
0
  0
VERTEX
  8
21
 10
7.4058
 20
1.7553
 30
0.0000
  0
VERTEX
  8
21
 10
8.2948
 20
1.7553
 30
0.0000
  0
SEQEND
  8
0
  0
POLYLINE
  8
21
 66
1
 10
0.0000
 20
0.0000
 30
0.0000
 40
0.0762
 41
0.0762
 70
0
  0
VERTEX
  8
21
 10
8.2948
 20
1.7172
 30
0.0000
 42
1.0000
  0
VERTEX
  8
21
 10
8.2948
 20
1.7934
 30
0.0000
  0
SEQEND
  8
0
  0
POLYLINE
  8
21
 66
1
 10
0.0000
 20
0.0000
 30
0.0000
 40
0.0762
 41
0.0762
 70
0
  0
VERTEX
  8
21
 10
7.4058
 20
1.7934
 30
0.0000
 42
1.0000
  0
VERTEX
  8
21
 10
7.4058
 20
1.7172
 30
0.0000
  0
SEQEND
  8
0
  0
POLYLINE
  8
51
 66
1
 10
0.0000
 20
0.0000
 30
0.0000
 40
0.1524
 41
0.1524
 70
0
  0
VERTEX
  8
51
 10
7.0248
 20
7.8513
 30
0.0000
  0
VERTEX
  8
51
 10
7.4058
 20
7.8513
 30
0.0000
  0
SEQEND
  8
0
  0
POLYLINE
  8
51
 66
1
 10
0.0000
 20
0.0000
 30
0.0000
 40
0.0762
 41
0.0762
 70
0
  0
VERTEX
  8
51
 10
7.4058
 20
7.8132
 30
0.0000
 42
1.0000
  0
VERTEX
  8
51
 10
7.4058
 20
7.8894
 30
0.0000
  0
SEQEND
  8
0
  0
POLYLINE
  8
51
 66
1
 10
0.0000
 20
0.0000
 30
0.0000
 40
0.0762
 41
0.0762
 70
0
  0
VERTEX
  8
51
 10
7.0248
 20
7.8894
 30
0.0000
 42
1.0000
  0
VERTEX
  8
51
 10
7.0248
 20
7.8132
 30
0.0000
  0
SEQEND
  8
0
  0
POLYLINE
  8
51
 66
1
 10
0.0000
 20
0.0000
 30
0.0000
 40
0.1524
 41
0.1524
 70
0
  0
VERTEX
  8
51
 10
12.1048
 20
7.8513
 30
0.0000
  0
VERTEX
  8
51
 10
11.7238
 20
7.8513
 30
0.0000
  0
SEQEND
  8
0
  0
POLYLINE
  8
51
 66
1
 10
0.0000
 20
0.0000
 30
0.0000
 40
0.0762
 41
0.0762
 70
0
  0
VERTEX
  8
51
 10
11.7238
 20
7.8894
 30
0.0000
 42
1.0000
  0
VERTEX
  8
51
 10
11.7238
 20
7.8132
 30
0.0000
  0
SEQEND
  8
0
  0
POLYLINE
  8
51
 66
1
 10
0.0000
 20
0.0000
 30
0.0000
 40
0.0762
 41
0.0762
 70
0
  0
VERTEX
  8
51
 10
12.1048
 20
7.8132
 30
0.0000
 42
1.0000
  0
VERTEX
  8
51
 10
12.1048
 20
7.8894
 30
0.0000
  0
SEQEND
  8
0
  0
POLYLINE
  8
21
 66
1
 10
0.0000
 20
0.0000
 30
0.0000
 40
0.1524
 41
0.1524
 70
0
  0
VERTEX
  8
21
 10
11.7238
 20
7.8513
 30
0.0000
  0
VERTEX
  8
21
 10
10.8348
 20
7.8513
 30
0.0000
  0
SEQEND
  8
0
  0
POLYLINE
  8
21
 66
1
 10
0.0000
 20
0.0000
 30
0.0000
 40
0.0762
 41
0.0762
 70
0
  0
VERTEX
  8
21
 10
10.8348
 20
7.8894
 30
0.0000
 42
1.0000
  0
VERTEX
  8
21
 10
10.8348
 20
7.8132
 30
0.0000
  0
SEQEND
  8
0
  0
POLYLINE
  8
21
 66
1
 10
0.0000
 20
0.0000
 30
0.0000
 40
0.0762
 41
0.0762
 70
0
  0
VERTEX
  8
21
 10
11.7238
 20
7.8132
 30
0.0000
 42
1.0000
  0
VERTEX
  8
21
 10
11.7238
 20
7.8894
 30
0.0000
  0
SEQEND
  8
0
  0
POLYLINE
  8
21
 66
1
 10
0.0000
 20
0.0000
 30
0.0000
 40
0.1524
 41
0.1524
 70
0
  0
VERTEX
  8
21
 10
10.8348
 20
7.8513
 30
0.0000
  0
VERTEX
  8
21
 10
8.2948
 20
7.8513
 30
0.0000
  0
SEQEND
  8
0
  0
POLYLINE
  8
21
 66
1
 10
0.0000
 20
0.0000
 30
0.0000
 40
0.0762
 41
0.0762
 70
0
  0
VERTEX
  8
21
 10
8.2948
 20
7.8894
 30
0.0000
 42
1.0000
  0
VERTEX
  8
21
 10
8.2948
 20
7.8132
 30
0.0000
  0
SEQEND
  8
0
  0
POLYLINE
  8
21
 66
1
 10
0.0000
 20
0.0000
 30
0.0000
 40
0.0762
 41
0.0762
 70
0
  0
VERTEX
  8
21
 10
10.8348
 20
7.8132
 30
0.0000
 42
1.0000
  0
VERTEX
  8
21
 10
10.8348
 20
7.8894
 30
0.0000
  0
SEQEND
  8
0
  0
POLYLINE
  8
21
 66
1
 10
0.0000
 20
0.0000
 30
0.0000
 40
0.1524
 41
0.1524
 70
0
  0
VERTEX
  8
21
 10
8.2948
 20
7.8513
 30
0.0000
  0
VERTEX
  8
21
 10
7.4058
 20
7.8513
 30
0.0000
  0
SEQEND
  8
0
  0
POLYLINE
  8
21
 66
1
 10
0.0000
 20
0.0000
 30
0.0000
 40
0.0762
 41
0.0762
 70
0
  0
VERTEX
  8
21
 10
7.4058
 20
7.8894
 30
0.0000
 42
1.0000
  0
VERTEX
  8
21
 10
7.4058
 20
7.8132
 30
0.0000
  0
SEQEND
  8
0
  0
POLYLINE
  8
21
 66
1
 10
0.0000
 20
0.0000
 30
0.0000
 40
0.0762
 41
0.0762
 70
0
  0
VERTEX
  8
21
 10
8.2948
 20
7.8132
 30
0.0000
 42
1.0000
  0
VERTEX
  8
21
 10
8.2948
 20
7.8894
 30
0.0000
  0
SEQEND
  8
0
  0
POLYLINE
  8
21
 66
1
 10
0.0000
 20
0.0000
 30
0.0000
 40
0.1524
 41
0.1524
 70
0
  0
VERTEX
  8
21
 10
8.2948
 20
1.7553
 30
0.0000
  0
VERTEX
  8
21
 10
10.7078
 20
1.7553
 30
0.0000
  0
SEQEND
  8
0
  0
POLYLINE
  8
21
 66
1
 10
0.0000
 20
0.0000
 30
0.0000
 40
0.0762
 41
0.0762
 70
0
  0
VERTEX
  8
21
 10
10.7078
 20
1.7172
 30
0.0000
 42
1.0000
  0
VERTEX
  8
21
 10
10.7078
 20
1.7934
 30
0.0000
  0
SEQEND
  8
0
  0
POLYLINE
  8
21
 66
1
 10
0.0000
 20
0.0000
 30
0.0000
 40
0.0762
 41
0.0762
 70
0
  0
VERTEX
  8
21
 10
8.2948
 20
1.7934
 30
0.0000
 42
1.0000
  0
VERTEX
  8
21
 10
8.2948
 20
1.7172
 30
0.0000
  0
SEQEND
  8
0
  0
POLYLINE
  8
21
 66
1
 10
0.0000
 20
0.0000
 30
0.0000
 40
0.1524
 41
0.1524
 70
0
  0
VERTEX
  8
21
 10
10.7078
 20
1.7553
 30
0.0000
  0
VERTEX
  8
21
 10
11.7238
 20
1.7553
 30
0.0000
  0
SEQEND
  8
0
  0
POLYLINE
  8
21
 66
1
 10
0.0000
 20
0.0000
 30
0.0000
 40
0.0762
 41
0.0762
 70
0
  0
VERTEX
  8
21
 10
11.7238
 20
1.7172
 30
0.0000
 42
1.0000
  0
VERTEX
  8
21
 10
11.7238
 20
1.7934
 30
0.0000
  0
SEQEND
  8
0
  0
POLYLINE
  8
21
 66
1
 10
0.0000
 20
0.0000
 30
0.0000
 40
0.0762
 41
0.0762
 70
0
  0
VERTEX
  8
21
 10
10.7078
 20
1.7934
 30
0.0000
 42
1.0000
  0
VERTEX
  8
21
 10
10.7078
 20
1.7172
 30
0.0000
  0
SEQEND
  8
0
  0
POLYLINE
  8
21
 66
1
 10
0.0000
 20
0.0000
 30
0.0000
 40
0.1524
 41
0.1524
 70
0
  0
VERTEX
  8
21
 10
12.6128
 20
4.0413
 30
0.0000
  0
VERTEX
  8
21
 10
12.6128
 20
3.7873
 30
0.0000
  0
SEQEND
  8
0
  0
POLYLINE
  8
21
 66
1
 10
0.0000
 20
0.0000
 30
0.0000
 40
0.0762
 41
0.0762
 70
0
  0
VERTEX
  8
21
 10
12.5747
 20
3.7873
 30
0.0000
 42
1.0000
  0
VERTEX
  8
21
 10
12.6509
 20
3.7873
 30
0.0000
  0
SEQEND
  8
0
  0
POLYLINE
  8
21
 66
1
 10
0.0000
 20
0.0000
 30
0.0000
 40
0.0762
 41
0.0762
 70
0
  0
VERTEX
  8
21
 10
12.6509
 20
4.0413
 30
0.0000
 42
1.0000
  0
VERTEX
  8
21
 10
12.5747
 20
4.0413
 30
0.0000
  0
SEQEND
  8
0
  0
POLYLINE
  8
21
 66
1
 10
0.0000
 20
0.0000
 30
0.0000
 40
0.1524
 41
0.1524
 70
0
  0
VERTEX
  8
21
 10
12.6128
 20
5.5653
 30
0.0000
  0
VERTEX
  8
21
 10
12.6128
 20
5.8193
 30
0.0000
  0
SEQEND
  8
0
  0
POLYLINE
  8
21
 66
1
 10
0.0000
 20
0.0000
 30
0.0000
 40
0.0762
 41
0.0762
 70
0
  0
VERTEX
  8
21
 10
12.6509
 20
5.8193
 30
0.0000
 42
1.0000
  0
VERTEX
  8
21
 10
12.5747
 20
5.8193
 30
0.0000
  0
SEQEND
  8
0
  0
POLYLINE
  8
21
 66
1
 10
0.0000
 20
0.0000
 30
0.0000
 40
0.0762
 41
0.0762
 70
0
  0
VERTEX
  8
21
 10
12.5747
 20
5.5653
 30
0.0000
 42
1.0000
  0
VERTEX
  8
21
 10
12.6509
 20
5.5653
 30
0.0000
  0
SEQEND
  8
0
  0
POLYLINE
  8
21
 66
1
 10
0.0000
 20
0.0000
 30
0.0000
 40
0.1524
 41
0.1524
 70
0
  0
VERTEX
  8
21
 10
6.5168
 20
4.0413
 30
0.0000
  0
VERTEX
  8
21
 10
6.5168
 20
3.7873
 30
0.0000
  0
SEQEND
  8
0
  0
POLYLINE
  8
21
 66
1
 10
0.0000
 20
0.0000
 30
0.0000
 40
0.0762
 41
0.0762
 70
0
  0
VERTEX
  8
21
 10
6.4787
 20
3.7873
 30
0.0000
 42
1.0000
  0
VERTEX
  8
21
 10
6.5549
 20
3.7873
 30
0.0000
  0
SEQEND
  8
0
  0
POLYLINE
  8
21
 66
1
 10
0.0000
 20
0.0000
 30
0.0000
 40
0.0762
 41
0.0762
 70
0
  0
VERTEX
  8
21
 10
6.5549
 20
4.0413
 30
0.0000
 42
1.0000
  0
VERTEX
  8
21
 10
6.4787
 20
4.0413
 30
0.0000
  0
SEQEND
  8
0
  0
POLYLINE
  8
21
 66
1
 10
0.0000
 20
0.0000
 30
0.0000
 40
0.1524
 41
0.1524
 70
0
  0
VERTEX
  8
21
 10
6.5168
 20
5.5653
 30
0.0000
  0
VERTEX
  8
21
 10
6.5168
 20
5.8193
 30
0.0000
  0
SEQEND
  8
0
  0
POLYLINE
  8
21
 66
1
 10
0.0000
 20
0.0000
 30
0.0000
 40
0.0762
 41
0.0762
 70
0
  0
VERTEX
  8
21
 10
6.5549
 20
5.8193
 30
0.0000
 42
1.0000
  0
VERTEX
  8
21
 10
6.4787
 20
5.8193
 30
0.0000
  0
SEQEND
  8
0
  0
POLYLINE
  8
21
 66
1
 10
0.0000
 20
0.0000
 30
0.0000
 40
0.0762
 41
0.0762
 70
0
  0
VERTEX
  8
21
 10
6.4787
 20
5.5653
 30
0.0000
 42
1.0000
  0
VERTEX
  8
21
 10
6.5549
 20
5.5653
 30
0.0000
  0
SEQEND
  8
0
  0
POLYLINE
  8
51
 66
1
 10
0.0000
 20
0.0000
 30
0.0000
 40
0.1524
 41
0.1524
 70
0
  0
VERTEX
  8
51
 10
8.2948
 20
2.6443
 30
0.0000
  0
VERTEX
  8
51
 10
10.8348
 20
2.6443
 30
0.0000
  0
SEQEND
  8
0
  0
POLYLINE
  8
51
 66
1
 10
0.0000
 20
0.0000
 30
0.0000
 40
0.0762
 41
0.0762
 70
0
  0
VERTEX
  8
51
 10
10.8348
 20
2.6062
 30
0.0000
 42
1.0000
  0
VERTEX
  8
51
 10
10.8348
 20
2.6824
 30
0.0000
  0
SEQEND
  8
0
  0
POLYLINE
  8
51
 66
1
 10
0.0000
 20
0.0000
 30
0.0000
 40
0.0762
 41
0.0762
 70
0
  0
VERTEX
  8
51
 10
8.2948
 20
2.6824
 30
0.0000
 42
1.0000
  0
VERTEX
  8
51
 10
8.2948
 20
2.6062
 30
0.0000
  0
SEQEND
  8
0
  0
POLYLINE
  8
51
 66
1
 10
0.0000
 20
0.0000
 30
0.0000
 40
0.1524
 41
0.1524
 70
0
  0
VERTEX
  8
51
 10
10.8348
 20
7.0893
 30
0.0000
  0
VERTEX
  8
51
 10
8.2948
 20
7.0893
 30
0.0000
  0
SEQEND
  8
0
  0
POLYLINE
  8
51
 66
1
 10
0.0000
 20
0.0000
 30
0.0000
 40
0.0762
 41
0.0762
 70
0
  0
VERTEX
  8
51
 10
8.2948
 20
7.1274
 30
0.0000
 42
1.0000
  0
VERTEX
  8
51
 10
8.2948
 20
7.0512
 30
0.0000
  0
SEQEND
  8
0
  0
POLYLINE
  8
51
 66
1
 10
0.0000
 20
0.0000
 30
0.0000
 40
0.0762
 41
0.0762
 70
0
  0
VERTEX
  8
51
 10
10.8348
 20
7.0512
 30
0.0000
 42
1.0000
  0
VERTEX
  8
51
 10
10.8348
 20
7.1274
 30
0.0000
  0
SEQEND
  8
0
  0
POLYLINE
  8
51
 66
1
 10
0.0000
 20
0.0000
 30
0.0000
 40
0.1524
 41
0.1524
 70
0
  0
VERTEX
  8
51
 10
7.1518
 20
6.0733
 30
0.0000
  0
VERTEX
  8
51
 10
7.1518
 20
5.3113
 30
0.0000
  0
SEQEND
  8
0
  0
POLYLINE
  8
51
 66
1
 10
0.0000
 20
0.0000
 30
0.0000
 40
0.0762
 41
0.0762
 70
0
  0
VERTEX
  8
51
 10
7.1137
 20
5.3113
 30
0.0000
 42
1.0000
  0
VERTEX
  8
51
 10
7.1899
 20
5.3113
 30
0.0000
  0
SEQEND
  8
0
  0
POLYLINE
  8
51
 66
1
 10
0.0000
 20
0.0000
 30
0.0000
 40
0.0762
 41
0.0762
 70
0
  0
VERTEX
  8
51
 10
7.1899
 20
6.0733
 30
0.0000
 42
1.0000
  0
VERTEX
  8
51
 10
7.1137
 20
6.0733
 30
0.0000
  0
SEQEND
  8
0
  0
POLYLINE
  8
51
 66
1
 10
0.0000
 20
0.0000
 30
0.0000
 40
0.1524
 41
0.1524
 70
0
  0
VERTEX
  8
51
 10
7.1518
 20
4.2953
 30
0.0000
  0
VERTEX
  8
51
 10
7.1518
 20
3.5333
 30
0.0000
  0
SEQEND
  8
0
  0
POLYLINE
  8
51
 66
1
 10
0.0000
 20
0.0000
 30
0.0000
 40
0.0762
 41
0.0762
 70
0
  0
VERTEX
  8
51
 10
7.1137
 20
3.5333
 30
0.0000
 42
1.0000
  0
VERTEX
  8
51
 10
7.1899
 20
3.5333
 30
0.0000
  0
SEQEND
  8
0
  0
POLYLINE
  8
51
 66
1
 10
0.0000
 20
0.0000
 30
0.0000
 40
0.0762
 41
0.0762
 70
0
  0
VERTEX
  8
51
 10
7.1899
 20
4.2953
 30
0.0000
 42
1.0000
  0
VERTEX
  8
51
 10
7.1137
 20
4.2953
 30
0.0000
  0
SEQEND
  8
0
  0
POLYLINE
  8
51
 66
1
 10
0.0000
 20
0.0000
 30
0.0000
 40
0.1524
 41
0.1524
 70
0
  0
VERTEX
  8
51
 10
7.1518
 20
5.3113
 30
0.0000
  0
VERTEX
  8
51
 10
7.4058
 20
4.4223
 30
0.0000
  0
SEQEND
  8
0
  0
POLYLINE
  8
51
 66
1
 10
0.0000
 20
0.0000
 30
0.0000
 40
0.0762
 41
0.0762
 70
0
  0
VERTEX
  8
51
 10
7.3691
 20
4.4119
 30
0.0000
 42
1.0000
  0
VERTEX
  8
51
 10
7.4424
 20
4.4328
 30
0.0000
  0
SEQEND
  8
0
  0
POLYLINE
  8
51
 66
1
 10
0.0000
 20
0.0000
 30
0.0000
 40
0.0762
 41
0.0762
 70
0
  0
VERTEX
  8
51
 10
7.1884
 20
5.3218
 30
0.0000
 42
1.0000
  0
VERTEX
  8
51
 10
7.1151
 20
5.3009
 30
0.0000
  0
SEQEND
  8
0
  0
POLYLINE
  8
51
 66
1
 10
0.0000
 20
0.0000
 30
0.0000
 40
0.1270
 41
0.1270
 70
0
  0
VERTEX
  8
51
 10
5.3103
 20
7.2805
 30
0.0000
  0
VERTEX
  8
51
 10
5.6916
 20
7.6618
 30
0.0000
  0
SEQEND
  8
0
  0
POLYLINE
  8
51
 66
1
 10
0.0000
 20
0.0000
 30
0.0000
 40
0.0635
 41
0.0635
 70
0
  0
VERTEX
  8
51
 10
5.7140
 20
7.6394
 30
0.0000
 42
1.0000
  0
VERTEX
  8
51
 10
5.6691
 20
7.6843
 30
0.0000
  0
SEQEND
  8
0
  0
POLYLINE
  8
51
 66
1
 10
0.0000
 20
0.0000
 30
0.0000
 40
0.0635
 41
0.0635
 70
0
  0
VERTEX
  8
51
 10
5.2878
 20
7.3029
 30
0.0000
 42
1.0000
  0
VERTEX
  8
51
 10
5.3327
 20
7.2580
 30
0.0000
  0
SEQEND
  8
0
  0
POLYLINE
  8
51
 66
1
 10
0.0000
 20
0.0000
 30
0.0000
 40
0.1270
 41
0.1270
 70
0
  0
VERTEX
  8
51
 10
5.6916
 20
7.6618
 30
0.0000
  0
VERTEX
  8
51
 10
5.6916
 20
6.5178
 30
0.0000
  0
SEQEND
  8
0
  0
POLYLINE
  8
51
 66
1
 10
0.0000
 20
0.0000
 30
0.0000
 40
0.0635
 41
0.0635
 70
0
  0
VERTEX
  8
51
 10
5.6598
 20
6.5178
 30
0.0000
 42
1.0000
  0
VERTEX
  8
51
 10
5.7233
 20
6.5178
 30
0.0000
  0
SEQEND
  8
0
  0
POLYLINE
  8
51
 66
1
 10
0.0000
 20
0.0000
 30
0.0000
 40
0.0635
 41
0.0635
 70
0
  0
VERTEX
  8
51
 10
5.7233
 20
7.6618
 30
0.0000
 42
1.0000
  0
VERTEX
  8
51
 10
5.6598
 20
7.6618
 30
0.0000
  0
SEQEND
  8
0
  0
POLYLINE
  8
51
 66
1
 10
0.0000
 20
0.0000
 30
0.0000
 40
0.1270
 41
0.1270
 70
0
  0
VERTEX
  8
51
 10
5.3103
 20
6.5178
 30
0.0000
  0
VERTEX
  8
51
 10
6.0729
 20
6.5178
 30
0.0000
  0
SEQEND
  8
0
  0
POLYLINE
  8
51
 66
1
 10
0.0000
 20
0.0000
 30
0.0000
 40
0.0635
 41
0.0635
 70
0
  0
VERTEX
  8
51
 10
6.0729
 20
6.4861
 30
0.0000
 42
1.0000
  0
VERTEX
  8
51
 10
6.0729
 20
6.5496
 30
0.0000
  0
SEQEND
  8
0
  0
POLYLINE
  8
51
 66
1
 10
0.0000
 20
0.0000
 30
0.0000
 40
0.0635
 41
0.0635
 70
0
  0
VERTEX
  8
51
 10
5.3103
 20
6.5496
 30
0.0000
 42
1.0000
  0
VERTEX
  8
51
 10
5.3103
 20
6.4861
 30
0.0000
  0
SEQEND
  8
0
  0
POLYLINE
  8
51
 66
1
 10
0.0000
 20
0.0000
 30
0.0000
 40
0.1270
 41
0.1270
 70
0
  0
VERTEX
  8
51
 10
13.9469
 20
6.3908
 30
0.0000
  0
VERTEX
  8
51
 10
13.1843
 20
6.3908
 30
0.0000
  0
SEQEND
  8
0
  0
POLYLINE
  8
51
 66
1
 10
0.0000
 20
0.0000
 30
0.0000
 40
0.0635
 41
0.0635
 70
0
  0
VERTEX
  8
51
 10
13.1843
 20
6.4226
 30
0.0000
 42
1.0000
  0
VERTEX
  8
51
 10
13.1843
 20
6.3591
 30
0.0000
  0
SEQEND
  8
0
  0
POLYLINE
  8
51
 66
1
 10
0.0000
 20
0.0000
 30
0.0000
 40
0.0635
 41
0.0635
 70
0
  0
VERTEX
  8
51
 10
13.9469
 20
6.3591
 30
0.0000
 42
1.0000
  0
VERTEX
  8
51
 10
13.9469
 20
6.4226
 30
0.0000
  0
SEQEND
  8
0
  0
POLYLINE
  8
51
 66
1
 10
0.0000
 20
0.0000
 30
0.0000
 40
0.1270
 41
0.1270
 70
0
  0
VERTEX
  8
51
 10
13.1843
 20
6.3908
 30
0.0000
  0
VERTEX
  8
51
 10
13.9469
 20
7.1535
 30
0.0000
  0
SEQEND
  8
0
  0
POLYLINE
  8
51
 66
1
 10
0.0000
 20
0.0000
 30
0.0000
 40
0.0635
 41
0.0635
 70
0
  0
VERTEX
  8
51
 10
13.9694
 20
7.1310
 30
0.0000
 42
1.0000
  0
VERTEX
  8
51
 10
13.9245
 20
7.1759
 30
0.0000
  0
SEQEND
  8
0
  0
POLYLINE
  8
51
 66
1
 10
0.0000
 20
0.0000
 30
0.0000
 40
0.0635
 41
0.0635
 70
0
  0
VERTEX
  8
51
 10
13.1618
 20
6.4133
 30
0.0000
 42
1.0000
  0
VERTEX
  8
51
 10
13.2067
 20
6.3684
 30
0.0000
  0
SEQEND
  8
0
  0
POLYLINE
  8
51
 66
1
 10
0.0000
 20
0.0000
 30
0.0000
 40
0.1270
 41
0.1270
 70
0
  0
VERTEX
  8
51
 10
13.9469
 20
7.1535
 30
0.0000
  0
VERTEX
  8
51
 10
13.9469
 20
7.3441
 30
0.0000
  0
SEQEND
  8
0
  0
POLYLINE
  8
51
 66
1
 10
0.0000
 20
0.0000
 30
0.0000
 40
0.0635
 41
0.0635
 70
0
  0
VERTEX
  8
51
 10
13.9787
 20
7.3441
 30
0.0000
 42
1.0000
  0
VERTEX
  8
51
 10
13.9152
 20
7.3441
 30
0.0000
  0
SEQEND
  8
0
  0
POLYLINE
  8
51
 66
1
 10
0.0000
 20
0.0000
 30
0.0000
 40
0.0635
 41
0.0635
 70
0
  0
VERTEX
  8
51
 10
13.9152
 20
7.1535
 30
0.0000
 42
1.0000
  0
VERTEX
  8
51
 10
13.9787
 20
7.1535
 30
0.0000
  0
SEQEND
  8
0
  0
POLYLINE
  8
51
 66
1
 10
0.0000
 20
0.0000
 30
0.0000
 40
0.1270
 41
0.1270
 70
0
  0
VERTEX
  8
51
 10
13.9469
 20
7.3441
 30
0.0000
  0
VERTEX
  8
51
 10
13.7562
 20
7.5348
 30
0.0000
  0
SEQEND
  8
0
  0
POLYLINE
  8
51
 66
1
 10
0.0000
 20
0.0000
 30
0.0000
 40
0.0635
 41
0.0635
 70
0
  0
VERTEX
  8
51
 10
13.7787
 20
7.5573
 30
0.0000
 42
1.0000
  0
VERTEX
  8
51
 10
13.7338
 20
7.5124
 30
0.0000
  0
SEQEND
  8
0
  0
POLYLINE
  8
51
 66
1
 10
0.0000
 20
0.0000
 30
0.0000
 40
0.0635
 41
0.0635
 70
0
  0
VERTEX
  8
51
 10
13.9245
 20
7.3217
 30
0.0000
 42
1.0000
  0
VERTEX
  8
51
 10
13.9694
 20
7.3666
 30
0.0000
  0
SEQEND
  8
0
  0
POLYLINE
  8
51
 66
1
 10
0.0000
 20
0.0000
 30
0.0000
 40
0.1270
 41
0.1270
 70
0
  0
VERTEX
  8
51
 10
13.7562
 20
7.5348
 30
0.0000
  0
VERTEX
  8
51
 10
13.3749
 20
7.5348
 30
0.0000
  0
SEQEND
  8
0
  0
POLYLINE
  8
51
 66
1
 10
0.0000
 20
0.0000
 30
0.0000
 40
0.0635
 41
0.0635
 70
0
  0
VERTEX
  8
51
 10
13.3749
 20
7.5666
 30
0.0000
 42
1.0000
  0
VERTEX
  8
51
 10
13.3749
 20
7.5031
 30
0.0000
  0
SEQEND
  8
0
  0
POLYLINE
  8
51
 66
1
 10
0.0000
 20
0.0000
 30
0.0000
 40
0.0635
 41
0.0635
 70
0
  0
VERTEX
  8
51
 10
13.7562
 20
7.5031
 30
0.0000
 42
1.0000
  0
VERTEX
  8
51
 10
13.7562
 20
7.5666
 30
0.0000
  0
SEQEND
  8
0
  0
POLYLINE
  8
51
 66
1
 10
0.0000
 20
0.0000
 30
0.0000
 40
0.1270
 41
0.1270
 70
0
  0
VERTEX
  8
51
 10
13.3749
 20
7.5348
 30
0.0000
  0
VERTEX
  8
51
 10
13.1843
 20
7.3441
 30
0.0000
  0
SEQEND
  8
0
  0
POLYLINE
  8
51
 66
1
 10
0.0000
 20
0.0000
 30
0.0000
 40
0.0635
 41
0.0635
 70
0
  0
VERTEX
  8
51
 10
13.1618
 20
7.3666
 30
0.0000
 42
1.0000
  0
VERTEX
  8
51
 10
13.2067
 20
7.3217
 30
0.0000
  0
SEQEND
  8
0
  0
POLYLINE
  8
51
 66
1
 10
0.0000
 20
0.0000
 30
0.0000
 40
0.0635
 41
0.0635
 70
0
  0
VERTEX
  8
51
 10
13.3974
 20
7.5124
 30
0.0000
 42
1.0000
  0
VERTEX
  8
51
 10
13.3525
 20
7.5573
 30
0.0000
  0
SEQEND
  8
0
  0
POLYLINE
  8
51
 66
1
 10
0.0000
 20
0.0000
 30
0.0000
 40
0.1270
 41
0.1270
 70
0
  0
VERTEX
  8
51
 10
5.0563
 20
3.0261
 30
0.0000
  0
VERTEX
  8
51
 10
5.2469
 20
3.2168
 30
0.0000
  0
SEQEND
  8
0
  0
POLYLINE
  8
51
 66
1
 10
0.0000
 20
0.0000
 30
0.0000
 40
0.0635
 41
0.0635
 70
0
  0
VERTEX
  8
51
 10
5.2694
 20
3.1944
 30
0.0000
 42
1.0000
  0
VERTEX
  8
51
 10
5.2245
 20
3.2393
 30
0.0000
  0
SEQEND
  8
0
  0
POLYLINE
  8
51
 66
1
 10
0.0000
 20
0.0000
 30
0.0000
 40
0.0635
 41
0.0635
 70
0
  0
VERTEX
  8
51
 10
5.0338
 20
3.0486
 30
0.0000
 42
1.0000
  0
VERTEX
  8
51
 10
5.0787
 20
3.0037
 30
0.0000
  0
SEQEND
  8
0
  0
POLYLINE
  8
51
 66
1
 10
0.0000
 20
0.0000
 30
0.0000
 40
0.1270
 41
0.1270
 70
0
  0
VERTEX
  8
51
 10
5.2469
 20
3.2168
 30
0.0000
  0
VERTEX
  8
51
 10
5.6282
 20
3.2168
 30
0.0000
  0
SEQEND
  8
0
  0
POLYLINE
  8
51
 66
1
 10
0.0000
 20
0.0000
 30
0.0000
 40
0.0635
 41
0.0635
 70
0
  0
VERTEX
  8
51
 10
5.6282
 20
3.1851
 30
0.0000
 42
1.0000
  0
VERTEX
  8
51
 10
5.6282
 20
3.2486
 30
0.0000
  0
SEQEND
  8
0
  0
POLYLINE
  8
51
 66
1
 10
0.0000
 20
0.0000
 30
0.0000
 40
0.0635
 41
0.0635
 70
0
  0
VERTEX
  8
51
 10
5.2469
 20
3.2486
 30
0.0000
 42
1.0000
  0
VERTEX
  8
51
 10
5.2469
 20
3.1851
 30
0.0000
  0
SEQEND
  8
0
  0
POLYLINE
  8
51
 66
1
 10
0.0000
 20
0.0000
 30
0.0000
 40
0.1270
 41
0.1270
 70
0
  0
VERTEX
  8
51
 10
5.6282
 20
3.2168
 30
0.0000
  0
VERTEX
  8
51
 10
5.8189
 20
3.0261
 30
0.0000
  0
SEQEND
  8
0
  0
POLYLINE
  8
51
 66
1
 10
0.0000
 20
0.0000
 30
0.0000
 40
0.0635
 41
0.0635
 70
0
  0
VERTEX
  8
51
 10
5.7965
 20
3.0037
 30
0.0000
 42
1.0000
  0
VERTEX
  8
51
 10
5.8414
 20
3.0486
 30
0.0000
  0
SEQEND
  8
0
  0
POLYLINE
  8
51
 66
1
 10
0.0000
 20
0.0000
 30
0.0000
 40
0.0635
 41
0.0635
 70
0
  0
VERTEX
  8
51
 10
5.6507
 20
3.2393
 30
0.0000
 42
1.0000
  0
VERTEX
  8
51
 10
5.6058
 20
3.1944
 30
0.0000
  0
SEQEND
  8
0
  0
POLYLINE
  8
51
 66
1
 10
0.0000
 20
0.0000
 30
0.0000
 40
0.1270
 41
0.1270
 70
0
  0
VERTEX
  8
51
 10
5.8189
 20
3.0261
 30
0.0000
  0
VERTEX
  8
51
 10
5.8189
 20
2.8355
 30
0.0000
  0
SEQEND
  8
0
  0
POLYLINE
  8
51
 66
1
 10
0.0000
 20
0.0000
 30
0.0000
 40
0.0635
 41
0.0635
 70
0
  0
VERTEX
  8
51
 10
5.7872
 20
2.8355
 30
0.0000
 42
1.0000
  0
VERTEX
  8
51
 10
5.8507
 20
2.8355
 30
0.0000
  0
SEQEND
  8
0
  0
POLYLINE
  8
51
 66
1
 10
0.0000
 20
0.0000
 30
0.0000
 40
0.0635
 41
0.0635
 70
0
  0
VERTEX
  8
51
 10
5.8507
 20
3.0261
 30
0.0000
 42
1.0000
  0
VERTEX
  8
51
 10
5.7872
 20
3.0261
 30
0.0000
  0
SEQEND
  8
0
  0
POLYLINE
  8
51
 66
1
 10
0.0000
 20
0.0000
 30
0.0000
 40
0.1270
 41
0.1270
 70
0
  0
VERTEX
  8
51
 10
5.8189
 20
2.8355
 30
0.0000
  0
VERTEX
  8
51
 10
5.6282
 20
2.6448
 30
0.0000
  0
SEQEND
  8
0
  0
POLYLINE
  8
51
 66
1
 10
0.0000
 20
0.0000
 30
0.0000
 40
0.0635
 41
0.0635
 70
0
  0
VERTEX
  8
51
 10
5.6058
 20
2.6673
 30
0.0000
 42
1.0000
  0
VERTEX
  8
51
 10
5.6507
 20
2.6224
 30
0.0000
  0
SEQEND
  8
0
  0
POLYLINE
  8
51
 66
1
 10
0.0000
 20
0.0000
 30
0.0000
 40
0.0635
 41
0.0635
 70
0
  0
VERTEX
  8
51
 10
5.8414
 20
2.8130
 30
0.0000
 42
1.0000
  0
VERTEX
  8
51
 10
5.7965
 20
2.8579
 30
0.0000
  0
SEQEND
  8
0
  0
POLYLINE
  8
51
 66
1
 10
0.0000
 20
0.0000
 30
0.0000
 40
0.1270
 41
0.1270
 70
0
  0
VERTEX
  8
51
 10
5.6282
 20
2.6448
 30
0.0000
  0
VERTEX
  8
51
 10
5.4376
 20
2.6448
 30
0.0000
  0
SEQEND
  8
0
  0
POLYLINE
  8
51
 66
1
 10
0.0000
 20
0.0000
 30
0.0000
 40
0.0635
 41
0.0635
 70
0
  0
VERTEX
  8
51
 10
5.4376
 20
2.6766
 30
0.0000
 42
1.0000
  0
VERTEX
  8
51
 10
5.4376
 20
2.6131
 30
0.0000
  0
SEQEND
  8
0
  0
POLYLINE
  8
51
 66
1
 10
0.0000
 20
0.0000
 30
0.0000
 40
0.0635
 41
0.0635
 70
0
  0
VERTEX
  8
51
 10
5.6282
 20
2.6131
 30
0.0000
 42
1.0000
  0
VERTEX
  8
51
 10
5.6282
 20
2.6766
 30
0.0000
  0
SEQEND
  8
0
  0
POLYLINE
  8
51
 66
1
 10
0.0000
 20
0.0000
 30
0.0000
 40
0.1270
 41
0.1270
 70
0
  0
VERTEX
  8
51
 10
5.6282
 20
2.6448
 30
0.0000
  0
VERTEX
  8
51
 10
5.8189
 20
2.4542
 30
0.0000
  0
SEQEND
  8
0
  0
POLYLINE
  8
51
 66
1
 10
0.0000
 20
0.0000
 30
0.0000
 40
0.0635
 41
0.0635
 70
0
  0
VERTEX
  8
51
 10
5.7965
 20
2.4317
 30
0.0000
 42
1.0000
  0
VERTEX
  8
51
 10
5.8414
 20
2.4766
 30
0.0000
  0
SEQEND
  8
0
  0
POLYLINE
  8
51
 66
1
 10
0.0000
 20
0.0000
 30
0.0000
 40
0.0635
 41
0.0635
 70
0
  0
VERTEX
  8
51
 10
5.6507
 20
2.6673
 30
0.0000
 42
1.0000
  0
VERTEX
  8
51
 10
5.6058
 20
2.6224
 30
0.0000
  0
SEQEND
  8
0
  0
POLYLINE
  8
51
 66
1
 10
0.0000
 20
0.0000
 30
0.0000
 40
0.1270
 41
0.1270
 70
0
  0
VERTEX
  8
51
 10
5.8189
 20
2.4542
 30
0.0000
  0
VERTEX
  8
51
 10
5.8189
 20
2.2635
 30
0.0000
  0
SEQEND
  8
0
  0
POLYLINE
  8
51
 66
1
 10
0.0000
 20
0.0000
 30
0.0000
 40
0.0635
 41
0.0635
 70
0
  0
VERTEX
  8
51
 10
5.7872
 20
2.2635
 30
0.0000
 42
1.0000
  0
VERTEX
  8
51
 10
5.8507
 20
2.2635
 30
0.0000
  0
SEQEND
  8
0
  0
POLYLINE
  8
51
 66
1
 10
0.0000
 20
0.0000
 30
0.0000
 40
0.0635
 41
0.0635
 70
0
  0
VERTEX
  8
51
 10
5.8507
 20
2.4542
 30
0.0000
 42
1.0000
  0
VERTEX
  8
51
 10
5.7872
 20
2.4542
 30
0.0000
  0
SEQEND
  8
0
  0
POLYLINE
  8
51
 66
1
 10
0.0000
 20
0.0000
 30
0.0000
 40
0.1270
 41
0.1270
 70
0
  0
VERTEX
  8
51
 10
5.8189
 20
2.2635
 30
0.0000
  0
VERTEX
  8
51
 10
5.6282
 20
2.0728
 30
0.0000
  0
SEQEND
  8
0
  0
POLYLINE
  8
51
 66
1
 10
0.0000
 20
0.0000
 30
0.0000
 40
0.0635
 41
0.0635
 70
0
  0
VERTEX
  8
51
 10
5.6058
 20
2.0953
 30
0.0000
 42
1.0000
  0
VERTEX
  8
51
 10
5.6507
 20
2.0504
 30
0.0000
  0
SEQEND
  8
0
  0
POLYLINE
  8
51
 66
1
 10
0.0000
 20
0.0000
 30
0.0000
 40
0.0635
 41
0.0635
 70
0
  0
VERTEX
  8
51
 10
5.8414
 20
2.2410
 30
0.0000
 42
1.0000
  0
VERTEX
  8
51
 10
5.7965
 20
2.2859
 30
0.0000
  0
SEQEND
  8
0
  0
POLYLINE
  8
51
 66
1
 10
0.0000
 20
0.0000
 30
0.0000
 40
0.1270
 41
0.1270
 70
0
  0
VERTEX
  8
51
 10
5.6282
 20
2.0728
 30
0.0000
  0
VERTEX
  8
51
 10
5.2469
 20
2.0728
 30
0.0000
  0
SEQEND
  8
0
  0
POLYLINE
  8
51
 66
1
 10
0.0000
 20
0.0000
 30
0.0000
 40
0.0635
 41
0.0635
 70
0
  0
VERTEX
  8
51
 10
5.2469
 20
2.1046
 30
0.0000
 42
1.0000
  0
VERTEX
  8
51
 10
5.2469
 20
2.0411
 30
0.0000
  0
SEQEND
  8
0
  0
POLYLINE
  8
51
 66
1
 10
0.0000
 20
0.0000
 30
0.0000
 40
0.0635
 41
0.0635
 70
0
  0
VERTEX
  8
51
 10
5.6282
 20
2.0411
 30
0.0000
 42
1.0000
  0
VERTEX
  8
51
 10
5.6282
 20
2.1046
 30
0.0000
  0
SEQEND
  8
0
  0
POLYLINE
  8
51
 66
1
 10
0.0000
 20
0.0000
 30
0.0000
 40
0.1270
 41
0.1270
 70
0
  0
VERTEX
  8
51
 10
5.2469
 20
2.0728
 30
0.0000
  0
VERTEX
  8
51
 10
5.0563
 20
2.2635
 30
0.0000
  0
SEQEND
  8
0
  0
POLYLINE
  8
51
 66
1
 10
0.0000
 20
0.0000
 30
0.0000
 40
0.0635
 41
0.0635
 70
0
  0
VERTEX
  8
51
 10
5.0787
 20
2.2859
 30
0.0000
 42
1.0000
  0
VERTEX
  8
51
 10
5.0338
 20
2.2410
 30
0.0000
  0
SEQEND
  8
0
  0
POLYLINE
  8
51
 66
1
 10
0.0000
 20
0.0000
 30
0.0000
 40
0.0635
 41
0.0635
 70
0
  0
VERTEX
  8
51
 10
5.2245
 20
2.0504
 30
0.0000
 42
1.0000
  0
VERTEX
  8
51
 10
5.2694
 20
2.0953
 30
0.0000
  0
SEQEND
  8
0
  0
POLYLINE
  8
51
 66
1
 10
0.0000
 20
0.0000
 30
0.0000
 40
0.1270
 41
0.1270
 70
0
  0
VERTEX
  8
51
 10
13.7562
 20
2.0728
 30
0.0000
  0
VERTEX
  8
51
 10
13.7562
 20
3.2168
 30
0.0000
  0
SEQEND
  8
0
  0
POLYLINE
  8
51
 66
1
 10
0.0000
 20
0.0000
 30
0.0000
 40
0.0635
 41
0.0635
 70
0
  0
VERTEX
  8
51
 10
13.7880
 20
3.2168
 30
0.0000
 42
1.0000
  0
VERTEX
  8
51
 10
13.7245
 20
3.2168
 30
0.0000
  0
SEQEND
  8
0
  0
POLYLINE
  8
51
 66
1
 10
0.0000
 20
0.0000
 30
0.0000
 40
0.0635
 41
0.0635
 70
0
  0
VERTEX
  8
51
 10
13.7245
 20
2.0728
 30
0.0000
 42
1.0000
  0
VERTEX
  8
51
 10
13.7880
 20
2.0728
 30
0.0000
  0
SEQEND
  8
0
  0
POLYLINE
  8
51
 66
1
 10
0.0000
 20
0.0000
 30
0.0000
 40
0.1270
 41
0.1270
 70
0
  0
VERTEX
  8
51
 10
13.7562
 20
3.2168
 30
0.0000
  0
VERTEX
  8
51
 10
13.1843
 20
2.6448
 30
0.0000
  0
SEQEND
  8
0
  0
POLYLINE
  8
51
 66
1
 10
0.0000
 20
0.0000
 30
0.0000
 40
0.0635
 41
0.0635
 70
0
  0
VERTEX
  8
51
 10
13.1618
 20
2.6673
 30
0.0000
 42
1.0000
  0
VERTEX
  8
51
 10
13.2067
 20
2.6224
 30
0.0000
  0
SEQEND
  8
0
  0
POLYLINE
  8
51
 66
1
 10
0.0000
 20
0.0000
 30
0.0000
 40
0.0635
 41
0.0635
 70
0
  0
VERTEX
  8
51
 10
13.7787
 20
3.1944
 30
0.0000
 42
1.0000
  0
VERTEX
  8
51
 10
13.7338
 20
3.2393
 30
0.0000
  0
SEQEND
  8
0
  0
POLYLINE
  8
51
 66
1
 10
0.0000
 20
0.0000
 30
0.0000
 40
0.1270
 41
0.1270
 70
0
  0
VERTEX
  8
51
 10
13.1843
 20
2.6448
 30
0.0000
  0
VERTEX
  8
51
 10
13.9469
 20
2.6448
 30
0.0000
  0
SEQEND
  8
0
  0
POLYLINE
  8
51
 66
1
 10
0.0000
 20
0.0000
 30
0.0000
 40
0.0635
 41
0.0635
 70
0
  0
VERTEX
  8
51
 10
13.9469
 20
2.6131
 30
0.0000
 42
1.0000
  0
VERTEX
  8
51
 10
13.9469
 20
2.6766
 30
0.0000
  0
SEQEND
  8
0
  0
POLYLINE
  8
51
 66
1
 10
0.0000
 20
0.0000
 30
0.0000
 40
0.0635
 41
0.0635
 70
0
  0
VERTEX
  8
51
 10
13.1843
 20
2.6766
 30
0.0000
 42
1.0000
  0
VERTEX
  8
51
 10
13.1843
 20
2.6131
 30
0.0000
  0
SEQEND
  8
0
  0
POLYLINE
  8
21
 66
1
 10
0.0000
 20
0.0000
 30
0.0000
 40
0.1524
 41
0.1524
 70
0
  0
VERTEX
  8
21
 10
9.5648
 20
3.0253
 30
0.0000
 42
1.0000
  0
VERTEX
  8
21
 10
9.5648
 20
6.5813
 30
0.0000
 42
1.0000
  0
VERTEX
  8
21
 10
9.5648
 20
3.0253
 30
0.0000
  0
SEQEND
  8
0
  0
POLYLINE
  8
51
 66
1
 10
0.0000
 20
0.0000
 30
0.0000
 40
0.1524
 41
0.1524
 70
0
  0
VERTEX
  8
51
 10
7.4058
 20
2.1363
 30
0.0000
 42
1.0000
  0
VERTEX
  8
51
 10
7.4058
 20
3.1523
 30
0.0000
 42
1.0000
  0
VERTEX
  8
51
 10
7.4058
 20
2.1363
 30
0.0000
  0
SEQEND
  8
0
  0
POLYLINE
  8
51
 66
1
 10
0.0000
 20
0.0000
 30
0.0000
 40
0.1524
 41
0.1524
 70
0
  0
VERTEX
  8
51
 10
11.7238
 20
2.2633
 30
0.0000
 42
1.0000
  0
VERTEX
  8
51
 10
11.7238
 20
3.2793
 30
0.0000
 42
1.0000
  0
VERTEX
  8
51
 10
11.7238
 20
2.2633
 30
0.0000
  0
SEQEND
  8
0
  0
POLYLINE
  8
51
 66
1
 10
0.0000
 20
0.0000
 30
0.0000
 40
0.1524
 41
0.1524
 70
0
  0
VERTEX
  8
51
 10
11.7238
 20
6.4543
 30
0.0000
 42
1.0000
  0
VERTEX
  8
51
 10
11.7238
 20
7.4703
 30
0.0000
 42
1.0000
  0
VERTEX
  8
51
 10
11.7238
 20
6.4543
 30
0.0000
  0
SEQEND
  8
0
  0
POLYLINE
  8
51
 66
1
 10
0.0000
 20
0.0000
 30
0.0000
 40
0.1524
 41
0.1524
 70
0
  0
VERTEX
  8
51
 10
7.4058
 20
6.4543
 30
0.0000
 42
1.0000
  0
VERTEX
  8
51
 10
7.4058
 20
7.4703
 30
0.0000
 42
1.0000
  0
VERTEX
  8
51
 10
7.4058
 20
6.4543
 30
0.0000
  0
SEQEND
  8
0
  0
POLYLINE
  8
51
 66
1
 10
0.0000
 20
0.0000
 30
0.0000
 40
0.0508
 41
0.0508
 70
0
  0
VERTEX
  8
51
 10
9.5648
 20
4.1683
 30
0.0000
 42
1.0000
  0
VERTEX
  8
51
 10
9.5648
 20
5.4383
 30
0.0000
 42
1.0000
  0
VERTEX
  8
51
 10
9.5648
 20
4.1683
 30
0.0000
  0
SEQEND
  8
0
  0
POLYLINE
  8
21
 66
1
 10
0.0000
 20
0.0000
 30
0.0000
 40
0.1524
 41
0.1524
 70
0
  0
VERTEX
  8
21
 10
9.5648
 20
4.5493
 30
0.0000
 42
1.0000
  0
VERTEX
  8
21
 10
9.5648
 20
5.0573
 30
0.0000
 42
1.0000
  0
VERTEX
  8
21
 10
9.5648
 20
4.5493
 30
0.0000
  0
SEQEND
  8
0
  0
INSERT
  8
17
  2
LONGP100
 10
6.3136
 20
7.0639
 30
0.0000
 41
1.5240
 42
1.5240
 43
1.0000
 50
0.0000
  0
INSERT
  8
17
  2
LONGP100
 10
6.3136
 20
7.0639
 30
0.0000
 41
1.5240
 42
1.5240
 43
1.0000
 50
0.0000
  0
INSERT
  8
17
  2
LONGP100
 10
12.8160
 20
7.0639
 30
0.0000
 41
1.5240
 42
1.5240
 43
1.0000
 50
0.0000
  0
INSERT
  8
17
  2
LONGP100
 10
12.8160
 20
7.0639
 30
0.0000
 41
1.5240
 42
1.5240
 43
1.0000
 50
0.0000
  0
INSERT
  8
17
  2
LONGP100
 10
6.3136
 20
2.5427
 30
0.0000
 41
1.5240
 42
1.5240
 43
1.0000
 50
0.0000
  0
INSERT
  8
17
  2
LONGP100
 10
6.3136
 20
2.5427
 30
0.0000
 41
1.5240
 42
1.5240
 43
1.0000
 50
0.0000
  0
INSERT
  8
17
  2
LONGP100
 10
12.8160
 20
2.5427
 30
0.0000
 41
1.5240
 42
1.5240
 43
1.0000
 50
0.0000
  0
INSERT
  8
17
  2
LONGP100
 10
12.8160
 20
2.5427
 30
0.0000
 41
1.5240
 42
1.5240
 43
1.0000
 50
0.0000
  0
POLYLINE
  8
16
 66
1
 10
0.0000
 20
0.0000
 30
0.0000
 40
1.2700
 41
1.2700
 70
0
  0
VERTEX
  8
16
 10
6.3136
 20
7.0639
 30
0.0000
  0
VERTEX
  8
16
 10
12.8160
 20
7.0639
 30
0.0000
  0
SEQEND
  8
0
  0
POLYLINE
  8
16
 66
1
 10
0.0000
 20
0.0000
 30
0.0000
 40
0.6350
 41
0.6350
 70
0
  0
VERTEX
  8
16
 10
12.8160
 20
6.7464
 30
0.0000
 42
1.0000
  0
VERTEX
  8
16
 10
12.8160
 20
7.3814
 30
0.0000
  0
SEQEND
  8
0
  0
POLYLINE
  8
16
 66
1
 10
0.0000
 20
0.0000
 30
0.0000
 40
0.6350
 41
0.6350
 70
0
  0
VERTEX
  8
16
 10
6.3136
 20
7.3814
 30
0.0000
 42
1.0000
  0
VERTEX
  8
16
 10
6.3136
 20
6.7464
 30
0.0000
  0
SEQEND
  8
0
  0
POLYLINE
  8
16
 66
1
 10
0.0000
 20
0.0000
 30
0.0000
 40
1.2700
 41
1.2700
 70
0
  0
VERTEX
  8
16
 10
16.2508
 20
4.7980
 30
0.0000
  0
VERTEX
  8
16
 10
13.9849
 20
7.0639
 30
0.0000
  0
SEQEND
  8
0
  0
POLYLINE
  8
16
 66
1
 10
0.0000
 20
0.0000
 30
0.0000
 40
0.6350
 41
0.6350
 70
0
  0
VERTEX
  8
16
 10
14.2094
 20
7.2884
 30
0.0000
 42
1.0000
  0
VERTEX
  8
16
 10
13.7604
 20
6.8394
 30
0.0000
  0
SEQEND
  8
0
  0
POLYLINE
  8
16
 66
1
 10
0.0000
 20
0.0000
 30
0.0000
 40
0.6350
 41
0.6350
 70
0
  0
VERTEX
  8
16
 10
16.0263
 20
4.5735
 30
0.0000
 42
1.0000
  0
VERTEX
  8
16
 10
16.4753
 20
5.0225
 30
0.0000
  0
SEQEND
  8
0
  0
POLYLINE
  8
16
 66
1
 10
0.0000
 20
0.0000
 30
0.0000
 40
1.2700
 41
1.2700
 70
0
  0
VERTEX
  8
16
 10
13.9849
 20
7.0639
 30
0.0000
  0
VERTEX
  8
16
 10
12.8160
 20
7.0639
 30
0.0000
  0
SEQEND
  8
0
  0
POLYLINE
  8
16
 66
1
 10
0.0000
 20
0.0000
 30
0.0000
 40
0.6350
 41
0.6350
 70
0
  0
VERTEX
  8
16
 10
12.8160
 20
7.3814
 30
0.0000
 42
1.0000
  0
VERTEX
  8
16
 10
12.8160
 20
6.7464
 30
0.0000
  0
SEQEND
  8
0
  0
POLYLINE
  8
16
 66
1
 10
0.0000
 20
0.0000
 30
0.0000
 40
0.6350
 41
0.6350
 70
0
  0
VERTEX
  8
16
 10
13.9849
 20
6.7464
 30
0.0000
 42
1.0000
  0
VERTEX
  8
16
 10
13.9849
 20
7.3814
 30
0.0000
  0
SEQEND
  8
0
  0
POLYLINE
  8
16
 66
1
 10
0.0000
 20
0.0000
 30
0.0000
 40
1.2700
 41
1.2700
 70
0
  0
VERTEX
  8
16
 10
6.3136
 20
2.5427
 30
0.0000
  0
VERTEX
  8
16
 10
12.8160
 20
2.5427
 30
0.0000
  0
SEQEND
  8
0
  0
POLYLINE
  8
16
 66
1
 10
0.0000
 20
0.0000
 30
0.0000
 40
0.6350
 41
0.6350
 70
0
  0
VERTEX
  8
16
 10
12.8160
 20
2.2252
 30
0.0000
 42
1.0000
  0
VERTEX
  8
16
 10
12.8160
 20
2.8602
 30
0.0000
  0
SEQEND
  8
0
  0
POLYLINE
  8
16
 66
1
 10
0.0000
 20
0.0000
 30
0.0000
 40
0.6350
 41
0.6350
 70
0
  0
VERTEX
  8
16
 10
6.3136
 20
2.8602
 30
0.0000
 42
1.0000
  0
VERTEX
  8
16
 10
6.3136
 20
2.2252
 30
0.0000
  0
SEQEND
  8
0
  0
POLYLINE
  8
16
 66
1
 10
0.0000
 20
0.0000
 30
0.0000
 40
1.2700
 41
1.2700
 70
0
  0
VERTEX
  8
16
 10
2.4862
 20
4.8270
 30
0.0000
  0
VERTEX
  8
16
 10
4.7705
 20
2.5427
 30
0.0000
  0
SEQEND
  8
0
  0
POLYLINE
  8
16
 66
1
 10
0.0000
 20
0.0000
 30
0.0000
 40
0.6350
 41
0.6350
 70
0
  0
VERTEX
  8
16
 10
4.5460
 20
2.3182
 30
0.0000
 42
1.0000
  0
VERTEX
  8
16
 10
4.9950
 20
2.7672
 30
0.0000
  0
SEQEND
  8
0
  0
POLYLINE
  8
16
 66
1
 10
0.0000
 20
0.0000
 30
0.0000
 40
0.6350
 41
0.6350
 70
0
  0
VERTEX
  8
16
 10
2.7107
 20
5.0515
 30
0.0000
 42
1.0000
  0
VERTEX
  8
16
 10
2.2617
 20
4.6025
 30
0.0000
  0
SEQEND
  8
0
  0
POLYLINE
  8
16
 66
1
 10
0.0000
 20
0.0000
 30
0.0000
 40
1.2700
 41
1.2700
 70
0
  0
VERTEX
  8
16
 10
4.7705
 20
2.5427
 30
0.0000
  0
VERTEX
  8
16
 10
6.3136
 20
2.5427
 30
0.0000
  0
SEQEND
  8
0
  0
POLYLINE
  8
16
 66
1
 10
0.0000
 20
0.0000
 30
0.0000
 40
0.6350
 41
0.6350
 70
0
  0
VERTEX
  8
16
 10
6.3136
 20
2.2252
 30
0.0000
 42
1.0000
  0
VERTEX
  8
16
 10
6.3136
 20
2.8602
 30
0.0000
  0
SEQEND
  8
0
  0
POLYLINE
  8
16
 66
1
 10
0.0000
 20
0.0000
 30
0.0000
 40
0.6350
 41
0.6350
 70
0
  0
VERTEX
  8
16
 10
4.7705
 20
2.8602
 30
0.0000
 42
1.0000
  0
VERTEX
  8
16
 10
4.7705
 20
2.2252
 30
0.0000
  0
SEQEND
  8
0
  0
POLYLINE
  8
16
 66
1
 10
0.0000
 20
0.0000
 30
0.0000
 40
0.6096
 41
0.6096
 70
0
  0
VERTEX
  8
16
 10
1.3207
 20
1.3236
 30
0.0000
  0
VERTEX
  8
16
 10
1.3206
 20
2.9034
 30
0.0000
  0
SEQEND
  8
0
  0
POLYLINE
  8
16
 66
1
 10
0.0000
 20
0.0000
 30
0.0000
 40
0.3048
 41
0.3048
 70
0
  0
VERTEX
  8
16
 10
1.4730
 20
2.9034
 30
0.0000
 42
1.0000
  0
VERTEX
  8
16
 10
1.1682
 20
2.9034
 30
0.0000
  0
SEQEND
  8
0
  0
POLYLINE
  8
16
 66
1
 10
0.0000
 20
0.0000
 30
0.0000
 40
0.3048
 41
0.3048
 70
0
  0
VERTEX
  8
16
 10
1.1683
 20
1.3235
 30
0.0000
 42
1.0000
  0
VERTEX
  8
16
 10
1.4731
 20
1.3236
 30
0.0000
  0
SEQEND
  8
0
  0
POLYLINE
  8
16
 66
1
 10
0.0000
 20
0.0000
 30
0.0000
 40
0.6096
 41
0.6096
 70
0
  0
VERTEX
  8
16
 10
1.3206
 20
2.9034
 30
0.0000
  0
VERTEX
  8
16
 10
1.5814
 20
2.6426
 30
0.0000
  0
SEQEND
  8
0
  0
POLYLINE
  8
16
 66
1
 10
0.0000
 20
0.0000
 30
0.0000
 40
0.3048
 41
0.3048
 70
0
  0
VERTEX
  8
16
 10
1.4736
 20
2.5349
 30
0.0000
 42
1.0000
  0
VERTEX
  8
16
 10
1.6892
 20
2.7504
 30
0.0000
  0
SEQEND
  8
0
  0
POLYLINE
  8
16
 66
1
 10
0.0000
 20
0.0000
 30
0.0000
 40
0.3048
 41
0.3048
 70
0
  0
VERTEX
  8
16
 10
1.4284
 20
3.0111
 30
0.0000
 42
1.0000
  0
VERTEX
  8
16
 10
1.2129
 20
2.7956
 30
0.0000
  0
SEQEND
  8
0
  0
POLYLINE
  8
16
 66
1
 10
0.0000
 20
0.0000
 30
0.0000
 40
0.6096
 41
0.6096
 70
0
  0
VERTEX
  8
16
 10
1.5814
 20
2.6426
 30
0.0000
  0
VERTEX
  8
16
 10
2.4794
 20
2.6426
 30
0.0000
  0
SEQEND
  8
0
  0
POLYLINE
  8
16
 66
1
 10
0.0000
 20
0.0000
 30
0.0000
 40
0.3048
 41
0.3048
 70
0
  0
VERTEX
  8
16
 10
2.4794
 20
2.4902
 30
0.0000
 42
1.0000
  0
VERTEX
  8
16
 10
2.4794
 20
2.7950
 30
0.0000
  0
SEQEND
  8
0
  0
POLYLINE
  8
16
 66
1
 10
0.0000
 20
0.0000
 30
0.0000
 40
0.3048
 41
0.3048
 70
0
  0
VERTEX
  8
16
 10
1.5814
 20
2.7950
 30
0.0000
 42
1.0000
  0
VERTEX
  8
16
 10
1.5814
 20
2.4902
 30
0.0000
  0
SEQEND
  8
0
  0
POLYLINE
  8
16
 66
1
 10
0.0000
 20
0.0000
 30
0.0000
 40
0.6096
 41
0.6096
 70
0
  0
VERTEX
  8
16
 10
2.4794
 20
2.6426
 30
0.0000
  0
VERTEX
  8
16
 10
3.4570
 20
1.6651
 30
0.0000
  0
SEQEND
  8
0
  0
POLYLINE
  8
16
 66
1
 10
0.0000
 20
0.0000
 30
0.0000
 40
0.3048
 41
0.3048
 70
0
  0
VERTEX
  8
16
 10
3.3492
 20
1.5573
 30
0.0000
 42
1.0000
  0
VERTEX
  8
16
 10
3.5647
 20
1.7728
 30
0.0000
  0
SEQEND
  8
0
  0
POLYLINE
  8
16
 66
1
 10
0.0000
 20
0.0000
 30
0.0000
 40
0.3048
 41
0.3048
 70
0
  0
VERTEX
  8
16
 10
2.5872
 20
2.7504
 30
0.0000
 42
1.0000
  0
VERTEX
  8
16
 10
2.3717
 20
2.5349
 30
0.0000
  0
SEQEND
  8
0
  0
POLYLINE
  8
16
 66
1
 10
0.0000
 20
0.0000
 30
0.0000
 40
0.6096
 41
0.6096
 70
0
  0
VERTEX
  8
16
 10
3.4570
 20
1.6651
 30
0.0000
  0
VERTEX
  8
16
 10
3.7933
 20
1.3287
 30
0.0000
  0
SEQEND
  8
0
  0
POLYLINE
  8
16
 66
1
 10
0.0000
 20
0.0000
 30
0.0000
 40
0.3048
 41
0.3048
 70
0
  0
VERTEX
  8
16
 10
3.6856
 20
1.2209
 30
0.0000
 42
1.0000
  0
VERTEX
  8
16
 10
3.9011
 20
1.4365
 30
0.0000
  0
SEQEND
  8
0
  0
POLYLINE
  8
16
 66
1
 10
0.0000
 20
0.0000
 30
0.0000
 40
0.3048
 41
0.3048
 70
0
  0
VERTEX
  8
16
 10
3.5647
 20
1.7728
 30
0.0000
 42
1.0000
  0
VERTEX
  8
16
 10
3.3492
 20
1.5573
 30
0.0000
  0
SEQEND
  8
0
  0
POLYLINE
  8
16
 66
1
 10
0.0000
 20
0.0000
 30
0.0000
 40
0.6096
 41
0.6096
 70
0
  0
VERTEX
  8
16
 10
3.7933
 20
1.3287
 30
0.0000
  0
VERTEX
  8
16
 10
1.3207
 20
1.3236
 30
0.0000
  0
SEQEND
  8
0
  0
POLYLINE
  8
16
 66
1
 10
0.0000
 20
0.0000
 30
0.0000
 40
0.3048
 41
0.3048
 70
0
  0
VERTEX
  8
16
 10
1.3204
 20
1.4760
 30
0.0000
 42
1.0000
  0
VERTEX
  8
16
 10
1.3210
 20
1.1712
 30
0.0000
  0
SEQEND
  8
0
  0
POLYLINE
  8
16
 66
1
 10
0.0000
 20
0.0000
 30
0.0000
 40
0.3048
 41
0.3048
 70
0
  0
VERTEX
  8
16
 10
3.7937
 20
1.1763
 30
0.0000
 42
1.0000
  0
VERTEX
  8
16
 10
3.7930
 20
1.4811
 30
0.0000
  0
SEQEND
  8
0
  0
POLYLINE
  8
16
 66
1
 10
0.0000
 20
0.0000
 30
0.0000
 40
0.6096
 41
0.6096
 70
0
  0
VERTEX
  8
16
 10
7.4090
 20
4.2191
 30
0.0000
  0
VERTEX
  8
16
 10
5.2853
 20
4.2191
 30
0.0000
  0
SEQEND
  8
0
  0
POLYLINE
  8
16
 66
1
 10
0.0000
 20
0.0000
 30
0.0000
 40
0.3048
 41
0.3048
 70
0
  0
VERTEX
  8
16
 10
5.2853
 20
4.3715
 30
0.0000
 42
1.0000
  0
VERTEX
  8
16
 10
5.2853
 20
4.0667
 30
0.0000
  0
SEQEND
  8
0
  0
POLYLINE
  8
16
 66
1
 10
0.0000
 20
0.0000
 30
0.0000
 40
0.3048
 41
0.3048
 70
0
  0
VERTEX
  8
16
 10
7.4090
 20
4.0667
 30
0.0000
 42
1.0000
  0
VERTEX
  8
16
 10
7.4090
 20
4.3715
 30
0.0000
  0
SEQEND
  8
0
  0
POLYLINE
  8
16
 66
1
 10
0.0000
 20
0.0000
 30
0.0000
 40
0.6096
 41
0.6096
 70
0
  0
VERTEX
  8
16
 10
5.2853
 20
4.2191
 30
0.0000
  0
VERTEX
  8
16
 10
4.6706
 20
4.8338
 30
0.0000
  0
SEQEND
  8
0
  0
POLYLINE
  8
16
 66
1
 10
0.0000
 20
0.0000
 30
0.0000
 40
0.3048
 41
0.3048
 70
0
  0
VERTEX
  8
16
 10
4.7784
 20
4.9416
 30
0.0000
 42
1.0000
  0
VERTEX
  8
16
 10
4.5628
 20
4.7260
 30
0.0000
  0
SEQEND
  8
0
  0
POLYLINE
  8
16
 66
1
 10
0.0000
 20
0.0000
 30
0.0000
 40
0.3048
 41
0.3048
 70
0
  0
VERTEX
  8
16
 10
5.1775
 20
4.1114
 30
0.0000
 42
1.0000
  0
VERTEX
  8
16
 10
5.3930
 20
4.3269
 30
0.0000
  0
SEQEND
  8
0
  0
POLYLINE
  8
16
 66
1
 10
0.0000
 20
0.0000
 30
0.0000
 40
0.6096
 41
0.6096
 70
0
  0
VERTEX
  8
16
 10
4.6706
 20
4.8338
 30
0.0000
  0
VERTEX
  8
16
 10
4.6706
 20
5.6143
 30
0.0000
  0
SEQEND
  8
0
  0
POLYLINE
  8
16
 66
1
 10
0.0000
 20
0.0000
 30
0.0000
 40
0.3048
 41
0.3048
 70
0
  0
VERTEX
  8
16
 10
4.8230
 20
5.6143
 30
0.0000
 42
1.0000
  0
VERTEX
  8
16
 10
4.5182
 20
5.6143
 30
0.0000
  0
SEQEND
  8
0
  0
POLYLINE
  8
16
 66
1
 10
0.0000
 20
0.0000
 30
0.0000
 40
0.3048
 41
0.3048
 70
0
  0
VERTEX
  8
16
 10
4.5182
 20
4.8338
 30
0.0000
 42
1.0000
  0
VERTEX
  8
16
 10
4.8230
 20
4.8338
 30
0.0000
  0
SEQEND
  8
0
  0
POLYLINE
  8
16
 66
1
 10
0.0000
 20
0.0000
 30
0.0000
 40
0.6096
 41
0.6096
 70
0
  0
VERTEX
  8
16
 10
4.6706
 20
5.6143
 30
0.0000
  0
VERTEX
  8
16
 10
5.2181
 20
5.3875
 30
0.0000
  0
SEQEND
  8
0
  0
POLYLINE
  8
16
 66
1
 10
0.0000
 20
0.0000
 30
0.0000
 40
0.3048
 41
0.3048
 70
0
  0
VERTEX
  8
16
 10
5.1598
 20
5.2467
 30
0.0000
 42
1.0000
  0
VERTEX
  8
16
 10
5.2764
 20
5.5283
 30
0.0000
  0
SEQEND
  8
0
  0
POLYLINE
  8
16
 66
1
 10
0.0000
 20
0.0000
 30
0.0000
 40
0.3048
 41
0.3048
 70
0
  0
VERTEX
  8
16
 10
4.7289
 20
5.7551
 30
0.0000
 42
1.0000
  0
VERTEX
  8
16
 10
4.6123
 20
5.4735
 30
0.0000
  0
SEQEND
  8
0
  0
POLYLINE
  8
16
 66
1
 10
0.0000
 20
0.0000
 30
0.0000
 40
0.6096
 41
0.6096
 70
0
  0
VERTEX
  8
16
 10
5.2181
 20
5.3875
 30
0.0000
  0
VERTEX
  8
16
 10
7.4090
 20
5.3875
 30
0.0000
  0
SEQEND
  8
0
  0
POLYLINE
  8
16
 66
1
 10
0.0000
 20
0.0000
 30
0.0000
 40
0.3048
 41
0.3048
 70
0
  0
VERTEX
  8
16
 10
7.4090
 20
5.2351
 30
0.0000
 42
1.0000
  0
VERTEX
  8
16
 10
7.4090
 20
5.5399
 30
0.0000
  0
SEQEND
  8
0
  0
POLYLINE
  8
16
 66
1
 10
0.0000
 20
0.0000
 30
0.0000
 40
0.3048
 41
0.3048
 70
0
  0
VERTEX
  8
16
 10
5.2181
 20
5.5399
 30
0.0000
 42
1.0000
  0
VERTEX
  8
16
 10
5.2181
 20
5.2351
 30
0.0000
  0
SEQEND
  8
0
  0
POLYLINE
  8
16
 66
1
 10
0.0000
 20
0.0000
 30
0.0000
 40
0.6096
 41
0.6096
 70
0
  0
VERTEX
  8
16
 10
7.4090
 20
5.3875
 30
0.0000
  0
VERTEX
  8
16
 10
7.7156
 20
5.5145
 30
0.0000
  0
SEQEND
  8
0
  0
POLYLINE
  8
16
 66
1
 10
0.0000
 20
0.0000
 30
0.0000
 40
0.3048
 41
0.3048
 70
0
  0
VERTEX
  8
16
 10
7.7739
 20
5.3737
 30
0.0000
 42
1.0000
  0
VERTEX
  8
16
 10
7.6573
 20
5.6553
 30
0.0000
  0
SEQEND
  8
0
  0
POLYLINE
  8
16
 66
1
 10
0.0000
 20
0.0000
 30
0.0000
 40
0.3048
 41
0.3048
 70
0
  0
VERTEX
  8
16
 10
7.3507
 20
5.5283
 30
0.0000
 42
1.0000
  0
VERTEX
  8
16
 10
7.4673
 20
5.2467
 30
0.0000
  0
SEQEND
  8
0
  0
POLYLINE
  8
16
 66
1
 10
0.0000
 20
0.0000
 30
0.0000
 40
0.6096
 41
0.6096
 70
0
  0
VERTEX
  8
16
 10
7.7156
 20
5.5145
 30
0.0000
  0
VERTEX
  8
16
 10
11.4139
 20
5.5145
 30
0.0000
  0
SEQEND
  8
0
  0
POLYLINE
  8
16
 66
1
 10
0.0000
 20
0.0000
 30
0.0000
 40
0.3048
 41
0.3048
 70
0
  0
VERTEX
  8
16
 10
11.4139
 20
5.3621
 30
0.0000
 42
1.0000
  0
VERTEX
  8
16
 10
11.4139
 20
5.6669
 30
0.0000
  0
SEQEND
  8
0
  0
POLYLINE
  8
16
 66
1
 10
0.0000
 20
0.0000
 30
0.0000
 40
0.3048
 41
0.3048
 70
0
  0
VERTEX
  8
16
 10
7.7156
 20
5.6669
 30
0.0000
 42
1.0000
  0
VERTEX
  8
16
 10
7.7156
 20
5.3621
 30
0.0000
  0
SEQEND
  8
0
  0
POLYLINE
  8
16
 66
1
 10
0.0000
 20
0.0000
 30
0.0000
 40
0.6096
 41
0.6096
 70
0
  0
VERTEX
  8
16
 10
11.4139
 20
5.5145
 30
0.0000
  0
VERTEX
  8
16
 10
11.7205
 20
5.3875
 30
0.0000
  0
SEQEND
  8
0
  0
POLYLINE
  8
16
 66
1
 10
0.0000
 20
0.0000
 30
0.0000
 40
0.3048
 41
0.3048
 70
0
  0
VERTEX
  8
16
 10
11.6622
 20
5.2467
 30
0.0000
 42
1.0000
  0
VERTEX
  8
16
 10
11.7788
 20
5.5283
 30
0.0000
  0
SEQEND
  8
0
  0
POLYLINE
  8
16
 66
1
 10
0.0000
 20
0.0000
 30
0.0000
 40
0.3048
 41
0.3048
 70
0
  0
VERTEX
  8
16
 10
11.4722
 20
5.6553
 30
0.0000
 42
1.0000
  0
VERTEX
  8
16
 10
11.3556
 20
5.3737
 30
0.0000
  0
SEQEND
  8
0
  0
POLYLINE
  8
16
 66
1
 10
0.0000
 20
0.0000
 30
0.0000
 40
0.6096
 41
0.6096
 70
0
  0
VERTEX
  8
16
 10
11.7205
 20
5.3875
 30
0.0000
  0
VERTEX
  8
16
 10
13.4701
 20
5.3875
 30
0.0000
  0
SEQEND
  8
0
  0
POLYLINE
  8
16
 66
1
 10
0.0000
 20
0.0000
 30
0.0000
 40
0.3048
 41
0.3048
 70
0
  0
VERTEX
  8
16
 10
13.4701
 20
5.2351
 30
0.0000
 42
1.0000
  0
VERTEX
  8
16
 10
13.4701
 20
5.5399
 30
0.0000
  0
SEQEND
  8
0
  0
POLYLINE
  8
16
 66
1
 10
0.0000
 20
0.0000
 30
0.0000
 40
0.3048
 41
0.3048
 70
0
  0
VERTEX
  8
16
 10
11.7205
 20
5.5399
 30
0.0000
 42
1.0000
  0
VERTEX
  8
16
 10
11.7205
 20
5.2351
 30
0.0000
  0
SEQEND
  8
0
  0
POLYLINE
  8
16
 66
1
 10
0.0000
 20
0.0000
 30
0.0000
 40
0.6096
 41
0.6096
 70
0
  0
VERTEX
  8
16
 10
13.4701
 20
5.3875
 30
0.0000
  0
VERTEX
  8
16
 10
14.0664
 20
4.7912
 30
0.0000
  0
SEQEND
  8
0
  0
POLYLINE
  8
16
 66
1
 10
0.0000
 20
0.0000
 30
0.0000
 40
0.3048
 41
0.3048
 70
0
  0
VERTEX
  8
16
 10
13.9586
 20
4.6834
 30
0.0000
 42
1.0000
  0
VERTEX
  8
16
 10
14.1742
 20
4.8990
 30
0.0000
  0
SEQEND
  8
0
  0
POLYLINE
  8
16
 66
1
 10
0.0000
 20
0.0000
 30
0.0000
 40
0.3048
 41
0.3048
 70
0
  0
VERTEX
  8
16
 10
13.5778
 20
5.4953
 30
0.0000
 42
1.0000
  0
VERTEX
  8
16
 10
13.3623
 20
5.2798
 30
0.0000
  0
SEQEND
  8
0
  0
POLYLINE
  8
16
 66
1
 10
0.0000
 20
0.0000
 30
0.0000
 40
0.6096
 41
0.6096
 70
0
  0
VERTEX
  8
16
 10
14.0664
 20
4.7912
 30
0.0000
  0
VERTEX
  8
16
 10
14.0664
 20
4.1549
 30
0.0000
  0
SEQEND
  8
0
  0
POLYLINE
  8
16
 66
1
 10
0.0000
 20
0.0000
 30
0.0000
 40
0.3048
 41
0.3048
 70
0
  0
VERTEX
  8
16
 10
13.9140
 20
4.1549
 30
0.0000
 42
1.0000
  0
VERTEX
  8
16
 10
14.2188
 20
4.1549
 30
0.0000
  0
SEQEND
  8
0
  0
POLYLINE
  8
16
 66
1
 10
0.0000
 20
0.0000
 30
0.0000
 40
0.3048
 41
0.3048
 70
0
  0
VERTEX
  8
16
 10
14.2188
 20
4.7912
 30
0.0000
 42
1.0000
  0
VERTEX
  8
16
 10
13.9140
 20
4.7912
 30
0.0000
  0
SEQEND
  8
0
  0
POLYLINE
  8
16
 66
1
 10
0.0000
 20
0.0000
 30
0.0000
 40
0.6096
 41
0.6096
 70
0
  0
VERTEX
  8
16
 10
14.0664
 20
4.1549
 30
0.0000
  0
VERTEX
  8
16
 10
13.9114
 20
4.2191
 30
0.0000
  0
SEQEND
  8
0
  0
POLYLINE
  8
16
 66
1
 10
0.0000
 20
0.0000
 30
0.0000
 40
0.3048
 41
0.3048
 70
0
  0
VERTEX
  8
16
 10
13.9697
 20
4.3599
 30
0.0000
 42
1.0000
  0
VERTEX
  8
16
 10
13.8531
 20
4.0783
 30
0.0000
  0
SEQEND
  8
0
  0
POLYLINE
  8
16
 66
1
 10
0.0000
 20
0.0000
 30
0.0000
 40
0.3048
 41
0.3048
 70
0
  0
VERTEX
  8
16
 10
14.0081
 20
4.0141
 30
0.0000
 42
1.0000
  0
VERTEX
  8
16
 10
14.1247
 20
4.2957
 30
0.0000
  0
SEQEND
  8
0
  0
POLYLINE
  8
16
 66
1
 10
0.0000
 20
0.0000
 30
0.0000
 40
0.6096
 41
0.6096
 70
0
  0
VERTEX
  8
16
 10
13.9114
 20
4.2191
 30
0.0000
  0
VERTEX
  8
16
 10
11.7205
 20
4.2191
 30
0.0000
  0
SEQEND
  8
0
  0
POLYLINE
  8
16
 66
1
 10
0.0000
 20
0.0000
 30
0.0000
 40
0.3048
 41
0.3048
 70
0
  0
VERTEX
  8
16
 10
11.7205
 20
4.3715
 30
0.0000
 42
1.0000
  0
VERTEX
  8
16
 10
11.7205
 20
4.0667
 30
0.0000
  0
SEQEND
  8
0
  0
POLYLINE
  8
16
 66
1
 10
0.0000
 20
0.0000
 30
0.0000
 40
0.3048
 41
0.3048
 70
0
  0
VERTEX
  8
16
 10
13.9114
 20
4.0667
 30
0.0000
 42
1.0000
  0
VERTEX
  8
16
 10
13.9114
 20
4.3715
 30
0.0000
  0
SEQEND
  8
0
  0
POLYLINE
  8
16
 66
1
 10
0.0000
 20
0.0000
 30
0.0000
 40
0.6096
 41
0.6096
 70
0
  0
VERTEX
  8
16
 10
11.7205
 20
4.2191
 30
0.0000
  0
VERTEX
  8
16
 10
11.4139
 20
4.0921
 30
0.0000
  0
SEQEND
  8
0
  0
POLYLINE
  8
16
 66
1
 10
0.0000
 20
0.0000
 30
0.0000
 40
0.3048
 41
0.3048
 70
0
  0
VERTEX
  8
16
 10
11.3556
 20
4.2329
 30
0.0000
 42
1.0000
  0
VERTEX
  8
16
 10
11.4722
 20
3.9513
 30
0.0000
  0
SEQEND
  8
0
  0
POLYLINE
  8
16
 66
1
 10
0.0000
 20
0.0000
 30
0.0000
 40
0.3048
 41
0.3048
 70
0
  0
VERTEX
  8
16
 10
11.7788
 20
4.0783
 30
0.0000
 42
1.0000
  0
VERTEX
  8
16
 10
11.6622
 20
4.3599
 30
0.0000
  0
SEQEND
  8
0
  0
POLYLINE
  8
16
 66
1
 10
0.0000
 20
0.0000
 30
0.0000
 40
0.6096
 41
0.6096
 70
0
  0
VERTEX
  8
16
 10
11.4139
 20
4.0921
 30
0.0000
  0
VERTEX
  8
16
 10
7.7156
 20
4.0921
 30
0.0000
  0
SEQEND
  8
0
  0
POLYLINE
  8
16
 66
1
 10
0.0000
 20
0.0000
 30
0.0000
 40
0.3048
 41
0.3048
 70
0
  0
VERTEX
  8
16
 10
7.7156
 20
4.2445
 30
0.0000
 42
1.0000
  0
VERTEX
  8
16
 10
7.7156
 20
3.9397
 30
0.0000
  0
SEQEND
  8
0
  0
POLYLINE
  8
16
 66
1
 10
0.0000
 20
0.0000
 30
0.0000
 40
0.3048
 41
0.3048
 70
0
  0
VERTEX
  8
16
 10
11.4139
 20
3.9397
 30
0.0000
 42
1.0000
  0
VERTEX
  8
16
 10
11.4139
 20
4.2445
 30
0.0000
  0
SEQEND
  8
0
  0
POLYLINE
  8
16
 66
1
 10
0.0000
 20
0.0000
 30
0.0000
 40
0.6096
 41
0.6096
 70
0
  0
VERTEX
  8
16
 10
7.7156
 20
4.0921
 30
0.0000
  0
VERTEX
  8
16
 10
7.4090
 20
4.2191
 30
0.0000
  0
SEQEND
  8
0
  0
POLYLINE
  8
16
 66
1
 10
0.0000
 20
0.0000
 30
0.0000
 40
0.3048
 41
0.3048
 70
0
  0
VERTEX
  8
16
 10
7.4673
 20
4.3599
 30
0.0000
 42
1.0000
  0
VERTEX
  8
16
 10
7.3507
 20
4.0783
 30
0.0000
  0
SEQEND
  8
0
  0
POLYLINE
  8
16
 66
1
 10
0.0000
 20
0.0000
 30
0.0000
 40
0.3048
 41
0.3048
 70
0
  0
VERTEX
  8
16
 10
7.6573
 20
3.9513
 30
0.0000
 42
1.0000
  0
VERTEX
  8
16
 10
7.7739
 20
4.2329
 30
0.0000
  0
SEQEND
  8
0
  0
POLYLINE
  8
16
 66
1
 10
0.0000
 20
0.0000
 30
0.0000
 40
0.6096
 41
0.6096
 70
0
  0
VERTEX
  8
16
 10
17.5051
 20
1.3573
 30
0.0000
  0
VERTEX
  8
16
 10
14.7576
 20
1.3516
 30
0.0000
  0
SEQEND
  8
0
  0
POLYLINE
  8
16
 66
1
 10
0.0000
 20
0.0000
 30
0.0000
 40
0.3048
 41
0.3048
 70
0
  0
VERTEX
  8
16
 10
14.7573
 20
1.5040
 30
0.0000
 42
1.0000
  0
VERTEX
  8
16
 10
14.7579
 20
1.1992
 30
0.0000
  0
SEQEND
  8
0
  0
POLYLINE
  8
16
 66
1
 10
0.0000
 20
0.0000
 30
0.0000
 40
0.3048
 41
0.3048
 70
0
  0
VERTEX
  8
16
 10
17.5055
 20
1.2049
 30
0.0000
 42
1.0000
  0
VERTEX
  8
16
 10
17.5048
 20
1.5097
 30
0.0000
  0
SEQEND
  8
0
  0
POLYLINE
  8
16
 66
1
 10
0.0000
 20
0.0000
 30
0.0000
 40
0.6096
 41
0.6096
 70
0
  0
VERTEX
  8
16
 10
14.7576
 20
1.3516
 30
0.0000
  0
VERTEX
  8
16
 10
14.9991
 20
1.5931
 30
0.0000
  0
SEQEND
  8
0
  0
POLYLINE
  8
16
 66
1
 10
0.0000
 20
0.0000
 30
0.0000
 40
0.3048
 41
0.3048
 70
0
  0
VERTEX
  8
16
 10
15.1069
 20
1.4854
 30
0.0000
 42
1.0000
  0
VERTEX
  8
16
 10
14.8914
 20
1.7009
 30
0.0000
  0
SEQEND
  8
0
  0
POLYLINE
  8
16
 66
1
 10
0.0000
 20
0.0000
 30
0.0000
 40
0.3048
 41
0.3048
 70
0
  0
VERTEX
  8
16
 10
14.6498
 20
1.4593
 30
0.0000
 42
1.0000
  0
VERTEX
  8
16
 10
14.8653
 20
1.2438
 30
0.0000
  0
SEQEND
  8
0
  0
POLYLINE
  8
16
 66
1
 10
0.0000
 20
0.0000
 30
0.0000
 40
0.6096
 41
0.6096
 70
0
  0
VERTEX
  8
16
 10
14.9991
 20
1.5931
 30
0.0000
  0
VERTEX
  8
16
 10
15.2544
 20
2.2093
 30
0.0000
  0
SEQEND
  8
0
  0
POLYLINE
  8
16
 66
1
 10
0.0000
 20
0.0000
 30
0.0000
 40
0.3048
 41
0.3048
 70
0
  0
VERTEX
  8
16
 10
15.3951
 20
2.1510
 30
0.0000
 42
1.0000
  0
VERTEX
  8
16
 10
15.1136
 20
2.2676
 30
0.0000
  0
SEQEND
  8
0
  0
POLYLINE
  8
16
 66
1
 10
0.0000
 20
0.0000
 30
0.0000
 40
0.3048
 41
0.3048
 70
0
  0
VERTEX
  8
16
 10
14.8583
 20
1.6514
 30
0.0000
 42
1.0000
  0
VERTEX
  8
16
 10
15.1399
 20
1.5348
 30
0.0000
  0
SEQEND
  8
0
  0
POLYLINE
  8
16
 66
1
 10
0.0000
 20
0.0000
 30
0.0000
 40
0.6096
 41
0.6096
 70
0
  0
VERTEX
  8
16
 10
15.2544
 20
2.2093
 30
0.0000
  0
VERTEX
  8
16
 10
15.2544
 20
2.7052
 30
0.0000
  0
SEQEND
  8
0
  0
POLYLINE
  8
16
 66
1
 10
0.0000
 20
0.0000
 30
0.0000
 40
0.3048
 41
0.3048
 70
0
  0
VERTEX
  8
16
 10
15.4068
 20
2.7052
 30
0.0000
 42
1.0000
  0
VERTEX
  8
16
 10
15.1020
 20
2.7052
 30
0.0000
  0
SEQEND
  8
0
  0
POLYLINE
  8
16
 66
1
 10
0.0000
 20
0.0000
 30
0.0000
 40
0.3048
 41
0.3048
 70
0
  0
VERTEX
  8
16
 10
15.1020
 20
2.2093
 30
0.0000
 42
1.0000
  0
VERTEX
  8
16
 10
15.4068
 20
2.2093
 30
0.0000
  0
SEQEND
  8
0
  0
POLYLINE
  8
16
 66
1
 10
0.0000
 20
0.0000
 30
0.0000
 40
0.6096
 41
0.6096
 70
0
  0
VERTEX
  8
16
 10
15.2544
 20
2.7052
 30
0.0000
  0
VERTEX
  8
16
 10
15.3460
 20
2.6136
 30
0.0000
  0
SEQEND
  8
0
  0
POLYLINE
  8
16
 66
1
 10
0.0000
 20
0.0000
 30
0.0000
 40
0.3048
 41
0.3048
 70
0
  0
VERTEX
  8
16
 10
15.2382
 20
2.5058
 30
0.0000
 42
1.0000
  0
VERTEX
  8
16
 10
15.4537
 20
2.7214
 30
0.0000
  0
SEQEND
  8
0
  0
POLYLINE
  8
16
 66
1
 10
0.0000
 20
0.0000
 30
0.0000
 40
0.3048
 41
0.3048
 70
0
  0
VERTEX
  8
16
 10
15.3621
 20
2.8130
 30
0.0000
 42
1.0000
  0
VERTEX
  8
16
 10
15.1466
 20
2.5975
 30
0.0000
  0
SEQEND
  8
0
  0
POLYLINE
  8
16
 66
1
 10
0.0000
 20
0.0000
 30
0.0000
 40
0.6096
 41
0.6096
 70
0
  0
VERTEX
  8
16
 10
15.3460
 20
2.6136
 30
0.0000
  0
VERTEX
  8
16
 10
17.1556
 20
2.6136
 30
0.0000
  0
SEQEND
  8
0
  0
POLYLINE
  8
16
 66
1
 10
0.0000
 20
0.0000
 30
0.0000
 40
0.3048
 41
0.3048
 70
0
  0
VERTEX
  8
16
 10
17.1556
 20
2.4612
 30
0.0000
 42
1.0000
  0
VERTEX
  8
16
 10
17.1556
 20
2.7660
 30
0.0000
  0
SEQEND
  8
0
  0
POLYLINE
  8
16
 66
1
 10
0.0000
 20
0.0000
 30
0.0000
 40
0.3048
 41
0.3048
 70
0
  0
VERTEX
  8
16
 10
15.3460
 20
2.7660
 30
0.0000
 42
1.0000
  0
VERTEX
  8
16
 10
15.3460
 20
2.4612
 30
0.0000
  0
SEQEND
  8
0
  0
POLYLINE
  8
16
 66
1
 10
0.0000
 20
0.0000
 30
0.0000
 40
0.6096
 41
0.6096
 70
0
  0
VERTEX
  8
16
 10
17.1556
 20
2.6136
 30
0.0000
  0
VERTEX
  8
16
 10
17.5021
 20
2.9601
 30
0.0000
  0
SEQEND
  8
0
  0
POLYLINE
  8
16
 66
1
 10
0.0000
 20
0.0000
 30
0.0000
 40
0.3048
 41
0.3048
 70
0
  0
VERTEX
  8
16
 10
17.6098
 20
2.8523
 30
0.0000
 42
1.0000
  0
VERTEX
  8
16
 10
17.3943
 20
3.0678
 30
0.0000
  0
SEQEND
  8
0
  0
POLYLINE
  8
16
 66
1
 10
0.0000
 20
0.0000
 30
0.0000
 40
0.3048
 41
0.3048
 70
0
  0
VERTEX
  8
16
 10
17.0478
 20
2.7214
 30
0.0000
 42
1.0000
  0
VERTEX
  8
16
 10
17.2634
 20
2.5058
 30
0.0000
  0
SEQEND
  8
0
  0
POLYLINE
  8
16
 66
1
 10
0.0000
 20
0.0000
 30
0.0000
 40
0.6096
 41
0.6096
 70
0
  0
VERTEX
  8
16
 10
17.5021
 20
2.9601
 30
0.0000
  0
VERTEX
  8
16
 10
17.5051
 20
1.3573
 30
0.0000
  0
SEQEND
  8
0
  0
POLYLINE
  8
16
 66
1
 10
0.0000
 20
0.0000
 30
0.0000
 40
0.3048
 41
0.3048
 70
0
  0
VERTEX
  8
16
 10
17.3527
 20
1.3570
 30
0.0000
 42
1.0000
  0
VERTEX
  8
16
 10
17.6575
 20
1.3576
 30
0.0000
  0
SEQEND
  8
0
  0
POLYLINE
  8
16
 66
1
 10
0.0000
 20
0.0000
 30
0.0000
 40
0.3048
 41
0.3048
 70
0
  0
VERTEX
  8
16
 10
17.6545
 20
2.9604
 30
0.0000
 42
1.0000
  0
VERTEX
  8
16
 10
17.3497
 20
2.9598
 30
0.0000
  0
SEQEND
  8
0
  0
POLYLINE
  8
16
 66
1
 10
0.0000
 20
0.0000
 30
0.0000
 40
0.6096
 41
0.6096
 70
0
  0
VERTEX
  8
16
 10
17.4926
 20
7.9158
 30
0.0000
  0
VERTEX
  8
16
 10
17.4951
 20
6.6429
 30
0.0000
  0
SEQEND
  8
0
  0
POLYLINE
  8
16
 66
1
 10
0.0000
 20
0.0000
 30
0.0000
 40
0.3048
 41
0.3048
 70
0
  0
VERTEX
  8
16
 10
17.3427
 20
6.6426
 30
0.0000
 42
1.0000
  0
VERTEX
  8
16
 10
17.6475
 20
6.6432
 30
0.0000
  0
SEQEND
  8
0
  0
POLYLINE
  8
16
 66
1
 10
0.0000
 20
0.0000
 30
0.0000
 40
0.3048
 41
0.3048
 70
0
  0
VERTEX
  8
16
 10
17.6450
 20
7.9161
 30
0.0000
 42
1.0000
  0
VERTEX
  8
16
 10
17.3402
 20
7.9155
 30
0.0000
  0
SEQEND
  8
0
  0
POLYLINE
  8
16
 66
1
 10
0.0000
 20
0.0000
 30
0.0000
 40
0.6096
 41
0.6096
 70
0
  0
VERTEX
  8
16
 10
17.4951
 20
6.6429
 30
0.0000
  0
VERTEX
  8
16
 10
17.1556
 20
6.9824
 30
0.0000
  0
SEQEND
  8
0
  0
POLYLINE
  8
16
 66
1
 10
0.0000
 20
0.0000
 30
0.0000
 40
0.3048
 41
0.3048
 70
0
  0
VERTEX
  8
16
 10
17.2634
 20
7.0902
 30
0.0000
 42
1.0000
  0
VERTEX
  8
16
 10
17.0478
 20
6.8746
 30
0.0000
  0
SEQEND
  8
0
  0
POLYLINE
  8
16
 66
1
 10
0.0000
 20
0.0000
 30
0.0000
 40
0.3048
 41
0.3048
 70
0
  0
VERTEX
  8
16
 10
17.3873
 20
6.5352
 30
0.0000
 42
1.0000
  0
VERTEX
  8
16
 10
17.6028
 20
6.7507
 30
0.0000
  0
SEQEND
  8
0
  0
POLYLINE
  8
16
 66
1
 10
0.0000
 20
0.0000
 30
0.0000
 40
0.6096
 41
0.6096
 70
0
  0
VERTEX
  8
16
 10
17.1556
 20
6.9824
 30
0.0000
  0
VERTEX
  8
16
 10
16.2576
 20
6.9824
 30
0.0000
  0
SEQEND
  8
0
  0
POLYLINE
  8
16
 66
1
 10
0.0000
 20
0.0000
 30
0.0000
 40
0.3048
 41
0.3048
 70
0
  0
VERTEX
  8
16
 10
16.2576
 20
7.1348
 30
0.0000
 42
1.0000
  0
VERTEX
  8
16
 10
16.2576
 20
6.8300
 30
0.0000
  0
SEQEND
  8
0
  0
POLYLINE
  8
16
 66
1
 10
0.0000
 20
0.0000
 30
0.0000
 40
0.3048
 41
0.3048
 70
0
  0
VERTEX
  8
16
 10
17.1556
 20
6.8300
 30
0.0000
 42
1.0000
  0
VERTEX
  8
16
 10
17.1556
 20
7.1348
 30
0.0000
  0
SEQEND
  8
0
  0
POLYLINE
  8
16
 66
1
 10
0.0000
 20
0.0000
 30
0.0000
 40
0.6096
 41
0.6096
 70
0
  0
VERTEX
  8
16
 10
16.2576
 20
6.9824
 30
0.0000
  0
VERTEX
  8
16
 10
15.3241
 20
7.9158
 30
0.0000
  0
SEQEND
  8
0
  0
POLYLINE
  8
16
 66
1
 10
0.0000
 20
0.0000
 30
0.0000
 40
0.3048
 41
0.3048
 70
0
  0
VERTEX
  8
16
 10
15.4319
 20
8.0236
 30
0.0000
 42
1.0000
  0
VERTEX
  8
16
 10
15.2164
 20
7.8081
 30
0.0000
  0
SEQEND
  8
0
  0
POLYLINE
  8
16
 66
1
 10
0.0000
 20
0.0000
 30
0.0000
 40
0.3048
 41
0.3048
 70
0
  0
VERTEX
  8
16
 10
16.1498
 20
6.8746
 30
0.0000
 42
1.0000
  0
VERTEX
  8
16
 10
16.3653
 20
7.0902
 30
0.0000
  0
SEQEND
  8
0
  0
POLYLINE
  8
16
 66
1
 10
0.0000
 20
0.0000
 30
0.0000
 40
0.6096
 41
0.6096
 70
0
  0
VERTEX
  8
16
 10
15.3241
 20
7.9158
 30
0.0000
  0
VERTEX
  8
16
 10
17.4926
 20
7.9158
 30
0.0000
  0
SEQEND
  8
0
  0
POLYLINE
  8
16
 66
1
 10
0.0000
 20
0.0000
 30
0.0000
 40
0.3048
 41
0.3048
 70
0
  0
VERTEX
  8
16
 10
17.4926
 20
7.7634
 30
0.0000
 42
1.0000
  0
VERTEX
  8
16
 10
17.4926
 20
8.0682
 30
0.0000
  0
SEQEND
  8
0
  0
POLYLINE
  8
16
 66
1
 10
0.0000
 20
0.0000
 30
0.0000
 40
0.3048
 41
0.3048
 70
0
  0
VERTEX
  8
16
 10
15.3241
 20
8.0682
 30
0.0000
 42
1.0000
  0
VERTEX
  8
16
 10
15.3241
 20
7.7634
 30
0.0000
  0
SEQEND
  8
0
  0
POLYLINE
  8
16
 66
1
 10
0.0000
 20
0.0000
 30
0.0000
 40
0.6096
 41
0.6096
 70
0
  0
VERTEX
  8
16
 10
3.3910
 20
7.0114
 30
0.0000
  0
VERTEX
  8
16
 10
1.5814
 20
7.0114
 30
0.0000
  0
SEQEND
  8
0
  0
POLYLINE
  8
16
 66
1
 10
0.0000
 20
0.0000
 30
0.0000
 40
0.3048
 41
0.3048
 70
0
  0
VERTEX
  8
16
 10
1.5814
 20
7.1638
 30
0.0000
 42
1.0000
  0
VERTEX
  8
16
 10
1.5814
 20
6.8590
 30
0.0000
  0
SEQEND
  8
0
  0
POLYLINE
  8
16
 66
1
 10
0.0000
 20
0.0000
 30
0.0000
 40
0.3048
 41
0.3048
 70
0
  0
VERTEX
  8
16
 10
3.3910
 20
6.8590
 30
0.0000
 42
1.0000
  0
VERTEX
  8
16
 10
3.3910
 20
7.1638
 30
0.0000
  0
SEQEND
  8
0
  0
POLYLINE
  8
16
 66
1
 10
0.0000
 20
0.0000
 30
0.0000
 40
0.6096
 41
0.6096
 70
0
  0
VERTEX
  8
16
 10
1.5814
 20
7.0114
 30
0.0000
  0
VERTEX
  8
16
 10
1.3204
 20
6.7505
 30
0.0000
  0
SEQEND
  8
0
  0
POLYLINE
  8
16
 66
1
 10
0.0000
 20
0.0000
 30
0.0000
 40
0.3048
 41
0.3048
 70
0
  0
VERTEX
  8
16
 10
1.2127
 20
6.8582
 30
0.0000
 42
1.0000
  0
VERTEX
  8
16
 10
1.4282
 20
6.6427
 30
0.0000
  0
SEQEND
  8
0
  0
POLYLINE
  8
16
 66
1
 10
0.0000
 20
0.0000
 30
0.0000
 40
0.3048
 41
0.3048
 70
0
  0
VERTEX
  8
16
 10
1.6892
 20
6.9037
 30
0.0000
 42
1.0000
  0
VERTEX
  8
16
 10
1.4736
 20
7.1192
 30
0.0000
  0
SEQEND
  8
0
  0
POLYLINE
  8
16
 66
1
 10
0.0000
 20
0.0000
 30
0.0000
 40
0.6096
 41
0.6096
 70
0
  0
VERTEX
  8
16
 10
1.3204
 20
6.7505
 30
0.0000
  0
VERTEX
  8
16
 10
1.3204
 20
7.9161
 30
0.0000
  0
SEQEND
  8
0
  0
POLYLINE
  8
16
 66
1
 10
0.0000
 20
0.0000
 30
0.0000
 40
0.3048
 41
0.3048
 70
0
  0
VERTEX
  8
16
 10
1.4728
 20
7.9161
 30
0.0000
 42
1.0000
  0
VERTEX
  8
16
 10
1.1680
 20
7.9161
 30
0.0000
  0
SEQEND
  8
0
  0
POLYLINE
  8
16
 66
1
 10
0.0000
 20
0.0000
 30
0.0000
 40
0.3048
 41
0.3048
 70
0
  0
VERTEX
  8
16
 10
1.1680
 20
6.7505
 30
0.0000
 42
1.0000
  0
VERTEX
  8
16
 10
1.4728
 20
6.7505
 30
0.0000
  0
SEQEND
  8
0
  0
POLYLINE
  8
16
 66
1
 10
0.0000
 20
0.0000
 30
0.0000
 40
0.6096
 41
0.6096
 70
0
  0
VERTEX
  8
16
 10
1.3204
 20
7.9161
 30
0.0000
  0
VERTEX
  8
16
 10
4.0900
 20
7.9161
 30
0.0000
  0
SEQEND
  8
0
  0
POLYLINE
  8
16
 66
1
 10
0.0000
 20
0.0000
 30
0.0000
 40
0.3048
 41
0.3048
 70
0
  0
VERTEX
  8
16
 10
4.0900
 20
7.7637
 30
0.0000
 42
1.0000
  0
VERTEX
  8
16
 10
4.0900
 20
8.0685
 30
0.0000
  0
SEQEND
  8
0
  0
POLYLINE
  8
16
 66
1
 10
0.0000
 20
0.0000
 30
0.0000
 40
0.3048
 41
0.3048
 70
0
  0
VERTEX
  8
16
 10
1.3204
 20
8.0685
 30
0.0000
 42
1.0000
  0
VERTEX
  8
16
 10
1.3204
 20
7.7637
 30
0.0000
  0
SEQEND
  8
0
  0
POLYLINE
  8
16
 66
1
 10
0.0000
 20
0.0000
 30
0.0000
 40
0.6096
 41
0.6096
 70
0
  0
VERTEX
  8
16
 10
4.0900
 20
7.9161
 30
0.0000
  0
VERTEX
  8
16
 10
3.8752
 20
7.3974
 30
0.0000
  0
SEQEND
  8
0
  0
POLYLINE
  8
16
 66
1
 10
0.0000
 20
0.0000
 30
0.0000
 40
0.3048
 41
0.3048
 70
0
  0
VERTEX
  8
16
 10
3.7344
 20
7.4557
 30
0.0000
 42
1.0000
  0
VERTEX
  8
16
 10
4.0160
 20
7.3391
 30
0.0000
  0
SEQEND
  8
0
  0
POLYLINE
  8
16
 66
1
 10
0.0000
 20
0.0000
 30
0.0000
 40
0.3048
 41
0.3048
 70
0
  0
VERTEX
  8
16
 10
4.2308
 20
7.8578
 30
0.0000
 42
1.0000
  0
VERTEX
  8
16
 10
3.9492
 20
7.9744
 30
0.0000
  0
SEQEND
  8
0
  0
POLYLINE
  8
16
 66
1
 10
0.0000
 20
0.0000
 30
0.0000
 40
0.6096
 41
0.6096
 70
0
  0
VERTEX
  8
16
 10
3.8752
 20
7.3974
 30
0.0000
  0
VERTEX
  8
16
 10
3.8752
 20
6.7305
 30
0.0000
  0
SEQEND
  8
0
  0
POLYLINE
  8
16
 66
1
 10
0.0000
 20
0.0000
 30
0.0000
 40
0.3048
 41
0.3048
 70
0
  0
VERTEX
  8
16
 10
3.7228
 20
6.7305
 30
0.0000
 42
1.0000
  0
VERTEX
  8
16
 10
4.0276
 20
6.7305
 30
0.0000
  0
SEQEND
  8
0
  0
POLYLINE
  8
16
 66
1
 10
0.0000
 20
0.0000
 30
0.0000
 40
0.3048
 41
0.3048
 70
0
  0
VERTEX
  8
16
 10
4.0276
 20
7.3974
 30
0.0000
 42
1.0000
  0
VERTEX
  8
16
 10
3.7228
 20
7.3974
 30
0.0000
  0
SEQEND
  8
0
  0
POLYLINE
  8
16
 66
1
 10
0.0000
 20
0.0000
 30
0.0000
 40
0.6096
 41
0.6096
 70
0
  0
VERTEX
  8
16
 10
3.8752
 20
6.7305
 30
0.0000
  0
VERTEX
  8
16
 10
4.0188
 20
6.3836
 30
0.0000
  0
SEQEND
  8
0
  0
POLYLINE
  8
16
 66
1
 10
0.0000
 20
0.0000
 30
0.0000
 40
0.3048
 41
0.3048
 70
0
  0
VERTEX
  8
16
 10
3.8780
 20
6.3253
 30
0.0000
 42
1.0000
  0
VERTEX
  8
16
 10
4.1596
 20
6.4419
 30
0.0000
  0
SEQEND
  8
0
  0
POLYLINE
  8
16
 66
1
 10
0.0000
 20
0.0000
 30
0.0000
 40
0.3048
 41
0.3048
 70
0
  0
VERTEX
  8
16
 10
4.0160
 20
6.7888
 30
0.0000
 42
1.0000
  0
VERTEX
  8
16
 10
3.7344
 20
6.6722
 30
0.0000
  0
SEQEND
  8
0
  0
POLYLINE
  8
16
 66
1
 10
0.0000
 20
0.0000
 30
0.0000
 40
0.6096
 41
0.6096
 70
0
  0
VERTEX
  8
16
 10
4.0188
 20
6.3836
 30
0.0000
  0
VERTEX
  8
16
 10
3.3910
 20
7.0114
 30
0.0000
  0
SEQEND
  8
0
  0
POLYLINE
  8
16
 66
1
 10
0.0000
 20
0.0000
 30
0.0000
 40
0.3048
 41
0.3048
 70
0
  0
VERTEX
  8
16
 10
3.4988
 20
7.1192
 30
0.0000
 42
1.0000
  0
VERTEX
  8
16
 10
3.2832
 20
6.9037
 30
0.0000
  0
SEQEND
  8
0
  0
POLYLINE
  8
16
 66
1
 10
0.0000
 20
0.0000
 30
0.0000
 40
0.3048
 41
0.3048
 70
0
  0
VERTEX
  8
16
 10
3.9111
 20
6.2758
 30
0.0000
 42
1.0000
  0
VERTEX
  8
16
 10
4.1266
 20
6.4913
 30
0.0000
  0
SEQEND
  8
0
  0
POLYLINE
  8
16
 66
1
 10
0.0000
 20
0.0000
 30
0.0000
 40
0.6096
 41
0.6096
 70
0
  0
VERTEX
  8
16
 10
1.3207
 20
1.8288
 30
0.0000
  0
VERTEX
  8
16
 10
3.2932
 20
1.8288
 30
0.0000
  0
SEQEND
  8
0
  0
POLYLINE
  8
16
 66
1
 10
0.0000
 20
0.0000
 30
0.0000
 40
0.3048
 41
0.3048
 70
0
  0
VERTEX
  8
16
 10
3.2932
 20
1.6764
 30
0.0000
 42
1.0000
  0
VERTEX
  8
16
 10
3.2932
 20
1.9812
 30
0.0000
  0
SEQEND
  8
0
  0
POLYLINE
  8
16
 66
1
 10
0.0000
 20
0.0000
 30
0.0000
 40
0.3048
 41
0.3048
 70
0
  0
VERTEX
  8
16
 10
1.3207
 20
1.9812
 30
0.0000
 42
1.0000
  0
VERTEX
  8
16
 10
1.3207
 20
1.6764
 30
0.0000
  0
SEQEND
  8
0
  0
POLYLINE
  8
16
 66
1
 10
0.0000
 20
0.0000
 30
0.0000
 40
0.6096
 41
0.6096
 70
0
  0
VERTEX
  8
16
 10
15.0968
 20
1.8288
 30
0.0000
  0
VERTEX
  8
16
 10
17.5042
 20
1.8288
 30
0.0000
  0
SEQEND
  8
0
  0
POLYLINE
  8
16
 66
1
 10
0.0000
 20
0.0000
 30
0.0000
 40
0.3048
 41
0.3048
 70
0
  0
VERTEX
  8
16
 10
17.5042
 20
1.6764
 30
0.0000
 42
1.0000
  0
VERTEX
  8
16
 10
17.5042
 20
1.9812
 30
0.0000
  0
SEQEND
  8
0
  0
POLYLINE
  8
16
 66
1
 10
0.0000
 20
0.0000
 30
0.0000
 40
0.3048
 41
0.3048
 70
0
  0
VERTEX
  8
16
 10
15.0968
 20
1.9812
 30
0.0000
 42
1.0000
  0
VERTEX
  8
16
 10
15.0968
 20
1.6764
 30
0.0000
  0
SEQEND
  8
0
  0
POLYLINE
  8
16
 66
1
 10
0.0000
 20
0.0000
 30
0.0000
 40
0.6096
 41
0.6096
 70
0
  0
VERTEX
  8
16
 10
1.3207
 20
2.4384
 30
0.0000
  0
VERTEX
  8
16
 10
2.6836
 20
2.4384
 30
0.0000
  0
SEQEND
  8
0
  0
POLYLINE
  8
16
 66
1
 10
0.0000
 20
0.0000
 30
0.0000
 40
0.3048
 41
0.3048
 70
0
  0
VERTEX
  8
16
 10
2.6836
 20
2.2860
 30
0.0000
 42
1.0000
  0
VERTEX
  8
16
 10
2.6836
 20
2.5908
 30
0.0000
  0
SEQEND
  8
0
  0
POLYLINE
  8
16
 66
1
 10
0.0000
 20
0.0000
 30
0.0000
 40
0.3048
 41
0.3048
 70
0
  0
VERTEX
  8
16
 10
1.3207
 20
2.5908
 30
0.0000
 42
1.0000
  0
VERTEX
  8
16
 10
1.3207
 20
2.2860
 30
0.0000
  0
SEQEND
  8
0
  0
POLYLINE
  8
16
 66
1
 10
0.0000
 20
0.0000
 30
0.0000
 40
0.6096
 41
0.6096
 70
0
  0
VERTEX
  8
16
 10
15.2544
 20
2.4384
 30
0.0000
  0
VERTEX
  8
16
 10
17.5031
 20
2.4384
 30
0.0000
  0
SEQEND
  8
0
  0
POLYLINE
  8
16
 66
1
 10
0.0000
 20
0.0000
 30
0.0000
 40
0.3048
 41
0.3048
 70
0
  0
VERTEX
  8
16
 10
17.5031
 20
2.2860
 30
0.0000
 42
1.0000
  0
VERTEX
  8
16
 10
17.5031
 20
2.5908
 30
0.0000
  0
SEQEND
  8
0
  0
POLYLINE
  8
16
 66
1
 10
0.0000
 20
0.0000
 30
0.0000
 40
0.3048
 41
0.3048
 70
0
  0
VERTEX
  8
16
 10
15.2544
 20
2.5908
 30
0.0000
 42
1.0000
  0
VERTEX
  8
16
 10
15.2544
 20
2.2860
 30
0.0000
  0
SEQEND
  8
0
  0
POLYLINE
  8
16
 66
1
 10
0.0000
 20
0.0000
 30
0.0000
 40
0.6096
 41
0.6096
 70
0
  0
VERTEX
  8
16
 10
5.2372
 20
4.2672
 30
0.0000
  0
VERTEX
  8
16
 10
14.0664
 20
4.2672
 30
0.0000
  0
SEQEND
  8
0
  0
POLYLINE
  8
16
 66
1
 10
0.0000
 20
0.0000
 30
0.0000
 40
0.3048
 41
0.3048
 70
0
  0
VERTEX
  8
16
 10
14.0664
 20
4.1148
 30
0.0000
 42
1.0000
  0
VERTEX
  8
16
 10
14.0664
 20
4.4196
 30
0.0000
  0
SEQEND
  8
0
  0
POLYLINE
  8
16
 66
1
 10
0.0000
 20
0.0000
 30
0.0000
 40
0.3048
 41
0.3048
 70
0
  0
VERTEX
  8
16
 10
5.2372
 20
4.4196
 30
0.0000
 42
1.0000
  0
VERTEX
  8
16
 10
5.2372
 20
4.1148
 30
0.0000
  0
SEQEND
  8
0
  0
POLYLINE
  8
16
 66
1
 10
0.0000
 20
0.0000
 30
0.0000
 40
0.6096
 41
0.6096
 70
0
  0
VERTEX
  8
16
 10
4.6706
 20
4.8768
 30
0.0000
  0
VERTEX
  8
16
 10
13.9808
 20
4.8768
 30
0.0000
  0
SEQEND
  8
0
  0
POLYLINE
  8
16
 66
1
 10
0.0000
 20
0.0000
 30
0.0000
 40
0.3048
 41
0.3048
 70
0
  0
VERTEX
  8
16
 10
13.9808
 20
4.7244
 30
0.0000
 42
1.0000
  0
VERTEX
  8
16
 10
13.9808
 20
5.0292
 30
0.0000
  0
SEQEND
  8
0
  0
POLYLINE
  8
16
 66
1
 10
0.0000
 20
0.0000
 30
0.0000
 40
0.3048
 41
0.3048
 70
0
  0
VERTEX
  8
16
 10
4.6706
 20
5.0292
 30
0.0000
 42
1.0000
  0
VERTEX
  8
16
 10
4.6706
 20
4.7244
 30
0.0000
  0
SEQEND
  8
0
  0
POLYLINE
  8
16
 66
1
 10
0.0000
 20
0.0000
 30
0.0000
 40
0.6096
 41
0.6096
 70
0
  0
VERTEX
  8
16
 10
4.6706
 20
5.4864
 30
0.0000
  0
VERTEX
  8
16
 10
4.9794
 20
5.4864
 30
0.0000
  0
SEQEND
  8
0
  0
POLYLINE
  8
16
 66
1
 10
0.0000
 20
0.0000
 30
0.0000
 40
0.3048
 41
0.3048
 70
0
  0
VERTEX
  8
16
 10
4.9794
 20
5.3340
 30
0.0000
 42
1.0000
  0
VERTEX
  8
16
 10
4.9794
 20
5.6388
 30
0.0000
  0
SEQEND
  8
0
  0
POLYLINE
  8
16
 66
1
 10
0.0000
 20
0.0000
 30
0.0000
 40
0.3048
 41
0.3048
 70
0
  0
VERTEX
  8
16
 10
4.6706
 20
5.6388
 30
0.0000
 42
1.0000
  0
VERTEX
  8
16
 10
4.6706
 20
5.3340
 30
0.0000
  0
SEQEND
  8
0
  0
POLYLINE
  8
16
 66
1
 10
0.0000
 20
0.0000
 30
0.0000
 40
0.6096
 41
0.6096
 70
0
  0
VERTEX
  8
16
 10
7.6477
 20
5.4864
 30
0.0000
  0
VERTEX
  8
16
 10
11.4818
 20
5.4864
 30
0.0000
  0
SEQEND
  8
0
  0
POLYLINE
  8
16
 66
1
 10
0.0000
 20
0.0000
 30
0.0000
 40
0.3048
 41
0.3048
 70
0
  0
VERTEX
  8
16
 10
11.4818
 20
5.3340
 30
0.0000
 42
1.0000
  0
VERTEX
  8
16
 10
11.4818
 20
5.6388
 30
0.0000
  0
SEQEND
  8
0
  0
POLYLINE
  8
16
 66
1
 10
0.0000
 20
0.0000
 30
0.0000
 40
0.3048
 41
0.3048
 70
0
  0
VERTEX
  8
16
 10
7.6477
 20
5.6388
 30
0.0000
 42
1.0000
  0
VERTEX
  8
16
 10
7.6477
 20
5.3340
 30
0.0000
  0
SEQEND
  8
0
  0
POLYLINE
  8
16
 66
1
 10
0.0000
 20
0.0000
 30
0.0000
 40
0.6096
 41
0.6096
 70
0
  0
VERTEX
  8
16
 10
3.6968
 20
6.7056
 30
0.0000
  0
VERTEX
  8
16
 10
3.8855
 20
6.7056
 30
0.0000
  0
SEQEND
  8
0
  0
POLYLINE
  8
16
 66
1
 10
0.0000
 20
0.0000
 30
0.0000
 40
0.3048
 41
0.3048
 70
0
  0
VERTEX
  8
16
 10
3.8855
 20
6.5532
 30
0.0000
 42
1.0000
  0
VERTEX
  8
16
 10
3.8855
 20
6.8580
 30
0.0000
  0
SEQEND
  8
0
  0
POLYLINE
  8
16
 66
1
 10
0.0000
 20
0.0000
 30
0.0000
 40
0.3048
 41
0.3048
 70
0
  0
VERTEX
  8
16
 10
3.6968
 20
6.8580
 30
0.0000
 42
1.0000
  0
VERTEX
  8
16
 10
3.6968
 20
6.5532
 30
0.0000
  0
SEQEND
  8
0
  0
POLYLINE
  8
16
 66
1
 10
0.0000
 20
0.0000
 30
0.0000
 40
0.6096
 41
0.6096
 70
0
  0
VERTEX
  8
16
 10
17.4324
 20
6.7056
 30
0.0000
  0
VERTEX
  8
16
 10
17.4949
 20
6.7056
 30
0.0000
  0
SEQEND
  8
0
  0
POLYLINE
  8
16
 66
1
 10
0.0000
 20
0.0000
 30
0.0000
 40
0.3048
 41
0.3048
 70
0
  0
VERTEX
  8
16
 10
17.4949
 20
6.5532
 30
0.0000
 42
1.0000
  0
VERTEX
  8
16
 10
17.4949
 20
6.8580
 30
0.0000
  0
SEQEND
  8
0
  0
POLYLINE
  8
16
 66
1
 10
0.0000
 20
0.0000
 30
0.0000
 40
0.3048
 41
0.3048
 70
0
  0
VERTEX
  8
16
 10
17.4324
 20
6.8580
 30
0.0000
 42
1.0000
  0
VERTEX
  8
16
 10
17.4324
 20
6.5532
 30
0.0000
  0
SEQEND
  8
0
  0
POLYLINE
  8
16
 66
1
 10
0.0000
 20
0.0000
 30
0.0000
 40
0.6096
 41
0.6096
 70
0
  0
VERTEX
  8
16
 10
1.3204
 20
7.3152
 30
0.0000
  0
VERTEX
  8
16
 10
3.8752
 20
7.3152
 30
0.0000
  0
SEQEND
  8
0
  0
POLYLINE
  8
16
 66
1
 10
0.0000
 20
0.0000
 30
0.0000
 40
0.3048
 41
0.3048
 70
0
  0
VERTEX
  8
16
 10
3.8752
 20
7.1628
 30
0.0000
 42
1.0000
  0
VERTEX
  8
16
 10
3.8752
 20
7.4676
 30
0.0000
  0
SEQEND
  8
0
  0
POLYLINE
  8
16
 66
1
 10
0.0000
 20
0.0000
 30
0.0000
 40
0.3048
 41
0.3048
 70
0
  0
VERTEX
  8
16
 10
1.3204
 20
7.4676
 30
0.0000
 42
1.0000
  0
VERTEX
  8
16
 10
1.3204
 20
7.1628
 30
0.0000
  0
SEQEND
  8
0
  0
POLYLINE
  8
16
 66
1
 10
0.0000
 20
0.0000
 30
0.0000
 40
0.6096
 41
0.6096
 70
0
  0
VERTEX
  8
16
 10
15.9248
 20
7.3152
 30
0.0000
  0
VERTEX
  8
16
 10
17.4938
 20
7.3152
 30
0.0000
  0
SEQEND
  8
0
  0
POLYLINE
  8
16
 66
1
 10
0.0000
 20
0.0000
 30
0.0000
 40
0.3048
 41
0.3048
 70
0
  0
VERTEX
  8
16
 10
17.4938
 20
7.1628
 30
0.0000
 42
1.0000
  0
VERTEX
  8
16
 10
17.4938
 20
7.4676
 30
0.0000
  0
SEQEND
  8
0
  0
POLYLINE
  8
16
 66
1
 10
0.0000
 20
0.0000
 30
0.0000
 40
0.3048
 41
0.3048
 70
0
  0
VERTEX
  8
16
 10
15.9248
 20
7.4676
 30
0.0000
 42
1.0000
  0
VERTEX
  8
16
 10
15.9248
 20
7.1628
 30
0.0000
  0
SEQEND
  8
0
  0
ENDSEC
  0
EOF
