G75*
%MOIN*%
%OFA0B0*%
%FSLAX25Y25*%
%IPPOS*%
%LPD*%
%AMOC8*
5,1,8,0,0,1.08239X$1,22.5*
%
%ADD10R,0.02362X0.04921*%
%ADD11R,0.03701X0.03150*%
%ADD12R,0.01181X0.03740*%
%ADD13R,0.03740X0.01181*%
%ADD14R,0.03898X0.03071*%
%ADD15R,0.03071X0.03898*%
D10*
X0143460Y0100041D03*
X0147200Y0100041D03*
X0150940Y0100041D03*
X0150940Y0109883D03*
X0147200Y0109883D03*
X0143460Y0109883D03*
X0167082Y0109883D03*
X0170822Y0109883D03*
X0174562Y0109883D03*
X0174562Y0100041D03*
X0170822Y0100041D03*
X0167082Y0100041D03*
D11*
X0166885Y0118072D03*
X0166885Y0123348D03*
X0147200Y0123348D03*
X0147200Y0118072D03*
D12*
X0100940Y0050238D03*
X0102909Y0050238D03*
X0104877Y0050238D03*
X0106846Y0050238D03*
X0106846Y0057324D03*
X0104877Y0057324D03*
X0102909Y0057324D03*
X0100940Y0057324D03*
X0118657Y0057324D03*
X0120625Y0057324D03*
X0122594Y0057324D03*
X0124562Y0057324D03*
X0124562Y0050238D03*
X0122594Y0050238D03*
X0120625Y0050238D03*
X0118657Y0050238D03*
X0136263Y0050017D03*
X0138232Y0050017D03*
X0140200Y0050017D03*
X0142169Y0050017D03*
X0142169Y0057104D03*
X0140200Y0057104D03*
X0138232Y0057104D03*
X0136263Y0057104D03*
X0161035Y0057072D03*
X0163003Y0057072D03*
X0164972Y0057072D03*
X0166940Y0057072D03*
X0166940Y0049986D03*
X0164972Y0049986D03*
X0163003Y0049986D03*
X0161035Y0049986D03*
X0113736Y0089608D03*
X0113736Y0096694D03*
D13*
X0117279Y0096104D03*
X0117279Y0094135D03*
X0117279Y0092167D03*
X0117279Y0090198D03*
X0110192Y0090198D03*
X0110192Y0092167D03*
X0110192Y0094135D03*
X0110192Y0096104D03*
X0107436Y0053781D03*
X0100350Y0053781D03*
X0118066Y0053781D03*
X0125153Y0053781D03*
X0135673Y0053561D03*
X0142759Y0053561D03*
X0160444Y0053529D03*
X0167531Y0053529D03*
D14*
X0162987Y0043285D03*
X0162987Y0037773D03*
X0137987Y0037773D03*
X0137987Y0043285D03*
X0119641Y0040789D03*
X0119641Y0035277D03*
X0101924Y0035277D03*
X0101924Y0040789D03*
D15*
X0102712Y0095120D03*
X0097200Y0095120D03*
M02*
