G75*
%MOIN*%
%OFA0B0*%
%FSLAX25Y25*%
%IPPOS*%
%LPD*%
%AMOC8*
5,1,8,0,0,1.08239X$1,22.5*
%
%ADD10C,0.07500*%
%ADD11C,0.06524*%
%ADD12C,0.02878*%
D10*
X0103387Y0074479D03*
X0113387Y0074479D03*
X0123387Y0074479D03*
X0133387Y0074479D03*
X0143387Y0074479D03*
X0153387Y0074479D03*
X0163387Y0074479D03*
X0173387Y0074479D03*
X0183387Y0074479D03*
X0193387Y0074479D03*
X0193387Y0134579D03*
X0183387Y0134579D03*
X0173387Y0134579D03*
X0163387Y0134579D03*
X0153387Y0134579D03*
X0143387Y0134579D03*
X0133387Y0134579D03*
X0123387Y0134579D03*
X0113387Y0134579D03*
X0103387Y0134579D03*
D11*
X0073598Y0029411D03*
X0083598Y0029411D03*
X0083598Y0039411D03*
X0073598Y0039411D03*
X0073598Y0049411D03*
X0083598Y0049411D03*
X0083598Y0059411D03*
X0073598Y0059411D03*
X0073598Y0069411D03*
X0083598Y0069411D03*
X0083302Y0092836D03*
X0073302Y0092836D03*
X0073302Y0102836D03*
X0083302Y0102836D03*
X0083302Y0112836D03*
X0073302Y0112836D03*
X0073302Y0122836D03*
X0083302Y0122836D03*
X0083302Y0132836D03*
X0073302Y0132836D03*
D12*
X0097987Y0112836D03*
X0092082Y0101025D03*
X0099956Y0091183D03*
X0107987Y0079529D03*
X0117987Y0078529D03*
X0108987Y0068529D03*
X0101924Y0065592D03*
X0096019Y0059687D03*
X0092082Y0061655D03*
X0092082Y0049844D03*
X0107830Y0043939D03*
X0112987Y0050529D03*
X0111767Y0057718D03*
X0115704Y0065592D03*
X0127515Y0061655D03*
X0131987Y0057529D03*
X0135987Y0063529D03*
X0128987Y0067529D03*
X0143987Y0066655D03*
X0149987Y0062529D03*
X0155987Y0061529D03*
X0158987Y0069529D03*
X0158987Y0082738D03*
X0166885Y0089214D03*
X0174759Y0093151D03*
X0155074Y0108899D03*
X0162948Y0110868D03*
X0137358Y0112836D03*
X0122987Y0095529D03*
X0147200Y0087246D03*
X0152987Y0051529D03*
X0143987Y0040529D03*
X0129484Y0036065D03*
X0125547Y0041970D03*
X0115704Y0040002D03*
X0103987Y0026529D03*
X0122987Y0023529D03*
X0140987Y0022529D03*
X0155987Y0013529D03*
X0164987Y0022529D03*
X0173987Y0009529D03*
X0183987Y0023529D03*
X0169987Y0040529D03*
M02*
