G75*
%MOIN*%
%OFA0B0*%
%FSLAX25Y25*%
%IPPOS*%
%LPD*%
%AMOC8*
5,1,8,0,0,1.08239X$1,22.5*
%
%ADD10C,0.07000*%
%ADD11C,0.06024*%
%ADD12C,0.00800*%
%ADD13C,0.02378*%
%ADD14C,0.01000*%
D10*
X0103387Y0074479D03*
X0113387Y0074479D03*
X0123387Y0074479D03*
X0133387Y0074479D03*
X0143387Y0074479D03*
X0153387Y0074479D03*
X0163387Y0074479D03*
X0173387Y0074479D03*
X0183387Y0074479D03*
X0193387Y0074479D03*
X0193387Y0134579D03*
X0183387Y0134579D03*
X0173387Y0134579D03*
X0163387Y0134579D03*
X0153387Y0134579D03*
X0143387Y0134579D03*
X0133387Y0134579D03*
X0123387Y0134579D03*
X0113387Y0134579D03*
X0103387Y0134579D03*
D11*
X0083302Y0132836D03*
X0073302Y0132836D03*
X0073302Y0122836D03*
X0083302Y0122836D03*
X0083302Y0112836D03*
X0073302Y0112836D03*
X0073302Y0102836D03*
X0083302Y0102836D03*
X0083302Y0092836D03*
X0073302Y0092836D03*
X0073598Y0069411D03*
X0083598Y0069411D03*
X0083598Y0059411D03*
X0073598Y0059411D03*
X0073598Y0049411D03*
X0083598Y0049411D03*
X0083598Y0039411D03*
X0073598Y0039411D03*
X0073598Y0029411D03*
X0083598Y0029411D03*
D12*
X0087358Y0028007D02*
X0199834Y0028007D01*
X0199834Y0028805D02*
X0087610Y0028805D01*
X0087610Y0028613D02*
X0087610Y0030209D01*
X0086999Y0031684D01*
X0086086Y0032596D01*
X0128136Y0032596D01*
X0129015Y0033475D01*
X0129416Y0033876D01*
X0130390Y0033876D01*
X0131673Y0035158D01*
X0131673Y0036971D01*
X0130390Y0038254D01*
X0128577Y0038254D01*
X0127295Y0036971D01*
X0127295Y0035997D01*
X0126894Y0035596D01*
X0084871Y0035596D01*
X0085870Y0036010D01*
X0086999Y0037139D01*
X0087319Y0037911D01*
X0114699Y0037911D01*
X0114797Y0037813D01*
X0116611Y0037813D01*
X0117893Y0039095D01*
X0117893Y0040908D01*
X0116611Y0042191D01*
X0114797Y0042191D01*
X0113518Y0040911D01*
X0087319Y0040911D01*
X0086999Y0041684D01*
X0085883Y0042799D01*
X0099765Y0042799D01*
X0100643Y0043678D01*
X0103519Y0046553D01*
X0103519Y0060308D01*
X0102640Y0061187D01*
X0097615Y0061187D01*
X0096926Y0061876D01*
X0095112Y0061876D01*
X0094271Y0061034D01*
X0094271Y0062562D01*
X0093582Y0063251D01*
X0093582Y0099430D01*
X0094271Y0100118D01*
X0094271Y0101932D01*
X0092989Y0103214D01*
X0091175Y0103214D01*
X0089893Y0101932D01*
X0089893Y0100118D01*
X0090582Y0099430D01*
X0090582Y0063251D01*
X0089893Y0062562D01*
X0089893Y0060748D01*
X0091175Y0059466D01*
X0092989Y0059466D01*
X0093830Y0060307D01*
X0093830Y0058780D01*
X0095112Y0057498D01*
X0096926Y0057498D01*
X0097615Y0058187D01*
X0100519Y0058187D01*
X0100519Y0047796D01*
X0098522Y0045799D01*
X0085361Y0045799D01*
X0085870Y0046010D01*
X0086999Y0047139D01*
X0087319Y0047911D01*
X0090919Y0047911D01*
X0091175Y0047655D01*
X0092989Y0047655D01*
X0094271Y0048937D01*
X0094271Y0050751D01*
X0092989Y0052033D01*
X0091175Y0052033D01*
X0090053Y0050911D01*
X0087319Y0050911D01*
X0086999Y0051684D01*
X0085870Y0052812D01*
X0084396Y0053423D01*
X0082800Y0053423D01*
X0081325Y0052812D01*
X0080197Y0051684D01*
X0079586Y0050209D01*
X0079586Y0048613D01*
X0080197Y0047139D01*
X0081325Y0046010D01*
X0081834Y0045799D01*
X0079331Y0045799D01*
X0077290Y0047841D01*
X0077610Y0048613D01*
X0077610Y0050209D01*
X0076999Y0051684D01*
X0075870Y0052812D01*
X0074396Y0053423D01*
X0072800Y0053423D01*
X0071325Y0052812D01*
X0070197Y0051684D01*
X0069586Y0050209D01*
X0069586Y0048613D01*
X0070197Y0047139D01*
X0071325Y0046010D01*
X0072800Y0045399D01*
X0074396Y0045399D01*
X0075168Y0045719D01*
X0078088Y0042799D01*
X0081312Y0042799D01*
X0080197Y0041684D01*
X0079586Y0040209D01*
X0079586Y0038871D01*
X0078424Y0040032D01*
X0077546Y0040911D01*
X0077319Y0040911D01*
X0076999Y0041684D01*
X0075870Y0042812D01*
X0074396Y0043423D01*
X0072800Y0043423D01*
X0071325Y0042812D01*
X0070197Y0041684D01*
X0069586Y0040209D01*
X0069586Y0038613D01*
X0070197Y0037139D01*
X0071325Y0036010D01*
X0072800Y0035399D01*
X0074396Y0035399D01*
X0075870Y0036010D01*
X0076999Y0037139D01*
X0077021Y0037193D01*
X0081380Y0032835D01*
X0081325Y0032812D01*
X0080197Y0031684D01*
X0079586Y0030209D01*
X0079586Y0028613D01*
X0080197Y0027139D01*
X0081325Y0026010D01*
X0082800Y0025399D01*
X0084396Y0025399D01*
X0085870Y0026010D01*
X0086999Y0027139D01*
X0087610Y0028613D01*
X0087610Y0029604D02*
X0199834Y0029604D01*
X0199834Y0030402D02*
X0087530Y0030402D01*
X0087199Y0031201D02*
X0199834Y0031201D01*
X0199834Y0031999D02*
X0086683Y0031999D01*
X0085826Y0035992D02*
X0127289Y0035992D01*
X0127295Y0036790D02*
X0086650Y0036790D01*
X0087185Y0037589D02*
X0127912Y0037589D01*
X0126453Y0039781D02*
X0124640Y0039781D01*
X0123358Y0041063D01*
X0123358Y0042877D01*
X0124047Y0043566D01*
X0124047Y0052281D01*
X0109330Y0052281D01*
X0109330Y0045534D01*
X0110019Y0044845D01*
X0110019Y0043032D01*
X0108737Y0041750D01*
X0106923Y0041750D01*
X0105641Y0043032D01*
X0105641Y0044845D01*
X0106330Y0045534D01*
X0106330Y0064092D01*
X0103520Y0064092D01*
X0102831Y0063403D01*
X0101018Y0063403D01*
X0100329Y0064092D01*
X0095398Y0064092D01*
X0094519Y0064971D01*
X0094519Y0083360D01*
X0095398Y0084238D01*
X0098456Y0084238D01*
X0098456Y0089587D01*
X0097767Y0090276D01*
X0097767Y0092089D01*
X0099049Y0093372D01*
X0100863Y0093372D01*
X0102145Y0092089D01*
X0102145Y0090276D01*
X0101456Y0089587D01*
X0101456Y0084238D01*
X0121487Y0084238D01*
X0121487Y0093933D01*
X0120798Y0094622D01*
X0120798Y0096436D01*
X0122081Y0097718D01*
X0123894Y0097718D01*
X0125176Y0096436D01*
X0125176Y0094622D01*
X0124487Y0093933D01*
X0124487Y0084238D01*
X0157392Y0084238D01*
X0158081Y0084927D01*
X0159894Y0084927D01*
X0161176Y0083645D01*
X0161176Y0081831D01*
X0159894Y0080549D01*
X0158081Y0080549D01*
X0157392Y0081238D01*
X0097519Y0081238D01*
X0097519Y0067092D01*
X0100329Y0067092D01*
X0101018Y0067781D01*
X0102831Y0067781D01*
X0103520Y0067092D01*
X0114108Y0067092D01*
X0114797Y0067781D01*
X0116611Y0067781D01*
X0117893Y0066499D01*
X0117893Y0064685D01*
X0116611Y0063403D01*
X0114797Y0063403D01*
X0114108Y0064092D01*
X0109330Y0064092D01*
X0109330Y0055281D01*
X0124047Y0055281D01*
X0124047Y0055402D01*
X0124925Y0056281D01*
X0134487Y0056281D01*
X0134487Y0061933D01*
X0133798Y0062622D01*
X0133798Y0063817D01*
X0131015Y0061034D01*
X0130136Y0060155D01*
X0129111Y0060155D01*
X0128422Y0059466D01*
X0126608Y0059466D01*
X0125919Y0060155D01*
X0116325Y0060155D01*
X0113956Y0057786D01*
X0113956Y0056811D01*
X0112674Y0055529D01*
X0110860Y0055529D01*
X0109578Y0056811D01*
X0109578Y0058625D01*
X0110860Y0059907D01*
X0111835Y0059907D01*
X0115083Y0063155D01*
X0125919Y0063155D01*
X0126002Y0063238D01*
X0117287Y0071952D01*
X0117287Y0072136D01*
X0117202Y0071930D01*
X0115937Y0070664D01*
X0114283Y0069979D01*
X0112492Y0069979D01*
X0110838Y0070664D01*
X0109573Y0071930D01*
X0108887Y0073584D01*
X0108887Y0075374D01*
X0109573Y0077028D01*
X0110838Y0078294D01*
X0112492Y0078979D01*
X0114283Y0078979D01*
X0115798Y0078351D01*
X0115798Y0079436D01*
X0117081Y0080718D01*
X0118894Y0080718D01*
X0120176Y0079436D01*
X0120176Y0078461D01*
X0120287Y0078350D01*
X0120287Y0077743D01*
X0120838Y0078294D01*
X0122492Y0078979D01*
X0124283Y0078979D01*
X0125937Y0078294D01*
X0127202Y0077028D01*
X0127887Y0075374D01*
X0127887Y0073584D01*
X0127202Y0071930D01*
X0125937Y0070664D01*
X0124283Y0069979D01*
X0123503Y0069979D01*
X0129015Y0064468D01*
X0129015Y0063276D01*
X0133894Y0068155D01*
X0142392Y0068155D01*
X0143081Y0068844D01*
X0144894Y0068844D01*
X0145583Y0068155D01*
X0171887Y0068155D01*
X0171887Y0070230D01*
X0170838Y0070664D01*
X0169573Y0071930D01*
X0168887Y0073584D01*
X0168887Y0075374D01*
X0169573Y0077028D01*
X0170838Y0078294D01*
X0172492Y0078979D01*
X0174283Y0078979D01*
X0175937Y0078294D01*
X0177202Y0077028D01*
X0177887Y0075374D01*
X0177887Y0073584D01*
X0177202Y0071930D01*
X0175937Y0070664D01*
X0174887Y0070230D01*
X0174887Y0066034D01*
X0174009Y0065155D01*
X0145583Y0065155D01*
X0144894Y0064466D01*
X0143081Y0064466D01*
X0142392Y0065155D01*
X0137457Y0065155D01*
X0138176Y0064436D01*
X0138176Y0062622D01*
X0137487Y0061933D01*
X0137487Y0055281D01*
X0147618Y0055281D01*
X0153798Y0061461D01*
X0153798Y0062436D01*
X0155081Y0063718D01*
X0156894Y0063718D01*
X0158176Y0062436D01*
X0158176Y0060622D01*
X0156894Y0059340D01*
X0155920Y0059340D01*
X0149739Y0053160D01*
X0148861Y0052281D01*
X0135366Y0052281D01*
X0134487Y0053160D01*
X0134487Y0053281D01*
X0127047Y0053281D01*
X0127047Y0043566D01*
X0127583Y0043029D01*
X0143609Y0043029D01*
X0143920Y0042718D01*
X0144894Y0042718D01*
X0145583Y0042029D01*
X0168392Y0042029D01*
X0169081Y0042718D01*
X0170894Y0042718D01*
X0172176Y0041436D01*
X0172176Y0039622D01*
X0170894Y0038340D01*
X0169081Y0038340D01*
X0168392Y0039029D01*
X0145583Y0039029D01*
X0144894Y0038340D01*
X0143081Y0038340D01*
X0141798Y0039622D01*
X0141798Y0040029D01*
X0126701Y0040029D01*
X0126453Y0039781D01*
X0126656Y0039984D02*
X0141798Y0039984D01*
X0142235Y0039186D02*
X0117893Y0039186D01*
X0117893Y0039984D02*
X0124437Y0039984D01*
X0123638Y0040783D02*
X0117893Y0040783D01*
X0117220Y0041581D02*
X0123358Y0041581D01*
X0123358Y0042380D02*
X0109367Y0042380D01*
X0110019Y0043178D02*
X0123659Y0043178D01*
X0124047Y0043977D02*
X0110019Y0043977D01*
X0110019Y0044775D02*
X0124047Y0044775D01*
X0124047Y0045574D02*
X0109330Y0045574D01*
X0109330Y0046372D02*
X0124047Y0046372D01*
X0124047Y0047171D02*
X0109330Y0047171D01*
X0109330Y0047969D02*
X0124047Y0047969D01*
X0124047Y0048768D02*
X0109330Y0048768D01*
X0109330Y0049566D02*
X0124047Y0049566D01*
X0124047Y0050365D02*
X0109330Y0050365D01*
X0109330Y0051163D02*
X0124047Y0051163D01*
X0124047Y0051962D02*
X0109330Y0051962D01*
X0106330Y0051962D02*
X0103519Y0051962D01*
X0103519Y0052760D02*
X0106330Y0052760D01*
X0106330Y0053559D02*
X0103519Y0053559D01*
X0103519Y0054357D02*
X0106330Y0054357D01*
X0106330Y0055156D02*
X0103519Y0055156D01*
X0103519Y0055954D02*
X0106330Y0055954D01*
X0106330Y0056753D02*
X0103519Y0056753D01*
X0103519Y0057551D02*
X0106330Y0057551D01*
X0106330Y0058350D02*
X0103519Y0058350D01*
X0103519Y0059148D02*
X0106330Y0059148D01*
X0106330Y0059947D02*
X0103519Y0059947D01*
X0103081Y0060746D02*
X0106330Y0060746D01*
X0106330Y0061544D02*
X0097257Y0061544D01*
X0094781Y0061544D02*
X0094271Y0061544D01*
X0094271Y0062343D02*
X0106330Y0062343D01*
X0106330Y0063141D02*
X0093692Y0063141D01*
X0093582Y0063940D02*
X0100481Y0063940D01*
X0103368Y0063940D02*
X0106330Y0063940D01*
X0109330Y0063940D02*
X0114261Y0063940D01*
X0115069Y0063141D02*
X0109330Y0063141D01*
X0109330Y0062343D02*
X0114270Y0062343D01*
X0113472Y0061544D02*
X0109330Y0061544D01*
X0109330Y0060746D02*
X0112673Y0060746D01*
X0111875Y0059947D02*
X0109330Y0059947D01*
X0109330Y0059148D02*
X0110102Y0059148D01*
X0109578Y0058350D02*
X0109330Y0058350D01*
X0109330Y0057551D02*
X0109578Y0057551D01*
X0109636Y0056753D02*
X0109330Y0056753D01*
X0109330Y0055954D02*
X0110435Y0055954D01*
X0113099Y0055954D02*
X0124599Y0055954D01*
X0127047Y0052760D02*
X0134887Y0052760D01*
X0137487Y0055954D02*
X0148291Y0055954D01*
X0149090Y0056753D02*
X0137487Y0056753D01*
X0137487Y0057551D02*
X0149888Y0057551D01*
X0150687Y0058350D02*
X0137487Y0058350D01*
X0137487Y0059148D02*
X0151486Y0059148D01*
X0152284Y0059947D02*
X0137487Y0059947D01*
X0137487Y0060746D02*
X0153083Y0060746D01*
X0153798Y0061544D02*
X0137487Y0061544D01*
X0137897Y0062343D02*
X0153798Y0062343D01*
X0154504Y0063141D02*
X0138176Y0063141D01*
X0138176Y0063940D02*
X0199834Y0063940D01*
X0199834Y0064738D02*
X0145166Y0064738D01*
X0142809Y0064738D02*
X0137874Y0064738D01*
X0133798Y0063141D02*
X0133122Y0063141D01*
X0132324Y0062343D02*
X0134078Y0062343D01*
X0134487Y0061544D02*
X0131525Y0061544D01*
X0130727Y0060746D02*
X0134487Y0060746D01*
X0134487Y0059947D02*
X0128903Y0059947D01*
X0126127Y0059947D02*
X0116117Y0059947D01*
X0115319Y0059148D02*
X0134487Y0059148D01*
X0134487Y0058350D02*
X0114520Y0058350D01*
X0113956Y0057551D02*
X0134487Y0057551D01*
X0134487Y0056753D02*
X0113898Y0056753D01*
X0117147Y0063940D02*
X0125300Y0063940D01*
X0124502Y0064738D02*
X0117893Y0064738D01*
X0117893Y0065537D02*
X0123703Y0065537D01*
X0122905Y0066335D02*
X0117893Y0066335D01*
X0117258Y0067134D02*
X0122106Y0067134D01*
X0121308Y0067932D02*
X0097519Y0067932D01*
X0097519Y0067134D02*
X0100370Y0067134D01*
X0103479Y0067134D02*
X0114150Y0067134D01*
X0115124Y0070328D02*
X0118912Y0070328D01*
X0118114Y0071126D02*
X0116398Y0071126D01*
X0117197Y0071925D02*
X0117315Y0071925D01*
X0119711Y0069529D02*
X0097519Y0069529D01*
X0097519Y0068731D02*
X0120509Y0068731D01*
X0123953Y0069529D02*
X0171887Y0069529D01*
X0171887Y0068731D02*
X0145008Y0068731D01*
X0144283Y0069979D02*
X0145937Y0070664D01*
X0147202Y0071930D01*
X0147887Y0073584D01*
X0147887Y0075374D01*
X0147202Y0077028D01*
X0145937Y0078294D01*
X0144283Y0078979D01*
X0142492Y0078979D01*
X0140838Y0078294D01*
X0139573Y0077028D01*
X0138887Y0075374D01*
X0138887Y0073584D01*
X0139573Y0071930D01*
X0140838Y0070664D01*
X0142492Y0069979D01*
X0144283Y0069979D01*
X0145124Y0070328D02*
X0151651Y0070328D01*
X0150838Y0070664D02*
X0152492Y0069979D01*
X0154283Y0069979D01*
X0155937Y0070664D01*
X0157202Y0071930D01*
X0157887Y0073584D01*
X0157887Y0075374D01*
X0157202Y0077028D01*
X0155937Y0078294D01*
X0154283Y0078979D01*
X0152492Y0078979D01*
X0150838Y0078294D01*
X0149573Y0077028D01*
X0148887Y0075374D01*
X0148887Y0073584D01*
X0149573Y0071930D01*
X0150838Y0070664D01*
X0150376Y0071126D02*
X0146398Y0071126D01*
X0147197Y0071925D02*
X0149578Y0071925D01*
X0149244Y0072723D02*
X0147531Y0072723D01*
X0147862Y0073522D02*
X0148913Y0073522D01*
X0148887Y0074320D02*
X0147887Y0074320D01*
X0147887Y0075119D02*
X0148887Y0075119D01*
X0149112Y0075917D02*
X0147663Y0075917D01*
X0147332Y0076716D02*
X0149443Y0076716D01*
X0150059Y0077514D02*
X0146716Y0077514D01*
X0145891Y0078313D02*
X0150884Y0078313D01*
X0155891Y0078313D02*
X0160884Y0078313D01*
X0160838Y0078294D02*
X0159573Y0077028D01*
X0158887Y0075374D01*
X0158887Y0073584D01*
X0159573Y0071930D01*
X0160838Y0070664D01*
X0162492Y0069979D01*
X0164283Y0069979D01*
X0165937Y0070664D01*
X0167202Y0071930D01*
X0167887Y0073584D01*
X0167887Y0075374D01*
X0167202Y0077028D01*
X0165937Y0078294D01*
X0164283Y0078979D01*
X0162492Y0078979D01*
X0160838Y0078294D01*
X0160059Y0077514D02*
X0156716Y0077514D01*
X0157332Y0076716D02*
X0159443Y0076716D01*
X0159112Y0075917D02*
X0157663Y0075917D01*
X0157887Y0075119D02*
X0158887Y0075119D01*
X0158887Y0074320D02*
X0157887Y0074320D01*
X0157862Y0073522D02*
X0158913Y0073522D01*
X0159244Y0072723D02*
X0157531Y0072723D01*
X0157197Y0071925D02*
X0159578Y0071925D01*
X0160376Y0071126D02*
X0156398Y0071126D01*
X0155124Y0070328D02*
X0161651Y0070328D01*
X0165124Y0070328D02*
X0171651Y0070328D01*
X0170376Y0071126D02*
X0166398Y0071126D01*
X0167197Y0071925D02*
X0169578Y0071925D01*
X0169244Y0072723D02*
X0167531Y0072723D01*
X0167862Y0073522D02*
X0168913Y0073522D01*
X0168887Y0074320D02*
X0167887Y0074320D01*
X0167887Y0075119D02*
X0168887Y0075119D01*
X0169112Y0075917D02*
X0167663Y0075917D01*
X0167332Y0076716D02*
X0169443Y0076716D01*
X0170059Y0077514D02*
X0166716Y0077514D01*
X0165891Y0078313D02*
X0170884Y0078313D01*
X0175891Y0078313D02*
X0180884Y0078313D01*
X0180838Y0078294D02*
X0179573Y0077028D01*
X0178887Y0075374D01*
X0178887Y0073584D01*
X0179573Y0071930D01*
X0180838Y0070664D01*
X0182492Y0069979D01*
X0184283Y0069979D01*
X0185937Y0070664D01*
X0187202Y0071930D01*
X0187887Y0073584D01*
X0187887Y0075374D01*
X0187202Y0077028D01*
X0185937Y0078294D01*
X0184283Y0078979D01*
X0182492Y0078979D01*
X0180838Y0078294D01*
X0180059Y0077514D02*
X0176716Y0077514D01*
X0177332Y0076716D02*
X0179443Y0076716D01*
X0179112Y0075917D02*
X0177663Y0075917D01*
X0177887Y0075119D02*
X0178887Y0075119D01*
X0178887Y0074320D02*
X0177887Y0074320D01*
X0177862Y0073522D02*
X0178913Y0073522D01*
X0179244Y0072723D02*
X0177531Y0072723D01*
X0177197Y0071925D02*
X0179578Y0071925D01*
X0180376Y0071126D02*
X0176398Y0071126D01*
X0175124Y0070328D02*
X0181651Y0070328D01*
X0185124Y0070328D02*
X0190765Y0070328D01*
X0190819Y0070288D02*
X0191507Y0069938D01*
X0192240Y0069700D01*
X0192987Y0069581D01*
X0192987Y0074079D01*
X0188490Y0074079D01*
X0188608Y0073332D01*
X0188846Y0072598D01*
X0189197Y0071911D01*
X0189650Y0071287D01*
X0190195Y0070742D01*
X0190819Y0070288D01*
X0189811Y0071126D02*
X0186398Y0071126D01*
X0187197Y0071925D02*
X0189190Y0071925D01*
X0188806Y0072723D02*
X0187531Y0072723D01*
X0187862Y0073522D02*
X0188578Y0073522D01*
X0187887Y0074320D02*
X0192987Y0074320D01*
X0192987Y0074079D02*
X0192987Y0074879D01*
X0188490Y0074879D01*
X0188608Y0075627D01*
X0188846Y0076360D01*
X0189197Y0077047D01*
X0189650Y0077671D01*
X0190195Y0078217D01*
X0190819Y0078670D01*
X0191507Y0079020D01*
X0192240Y0079258D01*
X0192987Y0079377D01*
X0192987Y0074879D01*
X0193787Y0074879D01*
X0193787Y0079377D01*
X0194535Y0079258D01*
X0195268Y0079020D01*
X0195956Y0078670D01*
X0196580Y0078217D01*
X0197125Y0077671D01*
X0197578Y0077047D01*
X0197928Y0076360D01*
X0198167Y0075627D01*
X0198285Y0074879D01*
X0193788Y0074879D01*
X0193788Y0074079D01*
X0198285Y0074079D01*
X0198167Y0073332D01*
X0197928Y0072598D01*
X0197578Y0071911D01*
X0197125Y0071287D01*
X0196580Y0070742D01*
X0195956Y0070288D01*
X0195268Y0069938D01*
X0194535Y0069700D01*
X0193787Y0069581D01*
X0193787Y0074079D01*
X0192987Y0074079D01*
X0192987Y0073522D02*
X0193787Y0073522D01*
X0193788Y0074320D02*
X0199834Y0074320D01*
X0199834Y0073522D02*
X0198197Y0073522D01*
X0197969Y0072723D02*
X0199834Y0072723D01*
X0199834Y0071925D02*
X0197585Y0071925D01*
X0196964Y0071126D02*
X0199834Y0071126D01*
X0199834Y0070328D02*
X0196010Y0070328D01*
X0193787Y0070328D02*
X0192987Y0070328D01*
X0192987Y0071126D02*
X0193787Y0071126D01*
X0193787Y0071925D02*
X0192987Y0071925D01*
X0192987Y0072723D02*
X0193787Y0072723D01*
X0193787Y0075119D02*
X0192987Y0075119D01*
X0192987Y0075917D02*
X0193787Y0075917D01*
X0193787Y0076716D02*
X0192987Y0076716D01*
X0192987Y0077514D02*
X0193787Y0077514D01*
X0193787Y0078313D02*
X0192987Y0078313D01*
X0192987Y0079111D02*
X0193787Y0079111D01*
X0194988Y0079111D02*
X0199834Y0079111D01*
X0199834Y0078313D02*
X0196447Y0078313D01*
X0197239Y0077514D02*
X0199834Y0077514D01*
X0199834Y0076716D02*
X0197747Y0076716D01*
X0198072Y0075917D02*
X0199834Y0075917D01*
X0199834Y0075119D02*
X0198247Y0075119D01*
X0199834Y0079910D02*
X0119702Y0079910D01*
X0120176Y0079111D02*
X0191787Y0079111D01*
X0190328Y0078313D02*
X0185891Y0078313D01*
X0186716Y0077514D02*
X0189536Y0077514D01*
X0189028Y0076716D02*
X0187332Y0076716D01*
X0187663Y0075917D02*
X0188703Y0075917D01*
X0188528Y0075119D02*
X0187887Y0075119D01*
X0199834Y0080708D02*
X0160053Y0080708D01*
X0160852Y0081507D02*
X0199834Y0081507D01*
X0199834Y0082305D02*
X0161176Y0082305D01*
X0161176Y0083104D02*
X0199834Y0083104D01*
X0199834Y0083902D02*
X0160919Y0083902D01*
X0160120Y0084701D02*
X0199834Y0084701D01*
X0199834Y0085499D02*
X0148549Y0085499D01*
X0148107Y0085057D02*
X0149389Y0086339D01*
X0149389Y0087714D01*
X0165289Y0087714D01*
X0165978Y0087025D01*
X0167792Y0087025D01*
X0169074Y0088307D01*
X0169074Y0090121D01*
X0168792Y0090403D01*
X0174132Y0090403D01*
X0174691Y0090962D01*
X0175666Y0090962D01*
X0176948Y0092244D01*
X0176948Y0094058D01*
X0175666Y0095340D01*
X0173852Y0095340D01*
X0172570Y0094058D01*
X0172570Y0093403D01*
X0151038Y0093403D01*
X0117979Y0126462D01*
X0091798Y0126462D01*
X0086994Y0131266D01*
X0087314Y0132038D01*
X0087314Y0133634D01*
X0086703Y0135109D01*
X0085575Y0136237D01*
X0084100Y0136848D01*
X0082504Y0136848D01*
X0081030Y0136237D01*
X0079901Y0135109D01*
X0079291Y0133634D01*
X0079291Y0132038D01*
X0079901Y0130564D01*
X0081030Y0129435D01*
X0082504Y0128824D01*
X0084100Y0128824D01*
X0084873Y0129144D01*
X0089681Y0124336D01*
X0087023Y0124336D01*
X0086703Y0125109D01*
X0085575Y0126237D01*
X0084100Y0126848D01*
X0082504Y0126848D01*
X0081030Y0126237D01*
X0079901Y0125109D01*
X0079291Y0123634D01*
X0079291Y0122038D01*
X0079901Y0120564D01*
X0081030Y0119435D01*
X0082504Y0118824D01*
X0084100Y0118824D01*
X0085575Y0119435D01*
X0086703Y0120564D01*
X0087023Y0121336D01*
X0114925Y0121336D01*
X0121925Y0114336D01*
X0099583Y0114336D01*
X0098894Y0115025D01*
X0097081Y0115025D01*
X0095798Y0113743D01*
X0095798Y0111930D01*
X0097081Y0110647D01*
X0098894Y0110647D01*
X0099583Y0111336D01*
X0120988Y0111336D01*
X0145011Y0087313D01*
X0145011Y0086339D01*
X0146293Y0085057D01*
X0148107Y0085057D01*
X0149348Y0086298D02*
X0199834Y0086298D01*
X0199834Y0087096D02*
X0167863Y0087096D01*
X0168662Y0087895D02*
X0199834Y0087895D01*
X0199834Y0088693D02*
X0169074Y0088693D01*
X0169074Y0089492D02*
X0199834Y0089492D01*
X0199834Y0090290D02*
X0168905Y0090290D01*
X0172570Y0093484D02*
X0150957Y0093484D01*
X0150158Y0094283D02*
X0172795Y0094283D01*
X0173594Y0095081D02*
X0149360Y0095081D01*
X0148561Y0095880D02*
X0199834Y0095880D01*
X0199834Y0095081D02*
X0175924Y0095081D01*
X0176723Y0094283D02*
X0199834Y0094283D01*
X0199834Y0093484D02*
X0176948Y0093484D01*
X0176948Y0092686D02*
X0199834Y0092686D01*
X0199834Y0091887D02*
X0176591Y0091887D01*
X0175793Y0091089D02*
X0199834Y0091089D01*
X0199834Y0096679D02*
X0147763Y0096679D01*
X0146964Y0097477D02*
X0199834Y0097477D01*
X0199834Y0098276D02*
X0146166Y0098276D01*
X0145367Y0099074D02*
X0199834Y0099074D01*
X0199834Y0099873D02*
X0144569Y0099873D01*
X0143770Y0100671D02*
X0199834Y0100671D01*
X0199834Y0101470D02*
X0142971Y0101470D01*
X0142173Y0102268D02*
X0199834Y0102268D01*
X0199834Y0103067D02*
X0141374Y0103067D01*
X0140576Y0103865D02*
X0199834Y0103865D01*
X0199834Y0104664D02*
X0139777Y0104664D01*
X0138979Y0105462D02*
X0199834Y0105462D01*
X0199834Y0106261D02*
X0138180Y0106261D01*
X0137382Y0107059D02*
X0153818Y0107059D01*
X0154167Y0106710D02*
X0155981Y0106710D01*
X0157263Y0107993D01*
X0157263Y0109806D01*
X0156856Y0110213D01*
X0156856Y0131684D01*
X0157202Y0132030D01*
X0157887Y0133684D01*
X0157887Y0135474D01*
X0157202Y0137128D01*
X0155937Y0138394D01*
X0154283Y0139079D01*
X0152492Y0139079D01*
X0150838Y0138394D01*
X0149573Y0137128D01*
X0148887Y0135474D01*
X0148887Y0133684D01*
X0149573Y0132030D01*
X0150838Y0130764D01*
X0152492Y0130079D01*
X0153856Y0130079D01*
X0153856Y0110777D01*
X0152885Y0109806D01*
X0152885Y0107993D01*
X0154167Y0106710D01*
X0153020Y0107858D02*
X0136583Y0107858D01*
X0135785Y0108656D02*
X0152885Y0108656D01*
X0152885Y0109455D02*
X0134986Y0109455D01*
X0134188Y0110253D02*
X0153332Y0110253D01*
X0153856Y0111052D02*
X0138669Y0111052D01*
X0138264Y0110647D02*
X0139547Y0111930D01*
X0139547Y0113743D01*
X0138858Y0114432D01*
X0138858Y0127928D01*
X0141443Y0130514D01*
X0142492Y0130079D01*
X0144283Y0130079D01*
X0145937Y0130764D01*
X0147202Y0132030D01*
X0147887Y0133684D01*
X0147887Y0135474D01*
X0147202Y0137128D01*
X0145937Y0138394D01*
X0144283Y0139079D01*
X0142492Y0139079D01*
X0140838Y0138394D01*
X0139573Y0137128D01*
X0138887Y0135474D01*
X0138887Y0133684D01*
X0139322Y0132635D01*
X0135858Y0129171D01*
X0135858Y0114432D01*
X0135169Y0113743D01*
X0135169Y0111930D01*
X0136451Y0110647D01*
X0138264Y0110647D01*
X0139467Y0111850D02*
X0153856Y0111850D01*
X0153856Y0112649D02*
X0139547Y0112649D01*
X0139547Y0113447D02*
X0153856Y0113447D01*
X0153856Y0114246D02*
X0139044Y0114246D01*
X0138858Y0115044D02*
X0153856Y0115044D01*
X0153856Y0115843D02*
X0138858Y0115843D01*
X0138858Y0116641D02*
X0153856Y0116641D01*
X0153856Y0117440D02*
X0138858Y0117440D01*
X0138858Y0118238D02*
X0153856Y0118238D01*
X0153856Y0119037D02*
X0138858Y0119037D01*
X0138858Y0119835D02*
X0153856Y0119835D01*
X0153856Y0120634D02*
X0138858Y0120634D01*
X0138858Y0121432D02*
X0153856Y0121432D01*
X0153856Y0122231D02*
X0138858Y0122231D01*
X0138858Y0123029D02*
X0153856Y0123029D01*
X0153856Y0123828D02*
X0138858Y0123828D01*
X0138858Y0124626D02*
X0153856Y0124626D01*
X0153856Y0125425D02*
X0138858Y0125425D01*
X0138858Y0126223D02*
X0153856Y0126223D01*
X0153856Y0127022D02*
X0138858Y0127022D01*
X0138858Y0127820D02*
X0153856Y0127820D01*
X0153856Y0128619D02*
X0139549Y0128619D01*
X0140347Y0129417D02*
X0153856Y0129417D01*
X0152162Y0130216D02*
X0144613Y0130216D01*
X0146187Y0131015D02*
X0150588Y0131015D01*
X0149790Y0131813D02*
X0146985Y0131813D01*
X0147443Y0132612D02*
X0149332Y0132612D01*
X0149001Y0133410D02*
X0147774Y0133410D01*
X0147887Y0134209D02*
X0148887Y0134209D01*
X0148887Y0135007D02*
X0147887Y0135007D01*
X0147750Y0135806D02*
X0149025Y0135806D01*
X0149355Y0136604D02*
X0147419Y0136604D01*
X0146928Y0137403D02*
X0149847Y0137403D01*
X0150645Y0138201D02*
X0146129Y0138201D01*
X0144475Y0139000D02*
X0152300Y0139000D01*
X0154475Y0139000D02*
X0162300Y0139000D01*
X0162492Y0139079D02*
X0160838Y0138394D01*
X0159573Y0137128D01*
X0158887Y0135474D01*
X0158887Y0133684D01*
X0159573Y0132030D01*
X0160838Y0130764D01*
X0161448Y0130512D01*
X0161448Y0112463D01*
X0160759Y0111774D01*
X0160759Y0109961D01*
X0162041Y0108679D01*
X0163855Y0108679D01*
X0165137Y0109961D01*
X0165137Y0111774D01*
X0164448Y0112463D01*
X0164448Y0130148D01*
X0165937Y0130764D01*
X0167202Y0132030D01*
X0167887Y0133684D01*
X0167887Y0135474D01*
X0167202Y0137128D01*
X0165937Y0138394D01*
X0164283Y0139079D01*
X0162492Y0139079D01*
X0164475Y0139000D02*
X0172300Y0139000D01*
X0172492Y0139079D02*
X0170838Y0138394D01*
X0169573Y0137128D01*
X0168887Y0135474D01*
X0168887Y0133684D01*
X0169573Y0132030D01*
X0170838Y0130764D01*
X0172492Y0130079D01*
X0174283Y0130079D01*
X0175937Y0130764D01*
X0177202Y0132030D01*
X0177887Y0133684D01*
X0177887Y0135474D01*
X0177202Y0137128D01*
X0175937Y0138394D01*
X0174283Y0139079D01*
X0172492Y0139079D01*
X0174475Y0139000D02*
X0182300Y0139000D01*
X0182492Y0139079D02*
X0180838Y0138394D01*
X0179573Y0137128D01*
X0178887Y0135474D01*
X0178887Y0133684D01*
X0179573Y0132030D01*
X0180838Y0130764D01*
X0182492Y0130079D01*
X0184283Y0130079D01*
X0185937Y0130764D01*
X0187202Y0132030D01*
X0187887Y0133684D01*
X0187887Y0135474D01*
X0187202Y0137128D01*
X0185937Y0138394D01*
X0184283Y0139079D01*
X0182492Y0139079D01*
X0184475Y0139000D02*
X0192300Y0139000D01*
X0192492Y0139079D02*
X0190838Y0138394D01*
X0189573Y0137128D01*
X0188887Y0135474D01*
X0188887Y0133684D01*
X0189573Y0132030D01*
X0190838Y0130764D01*
X0192492Y0130079D01*
X0194283Y0130079D01*
X0195937Y0130764D01*
X0197202Y0132030D01*
X0197887Y0133684D01*
X0197887Y0135474D01*
X0197202Y0137128D01*
X0195937Y0138394D01*
X0194283Y0139079D01*
X0192492Y0139079D01*
X0194475Y0139000D02*
X0199834Y0139000D01*
X0199834Y0139798D02*
X0062486Y0139798D01*
X0062486Y0139000D02*
X0102300Y0139000D01*
X0102492Y0139079D02*
X0100838Y0138394D01*
X0099573Y0137128D01*
X0098887Y0135474D01*
X0098887Y0133684D01*
X0099573Y0132030D01*
X0100838Y0130764D01*
X0102492Y0130079D01*
X0104283Y0130079D01*
X0105937Y0130764D01*
X0107202Y0132030D01*
X0107887Y0133684D01*
X0107887Y0135474D01*
X0107202Y0137128D01*
X0105937Y0138394D01*
X0104283Y0139079D01*
X0102492Y0139079D01*
X0104475Y0139000D02*
X0111270Y0139000D01*
X0111507Y0139120D02*
X0110819Y0138770D01*
X0110195Y0138317D01*
X0109650Y0137771D01*
X0109197Y0137147D01*
X0108846Y0136460D01*
X0108608Y0135727D01*
X0108490Y0134979D01*
X0112987Y0134979D01*
X0112987Y0134179D01*
X0108490Y0134179D01*
X0108608Y0133432D01*
X0108846Y0132698D01*
X0109197Y0132011D01*
X0109650Y0131387D01*
X0110195Y0130842D01*
X0110819Y0130388D01*
X0111507Y0130038D01*
X0112240Y0129800D01*
X0112987Y0129681D01*
X0112987Y0134179D01*
X0113787Y0134179D01*
X0113787Y0129681D01*
X0114535Y0129800D01*
X0115268Y0130038D01*
X0115956Y0130388D01*
X0116580Y0130842D01*
X0117125Y0131387D01*
X0117578Y0132011D01*
X0117928Y0132698D01*
X0118167Y0133432D01*
X0118285Y0134179D01*
X0113788Y0134179D01*
X0113788Y0134979D01*
X0118285Y0134979D01*
X0118167Y0135727D01*
X0117928Y0136460D01*
X0117578Y0137147D01*
X0117125Y0137771D01*
X0116580Y0138317D01*
X0115956Y0138770D01*
X0115268Y0139120D01*
X0114535Y0139358D01*
X0113787Y0139477D01*
X0113787Y0134979D01*
X0112987Y0134979D01*
X0112987Y0139477D01*
X0112240Y0139358D01*
X0111507Y0139120D01*
X0112987Y0139000D02*
X0113787Y0139000D01*
X0113787Y0138201D02*
X0112987Y0138201D01*
X0112987Y0137403D02*
X0113787Y0137403D01*
X0113787Y0136604D02*
X0112987Y0136604D01*
X0112987Y0135806D02*
X0113787Y0135806D01*
X0113787Y0135007D02*
X0112987Y0135007D01*
X0112987Y0134209D02*
X0107887Y0134209D01*
X0107887Y0135007D02*
X0108494Y0135007D01*
X0108634Y0135806D02*
X0107750Y0135806D01*
X0107419Y0136604D02*
X0108920Y0136604D01*
X0109382Y0137403D02*
X0106928Y0137403D01*
X0106129Y0138201D02*
X0110080Y0138201D01*
X0108615Y0133410D02*
X0107774Y0133410D01*
X0107443Y0132612D02*
X0108891Y0132612D01*
X0109340Y0131813D02*
X0106985Y0131813D01*
X0106187Y0131015D02*
X0110022Y0131015D01*
X0111157Y0130216D02*
X0104613Y0130216D01*
X0102162Y0130216D02*
X0088044Y0130216D01*
X0088842Y0129417D02*
X0136105Y0129417D01*
X0135858Y0128619D02*
X0089641Y0128619D01*
X0090440Y0127820D02*
X0135858Y0127820D01*
X0135858Y0127022D02*
X0091238Y0127022D01*
X0088592Y0125425D02*
X0086387Y0125425D01*
X0086903Y0124626D02*
X0089391Y0124626D01*
X0087794Y0126223D02*
X0085589Y0126223D01*
X0086995Y0127022D02*
X0074697Y0127022D01*
X0074996Y0126925D02*
X0074336Y0127139D01*
X0073702Y0127240D01*
X0073702Y0123236D01*
X0072902Y0123236D01*
X0072902Y0122436D01*
X0068899Y0122436D01*
X0068999Y0121803D01*
X0069214Y0121143D01*
X0069529Y0120524D01*
X0069937Y0119962D01*
X0070428Y0119471D01*
X0070990Y0119063D01*
X0071609Y0118748D01*
X0072269Y0118533D01*
X0072902Y0118433D01*
X0072902Y0122436D01*
X0073702Y0122436D01*
X0073702Y0118433D01*
X0074336Y0118533D01*
X0074996Y0118748D01*
X0075615Y0119063D01*
X0076177Y0119471D01*
X0076668Y0119962D01*
X0077076Y0120524D01*
X0077391Y0121143D01*
X0077606Y0121803D01*
X0077706Y0122436D01*
X0073702Y0122436D01*
X0073702Y0123236D01*
X0077706Y0123236D01*
X0077606Y0123869D01*
X0077391Y0124530D01*
X0077076Y0125149D01*
X0076668Y0125710D01*
X0076177Y0126201D01*
X0075615Y0126610D01*
X0074996Y0126925D01*
X0073702Y0127022D02*
X0072902Y0127022D01*
X0072902Y0127240D02*
X0072269Y0127139D01*
X0071609Y0126925D01*
X0070990Y0126610D01*
X0070428Y0126201D01*
X0069937Y0125710D01*
X0069529Y0125149D01*
X0069214Y0124530D01*
X0068999Y0123869D01*
X0068899Y0123236D01*
X0072902Y0123236D01*
X0072902Y0127240D01*
X0072902Y0126223D02*
X0073702Y0126223D01*
X0073702Y0125425D02*
X0072902Y0125425D01*
X0072902Y0124626D02*
X0073702Y0124626D01*
X0073702Y0123828D02*
X0072902Y0123828D01*
X0072902Y0123029D02*
X0062486Y0123029D01*
X0062486Y0122231D02*
X0068931Y0122231D01*
X0069120Y0121432D02*
X0062486Y0121432D01*
X0062486Y0120634D02*
X0069473Y0120634D01*
X0070064Y0119835D02*
X0062486Y0119835D01*
X0062486Y0119037D02*
X0071041Y0119037D01*
X0072902Y0119037D02*
X0073702Y0119037D01*
X0073702Y0119835D02*
X0072902Y0119835D01*
X0072902Y0120634D02*
X0073702Y0120634D01*
X0073702Y0121432D02*
X0072902Y0121432D01*
X0072902Y0122231D02*
X0073702Y0122231D01*
X0073702Y0123029D02*
X0079291Y0123029D01*
X0079291Y0122231D02*
X0077673Y0122231D01*
X0077485Y0121432D02*
X0079542Y0121432D01*
X0079872Y0120634D02*
X0077132Y0120634D01*
X0076541Y0119835D02*
X0080630Y0119835D01*
X0081992Y0119037D02*
X0075564Y0119037D01*
X0074996Y0116925D02*
X0074336Y0117139D01*
X0073702Y0117240D01*
X0073702Y0113236D01*
X0072902Y0113236D01*
X0072902Y0112436D01*
X0068899Y0112436D01*
X0068999Y0111803D01*
X0069214Y0111143D01*
X0069529Y0110524D01*
X0069937Y0109962D01*
X0070428Y0109471D01*
X0070990Y0109063D01*
X0071609Y0108748D01*
X0072269Y0108533D01*
X0072902Y0108433D01*
X0072902Y0112436D01*
X0073702Y0112436D01*
X0073702Y0108433D01*
X0074336Y0108533D01*
X0074996Y0108748D01*
X0075615Y0109063D01*
X0076177Y0109471D01*
X0076668Y0109962D01*
X0077076Y0110524D01*
X0077391Y0111143D01*
X0077606Y0111803D01*
X0077706Y0112436D01*
X0073702Y0112436D01*
X0073702Y0113236D01*
X0077706Y0113236D01*
X0077606Y0113869D01*
X0077391Y0114530D01*
X0077076Y0115149D01*
X0076668Y0115710D01*
X0076177Y0116201D01*
X0075615Y0116610D01*
X0074996Y0116925D01*
X0075552Y0116641D02*
X0082005Y0116641D01*
X0082504Y0116848D02*
X0081030Y0116237D01*
X0079901Y0115109D01*
X0079291Y0113634D01*
X0079291Y0112038D01*
X0079901Y0110564D01*
X0081030Y0109435D01*
X0082504Y0108824D01*
X0084100Y0108824D01*
X0085575Y0109435D01*
X0086703Y0110564D01*
X0087314Y0112038D01*
X0087314Y0113634D01*
X0086703Y0115109D01*
X0085575Y0116237D01*
X0084100Y0116848D01*
X0082504Y0116848D01*
X0084599Y0116641D02*
X0119620Y0116641D01*
X0120419Y0115843D02*
X0085969Y0115843D01*
X0086730Y0115044D02*
X0121217Y0115044D01*
X0118822Y0117440D02*
X0062486Y0117440D01*
X0062486Y0118238D02*
X0118023Y0118238D01*
X0117225Y0119037D02*
X0084613Y0119037D01*
X0085975Y0119835D02*
X0116426Y0119835D01*
X0115628Y0120634D02*
X0086733Y0120634D01*
X0080635Y0115843D02*
X0076535Y0115843D01*
X0077129Y0115044D02*
X0079875Y0115044D01*
X0079544Y0114246D02*
X0077483Y0114246D01*
X0077672Y0113447D02*
X0079291Y0113447D01*
X0079291Y0112649D02*
X0073702Y0112649D01*
X0073702Y0113447D02*
X0072902Y0113447D01*
X0072902Y0113236D02*
X0072902Y0117240D01*
X0072269Y0117139D01*
X0071609Y0116925D01*
X0070990Y0116610D01*
X0070428Y0116201D01*
X0069937Y0115710D01*
X0069529Y0115149D01*
X0069214Y0114530D01*
X0068999Y0113869D01*
X0068899Y0113236D01*
X0072902Y0113236D01*
X0072902Y0112649D02*
X0062486Y0112649D01*
X0062486Y0113447D02*
X0068932Y0113447D01*
X0069122Y0114246D02*
X0062486Y0114246D01*
X0062486Y0115044D02*
X0069476Y0115044D01*
X0070070Y0115843D02*
X0062486Y0115843D01*
X0062486Y0116641D02*
X0071052Y0116641D01*
X0072902Y0116641D02*
X0073702Y0116641D01*
X0073702Y0115843D02*
X0072902Y0115843D01*
X0072902Y0115044D02*
X0073702Y0115044D01*
X0073702Y0114246D02*
X0072902Y0114246D01*
X0072902Y0111850D02*
X0073702Y0111850D01*
X0073702Y0111052D02*
X0072902Y0111052D01*
X0072902Y0110253D02*
X0073702Y0110253D01*
X0073702Y0109455D02*
X0072902Y0109455D01*
X0072902Y0108656D02*
X0073702Y0108656D01*
X0074715Y0108656D02*
X0123668Y0108656D01*
X0122870Y0109455D02*
X0085594Y0109455D01*
X0086393Y0110253D02*
X0122071Y0110253D01*
X0121273Y0111052D02*
X0099299Y0111052D01*
X0096676Y0111052D02*
X0086906Y0111052D01*
X0087236Y0111850D02*
X0095878Y0111850D01*
X0095798Y0112649D02*
X0087314Y0112649D01*
X0087314Y0113447D02*
X0095798Y0113447D01*
X0096301Y0114246D02*
X0087061Y0114246D01*
X0081010Y0109455D02*
X0076154Y0109455D01*
X0076879Y0110253D02*
X0080212Y0110253D01*
X0079699Y0111052D02*
X0077345Y0111052D01*
X0077613Y0111850D02*
X0079368Y0111850D01*
X0081086Y0106261D02*
X0076095Y0106261D01*
X0076177Y0106201D02*
X0075615Y0106610D01*
X0074996Y0106925D01*
X0074336Y0107139D01*
X0073702Y0107240D01*
X0073702Y0103236D01*
X0072902Y0103236D01*
X0072902Y0102436D01*
X0068899Y0102436D01*
X0068999Y0101803D01*
X0069214Y0101143D01*
X0069529Y0100524D01*
X0069937Y0099962D01*
X0070428Y0099471D01*
X0070990Y0099063D01*
X0071609Y0098748D01*
X0072269Y0098533D01*
X0072902Y0098433D01*
X0072902Y0102436D01*
X0073702Y0102436D01*
X0073702Y0098433D01*
X0074336Y0098533D01*
X0074996Y0098748D01*
X0075615Y0099063D01*
X0076177Y0099471D01*
X0076668Y0099962D01*
X0077076Y0100524D01*
X0077391Y0101143D01*
X0077606Y0101803D01*
X0077706Y0102436D01*
X0073702Y0102436D01*
X0073702Y0103236D01*
X0077706Y0103236D01*
X0077606Y0103869D01*
X0077391Y0104530D01*
X0077076Y0105149D01*
X0076668Y0105710D01*
X0076177Y0106201D01*
X0076848Y0105462D02*
X0080255Y0105462D01*
X0079901Y0105109D02*
X0079291Y0103634D01*
X0079291Y0102038D01*
X0079901Y0100564D01*
X0081030Y0099435D01*
X0082504Y0098824D01*
X0084100Y0098824D01*
X0085575Y0099435D01*
X0086703Y0100564D01*
X0087314Y0102038D01*
X0087314Y0103634D01*
X0086703Y0105109D01*
X0085575Y0106237D01*
X0084100Y0106848D01*
X0082504Y0106848D01*
X0081030Y0106237D01*
X0079901Y0105109D01*
X0079717Y0104664D02*
X0077323Y0104664D01*
X0077606Y0103865D02*
X0079386Y0103865D01*
X0079291Y0103067D02*
X0073702Y0103067D01*
X0073702Y0103865D02*
X0072902Y0103865D01*
X0072902Y0103236D02*
X0072902Y0107240D01*
X0072269Y0107139D01*
X0071609Y0106925D01*
X0070990Y0106610D01*
X0070428Y0106201D01*
X0069937Y0105710D01*
X0069529Y0105149D01*
X0069214Y0104530D01*
X0068999Y0103869D01*
X0068899Y0103236D01*
X0072902Y0103236D01*
X0072902Y0103067D02*
X0062486Y0103067D01*
X0062486Y0103865D02*
X0068999Y0103865D01*
X0069282Y0104664D02*
X0062486Y0104664D01*
X0062486Y0105462D02*
X0069757Y0105462D01*
X0070510Y0106261D02*
X0062486Y0106261D01*
X0062486Y0107059D02*
X0072022Y0107059D01*
X0072902Y0107059D02*
X0073702Y0107059D01*
X0073702Y0106261D02*
X0072902Y0106261D01*
X0072902Y0105462D02*
X0073702Y0105462D01*
X0073702Y0104664D02*
X0072902Y0104664D01*
X0072902Y0102268D02*
X0073702Y0102268D01*
X0073702Y0101470D02*
X0072902Y0101470D01*
X0072902Y0100671D02*
X0073702Y0100671D01*
X0073702Y0099873D02*
X0072902Y0099873D01*
X0072902Y0099074D02*
X0073702Y0099074D01*
X0075630Y0099074D02*
X0081902Y0099074D01*
X0080593Y0099873D02*
X0076578Y0099873D01*
X0077151Y0100671D02*
X0079857Y0100671D01*
X0079526Y0101470D02*
X0077497Y0101470D01*
X0077679Y0102268D02*
X0079291Y0102268D01*
X0084703Y0099074D02*
X0090582Y0099074D01*
X0090582Y0098276D02*
X0062486Y0098276D01*
X0062486Y0099074D02*
X0070975Y0099074D01*
X0070027Y0099873D02*
X0062486Y0099873D01*
X0062486Y0100671D02*
X0069454Y0100671D01*
X0069108Y0101470D02*
X0062486Y0101470D01*
X0062486Y0102268D02*
X0068926Y0102268D01*
X0074582Y0107059D02*
X0125265Y0107059D01*
X0124467Y0107858D02*
X0062486Y0107858D01*
X0062486Y0108656D02*
X0071890Y0108656D01*
X0070451Y0109455D02*
X0062486Y0109455D01*
X0062486Y0110253D02*
X0069726Y0110253D01*
X0069260Y0111052D02*
X0062486Y0111052D01*
X0062486Y0111850D02*
X0068992Y0111850D01*
X0068993Y0123828D02*
X0062486Y0123828D01*
X0062486Y0124626D02*
X0069263Y0124626D01*
X0069730Y0125425D02*
X0062486Y0125425D01*
X0062486Y0126223D02*
X0070459Y0126223D01*
X0071908Y0127022D02*
X0062486Y0127022D01*
X0062486Y0127820D02*
X0086197Y0127820D01*
X0085398Y0128619D02*
X0074600Y0128619D01*
X0074336Y0128533D02*
X0074996Y0128748D01*
X0075615Y0129063D01*
X0076177Y0129471D01*
X0076668Y0129962D01*
X0077076Y0130524D01*
X0077391Y0131143D01*
X0077606Y0131803D01*
X0077706Y0132436D01*
X0073702Y0132436D01*
X0073702Y0128433D01*
X0074336Y0128533D01*
X0073702Y0128619D02*
X0072902Y0128619D01*
X0072902Y0128433D02*
X0072902Y0132436D01*
X0068899Y0132436D01*
X0068999Y0131803D01*
X0069214Y0131143D01*
X0069529Y0130524D01*
X0069937Y0129962D01*
X0070428Y0129471D01*
X0070990Y0129063D01*
X0071609Y0128748D01*
X0072269Y0128533D01*
X0072902Y0128433D01*
X0072005Y0128619D02*
X0062486Y0128619D01*
X0062486Y0129417D02*
X0070502Y0129417D01*
X0069753Y0130216D02*
X0062486Y0130216D01*
X0062486Y0131015D02*
X0069279Y0131015D01*
X0068998Y0131813D02*
X0062486Y0131813D01*
X0062486Y0132612D02*
X0072902Y0132612D01*
X0072902Y0132436D02*
X0072902Y0133236D01*
X0068899Y0133236D01*
X0068999Y0133869D01*
X0069214Y0134530D01*
X0069529Y0135149D01*
X0069937Y0135710D01*
X0070428Y0136201D01*
X0070990Y0136610D01*
X0071609Y0136925D01*
X0072269Y0137139D01*
X0072902Y0137240D01*
X0072902Y0133236D01*
X0073702Y0133236D01*
X0073702Y0137240D01*
X0074336Y0137139D01*
X0074996Y0136925D01*
X0075615Y0136610D01*
X0076177Y0136201D01*
X0076668Y0135710D01*
X0077076Y0135149D01*
X0077391Y0134530D01*
X0077606Y0133869D01*
X0077706Y0133236D01*
X0073702Y0133236D01*
X0073702Y0132436D01*
X0072902Y0132436D01*
X0072902Y0131813D02*
X0073702Y0131813D01*
X0073702Y0131015D02*
X0072902Y0131015D01*
X0072902Y0130216D02*
X0073702Y0130216D01*
X0073702Y0129417D02*
X0072902Y0129417D01*
X0076103Y0129417D02*
X0081073Y0129417D01*
X0080249Y0130216D02*
X0076852Y0130216D01*
X0077326Y0131015D02*
X0079715Y0131015D01*
X0079384Y0131813D02*
X0077607Y0131813D01*
X0077678Y0133410D02*
X0079291Y0133410D01*
X0079291Y0132612D02*
X0073702Y0132612D01*
X0073702Y0133410D02*
X0072902Y0133410D01*
X0072902Y0134209D02*
X0073702Y0134209D01*
X0073702Y0135007D02*
X0072902Y0135007D01*
X0072902Y0135806D02*
X0073702Y0135806D01*
X0073702Y0136604D02*
X0072902Y0136604D01*
X0070983Y0136604D02*
X0062486Y0136604D01*
X0062486Y0135806D02*
X0070033Y0135806D01*
X0069457Y0135007D02*
X0062486Y0135007D01*
X0062486Y0134209D02*
X0069109Y0134209D01*
X0068927Y0133410D02*
X0062486Y0133410D01*
X0062486Y0137403D02*
X0099847Y0137403D01*
X0099355Y0136604D02*
X0084689Y0136604D01*
X0086007Y0135806D02*
X0099025Y0135806D01*
X0098887Y0135007D02*
X0086746Y0135007D01*
X0087076Y0134209D02*
X0098887Y0134209D01*
X0099001Y0133410D02*
X0087314Y0133410D01*
X0087314Y0132612D02*
X0099332Y0132612D01*
X0099790Y0131813D02*
X0087221Y0131813D01*
X0087245Y0131015D02*
X0100588Y0131015D01*
X0100645Y0138201D02*
X0062486Y0138201D01*
X0062486Y0140597D02*
X0199834Y0140597D01*
X0199834Y0141395D02*
X0062486Y0141395D01*
X0062486Y0142194D02*
X0199834Y0142194D01*
X0199834Y0142992D02*
X0062486Y0142992D01*
X0062486Y0143791D02*
X0199834Y0143791D01*
X0199834Y0144589D02*
X0062486Y0144589D01*
X0062486Y0145388D02*
X0199834Y0145388D01*
X0199834Y0145503D02*
X0199834Y0008437D01*
X0175991Y0008437D01*
X0176176Y0008622D01*
X0176176Y0010436D01*
X0174894Y0011718D01*
X0173081Y0011718D01*
X0172392Y0011029D01*
X0155609Y0011029D01*
X0155920Y0011340D01*
X0156894Y0011340D01*
X0158176Y0012622D01*
X0158176Y0014436D01*
X0156894Y0015718D01*
X0155081Y0015718D01*
X0153798Y0014436D01*
X0153798Y0013461D01*
X0153366Y0013029D01*
X0066487Y0013029D01*
X0066487Y0063029D01*
X0071849Y0063029D01*
X0071325Y0062812D01*
X0070197Y0061684D01*
X0069586Y0060209D01*
X0069586Y0058613D01*
X0070197Y0057139D01*
X0071325Y0056010D01*
X0072800Y0055399D01*
X0074396Y0055399D01*
X0075870Y0056010D01*
X0076999Y0057139D01*
X0077610Y0058613D01*
X0077610Y0060209D01*
X0076999Y0061684D01*
X0075870Y0062812D01*
X0075346Y0063029D01*
X0080609Y0063029D01*
X0082979Y0065399D01*
X0084396Y0065399D01*
X0085870Y0066010D01*
X0086999Y0067139D01*
X0087610Y0068613D01*
X0087610Y0070209D01*
X0086999Y0071684D01*
X0085870Y0072812D01*
X0084396Y0073423D01*
X0082800Y0073423D01*
X0081325Y0072812D01*
X0080197Y0071684D01*
X0079586Y0070209D01*
X0079586Y0068613D01*
X0080197Y0067139D01*
X0080336Y0066999D01*
X0079366Y0066029D01*
X0075889Y0066029D01*
X0076999Y0067139D01*
X0077610Y0068613D01*
X0077610Y0070209D01*
X0076999Y0071684D01*
X0075870Y0072812D01*
X0074396Y0073423D01*
X0072800Y0073423D01*
X0071325Y0072812D01*
X0070197Y0071684D01*
X0069877Y0070911D01*
X0064248Y0070911D01*
X0062486Y0069149D01*
X0062486Y0145503D01*
X0199834Y0145503D01*
X0199834Y0138201D02*
X0196129Y0138201D01*
X0196928Y0137403D02*
X0199834Y0137403D01*
X0199834Y0136604D02*
X0197419Y0136604D01*
X0197750Y0135806D02*
X0199834Y0135806D01*
X0199834Y0135007D02*
X0197887Y0135007D01*
X0197887Y0134209D02*
X0199834Y0134209D01*
X0199834Y0133410D02*
X0197774Y0133410D01*
X0197443Y0132612D02*
X0199834Y0132612D01*
X0199834Y0131813D02*
X0196985Y0131813D01*
X0196187Y0131015D02*
X0199834Y0131015D01*
X0199834Y0130216D02*
X0194613Y0130216D01*
X0192162Y0130216D02*
X0184613Y0130216D01*
X0186187Y0131015D02*
X0190588Y0131015D01*
X0189790Y0131813D02*
X0186985Y0131813D01*
X0187443Y0132612D02*
X0189332Y0132612D01*
X0189001Y0133410D02*
X0187774Y0133410D01*
X0187887Y0134209D02*
X0188887Y0134209D01*
X0188887Y0135007D02*
X0187887Y0135007D01*
X0187750Y0135806D02*
X0189025Y0135806D01*
X0189355Y0136604D02*
X0187419Y0136604D01*
X0186928Y0137403D02*
X0189847Y0137403D01*
X0190645Y0138201D02*
X0186129Y0138201D01*
X0180645Y0138201D02*
X0176129Y0138201D01*
X0176928Y0137403D02*
X0179847Y0137403D01*
X0179355Y0136604D02*
X0177419Y0136604D01*
X0177750Y0135806D02*
X0179025Y0135806D01*
X0178887Y0135007D02*
X0177887Y0135007D01*
X0177887Y0134209D02*
X0178887Y0134209D01*
X0179001Y0133410D02*
X0177774Y0133410D01*
X0177443Y0132612D02*
X0179332Y0132612D01*
X0179790Y0131813D02*
X0176985Y0131813D01*
X0176187Y0131015D02*
X0180588Y0131015D01*
X0182162Y0130216D02*
X0174613Y0130216D01*
X0172162Y0130216D02*
X0164613Y0130216D01*
X0164448Y0129417D02*
X0199834Y0129417D01*
X0199834Y0128619D02*
X0164448Y0128619D01*
X0164448Y0127820D02*
X0199834Y0127820D01*
X0199834Y0127022D02*
X0164448Y0127022D01*
X0164448Y0126223D02*
X0199834Y0126223D01*
X0199834Y0125425D02*
X0164448Y0125425D01*
X0164448Y0124626D02*
X0199834Y0124626D01*
X0199834Y0123828D02*
X0164448Y0123828D01*
X0164448Y0123029D02*
X0199834Y0123029D01*
X0199834Y0122231D02*
X0164448Y0122231D01*
X0164448Y0121432D02*
X0199834Y0121432D01*
X0199834Y0120634D02*
X0164448Y0120634D01*
X0164448Y0119835D02*
X0199834Y0119835D01*
X0199834Y0119037D02*
X0164448Y0119037D01*
X0164448Y0118238D02*
X0199834Y0118238D01*
X0199834Y0117440D02*
X0164448Y0117440D01*
X0164448Y0116641D02*
X0199834Y0116641D01*
X0199834Y0115843D02*
X0164448Y0115843D01*
X0164448Y0115044D02*
X0199834Y0115044D01*
X0199834Y0114246D02*
X0164448Y0114246D01*
X0164448Y0113447D02*
X0199834Y0113447D01*
X0199834Y0112649D02*
X0164448Y0112649D01*
X0165061Y0111850D02*
X0199834Y0111850D01*
X0199834Y0111052D02*
X0165137Y0111052D01*
X0165137Y0110253D02*
X0199834Y0110253D01*
X0199834Y0109455D02*
X0164631Y0109455D01*
X0161265Y0109455D02*
X0157263Y0109455D01*
X0157263Y0108656D02*
X0199834Y0108656D01*
X0199834Y0107858D02*
X0157128Y0107858D01*
X0156330Y0107059D02*
X0199834Y0107059D01*
X0170588Y0131015D02*
X0166187Y0131015D01*
X0166985Y0131813D02*
X0169790Y0131813D01*
X0169332Y0132612D02*
X0167443Y0132612D01*
X0167774Y0133410D02*
X0169001Y0133410D01*
X0168887Y0134209D02*
X0167887Y0134209D01*
X0167887Y0135007D02*
X0168887Y0135007D01*
X0169025Y0135806D02*
X0167750Y0135806D01*
X0167419Y0136604D02*
X0169355Y0136604D01*
X0169847Y0137403D02*
X0166928Y0137403D01*
X0166129Y0138201D02*
X0170645Y0138201D01*
X0160645Y0138201D02*
X0156129Y0138201D01*
X0156928Y0137403D02*
X0159847Y0137403D01*
X0159355Y0136604D02*
X0157419Y0136604D01*
X0157750Y0135806D02*
X0159025Y0135806D01*
X0158887Y0135007D02*
X0157887Y0135007D01*
X0157887Y0134209D02*
X0158887Y0134209D01*
X0159001Y0133410D02*
X0157774Y0133410D01*
X0157443Y0132612D02*
X0159332Y0132612D01*
X0159790Y0131813D02*
X0156985Y0131813D01*
X0156856Y0131015D02*
X0160588Y0131015D01*
X0161448Y0130216D02*
X0156856Y0130216D01*
X0156856Y0129417D02*
X0161448Y0129417D01*
X0161448Y0128619D02*
X0156856Y0128619D01*
X0156856Y0127820D02*
X0161448Y0127820D01*
X0161448Y0127022D02*
X0156856Y0127022D01*
X0156856Y0126223D02*
X0161448Y0126223D01*
X0161448Y0125425D02*
X0156856Y0125425D01*
X0156856Y0124626D02*
X0161448Y0124626D01*
X0161448Y0123828D02*
X0156856Y0123828D01*
X0156856Y0123029D02*
X0161448Y0123029D01*
X0161448Y0122231D02*
X0156856Y0122231D01*
X0156856Y0121432D02*
X0161448Y0121432D01*
X0161448Y0120634D02*
X0156856Y0120634D01*
X0156856Y0119835D02*
X0161448Y0119835D01*
X0161448Y0119037D02*
X0156856Y0119037D01*
X0156856Y0118238D02*
X0161448Y0118238D01*
X0161448Y0117440D02*
X0156856Y0117440D01*
X0156856Y0116641D02*
X0161448Y0116641D01*
X0161448Y0115843D02*
X0156856Y0115843D01*
X0156856Y0115044D02*
X0161448Y0115044D01*
X0161448Y0114246D02*
X0156856Y0114246D01*
X0156856Y0113447D02*
X0161448Y0113447D01*
X0161448Y0112649D02*
X0156856Y0112649D01*
X0156856Y0111850D02*
X0160835Y0111850D01*
X0160759Y0111052D02*
X0156856Y0111052D01*
X0156856Y0110253D02*
X0160759Y0110253D01*
X0140437Y0091887D02*
X0124487Y0091887D01*
X0124487Y0091089D02*
X0141235Y0091089D01*
X0142034Y0090290D02*
X0124487Y0090290D01*
X0124487Y0089492D02*
X0142832Y0089492D01*
X0143631Y0088693D02*
X0124487Y0088693D01*
X0124487Y0087895D02*
X0144430Y0087895D01*
X0145011Y0087096D02*
X0124487Y0087096D01*
X0124487Y0086298D02*
X0145052Y0086298D01*
X0145851Y0085499D02*
X0124487Y0085499D01*
X0124487Y0084701D02*
X0157854Y0084701D01*
X0157922Y0080708D02*
X0118904Y0080708D01*
X0117071Y0080708D02*
X0097519Y0080708D01*
X0097519Y0079910D02*
X0116272Y0079910D01*
X0115798Y0079111D02*
X0097519Y0079111D01*
X0097519Y0078313D02*
X0100884Y0078313D01*
X0100838Y0078294D02*
X0099573Y0077028D01*
X0098887Y0075374D01*
X0098887Y0073584D01*
X0099573Y0071930D01*
X0100838Y0070664D01*
X0102492Y0069979D01*
X0104283Y0069979D01*
X0105937Y0070664D01*
X0107202Y0071930D01*
X0107887Y0073584D01*
X0107887Y0075374D01*
X0107202Y0077028D01*
X0105937Y0078294D01*
X0104283Y0078979D01*
X0102492Y0078979D01*
X0100838Y0078294D01*
X0100059Y0077514D02*
X0097519Y0077514D01*
X0097519Y0076716D02*
X0099443Y0076716D01*
X0099112Y0075917D02*
X0097519Y0075917D01*
X0097519Y0075119D02*
X0098887Y0075119D01*
X0098887Y0074320D02*
X0097519Y0074320D01*
X0097519Y0073522D02*
X0098913Y0073522D01*
X0099244Y0072723D02*
X0097519Y0072723D01*
X0097519Y0071925D02*
X0099578Y0071925D01*
X0100376Y0071126D02*
X0097519Y0071126D01*
X0097519Y0070328D02*
X0101651Y0070328D01*
X0105124Y0070328D02*
X0111651Y0070328D01*
X0110376Y0071126D02*
X0106398Y0071126D01*
X0107197Y0071925D02*
X0109578Y0071925D01*
X0109244Y0072723D02*
X0107531Y0072723D01*
X0107862Y0073522D02*
X0108913Y0073522D01*
X0108887Y0074320D02*
X0107887Y0074320D01*
X0107887Y0075119D02*
X0108887Y0075119D01*
X0109112Y0075917D02*
X0107663Y0075917D01*
X0107332Y0076716D02*
X0109443Y0076716D01*
X0110059Y0077514D02*
X0106716Y0077514D01*
X0105891Y0078313D02*
X0110884Y0078313D01*
X0120287Y0078313D02*
X0120884Y0078313D01*
X0125891Y0078313D02*
X0130884Y0078313D01*
X0130838Y0078294D02*
X0129573Y0077028D01*
X0128887Y0075374D01*
X0128887Y0073584D01*
X0129573Y0071930D01*
X0130838Y0070664D01*
X0132492Y0069979D01*
X0134283Y0069979D01*
X0135937Y0070664D01*
X0137202Y0071930D01*
X0137887Y0073584D01*
X0137887Y0075374D01*
X0137202Y0077028D01*
X0135937Y0078294D01*
X0134283Y0078979D01*
X0132492Y0078979D01*
X0130838Y0078294D01*
X0130059Y0077514D02*
X0126716Y0077514D01*
X0127332Y0076716D02*
X0129443Y0076716D01*
X0129112Y0075917D02*
X0127663Y0075917D01*
X0127887Y0075119D02*
X0128887Y0075119D01*
X0128887Y0074320D02*
X0127887Y0074320D01*
X0127862Y0073522D02*
X0128913Y0073522D01*
X0129244Y0072723D02*
X0127531Y0072723D01*
X0127197Y0071925D02*
X0129578Y0071925D01*
X0130376Y0071126D02*
X0126398Y0071126D01*
X0125124Y0070328D02*
X0131651Y0070328D01*
X0135124Y0070328D02*
X0141651Y0070328D01*
X0140376Y0071126D02*
X0136398Y0071126D01*
X0137197Y0071925D02*
X0139578Y0071925D01*
X0139244Y0072723D02*
X0137531Y0072723D01*
X0137862Y0073522D02*
X0138913Y0073522D01*
X0138887Y0074320D02*
X0137887Y0074320D01*
X0137887Y0075119D02*
X0138887Y0075119D01*
X0139112Y0075917D02*
X0137663Y0075917D01*
X0137332Y0076716D02*
X0139443Y0076716D01*
X0140059Y0077514D02*
X0136716Y0077514D01*
X0135891Y0078313D02*
X0140884Y0078313D01*
X0149389Y0087096D02*
X0165907Y0087096D01*
X0174887Y0069529D02*
X0199834Y0069529D01*
X0199834Y0068731D02*
X0174887Y0068731D01*
X0174887Y0067932D02*
X0199834Y0067932D01*
X0199834Y0067134D02*
X0174887Y0067134D01*
X0174887Y0066335D02*
X0199834Y0066335D01*
X0199834Y0065537D02*
X0174390Y0065537D01*
X0158176Y0062343D02*
X0199834Y0062343D01*
X0199834Y0063141D02*
X0157471Y0063141D01*
X0158176Y0061544D02*
X0199834Y0061544D01*
X0199834Y0060746D02*
X0158176Y0060746D01*
X0157501Y0059947D02*
X0199834Y0059947D01*
X0199834Y0059148D02*
X0155728Y0059148D01*
X0154930Y0058350D02*
X0199834Y0058350D01*
X0199834Y0057551D02*
X0154131Y0057551D01*
X0153333Y0056753D02*
X0199834Y0056753D01*
X0199834Y0055954D02*
X0152534Y0055954D01*
X0151736Y0055156D02*
X0199834Y0055156D01*
X0199834Y0054357D02*
X0150937Y0054357D01*
X0150139Y0053559D02*
X0199834Y0053559D01*
X0199834Y0052760D02*
X0149340Y0052760D01*
X0145233Y0042380D02*
X0168742Y0042380D01*
X0171233Y0042380D02*
X0199834Y0042380D01*
X0199834Y0043178D02*
X0127434Y0043178D01*
X0127047Y0043977D02*
X0199834Y0043977D01*
X0199834Y0044775D02*
X0127047Y0044775D01*
X0127047Y0045574D02*
X0199834Y0045574D01*
X0199834Y0046372D02*
X0127047Y0046372D01*
X0127047Y0047171D02*
X0199834Y0047171D01*
X0199834Y0047969D02*
X0127047Y0047969D01*
X0127047Y0048768D02*
X0199834Y0048768D01*
X0199834Y0049566D02*
X0127047Y0049566D01*
X0127047Y0050365D02*
X0199834Y0050365D01*
X0199834Y0051163D02*
X0127047Y0051163D01*
X0127047Y0051962D02*
X0199834Y0051962D01*
X0199834Y0041581D02*
X0172031Y0041581D01*
X0172176Y0040783D02*
X0199834Y0040783D01*
X0199834Y0039984D02*
X0172176Y0039984D01*
X0171740Y0039186D02*
X0199834Y0039186D01*
X0199834Y0038387D02*
X0170941Y0038387D01*
X0169034Y0038387D02*
X0144941Y0038387D01*
X0143034Y0038387D02*
X0117185Y0038387D01*
X0114188Y0041581D02*
X0087041Y0041581D01*
X0086303Y0042380D02*
X0106293Y0042380D01*
X0105641Y0043178D02*
X0100144Y0043178D01*
X0100942Y0043977D02*
X0105641Y0043977D01*
X0105641Y0044775D02*
X0101741Y0044775D01*
X0102539Y0045574D02*
X0106330Y0045574D01*
X0106330Y0046372D02*
X0103338Y0046372D01*
X0103519Y0047171D02*
X0106330Y0047171D01*
X0106330Y0047969D02*
X0103519Y0047969D01*
X0103519Y0048768D02*
X0106330Y0048768D01*
X0106330Y0049566D02*
X0103519Y0049566D01*
X0103519Y0050365D02*
X0106330Y0050365D01*
X0106330Y0051163D02*
X0103519Y0051163D01*
X0100519Y0051163D02*
X0093858Y0051163D01*
X0094271Y0050365D02*
X0100519Y0050365D01*
X0100519Y0049566D02*
X0094271Y0049566D01*
X0094101Y0048768D02*
X0100519Y0048768D01*
X0100519Y0047969D02*
X0093303Y0047969D01*
X0093060Y0051962D02*
X0100519Y0051962D01*
X0100519Y0052760D02*
X0085922Y0052760D01*
X0086720Y0051962D02*
X0091104Y0051962D01*
X0090306Y0051163D02*
X0087214Y0051163D01*
X0087012Y0047171D02*
X0099894Y0047171D01*
X0099095Y0046372D02*
X0086233Y0046372D01*
X0080963Y0046372D02*
X0078758Y0046372D01*
X0077959Y0047171D02*
X0080183Y0047171D01*
X0079853Y0047969D02*
X0077343Y0047969D01*
X0077610Y0048768D02*
X0079586Y0048768D01*
X0079586Y0049566D02*
X0077610Y0049566D01*
X0077545Y0050365D02*
X0079650Y0050365D01*
X0079981Y0051163D02*
X0077214Y0051163D01*
X0076720Y0051962D02*
X0080475Y0051962D01*
X0081274Y0052760D02*
X0075922Y0052760D01*
X0075736Y0055954D02*
X0081459Y0055954D01*
X0081325Y0056010D02*
X0082800Y0055399D01*
X0084396Y0055399D01*
X0085870Y0056010D01*
X0086999Y0057139D01*
X0087610Y0058613D01*
X0087610Y0060209D01*
X0086999Y0061684D01*
X0085870Y0062812D01*
X0084396Y0063423D01*
X0082800Y0063423D01*
X0081325Y0062812D01*
X0080197Y0061684D01*
X0079586Y0060209D01*
X0079586Y0058613D01*
X0080197Y0057139D01*
X0081325Y0056010D01*
X0080582Y0056753D02*
X0076613Y0056753D01*
X0077170Y0057551D02*
X0080026Y0057551D01*
X0079695Y0058350D02*
X0077501Y0058350D01*
X0077610Y0059148D02*
X0079586Y0059148D01*
X0079586Y0059947D02*
X0077610Y0059947D01*
X0077387Y0060746D02*
X0079808Y0060746D01*
X0080139Y0061544D02*
X0077057Y0061544D01*
X0076340Y0062343D02*
X0080856Y0062343D01*
X0080721Y0063141D02*
X0082119Y0063141D01*
X0081519Y0063940D02*
X0090582Y0063940D01*
X0090582Y0064738D02*
X0082318Y0064738D01*
X0084727Y0065537D02*
X0090582Y0065537D01*
X0090582Y0066335D02*
X0086195Y0066335D01*
X0086994Y0067134D02*
X0090582Y0067134D01*
X0090582Y0067932D02*
X0087327Y0067932D01*
X0087610Y0068731D02*
X0090582Y0068731D01*
X0090582Y0069529D02*
X0087610Y0069529D01*
X0087560Y0070328D02*
X0090582Y0070328D01*
X0090582Y0071126D02*
X0087230Y0071126D01*
X0086758Y0071925D02*
X0090582Y0071925D01*
X0090582Y0072723D02*
X0085959Y0072723D01*
X0090582Y0073522D02*
X0062486Y0073522D01*
X0062486Y0074320D02*
X0090582Y0074320D01*
X0090582Y0075119D02*
X0062486Y0075119D01*
X0062486Y0075917D02*
X0090582Y0075917D01*
X0090582Y0076716D02*
X0062486Y0076716D01*
X0062486Y0077514D02*
X0090582Y0077514D01*
X0090582Y0078313D02*
X0062486Y0078313D01*
X0062486Y0079111D02*
X0090582Y0079111D01*
X0090582Y0079910D02*
X0062486Y0079910D01*
X0062486Y0080708D02*
X0090582Y0080708D01*
X0090582Y0081507D02*
X0062486Y0081507D01*
X0062486Y0082305D02*
X0090582Y0082305D01*
X0090582Y0083104D02*
X0062486Y0083104D01*
X0062486Y0083902D02*
X0090582Y0083902D01*
X0090582Y0084701D02*
X0062486Y0084701D01*
X0062486Y0085499D02*
X0090582Y0085499D01*
X0090582Y0086298D02*
X0062486Y0086298D01*
X0062486Y0087096D02*
X0090582Y0087096D01*
X0090582Y0087895D02*
X0062486Y0087895D01*
X0062486Y0088693D02*
X0090582Y0088693D01*
X0090582Y0089492D02*
X0085632Y0089492D01*
X0085575Y0089435D02*
X0086703Y0090564D01*
X0087314Y0092038D01*
X0087314Y0093634D01*
X0086703Y0095109D01*
X0085575Y0096237D01*
X0084100Y0096848D01*
X0082504Y0096848D01*
X0081030Y0096237D01*
X0079901Y0095109D01*
X0079291Y0093634D01*
X0079291Y0092038D01*
X0079901Y0090564D01*
X0081030Y0089435D01*
X0082504Y0088824D01*
X0084100Y0088824D01*
X0085575Y0089435D01*
X0086430Y0090290D02*
X0090582Y0090290D01*
X0090582Y0091089D02*
X0086921Y0091089D01*
X0087252Y0091887D02*
X0090582Y0091887D01*
X0090582Y0092686D02*
X0087314Y0092686D01*
X0087314Y0093484D02*
X0090582Y0093484D01*
X0090582Y0094283D02*
X0087046Y0094283D01*
X0086715Y0095081D02*
X0090582Y0095081D01*
X0090582Y0095880D02*
X0085932Y0095880D01*
X0084510Y0096679D02*
X0090582Y0096679D01*
X0090582Y0097477D02*
X0062486Y0097477D01*
X0062486Y0096679D02*
X0072095Y0096679D01*
X0072504Y0096848D02*
X0071030Y0096237D01*
X0069901Y0095109D01*
X0069291Y0093634D01*
X0069291Y0092038D01*
X0069901Y0090564D01*
X0071030Y0089435D01*
X0072504Y0088824D01*
X0074100Y0088824D01*
X0075575Y0089435D01*
X0076703Y0090564D01*
X0077314Y0092038D01*
X0077314Y0093634D01*
X0076703Y0095109D01*
X0075575Y0096237D01*
X0074100Y0096848D01*
X0072504Y0096848D01*
X0074510Y0096679D02*
X0082095Y0096679D01*
X0080673Y0095880D02*
X0075932Y0095880D01*
X0076715Y0095081D02*
X0079890Y0095081D01*
X0079559Y0094283D02*
X0077046Y0094283D01*
X0077314Y0093484D02*
X0079291Y0093484D01*
X0079291Y0092686D02*
X0077314Y0092686D01*
X0077252Y0091887D02*
X0079353Y0091887D01*
X0079684Y0091089D02*
X0076921Y0091089D01*
X0076430Y0090290D02*
X0080175Y0090290D01*
X0080973Y0089492D02*
X0075632Y0089492D01*
X0070973Y0089492D02*
X0062486Y0089492D01*
X0062486Y0090290D02*
X0070175Y0090290D01*
X0069684Y0091089D02*
X0062486Y0091089D01*
X0062486Y0091887D02*
X0069353Y0091887D01*
X0069291Y0092686D02*
X0062486Y0092686D01*
X0062486Y0093484D02*
X0069291Y0093484D01*
X0069559Y0094283D02*
X0062486Y0094283D01*
X0062486Y0095081D02*
X0069890Y0095081D01*
X0070673Y0095880D02*
X0062486Y0095880D01*
X0085518Y0106261D02*
X0126064Y0106261D01*
X0126862Y0105462D02*
X0086350Y0105462D01*
X0086888Y0104664D02*
X0127661Y0104664D01*
X0128459Y0103865D02*
X0087219Y0103865D01*
X0087314Y0103067D02*
X0091028Y0103067D01*
X0090229Y0102268D02*
X0087314Y0102268D01*
X0087079Y0101470D02*
X0089893Y0101470D01*
X0089893Y0100671D02*
X0086748Y0100671D01*
X0086012Y0099873D02*
X0090139Y0099873D01*
X0093582Y0099074D02*
X0133250Y0099074D01*
X0132452Y0099873D02*
X0094025Y0099873D01*
X0094271Y0100671D02*
X0131653Y0100671D01*
X0130855Y0101470D02*
X0094271Y0101470D01*
X0093935Y0102268D02*
X0130056Y0102268D01*
X0129258Y0103067D02*
X0093136Y0103067D01*
X0093582Y0098276D02*
X0134049Y0098276D01*
X0134847Y0097477D02*
X0124135Y0097477D01*
X0124934Y0096679D02*
X0135646Y0096679D01*
X0136444Y0095880D02*
X0125176Y0095880D01*
X0125176Y0095081D02*
X0137243Y0095081D01*
X0138041Y0094283D02*
X0124837Y0094283D01*
X0124487Y0093484D02*
X0138840Y0093484D01*
X0139638Y0092686D02*
X0124487Y0092686D01*
X0121487Y0092686D02*
X0101548Y0092686D01*
X0102145Y0091887D02*
X0121487Y0091887D01*
X0121487Y0091089D02*
X0102145Y0091089D01*
X0102145Y0090290D02*
X0121487Y0090290D01*
X0121487Y0089492D02*
X0101456Y0089492D01*
X0101456Y0088693D02*
X0121487Y0088693D01*
X0121487Y0087895D02*
X0101456Y0087895D01*
X0101456Y0087096D02*
X0121487Y0087096D01*
X0121487Y0086298D02*
X0101456Y0086298D01*
X0101456Y0085499D02*
X0121487Y0085499D01*
X0121487Y0084701D02*
X0101456Y0084701D01*
X0098456Y0084701D02*
X0093582Y0084701D01*
X0093582Y0085499D02*
X0098456Y0085499D01*
X0098456Y0086298D02*
X0093582Y0086298D01*
X0093582Y0087096D02*
X0098456Y0087096D01*
X0098456Y0087895D02*
X0093582Y0087895D01*
X0093582Y0088693D02*
X0098456Y0088693D01*
X0098456Y0089492D02*
X0093582Y0089492D01*
X0093582Y0090290D02*
X0097767Y0090290D01*
X0097767Y0091089D02*
X0093582Y0091089D01*
X0093582Y0091887D02*
X0097767Y0091887D01*
X0098364Y0092686D02*
X0093582Y0092686D01*
X0093582Y0093484D02*
X0121487Y0093484D01*
X0121138Y0094283D02*
X0093582Y0094283D01*
X0093582Y0095081D02*
X0120798Y0095081D01*
X0120798Y0095880D02*
X0093582Y0095880D01*
X0093582Y0096679D02*
X0121041Y0096679D01*
X0121840Y0097477D02*
X0093582Y0097477D01*
X0093582Y0083902D02*
X0095062Y0083902D01*
X0094519Y0083104D02*
X0093582Y0083104D01*
X0093582Y0082305D02*
X0094519Y0082305D01*
X0094519Y0081507D02*
X0093582Y0081507D01*
X0093582Y0080708D02*
X0094519Y0080708D01*
X0094519Y0079910D02*
X0093582Y0079910D01*
X0093582Y0079111D02*
X0094519Y0079111D01*
X0094519Y0078313D02*
X0093582Y0078313D01*
X0093582Y0077514D02*
X0094519Y0077514D01*
X0094519Y0076716D02*
X0093582Y0076716D01*
X0093582Y0075917D02*
X0094519Y0075917D01*
X0094519Y0075119D02*
X0093582Y0075119D01*
X0093582Y0074320D02*
X0094519Y0074320D01*
X0094519Y0073522D02*
X0093582Y0073522D01*
X0093582Y0072723D02*
X0094519Y0072723D01*
X0094519Y0071925D02*
X0093582Y0071925D01*
X0093582Y0071126D02*
X0094519Y0071126D01*
X0094519Y0070328D02*
X0093582Y0070328D01*
X0093582Y0069529D02*
X0094519Y0069529D01*
X0094519Y0068731D02*
X0093582Y0068731D01*
X0093582Y0067932D02*
X0094519Y0067932D01*
X0094519Y0067134D02*
X0093582Y0067134D01*
X0093582Y0066335D02*
X0094519Y0066335D01*
X0094519Y0065537D02*
X0093582Y0065537D01*
X0093582Y0064738D02*
X0094752Y0064738D01*
X0090472Y0063141D02*
X0085076Y0063141D01*
X0086340Y0062343D02*
X0089893Y0062343D01*
X0089893Y0061544D02*
X0087057Y0061544D01*
X0087387Y0060746D02*
X0089896Y0060746D01*
X0090694Y0059947D02*
X0087610Y0059947D01*
X0087610Y0059148D02*
X0093830Y0059148D01*
X0093830Y0059947D02*
X0093470Y0059947D01*
X0094260Y0058350D02*
X0087501Y0058350D01*
X0087170Y0057551D02*
X0095058Y0057551D01*
X0096979Y0057551D02*
X0100519Y0057551D01*
X0100519Y0056753D02*
X0086613Y0056753D01*
X0085736Y0055954D02*
X0100519Y0055954D01*
X0100519Y0055156D02*
X0066487Y0055156D01*
X0066487Y0055954D02*
X0071459Y0055954D01*
X0070582Y0056753D02*
X0066487Y0056753D01*
X0066487Y0057551D02*
X0070026Y0057551D01*
X0069695Y0058350D02*
X0066487Y0058350D01*
X0066487Y0059148D02*
X0069586Y0059148D01*
X0069586Y0059947D02*
X0066487Y0059947D01*
X0066487Y0060746D02*
X0069808Y0060746D01*
X0070139Y0061544D02*
X0066487Y0061544D01*
X0066487Y0062343D02*
X0070856Y0062343D01*
X0076195Y0066335D02*
X0079672Y0066335D01*
X0080202Y0067134D02*
X0076994Y0067134D01*
X0077327Y0067932D02*
X0079868Y0067932D01*
X0079586Y0068731D02*
X0077610Y0068731D01*
X0077610Y0069529D02*
X0079586Y0069529D01*
X0079635Y0070328D02*
X0077560Y0070328D01*
X0077230Y0071126D02*
X0079966Y0071126D01*
X0080438Y0071925D02*
X0076758Y0071925D01*
X0075959Y0072723D02*
X0081236Y0072723D01*
X0071236Y0072723D02*
X0062486Y0072723D01*
X0062486Y0071925D02*
X0070438Y0071925D01*
X0069966Y0071126D02*
X0062486Y0071126D01*
X0062486Y0070328D02*
X0063665Y0070328D01*
X0062866Y0069529D02*
X0062486Y0069529D01*
X0066487Y0054357D02*
X0100519Y0054357D01*
X0100519Y0053559D02*
X0066487Y0053559D01*
X0066487Y0052760D02*
X0071274Y0052760D01*
X0070475Y0051962D02*
X0066487Y0051962D01*
X0066487Y0051163D02*
X0069981Y0051163D01*
X0069650Y0050365D02*
X0066487Y0050365D01*
X0066487Y0049566D02*
X0069586Y0049566D01*
X0069586Y0048768D02*
X0066487Y0048768D01*
X0066487Y0047969D02*
X0069853Y0047969D01*
X0070183Y0047171D02*
X0066487Y0047171D01*
X0066487Y0046372D02*
X0070963Y0046372D01*
X0072378Y0045574D02*
X0066487Y0045574D01*
X0066487Y0044775D02*
X0076112Y0044775D01*
X0076911Y0043977D02*
X0066487Y0043977D01*
X0066487Y0043178D02*
X0072209Y0043178D01*
X0070893Y0042380D02*
X0066487Y0042380D01*
X0066487Y0041581D02*
X0070154Y0041581D01*
X0069824Y0040783D02*
X0066487Y0040783D01*
X0066487Y0039984D02*
X0069586Y0039984D01*
X0069586Y0039186D02*
X0066487Y0039186D01*
X0066487Y0038387D02*
X0069679Y0038387D01*
X0070010Y0037589D02*
X0066487Y0037589D01*
X0066487Y0036790D02*
X0070545Y0036790D01*
X0071369Y0035992D02*
X0066487Y0035992D01*
X0066487Y0035193D02*
X0079021Y0035193D01*
X0079820Y0034395D02*
X0066487Y0034395D01*
X0066487Y0033596D02*
X0080618Y0033596D01*
X0081311Y0032798D02*
X0075885Y0032798D01*
X0075870Y0032812D02*
X0074396Y0033423D01*
X0072800Y0033423D01*
X0071325Y0032812D01*
X0070197Y0031684D01*
X0069586Y0030209D01*
X0069586Y0028613D01*
X0070197Y0027139D01*
X0071325Y0026010D01*
X0072800Y0025399D01*
X0074396Y0025399D01*
X0075870Y0026010D01*
X0076999Y0027139D01*
X0077610Y0028613D01*
X0077610Y0030209D01*
X0076999Y0031684D01*
X0075870Y0032812D01*
X0076683Y0031999D02*
X0080512Y0031999D01*
X0079997Y0031201D02*
X0077199Y0031201D01*
X0077530Y0030402D02*
X0079666Y0030402D01*
X0079586Y0029604D02*
X0077610Y0029604D01*
X0077610Y0028805D02*
X0079586Y0028805D01*
X0079837Y0028007D02*
X0077358Y0028007D01*
X0077028Y0027208D02*
X0080168Y0027208D01*
X0080926Y0026410D02*
X0076270Y0026410D01*
X0074907Y0025611D02*
X0082288Y0025611D01*
X0084907Y0025611D02*
X0199834Y0025611D01*
X0199834Y0024812D02*
X0066487Y0024812D01*
X0066487Y0024014D02*
X0199834Y0024014D01*
X0199834Y0023215D02*
X0066487Y0023215D01*
X0066487Y0022417D02*
X0199834Y0022417D01*
X0199834Y0021618D02*
X0066487Y0021618D01*
X0066487Y0020820D02*
X0199834Y0020820D01*
X0199834Y0020021D02*
X0066487Y0020021D01*
X0066487Y0019223D02*
X0199834Y0019223D01*
X0199834Y0018424D02*
X0066487Y0018424D01*
X0066487Y0017626D02*
X0199834Y0017626D01*
X0199834Y0016827D02*
X0066487Y0016827D01*
X0066487Y0016029D02*
X0199834Y0016029D01*
X0199834Y0015230D02*
X0157382Y0015230D01*
X0158176Y0014432D02*
X0199834Y0014432D01*
X0199834Y0013633D02*
X0158176Y0013633D01*
X0158176Y0012835D02*
X0199834Y0012835D01*
X0199834Y0012036D02*
X0157590Y0012036D01*
X0155817Y0011238D02*
X0172600Y0011238D01*
X0175374Y0011238D02*
X0199834Y0011238D01*
X0199834Y0010439D02*
X0176173Y0010439D01*
X0176176Y0009641D02*
X0199834Y0009641D01*
X0199834Y0008842D02*
X0176176Y0008842D01*
X0154593Y0015230D02*
X0066487Y0015230D01*
X0066487Y0014432D02*
X0153798Y0014432D01*
X0153798Y0013633D02*
X0066487Y0013633D01*
X0066487Y0025611D02*
X0072288Y0025611D01*
X0070926Y0026410D02*
X0066487Y0026410D01*
X0066487Y0027208D02*
X0070168Y0027208D01*
X0069837Y0028007D02*
X0066487Y0028007D01*
X0066487Y0028805D02*
X0069586Y0028805D01*
X0069586Y0029604D02*
X0066487Y0029604D01*
X0066487Y0030402D02*
X0069666Y0030402D01*
X0069997Y0031201D02*
X0066487Y0031201D01*
X0066487Y0031999D02*
X0070512Y0031999D01*
X0071311Y0032798D02*
X0066487Y0032798D01*
X0075826Y0035992D02*
X0078223Y0035992D01*
X0077424Y0036790D02*
X0076650Y0036790D01*
X0079271Y0039186D02*
X0079586Y0039186D01*
X0079586Y0039984D02*
X0078473Y0039984D01*
X0077674Y0040783D02*
X0079824Y0040783D01*
X0080154Y0041581D02*
X0077041Y0041581D01*
X0076303Y0042380D02*
X0080893Y0042380D01*
X0077709Y0043178D02*
X0074986Y0043178D01*
X0074817Y0045574D02*
X0075314Y0045574D01*
X0087028Y0027208D02*
X0199834Y0027208D01*
X0199834Y0026410D02*
X0086270Y0026410D01*
X0128338Y0032798D02*
X0199834Y0032798D01*
X0199834Y0033596D02*
X0129136Y0033596D01*
X0130909Y0034395D02*
X0199834Y0034395D01*
X0199834Y0035193D02*
X0131673Y0035193D01*
X0131673Y0035992D02*
X0199834Y0035992D01*
X0199834Y0036790D02*
X0131673Y0036790D01*
X0131055Y0037589D02*
X0199834Y0037589D01*
X0142967Y0068731D02*
X0124752Y0068731D01*
X0125550Y0067932D02*
X0133671Y0067932D01*
X0132872Y0067134D02*
X0126349Y0067134D01*
X0127147Y0066335D02*
X0132074Y0066335D01*
X0131275Y0065537D02*
X0127946Y0065537D01*
X0128744Y0064738D02*
X0130477Y0064738D01*
X0129678Y0063940D02*
X0129015Y0063940D01*
X0133389Y0111052D02*
X0136046Y0111052D01*
X0135248Y0111850D02*
X0132591Y0111850D01*
X0131792Y0112649D02*
X0135169Y0112649D01*
X0135169Y0113447D02*
X0130994Y0113447D01*
X0130195Y0114246D02*
X0135671Y0114246D01*
X0135858Y0115044D02*
X0129397Y0115044D01*
X0128598Y0115843D02*
X0135858Y0115843D01*
X0135858Y0116641D02*
X0127800Y0116641D01*
X0127001Y0117440D02*
X0135858Y0117440D01*
X0135858Y0118238D02*
X0126203Y0118238D01*
X0125404Y0119037D02*
X0135858Y0119037D01*
X0135858Y0119835D02*
X0124606Y0119835D01*
X0123807Y0120634D02*
X0135858Y0120634D01*
X0135858Y0121432D02*
X0123009Y0121432D01*
X0122210Y0122231D02*
X0135858Y0122231D01*
X0135858Y0123029D02*
X0121412Y0123029D01*
X0120613Y0123828D02*
X0135858Y0123828D01*
X0135858Y0124626D02*
X0119815Y0124626D01*
X0119016Y0125425D02*
X0135858Y0125425D01*
X0135858Y0126223D02*
X0118218Y0126223D01*
X0115618Y0130216D02*
X0122162Y0130216D01*
X0122492Y0130079D02*
X0124283Y0130079D01*
X0125937Y0130764D01*
X0127202Y0132030D01*
X0127887Y0133684D01*
X0127887Y0135474D01*
X0127202Y0137128D01*
X0125937Y0138394D01*
X0124283Y0139079D01*
X0122492Y0139079D01*
X0120838Y0138394D01*
X0119573Y0137128D01*
X0118887Y0135474D01*
X0118887Y0133684D01*
X0119573Y0132030D01*
X0120838Y0130764D01*
X0122492Y0130079D01*
X0120588Y0131015D02*
X0116752Y0131015D01*
X0117434Y0131813D02*
X0119790Y0131813D01*
X0119332Y0132612D02*
X0117884Y0132612D01*
X0118160Y0133410D02*
X0119001Y0133410D01*
X0118887Y0134209D02*
X0113788Y0134209D01*
X0113787Y0133410D02*
X0112987Y0133410D01*
X0112987Y0132612D02*
X0113787Y0132612D01*
X0113787Y0131813D02*
X0112987Y0131813D01*
X0112987Y0131015D02*
X0113787Y0131015D01*
X0113787Y0130216D02*
X0112987Y0130216D01*
X0118281Y0135007D02*
X0118887Y0135007D01*
X0119025Y0135806D02*
X0118141Y0135806D01*
X0117855Y0136604D02*
X0119355Y0136604D01*
X0119847Y0137403D02*
X0117393Y0137403D01*
X0116695Y0138201D02*
X0120645Y0138201D01*
X0122300Y0139000D02*
X0115505Y0139000D01*
X0124475Y0139000D02*
X0132300Y0139000D01*
X0132492Y0139079D02*
X0130838Y0138394D01*
X0129573Y0137128D01*
X0128887Y0135474D01*
X0128887Y0133684D01*
X0129573Y0132030D01*
X0130838Y0130764D01*
X0132492Y0130079D01*
X0134283Y0130079D01*
X0135937Y0130764D01*
X0137202Y0132030D01*
X0137887Y0133684D01*
X0137887Y0135474D01*
X0137202Y0137128D01*
X0135937Y0138394D01*
X0134283Y0139079D01*
X0132492Y0139079D01*
X0134475Y0139000D02*
X0142300Y0139000D01*
X0140645Y0138201D02*
X0136129Y0138201D01*
X0136928Y0137403D02*
X0139847Y0137403D01*
X0139355Y0136604D02*
X0137419Y0136604D01*
X0137750Y0135806D02*
X0139025Y0135806D01*
X0138887Y0135007D02*
X0137887Y0135007D01*
X0137887Y0134209D02*
X0138887Y0134209D01*
X0139001Y0133410D02*
X0137774Y0133410D01*
X0137443Y0132612D02*
X0139299Y0132612D01*
X0138500Y0131813D02*
X0136985Y0131813D01*
X0137702Y0131015D02*
X0136187Y0131015D01*
X0136903Y0130216D02*
X0134613Y0130216D01*
X0132162Y0130216D02*
X0124613Y0130216D01*
X0126187Y0131015D02*
X0130588Y0131015D01*
X0129790Y0131813D02*
X0126985Y0131813D01*
X0127443Y0132612D02*
X0129332Y0132612D01*
X0129001Y0133410D02*
X0127774Y0133410D01*
X0127887Y0134209D02*
X0128887Y0134209D01*
X0128887Y0135007D02*
X0127887Y0135007D01*
X0127750Y0135806D02*
X0129025Y0135806D01*
X0129355Y0136604D02*
X0127419Y0136604D01*
X0126928Y0137403D02*
X0129847Y0137403D01*
X0130645Y0138201D02*
X0126129Y0138201D01*
X0141146Y0130216D02*
X0142162Y0130216D01*
X0081916Y0136604D02*
X0075622Y0136604D01*
X0076572Y0135806D02*
X0080598Y0135806D01*
X0079859Y0135007D02*
X0077148Y0135007D01*
X0077495Y0134209D02*
X0079529Y0134209D01*
X0081016Y0126223D02*
X0076146Y0126223D01*
X0076875Y0125425D02*
X0080218Y0125425D01*
X0079702Y0124626D02*
X0077342Y0124626D01*
X0077612Y0123828D02*
X0079371Y0123828D01*
D13*
X0097987Y0112836D03*
X0092082Y0101025D03*
X0099956Y0091183D03*
X0107987Y0079529D03*
X0117987Y0078529D03*
X0108987Y0068529D03*
X0101924Y0065592D03*
X0096019Y0059687D03*
X0092082Y0061655D03*
X0092082Y0049844D03*
X0107830Y0043939D03*
X0112987Y0050529D03*
X0111767Y0057718D03*
X0115704Y0065592D03*
X0127515Y0061655D03*
X0131987Y0057529D03*
X0135987Y0063529D03*
X0128987Y0067529D03*
X0143987Y0066655D03*
X0149987Y0062529D03*
X0155987Y0061529D03*
X0158987Y0069529D03*
X0158987Y0082738D03*
X0166885Y0089214D03*
X0174759Y0093151D03*
X0155074Y0108899D03*
X0162948Y0110868D03*
X0137358Y0112836D03*
X0122987Y0095529D03*
X0147200Y0087246D03*
X0152987Y0051529D03*
X0143987Y0040529D03*
X0129484Y0036065D03*
X0125547Y0041970D03*
X0115704Y0040002D03*
X0103987Y0026529D03*
X0122987Y0023529D03*
X0140987Y0022529D03*
X0155987Y0013529D03*
X0164987Y0022529D03*
X0173987Y0009529D03*
X0183987Y0023529D03*
X0169987Y0040529D03*
D14*
X0062987Y0067529D02*
X0062987Y0009529D01*
X0173987Y0009529D01*
X0155987Y0013529D02*
X0153987Y0011529D01*
X0064987Y0011529D01*
X0064987Y0064529D01*
X0079987Y0064529D01*
X0083598Y0068139D01*
X0083598Y0069411D01*
X0073598Y0069411D02*
X0064869Y0069411D01*
X0062987Y0067529D01*
X0073598Y0049411D02*
X0078710Y0044299D01*
X0099143Y0044299D01*
X0102019Y0047175D01*
X0102019Y0059687D01*
X0096019Y0059687D01*
X0092082Y0061655D02*
X0092082Y0101025D01*
X0099956Y0091183D02*
X0099956Y0082738D01*
X0122987Y0082738D01*
X0122987Y0095529D01*
X0122987Y0082738D02*
X0158987Y0082738D01*
X0166885Y0089214D02*
X0149169Y0089214D01*
X0115547Y0122836D01*
X0083302Y0122836D01*
X0091176Y0124962D02*
X0083302Y0132836D01*
X0091176Y0124962D02*
X0117358Y0124962D01*
X0150417Y0091903D01*
X0173511Y0091903D01*
X0174759Y0093151D01*
X0155356Y0109181D02*
X0155074Y0108899D01*
X0155356Y0109181D02*
X0155356Y0132611D01*
X0153387Y0134579D01*
X0162948Y0134140D02*
X0163387Y0134579D01*
X0162948Y0134140D02*
X0162948Y0110868D01*
X0137358Y0112836D02*
X0137358Y0128549D01*
X0143387Y0134579D01*
X0121610Y0112836D02*
X0147200Y0087246D01*
X0143987Y0066655D02*
X0134515Y0066655D01*
X0129515Y0061655D01*
X0127515Y0061655D01*
X0127515Y0063846D01*
X0118787Y0072574D01*
X0118787Y0077729D01*
X0117987Y0078529D01*
X0115704Y0065592D02*
X0107830Y0065592D01*
X0101924Y0065592D01*
X0096019Y0065592D01*
X0096019Y0082738D01*
X0099956Y0082738D01*
X0107830Y0065592D02*
X0107830Y0053781D01*
X0125547Y0053781D01*
X0125547Y0054781D01*
X0135987Y0054781D01*
X0135987Y0053781D01*
X0148239Y0053781D01*
X0155987Y0061529D01*
X0143987Y0066655D02*
X0173387Y0066655D01*
X0173387Y0074479D01*
X0135987Y0063529D02*
X0135987Y0054781D01*
X0127515Y0061655D02*
X0115704Y0061655D01*
X0111767Y0057718D01*
X0107830Y0053781D02*
X0107830Y0043939D01*
X0115113Y0039411D02*
X0115704Y0040002D01*
X0115113Y0039411D02*
X0083598Y0039411D01*
X0082239Y0034096D02*
X0076924Y0039411D01*
X0073598Y0039411D01*
X0082239Y0034096D02*
X0127515Y0034096D01*
X0129484Y0036065D01*
X0125987Y0041529D02*
X0125547Y0041970D01*
X0125547Y0053781D01*
X0125987Y0041529D02*
X0142987Y0041529D01*
X0143987Y0040529D01*
X0169987Y0040529D01*
X0092082Y0049844D02*
X0091649Y0049411D01*
X0083598Y0049411D01*
X0097987Y0112836D02*
X0121610Y0112836D01*
M02*
