G75*
%MOIN*%
%OFA0B0*%
%FSLAX25Y25*%
%IPPOS*%
%LPD*%
%AMOC8*
5,1,8,0,0,1.08239X$1,22.5*
%
%ADD10C,0.07500*%
%ADD11C,0.06524*%
%ADD12R,0.02862X0.05421*%
%ADD13R,0.04201X0.03650*%
%ADD14R,0.01681X0.04240*%
%ADD15R,0.04240X0.01681*%
%ADD16R,0.04398X0.03571*%
%ADD17R,0.03571X0.04398*%
%ADD18C,0.02878*%
D10*
X0103387Y0074479D03*
X0113387Y0074479D03*
X0123387Y0074479D03*
X0133387Y0074479D03*
X0143387Y0074479D03*
X0153387Y0074479D03*
X0163387Y0074479D03*
X0173387Y0074479D03*
X0183387Y0074479D03*
X0193387Y0074479D03*
X0193387Y0134579D03*
X0183387Y0134579D03*
X0173387Y0134579D03*
X0163387Y0134579D03*
X0153387Y0134579D03*
X0143387Y0134579D03*
X0133387Y0134579D03*
X0123387Y0134579D03*
X0113387Y0134579D03*
X0103387Y0134579D03*
D11*
X0073598Y0029411D03*
X0083598Y0029411D03*
X0083598Y0039411D03*
X0073598Y0039411D03*
X0073598Y0049411D03*
X0083598Y0049411D03*
X0083598Y0059411D03*
X0073598Y0059411D03*
X0073598Y0069411D03*
X0083598Y0069411D03*
X0083302Y0092836D03*
X0073302Y0092836D03*
X0073302Y0102836D03*
X0083302Y0102836D03*
X0083302Y0112836D03*
X0073302Y0112836D03*
X0073302Y0122836D03*
X0083302Y0122836D03*
X0083302Y0132836D03*
X0073302Y0132836D03*
D12*
X0143460Y0109883D03*
X0147200Y0109883D03*
X0150940Y0109883D03*
X0150940Y0100041D03*
X0147200Y0100041D03*
X0143460Y0100041D03*
X0167082Y0100041D03*
X0170822Y0100041D03*
X0174562Y0100041D03*
X0174562Y0109883D03*
X0170822Y0109883D03*
X0167082Y0109883D03*
D13*
X0166885Y0118072D03*
X0166885Y0123348D03*
X0147200Y0123348D03*
X0147200Y0118072D03*
D14*
X0113736Y0096694D03*
X0113736Y0089608D03*
X0118657Y0057324D03*
X0120625Y0057324D03*
X0122594Y0057324D03*
X0124562Y0057324D03*
X0124562Y0050238D03*
X0122594Y0050238D03*
X0120625Y0050238D03*
X0118657Y0050238D03*
X0106846Y0050238D03*
X0104877Y0050238D03*
X0102909Y0050238D03*
X0100940Y0050238D03*
X0100940Y0057324D03*
X0102909Y0057324D03*
X0104877Y0057324D03*
X0106846Y0057324D03*
X0136263Y0057104D03*
X0138232Y0057104D03*
X0140200Y0057104D03*
X0142169Y0057104D03*
X0142169Y0050017D03*
X0140200Y0050017D03*
X0138232Y0050017D03*
X0136263Y0050017D03*
X0161035Y0049986D03*
X0163003Y0049986D03*
X0164972Y0049986D03*
X0166940Y0049986D03*
X0166940Y0057072D03*
X0164972Y0057072D03*
X0163003Y0057072D03*
X0161035Y0057072D03*
D15*
X0160444Y0053529D03*
X0167531Y0053529D03*
X0142759Y0053561D03*
X0135673Y0053561D03*
X0125153Y0053781D03*
X0118066Y0053781D03*
X0107436Y0053781D03*
X0100350Y0053781D03*
X0110192Y0090198D03*
X0110192Y0092167D03*
X0110192Y0094135D03*
X0110192Y0096104D03*
X0117279Y0096104D03*
X0117279Y0094135D03*
X0117279Y0092167D03*
X0117279Y0090198D03*
D16*
X0137987Y0043285D03*
X0137987Y0037773D03*
X0119641Y0035277D03*
X0119641Y0040789D03*
X0101924Y0040789D03*
X0101924Y0035277D03*
X0162987Y0037773D03*
X0162987Y0043285D03*
D17*
X0102712Y0095120D03*
X0097200Y0095120D03*
D18*
X0099956Y0091183D03*
X0092082Y0101025D03*
X0097987Y0112836D03*
X0122987Y0095529D03*
X0117987Y0078529D03*
X0107987Y0079529D03*
X0108987Y0068529D03*
X0101924Y0065592D03*
X0096019Y0059687D03*
X0092082Y0061655D03*
X0092082Y0049844D03*
X0107830Y0043939D03*
X0112987Y0050529D03*
X0111767Y0057718D03*
X0115704Y0065592D03*
X0127515Y0061655D03*
X0131987Y0057529D03*
X0135987Y0063529D03*
X0128987Y0067529D03*
X0143987Y0066655D03*
X0149987Y0062529D03*
X0155987Y0061529D03*
X0158987Y0069529D03*
X0158987Y0082738D03*
X0166885Y0089214D03*
X0174759Y0093151D03*
X0155074Y0108899D03*
X0162948Y0110868D03*
X0137358Y0112836D03*
X0147200Y0087246D03*
X0152987Y0051529D03*
X0143987Y0040529D03*
X0129484Y0036065D03*
X0125547Y0041970D03*
X0115704Y0040002D03*
X0103987Y0026529D03*
X0122987Y0023529D03*
X0140987Y0022529D03*
X0155987Y0013529D03*
X0164987Y0022529D03*
X0173987Y0009529D03*
X0183987Y0023529D03*
X0169987Y0040529D03*
M02*
