%
M48
M72
T01C0.0138
T02C0.0400
T03C0.0402
%
T01
X9208Y4984
X9602Y5969
X9208Y6166
X10192Y6559
X10899Y6853
X11570Y6559
X11177Y5772
X11299Y5053
X10783Y4394
X11570Y4000
X12555Y4197
X12948Y3606
X14399Y4053
X15299Y5153
X15599Y6153
X14999Y6253
X14399Y6666
X13599Y6353
X12899Y6753
X12752Y6166
X13199Y5753
X15899Y6953
X15899Y8274
X16689Y8921
X17476Y9315
X15507Y10890
X16295Y11087
X13736Y11284
X12299Y9553
X11799Y7853
X10799Y7953
X9996Y9118
X9208Y10103
X9799Y11284
X14720Y8725
X16999Y4053
X18399Y2353
X16499Y2253
X15599Y1353
X14099Y2253
X12299Y2353
X10399Y2653
X17399Y953
T02
X17339Y7448
X16339Y7448
X15339Y7448
X14339Y7448
X13339Y7448
X12339Y7448
X11339Y7448
X10339Y7448
X10339Y13458
X11339Y13458
X12339Y13458
X13339Y13458
X14339Y13458
X15339Y13458
X16339Y13458
X17339Y13458
X18339Y13458
X19339Y13458
X19339Y7448
X18339Y7448
T03
X7360Y2941
X8360Y2941
X8360Y3941
X7360Y3941
X7360Y4941
X8360Y4941
X8360Y5941
X7360Y5941
X7360Y6941
X8360Y6941
X8330Y9284
X7330Y9284
X7330Y10284
X8330Y10284
X8330Y11284
X7330Y11284
X7330Y12284
X8330Y12284
X8330Y13284
X7330Y13284
M30
