G75*
%MOIN*%
%OFA0B0*%
%FSLAX25Y25*%
%IPPOS*%
%LPD*%
%AMOC8*
5,1,8,0,0,1.08239X$1,22.5*
%
%ADD10C,0.07000*%
%ADD11C,0.06024*%
%ADD12R,0.02362X0.04921*%
%ADD13R,0.03701X0.03150*%
%ADD14R,0.01181X0.03740*%
%ADD15R,0.03740X0.01181*%
%ADD16R,0.03898X0.03071*%
%ADD17R,0.03071X0.03898*%
%ADD18C,0.00600*%
%ADD19C,0.01000*%
%ADD20C,0.02378*%
D10*
X0103387Y0074479D03*
X0113387Y0074479D03*
X0123387Y0074479D03*
X0133387Y0074479D03*
X0143387Y0074479D03*
X0153387Y0074479D03*
X0163387Y0074479D03*
X0173387Y0074479D03*
X0183387Y0074479D03*
X0193387Y0074479D03*
X0193387Y0134579D03*
X0183387Y0134579D03*
X0173387Y0134579D03*
X0163387Y0134579D03*
X0153387Y0134579D03*
X0143387Y0134579D03*
X0133387Y0134579D03*
X0123387Y0134579D03*
X0113387Y0134579D03*
X0103387Y0134579D03*
D11*
X0083302Y0132836D03*
X0073302Y0132836D03*
X0073302Y0122836D03*
X0083302Y0122836D03*
X0083302Y0112836D03*
X0073302Y0112836D03*
X0073302Y0102836D03*
X0083302Y0102836D03*
X0083302Y0092836D03*
X0073302Y0092836D03*
X0073598Y0069411D03*
X0083598Y0069411D03*
X0083598Y0059411D03*
X0073598Y0059411D03*
X0073598Y0049411D03*
X0083598Y0049411D03*
X0083598Y0039411D03*
X0073598Y0039411D03*
X0073598Y0029411D03*
X0083598Y0029411D03*
D12*
X0143460Y0100041D03*
X0147200Y0100041D03*
X0150940Y0100041D03*
X0150940Y0109883D03*
X0147200Y0109883D03*
X0143460Y0109883D03*
X0167082Y0109883D03*
X0170822Y0109883D03*
X0174562Y0109883D03*
X0174562Y0100041D03*
X0170822Y0100041D03*
X0167082Y0100041D03*
D13*
X0166885Y0118072D03*
X0166885Y0123348D03*
X0147200Y0123348D03*
X0147200Y0118072D03*
D14*
X0113736Y0096694D03*
X0113736Y0089608D03*
X0118657Y0057324D03*
X0120625Y0057324D03*
X0122594Y0057324D03*
X0124562Y0057324D03*
X0124562Y0050238D03*
X0122594Y0050238D03*
X0120625Y0050238D03*
X0118657Y0050238D03*
X0106846Y0050238D03*
X0104877Y0050238D03*
X0102909Y0050238D03*
X0100940Y0050238D03*
X0100940Y0057324D03*
X0102909Y0057324D03*
X0104877Y0057324D03*
X0106846Y0057324D03*
X0136263Y0057104D03*
X0138232Y0057104D03*
X0140200Y0057104D03*
X0142169Y0057104D03*
X0142169Y0050017D03*
X0140200Y0050017D03*
X0138232Y0050017D03*
X0136263Y0050017D03*
X0161035Y0049986D03*
X0163003Y0049986D03*
X0164972Y0049986D03*
X0166940Y0049986D03*
X0166940Y0057072D03*
X0164972Y0057072D03*
X0163003Y0057072D03*
X0161035Y0057072D03*
D15*
X0160444Y0053529D03*
X0167531Y0053529D03*
X0142759Y0053561D03*
X0135673Y0053561D03*
X0125153Y0053781D03*
X0118066Y0053781D03*
X0107436Y0053781D03*
X0100350Y0053781D03*
X0110192Y0090198D03*
X0110192Y0092167D03*
X0110192Y0094135D03*
X0110192Y0096104D03*
X0117279Y0096104D03*
X0117279Y0094135D03*
X0117279Y0092167D03*
X0117279Y0090198D03*
D16*
X0137987Y0043285D03*
X0137987Y0037773D03*
X0119641Y0035277D03*
X0119641Y0040789D03*
X0101924Y0040789D03*
X0101924Y0035277D03*
X0162987Y0037773D03*
X0162987Y0043285D03*
D17*
X0102712Y0095120D03*
X0097200Y0095120D03*
D18*
X0096900Y0095265D02*
X0087180Y0095265D01*
X0087127Y0095392D02*
X0085858Y0096661D01*
X0084200Y0097348D01*
X0082405Y0097348D01*
X0080747Y0096661D01*
X0079478Y0095392D01*
X0078791Y0093734D01*
X0078791Y0091939D01*
X0079478Y0090280D01*
X0080747Y0089011D01*
X0082405Y0088324D01*
X0084200Y0088324D01*
X0085858Y0089011D01*
X0087127Y0090280D01*
X0087814Y0091939D01*
X0087814Y0093734D01*
X0087127Y0095392D01*
X0086656Y0095864D02*
X0094365Y0095864D01*
X0094365Y0095420D02*
X0094365Y0097240D01*
X0094453Y0097570D01*
X0094624Y0097867D01*
X0094866Y0098109D01*
X0095163Y0098280D01*
X0095493Y0098368D01*
X0096900Y0098368D01*
X0096900Y0095420D01*
X0097500Y0095420D01*
X0097500Y0098368D01*
X0098907Y0098368D01*
X0099237Y0098280D01*
X0099534Y0098109D01*
X0099776Y0097867D01*
X0099804Y0097818D01*
X0100555Y0098568D01*
X0104869Y0098568D01*
X0105747Y0097690D01*
X0105747Y0096135D01*
X0106822Y0096135D01*
X0106822Y0097316D01*
X0107701Y0098194D01*
X0108192Y0098194D01*
X0108192Y0099025D01*
X0093885Y0099025D01*
X0093605Y0098746D01*
X0092617Y0098336D01*
X0091547Y0098336D01*
X0090559Y0098746D01*
X0089802Y0099502D01*
X0089393Y0100490D01*
X0089393Y0101560D01*
X0089802Y0102548D01*
X0090559Y0103305D01*
X0091547Y0103714D01*
X0092617Y0103714D01*
X0093605Y0103305D01*
X0093885Y0103025D01*
X0110627Y0103025D01*
X0111021Y0102631D01*
X0112192Y0101460D01*
X0112192Y0099450D01*
X0112347Y0099605D01*
X0112643Y0099776D01*
X0112974Y0099865D01*
X0113735Y0099865D01*
X0113735Y0096695D01*
X0113736Y0096695D01*
X0113736Y0099865D01*
X0114497Y0099865D01*
X0114828Y0099776D01*
X0115124Y0099605D01*
X0115366Y0099363D01*
X0115537Y0099066D01*
X0115626Y0098736D01*
X0115626Y0098194D01*
X0119770Y0098194D01*
X0120649Y0097316D01*
X0120649Y0096910D01*
X0120708Y0097052D01*
X0121464Y0097809D01*
X0122453Y0098218D01*
X0123522Y0098218D01*
X0124511Y0097809D01*
X0125267Y0097052D01*
X0125676Y0096064D01*
X0125676Y0094994D01*
X0125267Y0094006D01*
X0124822Y0093561D01*
X0125387Y0092995D01*
X0125387Y0079063D01*
X0126220Y0078718D01*
X0127626Y0077311D01*
X0128387Y0075474D01*
X0128387Y0073485D01*
X0127626Y0071647D01*
X0126220Y0070240D01*
X0124382Y0069479D01*
X0122393Y0069479D01*
X0120555Y0070240D01*
X0119149Y0071647D01*
X0118387Y0073485D01*
X0118387Y0075474D01*
X0118236Y0075840D01*
X0118522Y0075840D01*
X0118543Y0075849D01*
X0118387Y0075474D01*
X0118387Y0073485D01*
X0118043Y0072652D01*
X0124594Y0066101D01*
X0124594Y0060694D01*
X0125002Y0060694D01*
X0124826Y0061120D01*
X0124826Y0062190D01*
X0125235Y0063178D01*
X0125992Y0063935D01*
X0126980Y0064344D01*
X0128050Y0064344D01*
X0129038Y0063935D01*
X0129795Y0063178D01*
X0130204Y0062190D01*
X0130204Y0061120D01*
X0129795Y0060132D01*
X0129515Y0059852D01*
X0129515Y0059449D01*
X0128343Y0058277D01*
X0126653Y0056587D01*
X0126653Y0055672D01*
X0127194Y0055672D01*
X0127525Y0055583D01*
X0127821Y0055412D01*
X0128063Y0055170D01*
X0128234Y0054873D01*
X0128323Y0054543D01*
X0128323Y0053781D01*
X0125153Y0053781D01*
X0125153Y0053781D01*
X0128323Y0053781D01*
X0128323Y0053019D01*
X0128234Y0052689D01*
X0128063Y0052392D01*
X0127821Y0052150D01*
X0127525Y0051979D01*
X0127194Y0051891D01*
X0126653Y0051891D01*
X0126653Y0050976D01*
X0131484Y0046145D01*
X0131484Y0037867D01*
X0131763Y0037588D01*
X0131987Y0037046D01*
X0131987Y0048570D01*
X0133159Y0049742D01*
X0134173Y0050755D01*
X0134173Y0051670D01*
X0133631Y0051670D01*
X0133301Y0051759D01*
X0133004Y0051930D01*
X0132762Y0052172D01*
X0132591Y0052468D01*
X0132502Y0052799D01*
X0132502Y0053561D01*
X0135672Y0053561D01*
X0135672Y0053561D01*
X0132502Y0053561D01*
X0132502Y0054322D01*
X0132591Y0054653D01*
X0132762Y0054949D01*
X0133004Y0055191D01*
X0133301Y0055363D01*
X0133631Y0055451D01*
X0134173Y0055451D01*
X0134173Y0059595D01*
X0135051Y0060474D01*
X0136214Y0060474D01*
X0135848Y0060840D01*
X0135453Y0060840D01*
X0134464Y0061250D01*
X0133708Y0062006D01*
X0133298Y0062994D01*
X0133298Y0064064D01*
X0133708Y0065052D01*
X0134464Y0065809D01*
X0135453Y0066218D01*
X0136522Y0066218D01*
X0137511Y0065809D01*
X0138200Y0065119D01*
X0138200Y0066838D01*
X0135214Y0069824D01*
X0134382Y0069479D01*
X0132393Y0069479D01*
X0130555Y0070240D01*
X0129149Y0071647D01*
X0128387Y0073485D01*
X0128387Y0075474D01*
X0129149Y0077311D01*
X0130555Y0078718D01*
X0132393Y0079479D01*
X0134382Y0079479D01*
X0136220Y0078718D01*
X0137626Y0077311D01*
X0138387Y0075474D01*
X0138387Y0073485D01*
X0138043Y0072652D01*
X0142112Y0068583D01*
X0142464Y0068935D01*
X0143453Y0069344D01*
X0144522Y0069344D01*
X0145511Y0068935D01*
X0146267Y0068178D01*
X0146676Y0067190D01*
X0146676Y0066120D01*
X0146267Y0065132D01*
X0146169Y0065033D01*
X0146169Y0058276D01*
X0144259Y0056366D01*
X0144259Y0055451D01*
X0144800Y0055451D01*
X0145131Y0055363D01*
X0145427Y0055191D01*
X0145669Y0054949D01*
X0145841Y0054653D01*
X0145929Y0054322D01*
X0145929Y0053561D01*
X0142759Y0053561D01*
X0142759Y0053561D01*
X0139589Y0053561D01*
X0139589Y0053734D01*
X0138843Y0053734D01*
X0138843Y0053561D01*
X0135673Y0053561D01*
X0135673Y0053561D01*
X0138843Y0053561D01*
X0138843Y0053387D01*
X0139443Y0053387D01*
X0139589Y0053242D01*
X0139589Y0053561D01*
X0142759Y0053561D01*
X0142759Y0053561D01*
X0145929Y0053561D01*
X0145929Y0052799D01*
X0145841Y0052468D01*
X0145669Y0052172D01*
X0145427Y0051930D01*
X0145131Y0051759D01*
X0144800Y0051670D01*
X0144259Y0051670D01*
X0144259Y0050755D01*
X0150987Y0044027D01*
X0150987Y0010701D01*
X0149816Y0009529D01*
X0148624Y0008337D01*
X0171571Y0008337D01*
X0171298Y0008994D01*
X0171298Y0010064D01*
X0171708Y0011052D01*
X0171987Y0011332D01*
X0171987Y0038726D01*
X0171511Y0038250D01*
X0170522Y0037840D01*
X0169453Y0037840D01*
X0168464Y0038250D01*
X0167708Y0039006D01*
X0167298Y0039994D01*
X0167298Y0040390D01*
X0166436Y0041252D01*
X0166436Y0041128D01*
X0165685Y0040377D01*
X0165735Y0040349D01*
X0165977Y0040107D01*
X0166148Y0039810D01*
X0166236Y0039480D01*
X0166236Y0038073D01*
X0163288Y0038073D01*
X0163288Y0037473D01*
X0166236Y0037473D01*
X0166236Y0036067D01*
X0166148Y0035736D01*
X0165977Y0035440D01*
X0165735Y0035198D01*
X0165438Y0035026D01*
X0165107Y0034938D01*
X0163287Y0034938D01*
X0163287Y0037473D01*
X0162687Y0037473D01*
X0159739Y0037473D01*
X0159739Y0036067D01*
X0159827Y0035736D01*
X0159998Y0035440D01*
X0160240Y0035198D01*
X0160537Y0035026D01*
X0160867Y0034938D01*
X0162687Y0034938D01*
X0162687Y0037473D01*
X0162687Y0038073D01*
X0159739Y0038073D01*
X0159739Y0039480D01*
X0159827Y0039810D01*
X0159998Y0040107D01*
X0160240Y0040349D01*
X0160290Y0040377D01*
X0159539Y0041128D01*
X0159539Y0045442D01*
X0160417Y0046320D01*
X0161003Y0046320D01*
X0161003Y0046616D01*
X0160493Y0046616D01*
X0157987Y0044110D01*
X0157987Y0015332D01*
X0158267Y0015052D01*
X0158676Y0014064D01*
X0158676Y0012994D01*
X0158267Y0012006D01*
X0157511Y0011250D01*
X0156522Y0010840D01*
X0155453Y0010840D01*
X0154464Y0011250D01*
X0153708Y0012006D01*
X0153298Y0012994D01*
X0153298Y0014064D01*
X0153708Y0015052D01*
X0153987Y0015332D01*
X0153987Y0045767D01*
X0155159Y0046939D01*
X0158944Y0050724D01*
X0158944Y0051639D01*
X0158403Y0051639D01*
X0158072Y0051727D01*
X0157776Y0051898D01*
X0157534Y0052140D01*
X0157363Y0052437D01*
X0157274Y0052767D01*
X0157274Y0053529D01*
X0160444Y0053529D01*
X0160444Y0053529D01*
X0157274Y0053529D01*
X0157274Y0054291D01*
X0157363Y0054621D01*
X0157534Y0054918D01*
X0157776Y0055160D01*
X0158072Y0055331D01*
X0158403Y0055420D01*
X0158944Y0055420D01*
X0158944Y0059529D01*
X0157790Y0059529D01*
X0157511Y0059250D01*
X0156522Y0058840D01*
X0155453Y0058840D01*
X0154464Y0059250D01*
X0153708Y0060006D01*
X0153298Y0060994D01*
X0153298Y0062064D01*
X0153708Y0063052D01*
X0154464Y0063809D01*
X0155453Y0064218D01*
X0156522Y0064218D01*
X0157511Y0063809D01*
X0157790Y0063529D01*
X0161423Y0063529D01*
X0162594Y0062358D01*
X0162972Y0061980D01*
X0162972Y0069479D01*
X0162393Y0069479D01*
X0160555Y0070240D01*
X0159149Y0071647D01*
X0158387Y0073485D01*
X0157626Y0071647D01*
X0156220Y0070240D01*
X0154382Y0069479D01*
X0152393Y0069479D01*
X0150555Y0070240D01*
X0149149Y0071647D01*
X0148387Y0073485D01*
X0147626Y0071647D01*
X0146220Y0070240D01*
X0144382Y0069479D01*
X0142393Y0069479D01*
X0140555Y0070240D01*
X0139149Y0071647D01*
X0138387Y0073485D01*
X0138387Y0075474D01*
X0139149Y0077311D01*
X0140555Y0078718D01*
X0142393Y0079479D01*
X0144382Y0079479D01*
X0146220Y0078718D01*
X0147626Y0077311D01*
X0148387Y0075474D01*
X0148387Y0073485D01*
X0148387Y0075474D01*
X0149149Y0077311D01*
X0150555Y0078718D01*
X0152393Y0079479D01*
X0154382Y0079479D01*
X0156220Y0078718D01*
X0157626Y0077311D01*
X0158387Y0075474D01*
X0158387Y0073485D01*
X0158387Y0075474D01*
X0159149Y0077311D01*
X0160555Y0078718D01*
X0162393Y0079479D01*
X0164382Y0079479D01*
X0166220Y0078718D01*
X0167626Y0077311D01*
X0168387Y0075474D01*
X0168387Y0073485D01*
X0167626Y0071647D01*
X0166972Y0070992D01*
X0166972Y0060443D01*
X0167482Y0060443D01*
X0171387Y0064348D01*
X0171387Y0069896D01*
X0170555Y0070240D01*
X0169149Y0071647D01*
X0168387Y0073485D01*
X0168387Y0075474D01*
X0169149Y0077311D01*
X0170555Y0078718D01*
X0172393Y0079479D01*
X0174382Y0079479D01*
X0176220Y0078718D01*
X0177626Y0077311D01*
X0178387Y0075474D01*
X0178387Y0073485D01*
X0177626Y0071647D01*
X0176220Y0070240D01*
X0175387Y0069896D01*
X0175387Y0062691D01*
X0174216Y0061520D01*
X0169031Y0056335D01*
X0169031Y0055420D01*
X0169572Y0055420D01*
X0169903Y0055331D01*
X0170199Y0055160D01*
X0170441Y0054918D01*
X0170612Y0054621D01*
X0170701Y0054291D01*
X0170701Y0053529D01*
X0167531Y0053529D01*
X0167531Y0053529D01*
X0170701Y0053529D01*
X0170701Y0052767D01*
X0170612Y0052437D01*
X0170441Y0052140D01*
X0170199Y0051898D01*
X0169903Y0051727D01*
X0169572Y0051639D01*
X0169031Y0051639D01*
X0169031Y0050724D01*
X0174816Y0044939D01*
X0175987Y0043767D01*
X0175987Y0011332D01*
X0176267Y0011052D01*
X0176676Y0010064D01*
X0176676Y0008994D01*
X0176404Y0008337D01*
X0199934Y0008337D01*
X0199934Y0145603D01*
X0062386Y0145603D01*
X0062386Y0059756D01*
X0063159Y0060529D01*
X0064041Y0061411D01*
X0069543Y0061411D01*
X0069773Y0061967D01*
X0071042Y0063236D01*
X0072700Y0063923D01*
X0074495Y0063923D01*
X0076153Y0063236D01*
X0077423Y0061967D01*
X0078110Y0060308D01*
X0078110Y0058514D01*
X0077423Y0056855D01*
X0077096Y0056529D01*
X0077887Y0056529D01*
X0079316Y0057958D01*
X0079086Y0058514D01*
X0079086Y0060308D01*
X0079773Y0061967D01*
X0081042Y0063236D01*
X0082700Y0063923D01*
X0084495Y0063923D01*
X0086153Y0063236D01*
X0087423Y0061967D01*
X0088110Y0060308D01*
X0088110Y0058514D01*
X0087423Y0056855D01*
X0086153Y0055586D01*
X0084495Y0054899D01*
X0082700Y0054899D01*
X0082145Y0055129D01*
X0080716Y0053701D01*
X0079544Y0052529D01*
X0076860Y0052529D01*
X0077423Y0051967D01*
X0078110Y0050308D01*
X0078110Y0048514D01*
X0077423Y0046855D01*
X0076153Y0045586D01*
X0074495Y0044899D01*
X0072700Y0044899D01*
X0071042Y0045586D01*
X0069773Y0046855D01*
X0069086Y0048514D01*
X0069086Y0050308D01*
X0069773Y0051967D01*
X0070335Y0052529D01*
X0068987Y0052529D01*
X0068987Y0015358D01*
X0069816Y0014529D01*
X0131987Y0014529D01*
X0131987Y0035083D01*
X0131763Y0034541D01*
X0131007Y0033785D01*
X0130018Y0033376D01*
X0128949Y0033376D01*
X0127960Y0033785D01*
X0127204Y0034541D01*
X0126795Y0035530D01*
X0126795Y0036599D01*
X0127204Y0037588D01*
X0127484Y0037867D01*
X0127484Y0039898D01*
X0126375Y0038789D01*
X0123090Y0038789D01*
X0123090Y0038632D01*
X0122339Y0037881D01*
X0122388Y0037853D01*
X0122630Y0037611D01*
X0122801Y0037314D01*
X0122890Y0036984D01*
X0122890Y0035577D01*
X0119941Y0035577D01*
X0119941Y0034977D01*
X0119941Y0032442D01*
X0121761Y0032442D01*
X0122092Y0032530D01*
X0122388Y0032701D01*
X0122630Y0032944D01*
X0122801Y0033240D01*
X0122890Y0033571D01*
X0122890Y0034977D01*
X0119941Y0034977D01*
X0119341Y0034977D01*
X0119341Y0032442D01*
X0117521Y0032442D01*
X0117190Y0032530D01*
X0116894Y0032701D01*
X0116652Y0032944D01*
X0116481Y0033240D01*
X0116392Y0033571D01*
X0116392Y0034977D01*
X0119341Y0034977D01*
X0119341Y0035577D01*
X0116392Y0035577D01*
X0116392Y0036984D01*
X0116481Y0037314D01*
X0116555Y0037444D01*
X0116239Y0037313D01*
X0115169Y0037313D01*
X0114181Y0037722D01*
X0113767Y0038136D01*
X0113767Y0020488D01*
X0112595Y0019317D01*
X0077864Y0019317D01*
X0076692Y0020488D01*
X0071985Y0025196D01*
X0071042Y0025586D01*
X0069773Y0026855D01*
X0069086Y0028514D01*
X0069086Y0030308D01*
X0069773Y0031967D01*
X0071042Y0033236D01*
X0072700Y0033923D01*
X0074495Y0033923D01*
X0076153Y0033236D01*
X0077423Y0031967D01*
X0078110Y0030308D01*
X0078110Y0028514D01*
X0077423Y0026855D01*
X0076702Y0026135D01*
X0079521Y0023317D01*
X0109767Y0023317D01*
X0109767Y0039898D01*
X0108658Y0038789D01*
X0105373Y0038789D01*
X0105373Y0038632D01*
X0104622Y0037881D01*
X0104672Y0037853D01*
X0104914Y0037611D01*
X0105085Y0037314D01*
X0105173Y0036984D01*
X0105173Y0035577D01*
X0102225Y0035577D01*
X0102225Y0034977D01*
X0105173Y0034977D01*
X0105173Y0033571D01*
X0105085Y0033240D01*
X0104914Y0032944D01*
X0104672Y0032701D01*
X0104375Y0032530D01*
X0104044Y0032442D01*
X0102224Y0032442D01*
X0102224Y0034977D01*
X0101624Y0034977D01*
X0101624Y0032442D01*
X0099805Y0032442D01*
X0099474Y0032530D01*
X0099177Y0032701D01*
X0099003Y0032876D01*
X0099003Y0028583D01*
X0097832Y0027411D01*
X0087653Y0027411D01*
X0087423Y0026855D01*
X0086153Y0025586D01*
X0084495Y0024899D01*
X0082700Y0024899D01*
X0081042Y0025586D01*
X0079773Y0026855D01*
X0079086Y0028514D01*
X0079086Y0030308D01*
X0079773Y0031967D01*
X0081042Y0033236D01*
X0082700Y0033923D01*
X0084495Y0033923D01*
X0086153Y0033236D01*
X0087423Y0031967D01*
X0087653Y0031411D01*
X0095003Y0031411D01*
X0095003Y0047129D01*
X0096175Y0048301D01*
X0098850Y0050976D01*
X0098850Y0051891D01*
X0098308Y0051891D01*
X0097978Y0051979D01*
X0097681Y0052150D01*
X0097439Y0052392D01*
X0097268Y0052689D01*
X0097180Y0053019D01*
X0097180Y0053781D01*
X0100350Y0053781D01*
X0100350Y0053781D01*
X0103520Y0053781D01*
X0103520Y0053608D01*
X0104121Y0053608D01*
X0104266Y0053462D01*
X0104266Y0053781D01*
X0107436Y0053781D01*
X0107436Y0053781D01*
X0104266Y0053781D01*
X0104266Y0053954D01*
X0103520Y0053954D01*
X0103520Y0053781D01*
X0100350Y0053781D01*
X0100350Y0053781D01*
X0097180Y0053781D01*
X0097180Y0054543D01*
X0097268Y0054873D01*
X0097439Y0055170D01*
X0097681Y0055412D01*
X0097978Y0055583D01*
X0098308Y0055672D01*
X0098850Y0055672D01*
X0098850Y0059816D01*
X0099728Y0060694D01*
X0100909Y0060694D01*
X0100909Y0063102D01*
X0100401Y0063313D01*
X0099645Y0064069D01*
X0099236Y0065057D01*
X0099236Y0066127D01*
X0099645Y0067115D01*
X0100401Y0067872D01*
X0101390Y0068281D01*
X0102459Y0068281D01*
X0102877Y0068108D01*
X0102877Y0069479D01*
X0102393Y0069479D01*
X0100555Y0070240D01*
X0099149Y0071647D01*
X0098387Y0073485D01*
X0098387Y0075474D01*
X0099149Y0077311D01*
X0100555Y0078718D01*
X0102393Y0079479D01*
X0104382Y0079479D01*
X0106220Y0078718D01*
X0107626Y0077311D01*
X0108387Y0075474D01*
X0108387Y0073485D01*
X0107626Y0071647D01*
X0106877Y0070898D01*
X0106877Y0060694D01*
X0108058Y0060694D01*
X0108936Y0059816D01*
X0108936Y0059718D01*
X0109964Y0059718D01*
X0110244Y0059998D01*
X0111232Y0060407D01*
X0112302Y0060407D01*
X0113290Y0059998D01*
X0114047Y0059241D01*
X0114456Y0058253D01*
X0114456Y0057183D01*
X0114047Y0056195D01*
X0113290Y0055439D01*
X0112302Y0055029D01*
X0111232Y0055029D01*
X0110244Y0055439D01*
X0109964Y0055718D01*
X0108936Y0055718D01*
X0108936Y0055672D01*
X0109478Y0055672D01*
X0109808Y0055583D01*
X0110105Y0055412D01*
X0110347Y0055170D01*
X0110518Y0054873D01*
X0110606Y0054543D01*
X0110606Y0053781D01*
X0107436Y0053781D01*
X0107436Y0053781D01*
X0110606Y0053781D01*
X0110606Y0053019D01*
X0110518Y0052689D01*
X0110347Y0052392D01*
X0110105Y0052150D01*
X0109808Y0051979D01*
X0109478Y0051891D01*
X0109143Y0051891D01*
X0111968Y0049066D01*
X0111968Y0048944D01*
X0113704Y0047208D01*
X0113704Y0048113D01*
X0116566Y0050976D01*
X0116566Y0051891D01*
X0116025Y0051891D01*
X0115694Y0051979D01*
X0115398Y0052150D01*
X0115156Y0052392D01*
X0114985Y0052689D01*
X0114896Y0053019D01*
X0114896Y0053781D01*
X0118066Y0053781D01*
X0118066Y0053781D01*
X0114896Y0053781D01*
X0114896Y0054543D01*
X0114985Y0054873D01*
X0115156Y0055170D01*
X0115398Y0055412D01*
X0115694Y0055583D01*
X0116025Y0055672D01*
X0116566Y0055672D01*
X0116566Y0059816D01*
X0117445Y0060694D01*
X0118625Y0060694D01*
X0118625Y0061811D01*
X0117154Y0063282D01*
X0116239Y0062903D01*
X0115169Y0062903D01*
X0114181Y0063313D01*
X0113424Y0064069D01*
X0113015Y0065057D01*
X0113015Y0066127D01*
X0113424Y0067115D01*
X0114181Y0067872D01*
X0115169Y0068281D01*
X0116239Y0068281D01*
X0117124Y0067915D01*
X0115214Y0069824D01*
X0114382Y0069479D01*
X0112393Y0069479D01*
X0110555Y0070240D01*
X0109149Y0071647D01*
X0108387Y0073485D01*
X0108387Y0075474D01*
X0109149Y0077311D01*
X0110555Y0078718D01*
X0112393Y0079479D01*
X0114382Y0079479D01*
X0115279Y0079108D01*
X0115279Y0086852D01*
X0115124Y0086698D01*
X0114828Y0086526D01*
X0114497Y0086438D01*
X0113736Y0086438D01*
X0113736Y0089608D01*
X0113735Y0089608D01*
X0113735Y0092778D01*
X0113417Y0092778D01*
X0113562Y0092924D01*
X0113562Y0093524D01*
X0113735Y0093524D01*
X0113735Y0096694D01*
X0113736Y0096694D01*
X0113736Y0093524D01*
X0113909Y0093524D01*
X0113909Y0092778D01*
X0113736Y0092778D01*
X0113736Y0089608D01*
X0113735Y0089608D01*
X0113735Y0086438D01*
X0112974Y0086438D01*
X0112643Y0086526D01*
X0112347Y0086698D01*
X0112192Y0086852D01*
X0112192Y0082480D01*
X0111021Y0081309D01*
X0098019Y0081309D01*
X0098019Y0061489D01*
X0098299Y0061210D01*
X0098708Y0060221D01*
X0098708Y0059152D01*
X0098299Y0058163D01*
X0097542Y0057407D01*
X0096554Y0056998D01*
X0095484Y0056998D01*
X0094496Y0057407D01*
X0094082Y0057821D01*
X0094082Y0051647D01*
X0094362Y0051367D01*
X0094771Y0050379D01*
X0094771Y0049309D01*
X0094362Y0048321D01*
X0093605Y0047564D01*
X0092617Y0047155D01*
X0091547Y0047155D01*
X0090559Y0047564D01*
X0089802Y0048321D01*
X0089393Y0049309D01*
X0089393Y0050379D01*
X0089802Y0051367D01*
X0090082Y0051647D01*
X0090082Y0059852D01*
X0089802Y0060132D01*
X0089393Y0061120D01*
X0089393Y0062190D01*
X0089802Y0063178D01*
X0090559Y0063935D01*
X0091547Y0064344D01*
X0092617Y0064344D01*
X0093605Y0063935D01*
X0094019Y0063521D01*
X0094019Y0084137D01*
X0095191Y0085309D01*
X0108192Y0085309D01*
X0108192Y0088108D01*
X0107701Y0088108D01*
X0106822Y0088987D01*
X0106822Y0091410D01*
X0107022Y0091610D01*
X0107022Y0092135D01*
X0105333Y0092135D01*
X0104869Y0091671D01*
X0104712Y0091671D01*
X0104712Y0090354D01*
X0103540Y0089183D01*
X0101759Y0089183D01*
X0101479Y0088903D01*
X0100491Y0088494D01*
X0099421Y0088494D01*
X0098433Y0088903D01*
X0097676Y0089659D01*
X0097267Y0090648D01*
X0097267Y0091718D01*
X0097500Y0092280D01*
X0097500Y0094820D01*
X0096900Y0094820D01*
X0094365Y0094820D01*
X0094365Y0093000D01*
X0094453Y0092669D01*
X0094624Y0092373D01*
X0094866Y0092131D01*
X0095163Y0091959D01*
X0095493Y0091871D01*
X0096900Y0091871D01*
X0096900Y0094820D01*
X0096900Y0095420D01*
X0094365Y0095420D01*
X0094365Y0094667D02*
X0087428Y0094667D01*
X0087676Y0094068D02*
X0094365Y0094068D01*
X0094365Y0093470D02*
X0087814Y0093470D01*
X0087814Y0092871D02*
X0094399Y0092871D01*
X0094724Y0092273D02*
X0087814Y0092273D01*
X0087705Y0091674D02*
X0097267Y0091674D01*
X0097267Y0091076D02*
X0087457Y0091076D01*
X0087209Y0090477D02*
X0097338Y0090477D01*
X0097586Y0089879D02*
X0086725Y0089879D01*
X0086127Y0089280D02*
X0098056Y0089280D01*
X0098968Y0088681D02*
X0085062Y0088681D01*
X0081543Y0088681D02*
X0075062Y0088681D01*
X0075858Y0089011D02*
X0077127Y0090280D01*
X0077814Y0091939D01*
X0077814Y0093734D01*
X0077127Y0095392D01*
X0075858Y0096661D01*
X0074200Y0097348D01*
X0072405Y0097348D01*
X0070747Y0096661D01*
X0069478Y0095392D01*
X0068791Y0093734D01*
X0068791Y0091939D01*
X0069478Y0090280D01*
X0070747Y0089011D01*
X0072405Y0088324D01*
X0074200Y0088324D01*
X0075858Y0089011D01*
X0076127Y0089280D02*
X0080478Y0089280D01*
X0079879Y0089879D02*
X0076725Y0089879D01*
X0077209Y0090477D02*
X0079396Y0090477D01*
X0079148Y0091076D02*
X0077457Y0091076D01*
X0077705Y0091674D02*
X0078900Y0091674D01*
X0078791Y0092273D02*
X0077814Y0092273D01*
X0077814Y0092871D02*
X0078791Y0092871D01*
X0078791Y0093470D02*
X0077814Y0093470D01*
X0077676Y0094068D02*
X0078929Y0094068D01*
X0079177Y0094667D02*
X0077428Y0094667D01*
X0077180Y0095265D02*
X0079425Y0095265D01*
X0079949Y0095864D02*
X0076656Y0095864D01*
X0076057Y0096462D02*
X0080548Y0096462D01*
X0081711Y0097061D02*
X0074894Y0097061D01*
X0074312Y0098631D02*
X0074958Y0098840D01*
X0075562Y0099148D01*
X0076111Y0099547D01*
X0076591Y0100027D01*
X0076990Y0100576D01*
X0077298Y0101181D01*
X0077508Y0101827D01*
X0077614Y0102497D01*
X0077614Y0102536D01*
X0073602Y0102536D01*
X0073602Y0098524D01*
X0073642Y0098524D01*
X0074312Y0098631D01*
X0074989Y0098856D02*
X0081121Y0098856D01*
X0080747Y0099011D02*
X0082405Y0098324D01*
X0084200Y0098324D01*
X0085858Y0099011D01*
X0087127Y0100280D01*
X0087814Y0101939D01*
X0087814Y0103734D01*
X0087584Y0104289D01*
X0090194Y0106899D01*
X0130624Y0106899D01*
X0138310Y0099213D01*
X0139482Y0098041D01*
X0140779Y0098041D01*
X0140779Y0096959D01*
X0141657Y0096080D01*
X0145262Y0096080D01*
X0145544Y0096362D01*
X0145848Y0096280D01*
X0146909Y0096280D01*
X0146909Y0099750D01*
X0147491Y0099750D01*
X0147491Y0096280D01*
X0148552Y0096280D01*
X0148856Y0096362D01*
X0148940Y0096278D01*
X0148940Y0091814D01*
X0147061Y0089935D01*
X0146665Y0089935D01*
X0145677Y0089525D01*
X0144920Y0088769D01*
X0144511Y0087781D01*
X0144511Y0086711D01*
X0144920Y0085722D01*
X0145677Y0084966D01*
X0146665Y0084557D01*
X0147735Y0084557D01*
X0148723Y0084966D01*
X0149480Y0085722D01*
X0149889Y0086711D01*
X0149889Y0087106D01*
X0151769Y0088986D01*
X0152940Y0090157D01*
X0152940Y0096278D01*
X0153621Y0096959D01*
X0153621Y0103123D01*
X0152743Y0104002D01*
X0149138Y0104002D01*
X0148856Y0103720D01*
X0148552Y0103802D01*
X0147491Y0103802D01*
X0147491Y0100332D01*
X0146909Y0100332D01*
X0146909Y0103802D01*
X0145848Y0103802D01*
X0145544Y0103720D01*
X0145262Y0104002D01*
X0141657Y0104002D01*
X0140779Y0103123D01*
X0140779Y0102401D01*
X0132280Y0110899D01*
X0099853Y0110899D01*
X0100267Y0111313D01*
X0100676Y0112301D01*
X0100676Y0113371D01*
X0100267Y0114359D01*
X0099511Y0115116D01*
X0098522Y0115525D01*
X0097453Y0115525D01*
X0096464Y0115116D01*
X0096185Y0114836D01*
X0087358Y0114836D01*
X0087127Y0115392D01*
X0085858Y0116661D01*
X0084200Y0117348D01*
X0082405Y0117348D01*
X0080747Y0116661D01*
X0079478Y0115392D01*
X0078791Y0113734D01*
X0078791Y0111939D01*
X0079478Y0110280D01*
X0080747Y0109011D01*
X0082405Y0108324D01*
X0084200Y0108324D01*
X0085858Y0109011D01*
X0087127Y0110280D01*
X0087358Y0110836D01*
X0088474Y0110836D01*
X0087365Y0109728D01*
X0084756Y0107118D01*
X0084200Y0107348D01*
X0082405Y0107348D01*
X0080747Y0106661D01*
X0079478Y0105392D01*
X0078791Y0103734D01*
X0078791Y0101939D01*
X0079478Y0100280D01*
X0080747Y0099011D01*
X0080303Y0099455D02*
X0075984Y0099455D01*
X0076610Y0100053D02*
X0079705Y0100053D01*
X0079324Y0100652D02*
X0077029Y0100652D01*
X0077321Y0101250D02*
X0079076Y0101250D01*
X0078828Y0101849D02*
X0077512Y0101849D01*
X0077606Y0102447D02*
X0078791Y0102447D01*
X0078791Y0103046D02*
X0073602Y0103046D01*
X0073602Y0103136D02*
X0077614Y0103136D01*
X0077614Y0103176D01*
X0077508Y0103846D01*
X0077298Y0104491D01*
X0076990Y0105096D01*
X0076591Y0105645D01*
X0076111Y0106125D01*
X0075562Y0106524D01*
X0074958Y0106832D01*
X0074312Y0107042D01*
X0073642Y0107148D01*
X0073602Y0107148D01*
X0073602Y0103136D01*
X0073002Y0103136D01*
X0073002Y0102536D01*
X0068991Y0102536D01*
X0068991Y0102497D01*
X0069097Y0101827D01*
X0069307Y0101181D01*
X0069615Y0100576D01*
X0070014Y0100027D01*
X0070493Y0099547D01*
X0071043Y0099148D01*
X0071647Y0098840D01*
X0072293Y0098631D01*
X0072963Y0098524D01*
X0073002Y0098524D01*
X0073002Y0102536D01*
X0073602Y0102536D01*
X0073602Y0103136D01*
X0073602Y0103644D02*
X0073002Y0103644D01*
X0073002Y0103136D02*
X0073002Y0107148D01*
X0072963Y0107148D01*
X0072293Y0107042D01*
X0071647Y0106832D01*
X0071043Y0106524D01*
X0070493Y0106125D01*
X0070014Y0105645D01*
X0069615Y0105096D01*
X0069307Y0104491D01*
X0069097Y0103846D01*
X0068991Y0103176D01*
X0068991Y0103136D01*
X0073002Y0103136D01*
X0073002Y0103046D02*
X0062386Y0103046D01*
X0062386Y0103644D02*
X0069065Y0103644D01*
X0069226Y0104243D02*
X0062386Y0104243D01*
X0062386Y0104841D02*
X0069485Y0104841D01*
X0069864Y0105440D02*
X0062386Y0105440D01*
X0062386Y0106038D02*
X0070407Y0106038D01*
X0071264Y0106637D02*
X0062386Y0106637D01*
X0062386Y0107235D02*
X0082133Y0107235D01*
X0082144Y0108432D02*
X0062386Y0108432D01*
X0062386Y0107834D02*
X0085472Y0107834D01*
X0086070Y0108432D02*
X0084461Y0108432D01*
X0084472Y0107235D02*
X0084873Y0107235D01*
X0085878Y0109031D02*
X0086669Y0109031D01*
X0086476Y0109629D02*
X0087267Y0109629D01*
X0087075Y0110228D02*
X0087866Y0110228D01*
X0087353Y0110826D02*
X0088464Y0110826D01*
X0087283Y0115016D02*
X0096364Y0115016D01*
X0099610Y0115016D02*
X0135735Y0115016D01*
X0135834Y0115116D02*
X0135078Y0114359D01*
X0134669Y0113371D01*
X0134669Y0112301D01*
X0135078Y0111313D01*
X0135834Y0110557D01*
X0136823Y0110147D01*
X0137218Y0110147D01*
X0139482Y0107883D01*
X0140779Y0107883D01*
X0140779Y0106802D01*
X0141657Y0105923D01*
X0145262Y0105923D01*
X0145330Y0105990D01*
X0145398Y0105923D01*
X0149002Y0105923D01*
X0149070Y0105990D01*
X0149138Y0105923D01*
X0152743Y0105923D01*
X0153495Y0106675D01*
X0153551Y0106620D01*
X0154539Y0106210D01*
X0155609Y0106210D01*
X0156597Y0106620D01*
X0156987Y0107010D01*
X0156987Y0084541D01*
X0156708Y0084261D01*
X0156298Y0083273D01*
X0156298Y0082203D01*
X0156708Y0081215D01*
X0157464Y0080459D01*
X0158453Y0080049D01*
X0159522Y0080049D01*
X0160511Y0080459D01*
X0161267Y0081215D01*
X0161676Y0082203D01*
X0161676Y0083273D01*
X0161267Y0084261D01*
X0160987Y0084541D01*
X0160987Y0109026D01*
X0161425Y0108588D01*
X0162413Y0108179D01*
X0162809Y0108179D01*
X0163104Y0107883D01*
X0164401Y0107883D01*
X0164401Y0106802D01*
X0165280Y0105923D01*
X0168884Y0105923D01*
X0168952Y0105990D01*
X0169020Y0105923D01*
X0172625Y0105923D01*
X0172692Y0105990D01*
X0172760Y0105923D01*
X0176365Y0105923D01*
X0177243Y0106802D01*
X0177243Y0112965D01*
X0176562Y0113647D01*
X0176562Y0130683D01*
X0177626Y0131747D01*
X0178387Y0133585D01*
X0178387Y0135574D01*
X0177626Y0137411D01*
X0176220Y0138818D01*
X0174382Y0139579D01*
X0172393Y0139579D01*
X0170555Y0138818D01*
X0169149Y0137411D01*
X0168387Y0135574D01*
X0167626Y0137411D01*
X0166220Y0138818D01*
X0164382Y0139579D01*
X0162393Y0139579D01*
X0160555Y0138818D01*
X0159149Y0137411D01*
X0158387Y0135574D01*
X0157626Y0137411D01*
X0156220Y0138818D01*
X0154382Y0139579D01*
X0152393Y0139579D01*
X0150555Y0138818D01*
X0149149Y0137411D01*
X0148387Y0135574D01*
X0147626Y0137411D01*
X0146220Y0138818D01*
X0144382Y0139579D01*
X0142393Y0139579D01*
X0140555Y0138818D01*
X0139149Y0137411D01*
X0138387Y0135574D01*
X0137626Y0137411D01*
X0136220Y0138818D01*
X0134382Y0139579D01*
X0132393Y0139579D01*
X0130555Y0138818D01*
X0129149Y0137411D01*
X0128387Y0135574D01*
X0127626Y0137411D01*
X0126220Y0138818D01*
X0124382Y0139579D01*
X0122393Y0139579D01*
X0120555Y0138818D01*
X0119149Y0137411D01*
X0118387Y0135574D01*
X0118387Y0133585D01*
X0119149Y0131747D01*
X0120555Y0130340D01*
X0122393Y0129579D01*
X0124382Y0129579D01*
X0126220Y0130340D01*
X0127626Y0131747D01*
X0128387Y0133585D01*
X0128387Y0135574D01*
X0128387Y0133585D01*
X0129149Y0131747D01*
X0130555Y0130340D01*
X0131387Y0129996D01*
X0131387Y0125820D01*
X0141135Y0116072D01*
X0143850Y0116072D01*
X0143850Y0115876D01*
X0144728Y0114998D01*
X0145200Y0114998D01*
X0145200Y0113844D01*
X0141657Y0113844D01*
X0140779Y0112965D01*
X0140779Y0112243D01*
X0140047Y0112976D01*
X0140047Y0113371D01*
X0139637Y0114359D01*
X0138881Y0115116D01*
X0137892Y0115525D01*
X0136823Y0115525D01*
X0135834Y0115116D01*
X0135136Y0114417D02*
X0100209Y0114417D01*
X0100491Y0113819D02*
X0134854Y0113819D01*
X0134669Y0113220D02*
X0100676Y0113220D01*
X0100676Y0112622D02*
X0134669Y0112622D01*
X0134784Y0112023D02*
X0100561Y0112023D01*
X0100313Y0111425D02*
X0135032Y0111425D01*
X0135565Y0110826D02*
X0132353Y0110826D01*
X0132952Y0110228D02*
X0136628Y0110228D01*
X0137736Y0109629D02*
X0133550Y0109629D01*
X0134149Y0109031D02*
X0138334Y0109031D01*
X0138933Y0108432D02*
X0134747Y0108432D01*
X0135346Y0107834D02*
X0140779Y0107834D01*
X0140779Y0107235D02*
X0135944Y0107235D01*
X0136543Y0106637D02*
X0140943Y0106637D01*
X0141542Y0106038D02*
X0137141Y0106038D01*
X0137740Y0105440D02*
X0156987Y0105440D01*
X0156987Y0106038D02*
X0152858Y0106038D01*
X0153457Y0106637D02*
X0153534Y0106637D01*
X0153100Y0103644D02*
X0156987Y0103644D01*
X0156987Y0103046D02*
X0153621Y0103046D01*
X0153621Y0102447D02*
X0156987Y0102447D01*
X0156987Y0101849D02*
X0153621Y0101849D01*
X0153621Y0101250D02*
X0156987Y0101250D01*
X0156987Y0100652D02*
X0153621Y0100652D01*
X0153621Y0100053D02*
X0156987Y0100053D01*
X0156987Y0099455D02*
X0153621Y0099455D01*
X0153621Y0098856D02*
X0156987Y0098856D01*
X0156987Y0098258D02*
X0153621Y0098258D01*
X0153621Y0097659D02*
X0156987Y0097659D01*
X0156987Y0097061D02*
X0153621Y0097061D01*
X0153124Y0096462D02*
X0156987Y0096462D01*
X0156987Y0095864D02*
X0152940Y0095864D01*
X0152940Y0095265D02*
X0156987Y0095265D01*
X0156987Y0094667D02*
X0152940Y0094667D01*
X0152940Y0094068D02*
X0156987Y0094068D01*
X0156987Y0093470D02*
X0152940Y0093470D01*
X0152940Y0092871D02*
X0156987Y0092871D01*
X0156987Y0092273D02*
X0152940Y0092273D01*
X0152940Y0091674D02*
X0156987Y0091674D01*
X0156987Y0091076D02*
X0152940Y0091076D01*
X0152940Y0090477D02*
X0156987Y0090477D01*
X0156987Y0089879D02*
X0152661Y0089879D01*
X0152063Y0089280D02*
X0156987Y0089280D01*
X0156987Y0088681D02*
X0151464Y0088681D01*
X0150866Y0088083D02*
X0156987Y0088083D01*
X0156987Y0087484D02*
X0150267Y0087484D01*
X0149889Y0086886D02*
X0156987Y0086886D01*
X0156987Y0086287D02*
X0149714Y0086287D01*
X0149446Y0085689D02*
X0156987Y0085689D01*
X0156987Y0085090D02*
X0148848Y0085090D01*
X0145553Y0085090D02*
X0125387Y0085090D01*
X0125387Y0084492D02*
X0156938Y0084492D01*
X0156555Y0083893D02*
X0125387Y0083893D01*
X0125387Y0083295D02*
X0156308Y0083295D01*
X0156298Y0082696D02*
X0125387Y0082696D01*
X0125387Y0082098D02*
X0156342Y0082098D01*
X0156590Y0081499D02*
X0125387Y0081499D01*
X0125387Y0080901D02*
X0157022Y0080901D01*
X0157841Y0080302D02*
X0125387Y0080302D01*
X0125387Y0079704D02*
X0199934Y0079704D01*
X0199934Y0080302D02*
X0160133Y0080302D01*
X0160953Y0080901D02*
X0199934Y0080901D01*
X0199934Y0081499D02*
X0161385Y0081499D01*
X0161633Y0082098D02*
X0199934Y0082098D01*
X0199934Y0082696D02*
X0161676Y0082696D01*
X0161667Y0083295D02*
X0199934Y0083295D01*
X0199934Y0083893D02*
X0161419Y0083893D01*
X0161037Y0084492D02*
X0199934Y0084492D01*
X0199934Y0085090D02*
X0160987Y0085090D01*
X0160987Y0085689D02*
X0199934Y0085689D01*
X0199934Y0086287D02*
X0160987Y0086287D01*
X0160987Y0086886D02*
X0165479Y0086886D01*
X0165362Y0086935D02*
X0166350Y0086525D01*
X0167420Y0086525D01*
X0168408Y0086935D01*
X0169165Y0087691D01*
X0169574Y0088679D01*
X0169574Y0089749D01*
X0169165Y0090737D01*
X0169082Y0090820D01*
X0169082Y0096278D01*
X0169166Y0096362D01*
X0169470Y0096280D01*
X0170532Y0096280D01*
X0170532Y0099750D01*
X0171113Y0099750D01*
X0171113Y0096280D01*
X0172174Y0096280D01*
X0172478Y0096362D01*
X0172562Y0096278D01*
X0172562Y0094757D01*
X0172480Y0094674D01*
X0172070Y0093686D01*
X0172070Y0092616D01*
X0172480Y0091628D01*
X0173236Y0090872D01*
X0174224Y0090462D01*
X0175294Y0090462D01*
X0176282Y0090872D01*
X0177039Y0091628D01*
X0177448Y0092616D01*
X0177448Y0093686D01*
X0177039Y0094674D01*
X0176562Y0095151D01*
X0176562Y0096278D01*
X0177243Y0096959D01*
X0177243Y0103123D01*
X0176365Y0104002D01*
X0172760Y0104002D01*
X0172478Y0103720D01*
X0172174Y0103802D01*
X0171113Y0103802D01*
X0171113Y0100332D01*
X0170532Y0100332D01*
X0170532Y0103802D01*
X0169470Y0103802D01*
X0169166Y0103720D01*
X0168884Y0104002D01*
X0165280Y0104002D01*
X0164401Y0103123D01*
X0164401Y0096959D01*
X0165082Y0096278D01*
X0165082Y0091214D01*
X0164606Y0090737D01*
X0164196Y0089749D01*
X0164196Y0088679D01*
X0164606Y0087691D01*
X0165362Y0086935D01*
X0164812Y0087484D02*
X0160987Y0087484D01*
X0160987Y0088083D02*
X0164443Y0088083D01*
X0164196Y0088681D02*
X0160987Y0088681D01*
X0160987Y0089280D02*
X0164196Y0089280D01*
X0164250Y0089879D02*
X0160987Y0089879D01*
X0160987Y0090477D02*
X0164498Y0090477D01*
X0164944Y0091076D02*
X0160987Y0091076D01*
X0160987Y0091674D02*
X0165082Y0091674D01*
X0165082Y0092273D02*
X0160987Y0092273D01*
X0160987Y0092871D02*
X0165082Y0092871D01*
X0165082Y0093470D02*
X0160987Y0093470D01*
X0160987Y0094068D02*
X0165082Y0094068D01*
X0165082Y0094667D02*
X0160987Y0094667D01*
X0160987Y0095265D02*
X0165082Y0095265D01*
X0165082Y0095864D02*
X0160987Y0095864D01*
X0160987Y0096462D02*
X0164898Y0096462D01*
X0164401Y0097061D02*
X0160987Y0097061D01*
X0160987Y0097659D02*
X0164401Y0097659D01*
X0164401Y0098258D02*
X0160987Y0098258D01*
X0160987Y0098856D02*
X0164401Y0098856D01*
X0164401Y0099455D02*
X0160987Y0099455D01*
X0160987Y0100053D02*
X0164401Y0100053D01*
X0164401Y0100652D02*
X0160987Y0100652D01*
X0160987Y0101250D02*
X0164401Y0101250D01*
X0164401Y0101849D02*
X0160987Y0101849D01*
X0160987Y0102447D02*
X0164401Y0102447D01*
X0164401Y0103046D02*
X0160987Y0103046D01*
X0160987Y0103644D02*
X0164922Y0103644D01*
X0165164Y0106038D02*
X0160987Y0106038D01*
X0160987Y0105440D02*
X0199934Y0105440D01*
X0199934Y0106038D02*
X0176480Y0106038D01*
X0177079Y0106637D02*
X0199934Y0106637D01*
X0199934Y0107235D02*
X0177243Y0107235D01*
X0177243Y0107834D02*
X0199934Y0107834D01*
X0199934Y0108432D02*
X0177243Y0108432D01*
X0177243Y0109031D02*
X0199934Y0109031D01*
X0199934Y0109629D02*
X0177243Y0109629D01*
X0177243Y0110228D02*
X0199934Y0110228D01*
X0199934Y0110826D02*
X0177243Y0110826D01*
X0177243Y0111425D02*
X0199934Y0111425D01*
X0199934Y0112023D02*
X0177243Y0112023D01*
X0177243Y0112622D02*
X0199934Y0112622D01*
X0199934Y0113220D02*
X0176988Y0113220D01*
X0176562Y0113819D02*
X0199934Y0113819D01*
X0199934Y0114417D02*
X0176562Y0114417D01*
X0176562Y0115016D02*
X0199934Y0115016D01*
X0199934Y0115615D02*
X0176562Y0115615D01*
X0176562Y0116213D02*
X0199934Y0116213D01*
X0199934Y0116812D02*
X0176562Y0116812D01*
X0176562Y0117410D02*
X0199934Y0117410D01*
X0199934Y0118009D02*
X0176562Y0118009D01*
X0176562Y0118607D02*
X0199934Y0118607D01*
X0199934Y0119206D02*
X0176562Y0119206D01*
X0176562Y0119804D02*
X0199934Y0119804D01*
X0199934Y0120403D02*
X0176562Y0120403D01*
X0176562Y0121001D02*
X0199934Y0121001D01*
X0199934Y0121600D02*
X0176562Y0121600D01*
X0176562Y0122198D02*
X0199934Y0122198D01*
X0199934Y0122797D02*
X0176562Y0122797D01*
X0176562Y0123395D02*
X0199934Y0123395D01*
X0199934Y0123994D02*
X0176562Y0123994D01*
X0176562Y0124592D02*
X0199934Y0124592D01*
X0199934Y0125191D02*
X0176562Y0125191D01*
X0176562Y0125789D02*
X0199934Y0125789D01*
X0199934Y0126388D02*
X0176562Y0126388D01*
X0176562Y0126986D02*
X0199934Y0126986D01*
X0199934Y0127585D02*
X0176562Y0127585D01*
X0176562Y0128183D02*
X0199934Y0128183D01*
X0199934Y0128782D02*
X0176562Y0128782D01*
X0176562Y0129380D02*
X0199934Y0129380D01*
X0199934Y0129979D02*
X0195347Y0129979D01*
X0196220Y0130340D02*
X0194382Y0129579D01*
X0192393Y0129579D01*
X0190555Y0130340D01*
X0189149Y0131747D01*
X0188387Y0133585D01*
X0187626Y0131747D01*
X0186220Y0130340D01*
X0184382Y0129579D01*
X0182393Y0129579D01*
X0180555Y0130340D01*
X0179149Y0131747D01*
X0178387Y0133585D01*
X0178387Y0135574D01*
X0179149Y0137411D01*
X0180555Y0138818D01*
X0182393Y0139579D01*
X0184382Y0139579D01*
X0186220Y0138818D01*
X0187626Y0137411D01*
X0188387Y0135574D01*
X0188387Y0133585D01*
X0188387Y0135574D01*
X0189149Y0137411D01*
X0190555Y0138818D01*
X0192393Y0139579D01*
X0194382Y0139579D01*
X0196220Y0138818D01*
X0197626Y0137411D01*
X0198387Y0135574D01*
X0198387Y0133585D01*
X0197626Y0131747D01*
X0196220Y0130340D01*
X0196457Y0130577D02*
X0199934Y0130577D01*
X0199934Y0131176D02*
X0197055Y0131176D01*
X0197638Y0131774D02*
X0199934Y0131774D01*
X0199934Y0132373D02*
X0197886Y0132373D01*
X0198133Y0132971D02*
X0199934Y0132971D01*
X0199934Y0133570D02*
X0198381Y0133570D01*
X0198387Y0134168D02*
X0199934Y0134168D01*
X0199934Y0134767D02*
X0198387Y0134767D01*
X0198387Y0135365D02*
X0199934Y0135365D01*
X0199934Y0135964D02*
X0198226Y0135964D01*
X0197978Y0136562D02*
X0199934Y0136562D01*
X0199934Y0137161D02*
X0197730Y0137161D01*
X0197278Y0137759D02*
X0199934Y0137759D01*
X0199934Y0138358D02*
X0196680Y0138358D01*
X0195885Y0138956D02*
X0199934Y0138956D01*
X0199934Y0139555D02*
X0194440Y0139555D01*
X0192335Y0139555D02*
X0184440Y0139555D01*
X0185885Y0138956D02*
X0190890Y0138956D01*
X0190095Y0138358D02*
X0186680Y0138358D01*
X0187278Y0137759D02*
X0189497Y0137759D01*
X0189045Y0137161D02*
X0187730Y0137161D01*
X0187978Y0136562D02*
X0188797Y0136562D01*
X0188549Y0135964D02*
X0188226Y0135964D01*
X0188387Y0135365D02*
X0188387Y0135365D01*
X0188387Y0134767D02*
X0188387Y0134767D01*
X0188387Y0134168D02*
X0188387Y0134168D01*
X0188381Y0133570D02*
X0188394Y0133570D01*
X0188641Y0132971D02*
X0188133Y0132971D01*
X0187886Y0132373D02*
X0188889Y0132373D01*
X0189137Y0131774D02*
X0187638Y0131774D01*
X0187055Y0131176D02*
X0189720Y0131176D01*
X0190318Y0130577D02*
X0186457Y0130577D01*
X0185347Y0129979D02*
X0191428Y0129979D01*
X0181428Y0129979D02*
X0176562Y0129979D01*
X0176562Y0130577D02*
X0180318Y0130577D01*
X0179720Y0131176D02*
X0177055Y0131176D01*
X0177638Y0131774D02*
X0179137Y0131774D01*
X0178889Y0132373D02*
X0177886Y0132373D01*
X0178133Y0132971D02*
X0178641Y0132971D01*
X0178394Y0133570D02*
X0178381Y0133570D01*
X0178387Y0134168D02*
X0178387Y0134168D01*
X0178387Y0134767D02*
X0178387Y0134767D01*
X0178387Y0135365D02*
X0178387Y0135365D01*
X0178226Y0135964D02*
X0178549Y0135964D01*
X0178797Y0136562D02*
X0177978Y0136562D01*
X0177730Y0137161D02*
X0179045Y0137161D01*
X0179497Y0137759D02*
X0177278Y0137759D01*
X0176680Y0138358D02*
X0180095Y0138358D01*
X0180890Y0138956D02*
X0175885Y0138956D01*
X0174440Y0139555D02*
X0182335Y0139555D01*
X0172335Y0139555D02*
X0164440Y0139555D01*
X0165885Y0138956D02*
X0170890Y0138956D01*
X0170095Y0138358D02*
X0166680Y0138358D01*
X0167278Y0137759D02*
X0169497Y0137759D01*
X0169045Y0137161D02*
X0167730Y0137161D01*
X0167978Y0136562D02*
X0168797Y0136562D01*
X0168549Y0135964D02*
X0168226Y0135964D01*
X0168387Y0135574D02*
X0168387Y0133585D01*
X0167626Y0131747D01*
X0166220Y0130340D01*
X0164382Y0129579D01*
X0162393Y0129579D01*
X0160555Y0130340D01*
X0159149Y0131747D01*
X0158387Y0133585D01*
X0157626Y0131747D01*
X0156220Y0130340D01*
X0154382Y0129579D01*
X0152393Y0129579D01*
X0150555Y0130340D01*
X0149149Y0131747D01*
X0148387Y0133585D01*
X0147626Y0131747D01*
X0146220Y0130340D01*
X0144382Y0129579D01*
X0142393Y0129579D01*
X0140555Y0130340D01*
X0139149Y0131747D01*
X0138387Y0133585D01*
X0138387Y0135574D01*
X0138387Y0133585D01*
X0137626Y0131747D01*
X0136220Y0130340D01*
X0135387Y0129996D01*
X0135387Y0127477D01*
X0142792Y0120072D01*
X0143850Y0120072D01*
X0143850Y0120269D01*
X0144433Y0120852D01*
X0144309Y0120975D01*
X0144138Y0121271D01*
X0144050Y0121602D01*
X0144050Y0123048D01*
X0146900Y0123048D01*
X0146900Y0123648D01*
X0144050Y0123648D01*
X0144050Y0125094D01*
X0144138Y0125425D01*
X0144309Y0125721D01*
X0144551Y0125963D01*
X0144848Y0126134D01*
X0145179Y0126223D01*
X0146900Y0126223D01*
X0146900Y0123648D01*
X0147500Y0123648D01*
X0147500Y0126223D01*
X0149222Y0126223D01*
X0149552Y0126134D01*
X0149849Y0125963D01*
X0150091Y0125721D01*
X0150262Y0125425D01*
X0150350Y0125094D01*
X0150350Y0123648D01*
X0147500Y0123648D01*
X0147500Y0123048D01*
X0150350Y0123048D01*
X0150350Y0121602D01*
X0150262Y0121271D01*
X0150091Y0120975D01*
X0149967Y0120852D01*
X0150550Y0120269D01*
X0150550Y0120072D01*
X0163535Y0120072D01*
X0163535Y0120269D01*
X0164118Y0120852D01*
X0163994Y0120975D01*
X0163823Y0121271D01*
X0163735Y0121602D01*
X0163735Y0123048D01*
X0166585Y0123048D01*
X0166585Y0123648D01*
X0163735Y0123648D01*
X0163735Y0125094D01*
X0163823Y0125425D01*
X0163994Y0125721D01*
X0164236Y0125963D01*
X0164533Y0126134D01*
X0164864Y0126223D01*
X0166585Y0126223D01*
X0166585Y0123648D01*
X0167185Y0123648D01*
X0167185Y0126223D01*
X0168907Y0126223D01*
X0169237Y0126134D01*
X0169534Y0125963D01*
X0169776Y0125721D01*
X0169947Y0125425D01*
X0170035Y0125094D01*
X0170035Y0123648D01*
X0167185Y0123648D01*
X0167185Y0123048D01*
X0170035Y0123048D01*
X0170035Y0121602D01*
X0169947Y0121271D01*
X0169776Y0120975D01*
X0169652Y0120852D01*
X0170235Y0120269D01*
X0170235Y0117550D01*
X0172562Y0115224D01*
X0172562Y0129579D01*
X0172393Y0129579D01*
X0170555Y0130340D01*
X0169149Y0131747D01*
X0168387Y0133585D01*
X0168387Y0135574D01*
X0168387Y0135365D02*
X0168387Y0135365D01*
X0168387Y0134767D02*
X0168387Y0134767D01*
X0168387Y0134168D02*
X0168387Y0134168D01*
X0168381Y0133570D02*
X0168394Y0133570D01*
X0168641Y0132971D02*
X0168133Y0132971D01*
X0167886Y0132373D02*
X0168889Y0132373D01*
X0169137Y0131774D02*
X0167638Y0131774D01*
X0167055Y0131176D02*
X0169720Y0131176D01*
X0170318Y0130577D02*
X0166457Y0130577D01*
X0165347Y0129979D02*
X0171428Y0129979D01*
X0172562Y0129380D02*
X0135387Y0129380D01*
X0135387Y0128782D02*
X0172562Y0128782D01*
X0172562Y0128183D02*
X0135387Y0128183D01*
X0135387Y0127585D02*
X0172562Y0127585D01*
X0172562Y0126986D02*
X0135878Y0126986D01*
X0136477Y0126388D02*
X0172562Y0126388D01*
X0172562Y0125789D02*
X0169708Y0125789D01*
X0170010Y0125191D02*
X0172562Y0125191D01*
X0172562Y0124592D02*
X0170035Y0124592D01*
X0170035Y0123994D02*
X0172562Y0123994D01*
X0172562Y0123395D02*
X0167185Y0123395D01*
X0167185Y0123994D02*
X0166585Y0123994D01*
X0166585Y0124592D02*
X0167185Y0124592D01*
X0167185Y0125191D02*
X0166585Y0125191D01*
X0166585Y0125789D02*
X0167185Y0125789D01*
X0166585Y0123395D02*
X0147500Y0123395D01*
X0147500Y0123994D02*
X0146900Y0123994D01*
X0146900Y0124592D02*
X0147500Y0124592D01*
X0147500Y0125191D02*
X0146900Y0125191D01*
X0146900Y0125789D02*
X0147500Y0125789D01*
X0146900Y0123395D02*
X0139470Y0123395D01*
X0140068Y0122797D02*
X0144050Y0122797D01*
X0144050Y0122198D02*
X0140667Y0122198D01*
X0141265Y0121600D02*
X0144050Y0121600D01*
X0144294Y0121001D02*
X0141864Y0121001D01*
X0142462Y0120403D02*
X0143984Y0120403D01*
X0139798Y0117410D02*
X0062386Y0117410D01*
X0062386Y0116812D02*
X0071607Y0116812D01*
X0071647Y0116832D02*
X0071043Y0116524D01*
X0070493Y0116125D01*
X0070014Y0115645D01*
X0069615Y0115096D01*
X0069307Y0114491D01*
X0069097Y0113846D01*
X0068991Y0113176D01*
X0068991Y0113136D01*
X0073002Y0113136D01*
X0073002Y0112536D01*
X0068991Y0112536D01*
X0068991Y0112497D01*
X0069097Y0111827D01*
X0069307Y0111181D01*
X0069615Y0110576D01*
X0070014Y0110027D01*
X0070493Y0109547D01*
X0071043Y0109148D01*
X0071647Y0108840D01*
X0072293Y0108631D01*
X0072963Y0108524D01*
X0073002Y0108524D01*
X0073002Y0112536D01*
X0073602Y0112536D01*
X0073602Y0108524D01*
X0073642Y0108524D01*
X0074312Y0108631D01*
X0074958Y0108840D01*
X0075562Y0109148D01*
X0076111Y0109547D01*
X0076591Y0110027D01*
X0076990Y0110576D01*
X0077298Y0111181D01*
X0077508Y0111827D01*
X0077614Y0112497D01*
X0077614Y0112536D01*
X0073602Y0112536D01*
X0073602Y0113136D01*
X0073002Y0113136D01*
X0073002Y0117148D01*
X0072963Y0117148D01*
X0072293Y0117042D01*
X0071647Y0116832D01*
X0070615Y0116213D02*
X0062386Y0116213D01*
X0062386Y0115615D02*
X0069991Y0115615D01*
X0069574Y0115016D02*
X0062386Y0115016D01*
X0062386Y0114417D02*
X0069283Y0114417D01*
X0069093Y0113819D02*
X0062386Y0113819D01*
X0062386Y0113220D02*
X0068998Y0113220D01*
X0069066Y0112023D02*
X0062386Y0112023D01*
X0062386Y0111425D02*
X0069227Y0111425D01*
X0069487Y0110826D02*
X0062386Y0110826D01*
X0062386Y0110228D02*
X0069868Y0110228D01*
X0070411Y0109629D02*
X0062386Y0109629D01*
X0062386Y0109031D02*
X0071273Y0109031D01*
X0073002Y0109031D02*
X0073602Y0109031D01*
X0073602Y0109629D02*
X0073002Y0109629D01*
X0073002Y0110228D02*
X0073602Y0110228D01*
X0073602Y0110826D02*
X0073002Y0110826D01*
X0073002Y0111425D02*
X0073602Y0111425D01*
X0073602Y0112023D02*
X0073002Y0112023D01*
X0073002Y0112622D02*
X0062386Y0112622D01*
X0062386Y0118009D02*
X0139199Y0118009D01*
X0138601Y0118607D02*
X0084882Y0118607D01*
X0084200Y0118324D02*
X0085858Y0119011D01*
X0087127Y0120280D01*
X0087814Y0121939D01*
X0087814Y0123734D01*
X0087127Y0125392D01*
X0085858Y0126661D01*
X0084200Y0127348D01*
X0082405Y0127348D01*
X0080747Y0126661D01*
X0079478Y0125392D01*
X0078791Y0123734D01*
X0078791Y0121939D01*
X0079478Y0120280D01*
X0080747Y0119011D01*
X0082405Y0118324D01*
X0084200Y0118324D01*
X0085495Y0116812D02*
X0140396Y0116812D01*
X0140995Y0116213D02*
X0086306Y0116213D01*
X0086905Y0115615D02*
X0144111Y0115615D01*
X0144710Y0115016D02*
X0138981Y0115016D01*
X0139579Y0114417D02*
X0145200Y0114417D01*
X0141632Y0113819D02*
X0139861Y0113819D01*
X0140047Y0113220D02*
X0141034Y0113220D01*
X0140779Y0112622D02*
X0140400Y0112622D01*
X0132083Y0105440D02*
X0088734Y0105440D01*
X0088136Y0104841D02*
X0132682Y0104841D01*
X0133280Y0104243D02*
X0087603Y0104243D01*
X0087814Y0103644D02*
X0091378Y0103644D01*
X0090300Y0103046D02*
X0087814Y0103046D01*
X0087814Y0102447D02*
X0089760Y0102447D01*
X0089513Y0101849D02*
X0087777Y0101849D01*
X0087529Y0101250D02*
X0089393Y0101250D01*
X0089393Y0100652D02*
X0087281Y0100652D01*
X0086900Y0100053D02*
X0089574Y0100053D01*
X0089850Y0099455D02*
X0086302Y0099455D01*
X0085484Y0098856D02*
X0090448Y0098856D01*
X0093716Y0098856D02*
X0108192Y0098856D01*
X0108192Y0098258D02*
X0105179Y0098258D01*
X0105747Y0097659D02*
X0107165Y0097659D01*
X0106822Y0097061D02*
X0105747Y0097061D01*
X0105747Y0096462D02*
X0106822Y0096462D01*
X0112192Y0099455D02*
X0112197Y0099455D01*
X0112192Y0100053D02*
X0137470Y0100053D01*
X0138068Y0099455D02*
X0115274Y0099455D01*
X0115594Y0098856D02*
X0138667Y0098856D01*
X0139265Y0098258D02*
X0115626Y0098258D01*
X0113736Y0098258D02*
X0113735Y0098258D01*
X0113735Y0098856D02*
X0113736Y0098856D01*
X0113735Y0099455D02*
X0113736Y0099455D01*
X0113735Y0097659D02*
X0113736Y0097659D01*
X0113735Y0097061D02*
X0113736Y0097061D01*
X0113735Y0096462D02*
X0113736Y0096462D01*
X0113735Y0095864D02*
X0113736Y0095864D01*
X0113735Y0095265D02*
X0113736Y0095265D01*
X0113735Y0094667D02*
X0113736Y0094667D01*
X0113735Y0094068D02*
X0113736Y0094068D01*
X0113562Y0093470D02*
X0113909Y0093470D01*
X0113909Y0092871D02*
X0113510Y0092871D01*
X0113735Y0092273D02*
X0113736Y0092273D01*
X0113735Y0091674D02*
X0113736Y0091674D01*
X0113735Y0091076D02*
X0113736Y0091076D01*
X0113735Y0090477D02*
X0113736Y0090477D01*
X0113735Y0089879D02*
X0113736Y0089879D01*
X0113735Y0089280D02*
X0113736Y0089280D01*
X0113735Y0088681D02*
X0113736Y0088681D01*
X0113735Y0088083D02*
X0113736Y0088083D01*
X0113735Y0087484D02*
X0113736Y0087484D01*
X0113735Y0086886D02*
X0113736Y0086886D01*
X0115279Y0086287D02*
X0112192Y0086287D01*
X0112192Y0085689D02*
X0115279Y0085689D01*
X0115279Y0085090D02*
X0112192Y0085090D01*
X0112192Y0084492D02*
X0115279Y0084492D01*
X0115279Y0083893D02*
X0112192Y0083893D01*
X0112192Y0083295D02*
X0115279Y0083295D01*
X0115279Y0082696D02*
X0112192Y0082696D01*
X0111810Y0082098D02*
X0115279Y0082098D01*
X0115279Y0081499D02*
X0111211Y0081499D01*
X0111490Y0079105D02*
X0105284Y0079105D01*
X0106431Y0078507D02*
X0110344Y0078507D01*
X0109746Y0077908D02*
X0107029Y0077908D01*
X0107627Y0077310D02*
X0109148Y0077310D01*
X0108900Y0076711D02*
X0107875Y0076711D01*
X0108123Y0076113D02*
X0108652Y0076113D01*
X0108404Y0075514D02*
X0108371Y0075514D01*
X0108387Y0074916D02*
X0108387Y0074916D01*
X0108387Y0074317D02*
X0108387Y0074317D01*
X0108387Y0073719D02*
X0108387Y0073719D01*
X0108237Y0073120D02*
X0108538Y0073120D01*
X0108786Y0072522D02*
X0107989Y0072522D01*
X0107741Y0071923D02*
X0109034Y0071923D01*
X0109471Y0071325D02*
X0107304Y0071325D01*
X0106877Y0070726D02*
X0110069Y0070726D01*
X0110827Y0070128D02*
X0106877Y0070128D01*
X0106877Y0069529D02*
X0112272Y0069529D01*
X0114503Y0069529D02*
X0115509Y0069529D01*
X0116108Y0068931D02*
X0106877Y0068931D01*
X0106877Y0068332D02*
X0116706Y0068332D01*
X0114043Y0067734D02*
X0106877Y0067734D01*
X0106877Y0067135D02*
X0113444Y0067135D01*
X0113185Y0066537D02*
X0106877Y0066537D01*
X0106877Y0065938D02*
X0113015Y0065938D01*
X0113015Y0065340D02*
X0106877Y0065340D01*
X0106877Y0064741D02*
X0113146Y0064741D01*
X0113394Y0064143D02*
X0106877Y0064143D01*
X0106877Y0063544D02*
X0113949Y0063544D01*
X0115067Y0062946D02*
X0106877Y0062946D01*
X0106877Y0062347D02*
X0118089Y0062347D01*
X0118625Y0061748D02*
X0106877Y0061748D01*
X0106877Y0061150D02*
X0118625Y0061150D01*
X0117302Y0060551D02*
X0108201Y0060551D01*
X0108799Y0059953D02*
X0110199Y0059953D01*
X0113335Y0059953D02*
X0116703Y0059953D01*
X0116566Y0059354D02*
X0113933Y0059354D01*
X0114248Y0058756D02*
X0116566Y0058756D01*
X0116566Y0058157D02*
X0114456Y0058157D01*
X0114456Y0057559D02*
X0116566Y0057559D01*
X0116566Y0056960D02*
X0114364Y0056960D01*
X0114116Y0056362D02*
X0116566Y0056362D01*
X0116566Y0055763D02*
X0113615Y0055763D01*
X0112630Y0055165D02*
X0115153Y0055165D01*
X0114902Y0054566D02*
X0110600Y0054566D01*
X0110606Y0053968D02*
X0114896Y0053968D01*
X0114896Y0053369D02*
X0110606Y0053369D01*
X0110540Y0052771D02*
X0114963Y0052771D01*
X0115376Y0052172D02*
X0110127Y0052172D01*
X0109460Y0051574D02*
X0116566Y0051574D01*
X0116566Y0050975D02*
X0110059Y0050975D01*
X0110657Y0050377D02*
X0115967Y0050377D01*
X0115369Y0049778D02*
X0111256Y0049778D01*
X0111854Y0049180D02*
X0114770Y0049180D01*
X0114172Y0048581D02*
X0112331Y0048581D01*
X0112929Y0047983D02*
X0113704Y0047983D01*
X0113704Y0047384D02*
X0113528Y0047384D01*
X0118066Y0053781D02*
X0118066Y0053781D01*
X0121236Y0053781D01*
X0121236Y0053608D01*
X0121837Y0053608D01*
X0121983Y0053462D01*
X0121983Y0053781D01*
X0125153Y0053781D01*
X0125153Y0053781D01*
X0121983Y0053781D01*
X0121983Y0053954D01*
X0121236Y0053954D01*
X0121236Y0053781D01*
X0118066Y0053781D01*
X0110904Y0055165D02*
X0110350Y0055165D01*
X0116341Y0062946D02*
X0117491Y0062946D01*
X0122961Y0067734D02*
X0137305Y0067734D01*
X0137903Y0067135D02*
X0123560Y0067135D01*
X0124158Y0066537D02*
X0138200Y0066537D01*
X0138200Y0065938D02*
X0137198Y0065938D01*
X0137980Y0065340D02*
X0138200Y0065340D01*
X0134777Y0065938D02*
X0124594Y0065938D01*
X0124594Y0065340D02*
X0133995Y0065340D01*
X0133579Y0064741D02*
X0124594Y0064741D01*
X0124594Y0064143D02*
X0126494Y0064143D01*
X0125601Y0063544D02*
X0124594Y0063544D01*
X0124594Y0062946D02*
X0125139Y0062946D01*
X0124891Y0062347D02*
X0124594Y0062347D01*
X0124594Y0061748D02*
X0124826Y0061748D01*
X0124826Y0061150D02*
X0124594Y0061150D01*
X0128536Y0064143D02*
X0133331Y0064143D01*
X0133298Y0063544D02*
X0129429Y0063544D01*
X0129891Y0062946D02*
X0133319Y0062946D01*
X0133567Y0062347D02*
X0130139Y0062347D01*
X0130204Y0061748D02*
X0133965Y0061748D01*
X0134705Y0061150D02*
X0130204Y0061150D01*
X0129968Y0060551D02*
X0136137Y0060551D01*
X0134530Y0059953D02*
X0129616Y0059953D01*
X0129421Y0059354D02*
X0134173Y0059354D01*
X0134173Y0058756D02*
X0128822Y0058756D01*
X0128224Y0058157D02*
X0134173Y0058157D01*
X0134173Y0057559D02*
X0127625Y0057559D01*
X0127027Y0056960D02*
X0134173Y0056960D01*
X0134173Y0056362D02*
X0126653Y0056362D01*
X0126653Y0055763D02*
X0134173Y0055763D01*
X0132978Y0055165D02*
X0128066Y0055165D01*
X0128317Y0054566D02*
X0132568Y0054566D01*
X0132502Y0053968D02*
X0128323Y0053968D01*
X0128323Y0053369D02*
X0132502Y0053369D01*
X0132510Y0052771D02*
X0128256Y0052771D01*
X0127843Y0052172D02*
X0132762Y0052172D01*
X0134173Y0051574D02*
X0126653Y0051574D01*
X0126653Y0050975D02*
X0134173Y0050975D01*
X0133794Y0050377D02*
X0127252Y0050377D01*
X0127850Y0049778D02*
X0133196Y0049778D01*
X0132597Y0049180D02*
X0128449Y0049180D01*
X0129047Y0048581D02*
X0131999Y0048581D01*
X0131987Y0047983D02*
X0129646Y0047983D01*
X0130244Y0047384D02*
X0131987Y0047384D01*
X0131987Y0046786D02*
X0130843Y0046786D01*
X0131441Y0046187D02*
X0131987Y0046187D01*
X0131987Y0045589D02*
X0131484Y0045589D01*
X0131484Y0044990D02*
X0131987Y0044990D01*
X0131987Y0044392D02*
X0131484Y0044392D01*
X0131484Y0043793D02*
X0131987Y0043793D01*
X0131987Y0043195D02*
X0131484Y0043195D01*
X0131484Y0042596D02*
X0131987Y0042596D01*
X0131987Y0041998D02*
X0131484Y0041998D01*
X0131484Y0041399D02*
X0131987Y0041399D01*
X0131987Y0040801D02*
X0131484Y0040801D01*
X0131484Y0040202D02*
X0131987Y0040202D01*
X0131987Y0039604D02*
X0131484Y0039604D01*
X0131484Y0039005D02*
X0131987Y0039005D01*
X0131987Y0038407D02*
X0131484Y0038407D01*
X0131543Y0037808D02*
X0131987Y0037808D01*
X0131987Y0037210D02*
X0131920Y0037210D01*
X0131877Y0034815D02*
X0131987Y0034815D01*
X0131987Y0034217D02*
X0131439Y0034217D01*
X0131987Y0033618D02*
X0130605Y0033618D01*
X0131987Y0033020D02*
X0122674Y0033020D01*
X0122890Y0033618D02*
X0128362Y0033618D01*
X0127528Y0034217D02*
X0122890Y0034217D01*
X0122890Y0034815D02*
X0127090Y0034815D01*
X0126842Y0035414D02*
X0119941Y0035414D01*
X0119941Y0034815D02*
X0119341Y0034815D01*
X0119341Y0034217D02*
X0119941Y0034217D01*
X0119941Y0033618D02*
X0119341Y0033618D01*
X0119341Y0033020D02*
X0119941Y0033020D01*
X0116608Y0033020D02*
X0113767Y0033020D01*
X0113767Y0033618D02*
X0116392Y0033618D01*
X0116392Y0034217D02*
X0113767Y0034217D01*
X0113767Y0034815D02*
X0116392Y0034815D01*
X0116392Y0036013D02*
X0113767Y0036013D01*
X0113767Y0036611D02*
X0116392Y0036611D01*
X0116453Y0037210D02*
X0113767Y0037210D01*
X0113767Y0037808D02*
X0114095Y0037808D01*
X0113767Y0035414D02*
X0119341Y0035414D01*
X0122890Y0036013D02*
X0126795Y0036013D01*
X0126799Y0036611D02*
X0122890Y0036611D01*
X0122829Y0037210D02*
X0127047Y0037210D01*
X0127424Y0037808D02*
X0122433Y0037808D01*
X0122864Y0038407D02*
X0127484Y0038407D01*
X0127484Y0039005D02*
X0126591Y0039005D01*
X0127190Y0039604D02*
X0127484Y0039604D01*
X0135987Y0034938D02*
X0137687Y0034938D01*
X0137687Y0037473D01*
X0138287Y0037473D01*
X0138287Y0034938D01*
X0140107Y0034938D01*
X0140438Y0035026D01*
X0140735Y0035198D01*
X0140977Y0035440D01*
X0141148Y0035736D01*
X0141236Y0036067D01*
X0141236Y0037473D01*
X0138288Y0037473D01*
X0138288Y0038073D01*
X0141236Y0038073D01*
X0141236Y0039480D01*
X0141148Y0039810D01*
X0140977Y0040107D01*
X0140735Y0040349D01*
X0140685Y0040377D01*
X0140998Y0040690D01*
X0141298Y0040390D01*
X0141298Y0039994D01*
X0141708Y0039006D01*
X0142464Y0038250D01*
X0143453Y0037840D01*
X0144522Y0037840D01*
X0145511Y0038250D01*
X0146267Y0039006D01*
X0146676Y0039994D01*
X0146676Y0041064D01*
X0146267Y0042052D01*
X0145511Y0042809D01*
X0144522Y0043218D01*
X0144127Y0043218D01*
X0142060Y0045285D01*
X0141436Y0045285D01*
X0141436Y0045442D01*
X0140558Y0046320D01*
X0140232Y0046320D01*
X0140232Y0046847D01*
X0140757Y0046847D01*
X0140957Y0046647D01*
X0142710Y0046647D01*
X0146987Y0042370D01*
X0146987Y0012358D01*
X0146159Y0011529D01*
X0134816Y0011529D01*
X0135987Y0012701D01*
X0135987Y0034938D01*
X0135987Y0034815D02*
X0146987Y0034815D01*
X0146987Y0034217D02*
X0135987Y0034217D01*
X0135987Y0033618D02*
X0146987Y0033618D01*
X0146987Y0033020D02*
X0135987Y0033020D01*
X0135987Y0032421D02*
X0146987Y0032421D01*
X0146987Y0031823D02*
X0135987Y0031823D01*
X0135987Y0031224D02*
X0146987Y0031224D01*
X0146987Y0030626D02*
X0135987Y0030626D01*
X0135987Y0030027D02*
X0146987Y0030027D01*
X0146987Y0029429D02*
X0135987Y0029429D01*
X0135987Y0028830D02*
X0146987Y0028830D01*
X0146987Y0028232D02*
X0135987Y0028232D01*
X0135987Y0027633D02*
X0146987Y0027633D01*
X0146987Y0027035D02*
X0135987Y0027035D01*
X0135987Y0026436D02*
X0146987Y0026436D01*
X0146987Y0025838D02*
X0135987Y0025838D01*
X0135987Y0025239D02*
X0146987Y0025239D01*
X0146987Y0024641D02*
X0135987Y0024641D01*
X0135987Y0024042D02*
X0146987Y0024042D01*
X0146987Y0023444D02*
X0135987Y0023444D01*
X0135987Y0022845D02*
X0146987Y0022845D01*
X0146987Y0022247D02*
X0135987Y0022247D01*
X0135987Y0021648D02*
X0146987Y0021648D01*
X0146987Y0021050D02*
X0135987Y0021050D01*
X0135987Y0020451D02*
X0146987Y0020451D01*
X0146987Y0019853D02*
X0135987Y0019853D01*
X0135987Y0019254D02*
X0146987Y0019254D01*
X0146987Y0018656D02*
X0135987Y0018656D01*
X0135987Y0018057D02*
X0146987Y0018057D01*
X0146987Y0017459D02*
X0135987Y0017459D01*
X0135987Y0016860D02*
X0146987Y0016860D01*
X0146987Y0016262D02*
X0135987Y0016262D01*
X0135987Y0015663D02*
X0146987Y0015663D01*
X0146987Y0015065D02*
X0135987Y0015065D01*
X0135987Y0014466D02*
X0146987Y0014466D01*
X0146987Y0013868D02*
X0135987Y0013868D01*
X0135987Y0013269D02*
X0146987Y0013269D01*
X0146987Y0012671D02*
X0135957Y0012671D01*
X0135359Y0012072D02*
X0146702Y0012072D01*
X0149366Y0009079D02*
X0171298Y0009079D01*
X0171298Y0009678D02*
X0149965Y0009678D01*
X0150563Y0010277D02*
X0171387Y0010277D01*
X0171634Y0010875D02*
X0156607Y0010875D01*
X0155368Y0010875D02*
X0150987Y0010875D01*
X0150987Y0011474D02*
X0154240Y0011474D01*
X0153680Y0012072D02*
X0150987Y0012072D01*
X0150987Y0012671D02*
X0153433Y0012671D01*
X0153298Y0013269D02*
X0150987Y0013269D01*
X0150987Y0013868D02*
X0153298Y0013868D01*
X0153465Y0014466D02*
X0150987Y0014466D01*
X0150987Y0015065D02*
X0153720Y0015065D01*
X0153987Y0015663D02*
X0150987Y0015663D01*
X0150987Y0016262D02*
X0153987Y0016262D01*
X0153987Y0016860D02*
X0150987Y0016860D01*
X0150987Y0017459D02*
X0153987Y0017459D01*
X0153987Y0018057D02*
X0150987Y0018057D01*
X0150987Y0018656D02*
X0153987Y0018656D01*
X0153987Y0019254D02*
X0150987Y0019254D01*
X0150987Y0019853D02*
X0153987Y0019853D01*
X0153987Y0020451D02*
X0150987Y0020451D01*
X0150987Y0021050D02*
X0153987Y0021050D01*
X0153987Y0021648D02*
X0150987Y0021648D01*
X0150987Y0022247D02*
X0153987Y0022247D01*
X0153987Y0022845D02*
X0150987Y0022845D01*
X0150987Y0023444D02*
X0153987Y0023444D01*
X0153987Y0024042D02*
X0150987Y0024042D01*
X0150987Y0024641D02*
X0153987Y0024641D01*
X0153987Y0025239D02*
X0150987Y0025239D01*
X0150987Y0025838D02*
X0153987Y0025838D01*
X0153987Y0026436D02*
X0150987Y0026436D01*
X0150987Y0027035D02*
X0153987Y0027035D01*
X0153987Y0027633D02*
X0150987Y0027633D01*
X0150987Y0028232D02*
X0153987Y0028232D01*
X0153987Y0028830D02*
X0150987Y0028830D01*
X0150987Y0029429D02*
X0153987Y0029429D01*
X0153987Y0030027D02*
X0150987Y0030027D01*
X0150987Y0030626D02*
X0153987Y0030626D01*
X0153987Y0031224D02*
X0150987Y0031224D01*
X0150987Y0031823D02*
X0153987Y0031823D01*
X0153987Y0032421D02*
X0150987Y0032421D01*
X0150987Y0033020D02*
X0153987Y0033020D01*
X0153987Y0033618D02*
X0150987Y0033618D01*
X0150987Y0034217D02*
X0153987Y0034217D01*
X0153987Y0034815D02*
X0150987Y0034815D01*
X0150987Y0035414D02*
X0153987Y0035414D01*
X0153987Y0036013D02*
X0150987Y0036013D01*
X0150987Y0036611D02*
X0153987Y0036611D01*
X0153987Y0037210D02*
X0150987Y0037210D01*
X0150987Y0037808D02*
X0153987Y0037808D01*
X0153987Y0038407D02*
X0150987Y0038407D01*
X0150987Y0039005D02*
X0153987Y0039005D01*
X0153987Y0039604D02*
X0150987Y0039604D01*
X0150987Y0040202D02*
X0153987Y0040202D01*
X0153987Y0040801D02*
X0150987Y0040801D01*
X0150987Y0041399D02*
X0153987Y0041399D01*
X0153987Y0041998D02*
X0150987Y0041998D01*
X0150987Y0042596D02*
X0153987Y0042596D01*
X0153987Y0043195D02*
X0150987Y0043195D01*
X0150987Y0043793D02*
X0153987Y0043793D01*
X0153987Y0044392D02*
X0150623Y0044392D01*
X0150024Y0044990D02*
X0153987Y0044990D01*
X0153987Y0045589D02*
X0149426Y0045589D01*
X0148827Y0046187D02*
X0154408Y0046187D01*
X0155006Y0046786D02*
X0148229Y0046786D01*
X0147630Y0047384D02*
X0155605Y0047384D01*
X0156203Y0047983D02*
X0147032Y0047983D01*
X0146433Y0048581D02*
X0156802Y0048581D01*
X0157400Y0049180D02*
X0145835Y0049180D01*
X0145236Y0049778D02*
X0157999Y0049778D01*
X0158597Y0050377D02*
X0144638Y0050377D01*
X0144259Y0050975D02*
X0158944Y0050975D01*
X0158944Y0051574D02*
X0144259Y0051574D01*
X0145670Y0052172D02*
X0157515Y0052172D01*
X0157274Y0052771D02*
X0145922Y0052771D01*
X0145929Y0053369D02*
X0157274Y0053369D01*
X0157274Y0053968D02*
X0145929Y0053968D01*
X0145864Y0054566D02*
X0157348Y0054566D01*
X0157784Y0055165D02*
X0145454Y0055165D01*
X0144259Y0055763D02*
X0158944Y0055763D01*
X0158944Y0056362D02*
X0144259Y0056362D01*
X0144853Y0056960D02*
X0158944Y0056960D01*
X0158944Y0057559D02*
X0145452Y0057559D01*
X0146050Y0058157D02*
X0158944Y0058157D01*
X0158944Y0058756D02*
X0146169Y0058756D01*
X0146169Y0059354D02*
X0154359Y0059354D01*
X0153761Y0059953D02*
X0146169Y0059953D01*
X0146169Y0060551D02*
X0153482Y0060551D01*
X0153298Y0061150D02*
X0146169Y0061150D01*
X0146169Y0061748D02*
X0153298Y0061748D01*
X0153416Y0062347D02*
X0146169Y0062347D01*
X0146169Y0062946D02*
X0153664Y0062946D01*
X0154200Y0063544D02*
X0146169Y0063544D01*
X0146169Y0064143D02*
X0155270Y0064143D01*
X0156705Y0064143D02*
X0162972Y0064143D01*
X0162972Y0064741D02*
X0146169Y0064741D01*
X0146353Y0065340D02*
X0162972Y0065340D01*
X0162972Y0065938D02*
X0146601Y0065938D01*
X0146676Y0066537D02*
X0162972Y0066537D01*
X0162972Y0067135D02*
X0146676Y0067135D01*
X0146451Y0067734D02*
X0162972Y0067734D01*
X0162972Y0068332D02*
X0146113Y0068332D01*
X0145515Y0068931D02*
X0162972Y0068931D01*
X0162272Y0069529D02*
X0154503Y0069529D01*
X0155948Y0070128D02*
X0160827Y0070128D01*
X0160069Y0070726D02*
X0156706Y0070726D01*
X0157304Y0071325D02*
X0159471Y0071325D01*
X0159034Y0071923D02*
X0157741Y0071923D01*
X0157989Y0072522D02*
X0158786Y0072522D01*
X0158538Y0073120D02*
X0158237Y0073120D01*
X0158387Y0073719D02*
X0158387Y0073719D01*
X0158387Y0074317D02*
X0158387Y0074317D01*
X0158387Y0074916D02*
X0158387Y0074916D01*
X0158371Y0075514D02*
X0158404Y0075514D01*
X0158652Y0076113D02*
X0158123Y0076113D01*
X0157875Y0076711D02*
X0158900Y0076711D01*
X0159148Y0077310D02*
X0157627Y0077310D01*
X0157029Y0077908D02*
X0159746Y0077908D01*
X0160344Y0078507D02*
X0156431Y0078507D01*
X0155284Y0079105D02*
X0161490Y0079105D01*
X0165284Y0079105D02*
X0171490Y0079105D01*
X0170344Y0078507D02*
X0166431Y0078507D01*
X0167029Y0077908D02*
X0169746Y0077908D01*
X0169148Y0077310D02*
X0167627Y0077310D01*
X0167875Y0076711D02*
X0168900Y0076711D01*
X0168652Y0076113D02*
X0168123Y0076113D01*
X0168371Y0075514D02*
X0168404Y0075514D01*
X0168387Y0074916D02*
X0168387Y0074916D01*
X0168387Y0074317D02*
X0168387Y0074317D01*
X0168387Y0073719D02*
X0168387Y0073719D01*
X0168237Y0073120D02*
X0168538Y0073120D01*
X0168786Y0072522D02*
X0167989Y0072522D01*
X0167741Y0071923D02*
X0169034Y0071923D01*
X0169471Y0071325D02*
X0167304Y0071325D01*
X0166972Y0070726D02*
X0170069Y0070726D01*
X0170827Y0070128D02*
X0166972Y0070128D01*
X0166972Y0069529D02*
X0171387Y0069529D01*
X0171387Y0068931D02*
X0166972Y0068931D01*
X0166972Y0068332D02*
X0171387Y0068332D01*
X0171387Y0067734D02*
X0166972Y0067734D01*
X0166972Y0067135D02*
X0171387Y0067135D01*
X0171387Y0066537D02*
X0166972Y0066537D01*
X0166972Y0065938D02*
X0171387Y0065938D01*
X0171387Y0065340D02*
X0166972Y0065340D01*
X0166972Y0064741D02*
X0171387Y0064741D01*
X0171182Y0064143D02*
X0166972Y0064143D01*
X0166972Y0063544D02*
X0170583Y0063544D01*
X0169985Y0062946D02*
X0166972Y0062946D01*
X0166972Y0062347D02*
X0169386Y0062347D01*
X0168788Y0061748D02*
X0166972Y0061748D01*
X0166972Y0061150D02*
X0168189Y0061150D01*
X0167591Y0060551D02*
X0166972Y0060551D01*
X0162972Y0062347D02*
X0162605Y0062347D01*
X0162972Y0062946D02*
X0162006Y0062946D01*
X0162972Y0063544D02*
X0157775Y0063544D01*
X0157616Y0059354D02*
X0158944Y0059354D01*
X0160444Y0053529D02*
X0163614Y0053529D01*
X0160444Y0053529D01*
X0160444Y0053529D01*
X0163614Y0053529D02*
X0163614Y0053702D01*
X0164361Y0053702D01*
X0164361Y0053529D01*
X0167531Y0053529D01*
X0167531Y0053529D01*
X0164361Y0053529D01*
X0164361Y0053210D01*
X0164215Y0053356D01*
X0163614Y0053356D01*
X0163614Y0053529D01*
X0163614Y0053369D02*
X0164361Y0053369D01*
X0169031Y0051574D02*
X0199934Y0051574D01*
X0199934Y0052172D02*
X0170460Y0052172D01*
X0170701Y0052771D02*
X0199934Y0052771D01*
X0199934Y0053369D02*
X0170701Y0053369D01*
X0170701Y0053968D02*
X0199934Y0053968D01*
X0199934Y0054566D02*
X0170627Y0054566D01*
X0170191Y0055165D02*
X0199934Y0055165D01*
X0199934Y0055763D02*
X0169031Y0055763D01*
X0169058Y0056362D02*
X0199934Y0056362D01*
X0199934Y0056960D02*
X0169657Y0056960D01*
X0170255Y0057559D02*
X0199934Y0057559D01*
X0199934Y0058157D02*
X0170854Y0058157D01*
X0171452Y0058756D02*
X0199934Y0058756D01*
X0199934Y0059354D02*
X0172051Y0059354D01*
X0172649Y0059953D02*
X0199934Y0059953D01*
X0199934Y0060551D02*
X0173248Y0060551D01*
X0173846Y0061150D02*
X0199934Y0061150D01*
X0199934Y0061748D02*
X0174445Y0061748D01*
X0175043Y0062347D02*
X0199934Y0062347D01*
X0199934Y0062946D02*
X0175387Y0062946D01*
X0175387Y0063544D02*
X0199934Y0063544D01*
X0199934Y0064143D02*
X0175387Y0064143D01*
X0175387Y0064741D02*
X0199934Y0064741D01*
X0199934Y0065340D02*
X0175387Y0065340D01*
X0175387Y0065938D02*
X0199934Y0065938D01*
X0199934Y0066537D02*
X0175387Y0066537D01*
X0175387Y0067135D02*
X0199934Y0067135D01*
X0199934Y0067734D02*
X0175387Y0067734D01*
X0175387Y0068332D02*
X0199934Y0068332D01*
X0199934Y0068931D02*
X0175387Y0068931D01*
X0175387Y0069529D02*
X0182272Y0069529D01*
X0182393Y0069479D02*
X0184382Y0069479D01*
X0186220Y0070240D01*
X0187626Y0071647D01*
X0188387Y0073485D01*
X0188387Y0075474D01*
X0187626Y0077311D01*
X0186220Y0078718D01*
X0184382Y0079479D01*
X0182393Y0079479D01*
X0180555Y0078718D01*
X0179149Y0077311D01*
X0178387Y0075474D01*
X0178387Y0073485D01*
X0179149Y0071647D01*
X0180555Y0070240D01*
X0182393Y0069479D01*
X0180827Y0070128D02*
X0175948Y0070128D01*
X0176706Y0070726D02*
X0180069Y0070726D01*
X0179471Y0071325D02*
X0177304Y0071325D01*
X0177741Y0071923D02*
X0179034Y0071923D01*
X0178786Y0072522D02*
X0177989Y0072522D01*
X0178237Y0073120D02*
X0178538Y0073120D01*
X0178387Y0073719D02*
X0178387Y0073719D01*
X0178387Y0074317D02*
X0178387Y0074317D01*
X0178387Y0074916D02*
X0178387Y0074916D01*
X0178371Y0075514D02*
X0178404Y0075514D01*
X0178652Y0076113D02*
X0178123Y0076113D01*
X0177875Y0076711D02*
X0178900Y0076711D01*
X0179148Y0077310D02*
X0177627Y0077310D01*
X0177029Y0077908D02*
X0179746Y0077908D01*
X0180344Y0078507D02*
X0176431Y0078507D01*
X0175284Y0079105D02*
X0181490Y0079105D01*
X0185284Y0079105D02*
X0192092Y0079105D01*
X0192263Y0079161D02*
X0191545Y0078927D01*
X0190872Y0078584D01*
X0190260Y0078140D01*
X0189726Y0077606D01*
X0189282Y0076995D01*
X0188939Y0076322D01*
X0188706Y0075603D01*
X0188587Y0074857D01*
X0188587Y0074779D01*
X0193087Y0074779D01*
X0193087Y0074179D01*
X0188587Y0074179D01*
X0188587Y0074101D01*
X0188706Y0073355D01*
X0188939Y0072637D01*
X0189282Y0071963D01*
X0189726Y0071352D01*
X0190260Y0070818D01*
X0190872Y0070374D01*
X0191545Y0070031D01*
X0192263Y0069797D01*
X0193010Y0069679D01*
X0193087Y0069679D01*
X0193087Y0074179D01*
X0193687Y0074179D01*
X0193687Y0069679D01*
X0193765Y0069679D01*
X0194511Y0069797D01*
X0195230Y0070031D01*
X0195903Y0070374D01*
X0196514Y0070818D01*
X0197049Y0071352D01*
X0197493Y0071963D01*
X0197836Y0072637D01*
X0198069Y0073355D01*
X0198187Y0074101D01*
X0198187Y0074179D01*
X0193688Y0074179D01*
X0193688Y0074779D01*
X0198187Y0074779D01*
X0198187Y0074857D01*
X0198069Y0075603D01*
X0197836Y0076322D01*
X0197493Y0076995D01*
X0197049Y0077606D01*
X0196514Y0078140D01*
X0195903Y0078584D01*
X0195230Y0078927D01*
X0194511Y0079161D01*
X0193765Y0079279D01*
X0193687Y0079279D01*
X0193687Y0074779D01*
X0193087Y0074779D01*
X0193087Y0079279D01*
X0193010Y0079279D01*
X0192263Y0079161D01*
X0193087Y0079105D02*
X0193687Y0079105D01*
X0193687Y0078507D02*
X0193087Y0078507D01*
X0193087Y0077908D02*
X0193687Y0077908D01*
X0193687Y0077310D02*
X0193087Y0077310D01*
X0193087Y0076711D02*
X0193687Y0076711D01*
X0193687Y0076113D02*
X0193087Y0076113D01*
X0193087Y0075514D02*
X0193687Y0075514D01*
X0193687Y0074916D02*
X0193087Y0074916D01*
X0193087Y0074317D02*
X0188387Y0074317D01*
X0188387Y0073719D02*
X0188648Y0073719D01*
X0188782Y0073120D02*
X0188237Y0073120D01*
X0187989Y0072522D02*
X0188998Y0072522D01*
X0189311Y0071923D02*
X0187741Y0071923D01*
X0187304Y0071325D02*
X0189754Y0071325D01*
X0190387Y0070726D02*
X0186706Y0070726D01*
X0185948Y0070128D02*
X0191355Y0070128D01*
X0193087Y0070128D02*
X0193687Y0070128D01*
X0193687Y0070726D02*
X0193087Y0070726D01*
X0193087Y0071325D02*
X0193687Y0071325D01*
X0193687Y0071923D02*
X0193087Y0071923D01*
X0193087Y0072522D02*
X0193687Y0072522D01*
X0193687Y0073120D02*
X0193087Y0073120D01*
X0193087Y0073719D02*
X0193687Y0073719D01*
X0193688Y0074317D02*
X0199934Y0074317D01*
X0199934Y0073719D02*
X0198127Y0073719D01*
X0197993Y0073120D02*
X0199934Y0073120D01*
X0199934Y0072522D02*
X0197777Y0072522D01*
X0197464Y0071923D02*
X0199934Y0071923D01*
X0199934Y0071325D02*
X0197021Y0071325D01*
X0196388Y0070726D02*
X0199934Y0070726D01*
X0199934Y0070128D02*
X0195420Y0070128D01*
X0199934Y0069529D02*
X0184503Y0069529D01*
X0188387Y0074916D02*
X0188597Y0074916D01*
X0188692Y0075514D02*
X0188371Y0075514D01*
X0188123Y0076113D02*
X0188871Y0076113D01*
X0189138Y0076711D02*
X0187875Y0076711D01*
X0187627Y0077310D02*
X0189511Y0077310D01*
X0190028Y0077908D02*
X0187029Y0077908D01*
X0186431Y0078507D02*
X0190765Y0078507D01*
X0194683Y0079105D02*
X0199934Y0079105D01*
X0199934Y0078507D02*
X0196010Y0078507D01*
X0196747Y0077908D02*
X0199934Y0077908D01*
X0199934Y0077310D02*
X0197264Y0077310D01*
X0197637Y0076711D02*
X0199934Y0076711D01*
X0199934Y0076113D02*
X0197904Y0076113D01*
X0198083Y0075514D02*
X0199934Y0075514D01*
X0199934Y0074916D02*
X0198178Y0074916D01*
X0199934Y0086886D02*
X0168291Y0086886D01*
X0168958Y0087484D02*
X0199934Y0087484D01*
X0199934Y0088083D02*
X0169327Y0088083D01*
X0169574Y0088681D02*
X0199934Y0088681D01*
X0199934Y0089280D02*
X0169574Y0089280D01*
X0169520Y0089879D02*
X0199934Y0089879D01*
X0199934Y0090477D02*
X0175330Y0090477D01*
X0174188Y0090477D02*
X0169273Y0090477D01*
X0169082Y0091076D02*
X0173032Y0091076D01*
X0172460Y0091674D02*
X0169082Y0091674D01*
X0169082Y0092273D02*
X0172213Y0092273D01*
X0172070Y0092871D02*
X0169082Y0092871D01*
X0169082Y0093470D02*
X0172070Y0093470D01*
X0172228Y0094068D02*
X0169082Y0094068D01*
X0169082Y0094667D02*
X0172476Y0094667D01*
X0172562Y0095265D02*
X0169082Y0095265D01*
X0169082Y0095864D02*
X0172562Y0095864D01*
X0171113Y0096462D02*
X0170532Y0096462D01*
X0170532Y0097061D02*
X0171113Y0097061D01*
X0171113Y0097659D02*
X0170532Y0097659D01*
X0170532Y0098258D02*
X0171113Y0098258D01*
X0171113Y0098856D02*
X0170532Y0098856D01*
X0170532Y0099455D02*
X0171113Y0099455D01*
X0171113Y0100652D02*
X0170532Y0100652D01*
X0170532Y0101250D02*
X0171113Y0101250D01*
X0171113Y0101849D02*
X0170532Y0101849D01*
X0170532Y0102447D02*
X0171113Y0102447D01*
X0171113Y0103046D02*
X0170532Y0103046D01*
X0170532Y0103644D02*
X0171113Y0103644D01*
X0176722Y0103644D02*
X0199934Y0103644D01*
X0199934Y0103046D02*
X0177243Y0103046D01*
X0177243Y0102447D02*
X0199934Y0102447D01*
X0199934Y0101849D02*
X0177243Y0101849D01*
X0177243Y0101250D02*
X0199934Y0101250D01*
X0199934Y0100652D02*
X0177243Y0100652D01*
X0177243Y0100053D02*
X0199934Y0100053D01*
X0199934Y0099455D02*
X0177243Y0099455D01*
X0177243Y0098856D02*
X0199934Y0098856D01*
X0199934Y0098258D02*
X0177243Y0098258D01*
X0177243Y0097659D02*
X0199934Y0097659D01*
X0199934Y0097061D02*
X0177243Y0097061D01*
X0176747Y0096462D02*
X0199934Y0096462D01*
X0199934Y0095864D02*
X0176562Y0095864D01*
X0176562Y0095265D02*
X0199934Y0095265D01*
X0199934Y0094667D02*
X0177042Y0094667D01*
X0177290Y0094068D02*
X0199934Y0094068D01*
X0199934Y0093470D02*
X0177448Y0093470D01*
X0177448Y0092871D02*
X0199934Y0092871D01*
X0199934Y0092273D02*
X0177306Y0092273D01*
X0177058Y0091674D02*
X0199934Y0091674D01*
X0199934Y0091076D02*
X0176486Y0091076D01*
X0160987Y0104243D02*
X0199934Y0104243D01*
X0199934Y0104841D02*
X0160987Y0104841D01*
X0160987Y0106637D02*
X0164566Y0106637D01*
X0164401Y0107235D02*
X0160987Y0107235D01*
X0160987Y0107834D02*
X0164401Y0107834D01*
X0161801Y0108432D02*
X0160987Y0108432D01*
X0156987Y0106637D02*
X0156614Y0106637D01*
X0156987Y0104841D02*
X0138338Y0104841D01*
X0138937Y0104243D02*
X0156987Y0104243D01*
X0147491Y0103644D02*
X0146909Y0103644D01*
X0146909Y0103046D02*
X0147491Y0103046D01*
X0147491Y0102447D02*
X0146909Y0102447D01*
X0146909Y0101849D02*
X0147491Y0101849D01*
X0147491Y0101250D02*
X0146909Y0101250D01*
X0146909Y0100652D02*
X0147491Y0100652D01*
X0147491Y0099455D02*
X0146909Y0099455D01*
X0146909Y0098856D02*
X0147491Y0098856D01*
X0147491Y0098258D02*
X0146909Y0098258D01*
X0146909Y0097659D02*
X0147491Y0097659D01*
X0147491Y0097061D02*
X0146909Y0097061D01*
X0146909Y0096462D02*
X0147491Y0096462D01*
X0148940Y0095864D02*
X0125676Y0095864D01*
X0125676Y0095265D02*
X0148940Y0095265D01*
X0148940Y0094667D02*
X0125541Y0094667D01*
X0125293Y0094068D02*
X0148940Y0094068D01*
X0148940Y0093470D02*
X0124913Y0093470D01*
X0125387Y0092871D02*
X0148940Y0092871D01*
X0148940Y0092273D02*
X0125387Y0092273D01*
X0125387Y0091674D02*
X0148800Y0091674D01*
X0148202Y0091076D02*
X0125387Y0091076D01*
X0125387Y0090477D02*
X0147603Y0090477D01*
X0146530Y0089879D02*
X0125387Y0089879D01*
X0125387Y0089280D02*
X0145432Y0089280D01*
X0144884Y0088681D02*
X0125387Y0088681D01*
X0125387Y0088083D02*
X0144636Y0088083D01*
X0144511Y0087484D02*
X0125387Y0087484D01*
X0125387Y0086886D02*
X0144511Y0086886D01*
X0144686Y0086287D02*
X0125387Y0086287D01*
X0125387Y0085689D02*
X0144954Y0085689D01*
X0145284Y0079105D02*
X0151490Y0079105D01*
X0150344Y0078507D02*
X0146431Y0078507D01*
X0147029Y0077908D02*
X0149746Y0077908D01*
X0149148Y0077310D02*
X0147627Y0077310D01*
X0147875Y0076711D02*
X0148900Y0076711D01*
X0148652Y0076113D02*
X0148123Y0076113D01*
X0148371Y0075514D02*
X0148404Y0075514D01*
X0148387Y0074916D02*
X0148387Y0074916D01*
X0148387Y0074317D02*
X0148387Y0074317D01*
X0148387Y0073719D02*
X0148387Y0073719D01*
X0148237Y0073120D02*
X0148538Y0073120D01*
X0148786Y0072522D02*
X0147989Y0072522D01*
X0147741Y0071923D02*
X0149034Y0071923D01*
X0149471Y0071325D02*
X0147304Y0071325D01*
X0146706Y0070726D02*
X0150069Y0070726D01*
X0150827Y0070128D02*
X0145948Y0070128D01*
X0144503Y0069529D02*
X0152272Y0069529D01*
X0142460Y0068931D02*
X0141764Y0068931D01*
X0142272Y0069529D02*
X0141166Y0069529D01*
X0140827Y0070128D02*
X0140567Y0070128D01*
X0140069Y0070726D02*
X0139969Y0070726D01*
X0139471Y0071325D02*
X0139370Y0071325D01*
X0139034Y0071923D02*
X0138772Y0071923D01*
X0138786Y0072522D02*
X0138173Y0072522D01*
X0138237Y0073120D02*
X0138538Y0073120D01*
X0138387Y0073719D02*
X0138387Y0073719D01*
X0138387Y0074317D02*
X0138387Y0074317D01*
X0138387Y0074916D02*
X0138387Y0074916D01*
X0138371Y0075514D02*
X0138404Y0075514D01*
X0138652Y0076113D02*
X0138123Y0076113D01*
X0137875Y0076711D02*
X0138900Y0076711D01*
X0139148Y0077310D02*
X0137627Y0077310D01*
X0137029Y0077908D02*
X0139746Y0077908D01*
X0140344Y0078507D02*
X0136431Y0078507D01*
X0135284Y0079105D02*
X0141490Y0079105D01*
X0131490Y0079105D02*
X0125387Y0079105D01*
X0126431Y0078507D02*
X0130344Y0078507D01*
X0129746Y0077908D02*
X0127029Y0077908D01*
X0127627Y0077310D02*
X0129148Y0077310D01*
X0128900Y0076711D02*
X0127875Y0076711D01*
X0128123Y0076113D02*
X0128652Y0076113D01*
X0128404Y0075514D02*
X0128371Y0075514D01*
X0128387Y0074916D02*
X0128387Y0074916D01*
X0128387Y0074317D02*
X0128387Y0074317D01*
X0128387Y0073719D02*
X0128387Y0073719D01*
X0128237Y0073120D02*
X0128538Y0073120D01*
X0128786Y0072522D02*
X0127989Y0072522D01*
X0127741Y0071923D02*
X0129034Y0071923D01*
X0129471Y0071325D02*
X0127304Y0071325D01*
X0126706Y0070726D02*
X0130069Y0070726D01*
X0130827Y0070128D02*
X0125948Y0070128D01*
X0124503Y0069529D02*
X0132272Y0069529D01*
X0134503Y0069529D02*
X0135509Y0069529D01*
X0136108Y0068931D02*
X0121764Y0068931D01*
X0122272Y0069529D02*
X0121166Y0069529D01*
X0120827Y0070128D02*
X0120567Y0070128D01*
X0120069Y0070726D02*
X0119969Y0070726D01*
X0119471Y0071325D02*
X0119370Y0071325D01*
X0119034Y0071923D02*
X0118772Y0071923D01*
X0118786Y0072522D02*
X0118173Y0072522D01*
X0118237Y0073120D02*
X0118538Y0073120D01*
X0118387Y0073719D02*
X0118387Y0073719D01*
X0118387Y0074317D02*
X0118387Y0074317D01*
X0118387Y0074916D02*
X0118387Y0074916D01*
X0118371Y0075514D02*
X0118404Y0075514D01*
X0115279Y0079704D02*
X0098019Y0079704D01*
X0098019Y0080302D02*
X0115279Y0080302D01*
X0115279Y0080901D02*
X0098019Y0080901D01*
X0098019Y0079105D02*
X0101490Y0079105D01*
X0100344Y0078507D02*
X0098019Y0078507D01*
X0098019Y0077908D02*
X0099746Y0077908D01*
X0099148Y0077310D02*
X0098019Y0077310D01*
X0098019Y0076711D02*
X0098900Y0076711D01*
X0098652Y0076113D02*
X0098019Y0076113D01*
X0098019Y0075514D02*
X0098404Y0075514D01*
X0098387Y0074916D02*
X0098019Y0074916D01*
X0098019Y0074317D02*
X0098387Y0074317D01*
X0098387Y0073719D02*
X0098019Y0073719D01*
X0098019Y0073120D02*
X0098538Y0073120D01*
X0098786Y0072522D02*
X0098019Y0072522D01*
X0098019Y0071923D02*
X0099034Y0071923D01*
X0099471Y0071325D02*
X0098019Y0071325D01*
X0098019Y0070726D02*
X0100069Y0070726D01*
X0100827Y0070128D02*
X0098019Y0070128D01*
X0098019Y0069529D02*
X0102272Y0069529D01*
X0102877Y0068931D02*
X0098019Y0068931D01*
X0098019Y0068332D02*
X0102877Y0068332D01*
X0100263Y0067734D02*
X0098019Y0067734D01*
X0098019Y0067135D02*
X0099665Y0067135D01*
X0099405Y0066537D02*
X0098019Y0066537D01*
X0098019Y0065938D02*
X0099236Y0065938D01*
X0099236Y0065340D02*
X0098019Y0065340D01*
X0098019Y0064741D02*
X0099366Y0064741D01*
X0099614Y0064143D02*
X0098019Y0064143D01*
X0098019Y0063544D02*
X0100170Y0063544D01*
X0100909Y0062946D02*
X0098019Y0062946D01*
X0098019Y0062347D02*
X0100909Y0062347D01*
X0100909Y0061748D02*
X0098019Y0061748D01*
X0098323Y0061150D02*
X0100909Y0061150D01*
X0099585Y0060551D02*
X0098571Y0060551D01*
X0098708Y0059953D02*
X0098987Y0059953D01*
X0098850Y0059354D02*
X0098708Y0059354D01*
X0098850Y0058756D02*
X0098544Y0058756D01*
X0098293Y0058157D02*
X0098850Y0058157D01*
X0098850Y0057559D02*
X0097694Y0057559D01*
X0098850Y0056960D02*
X0094082Y0056960D01*
X0094082Y0056362D02*
X0098850Y0056362D01*
X0098850Y0055763D02*
X0094082Y0055763D01*
X0094082Y0055165D02*
X0097436Y0055165D01*
X0097186Y0054566D02*
X0094082Y0054566D01*
X0094082Y0053968D02*
X0097180Y0053968D01*
X0097180Y0053369D02*
X0094082Y0053369D01*
X0094082Y0052771D02*
X0097246Y0052771D01*
X0097659Y0052172D02*
X0094082Y0052172D01*
X0094155Y0051574D02*
X0098850Y0051574D01*
X0098849Y0050975D02*
X0094524Y0050975D01*
X0094771Y0050377D02*
X0098251Y0050377D01*
X0097652Y0049778D02*
X0094771Y0049778D01*
X0094717Y0049180D02*
X0097054Y0049180D01*
X0096455Y0048581D02*
X0094469Y0048581D01*
X0094023Y0047983D02*
X0095857Y0047983D01*
X0095258Y0047384D02*
X0093170Y0047384D01*
X0095003Y0046786D02*
X0087353Y0046786D01*
X0087423Y0046855D02*
X0086153Y0045586D01*
X0084495Y0044899D01*
X0082700Y0044899D01*
X0081042Y0045586D01*
X0079773Y0046855D01*
X0079086Y0048514D01*
X0079086Y0050308D01*
X0079773Y0051967D01*
X0081042Y0053236D01*
X0082700Y0053923D01*
X0084495Y0053923D01*
X0086153Y0053236D01*
X0087423Y0051967D01*
X0088110Y0050308D01*
X0088110Y0048514D01*
X0087423Y0046855D01*
X0087642Y0047384D02*
X0090994Y0047384D01*
X0090141Y0047983D02*
X0087890Y0047983D01*
X0088110Y0048581D02*
X0089695Y0048581D01*
X0089447Y0049180D02*
X0088110Y0049180D01*
X0088110Y0049778D02*
X0089393Y0049778D01*
X0089393Y0050377D02*
X0088081Y0050377D01*
X0087833Y0050975D02*
X0089640Y0050975D01*
X0090009Y0051574D02*
X0087585Y0051574D01*
X0087217Y0052172D02*
X0090082Y0052172D01*
X0090082Y0052771D02*
X0086619Y0052771D01*
X0085831Y0053369D02*
X0090082Y0053369D01*
X0090082Y0053968D02*
X0080983Y0053968D01*
X0081364Y0053369D02*
X0080384Y0053369D01*
X0080577Y0052771D02*
X0079786Y0052771D01*
X0079978Y0052172D02*
X0077217Y0052172D01*
X0077585Y0051574D02*
X0079610Y0051574D01*
X0079362Y0050975D02*
X0077833Y0050975D01*
X0078081Y0050377D02*
X0079114Y0050377D01*
X0079086Y0049778D02*
X0078110Y0049778D01*
X0078110Y0049180D02*
X0079086Y0049180D01*
X0079086Y0048581D02*
X0078110Y0048581D01*
X0077890Y0047983D02*
X0079306Y0047983D01*
X0079554Y0047384D02*
X0077642Y0047384D01*
X0077353Y0046786D02*
X0079842Y0046786D01*
X0080441Y0046187D02*
X0076755Y0046187D01*
X0076156Y0045589D02*
X0081039Y0045589D01*
X0082481Y0044990D02*
X0074715Y0044990D01*
X0074495Y0043923D02*
X0072700Y0043923D01*
X0071042Y0043236D01*
X0069773Y0041967D01*
X0069086Y0040308D01*
X0069086Y0038514D01*
X0069773Y0036855D01*
X0071042Y0035586D01*
X0072700Y0034899D01*
X0074495Y0034899D01*
X0076153Y0035586D01*
X0077423Y0036855D01*
X0078110Y0038514D01*
X0078110Y0040308D01*
X0077423Y0041967D01*
X0076153Y0043236D01*
X0074495Y0043923D01*
X0074808Y0043793D02*
X0082387Y0043793D01*
X0082700Y0043923D02*
X0081042Y0043236D01*
X0079773Y0041967D01*
X0079086Y0040308D01*
X0079086Y0038514D01*
X0079773Y0036855D01*
X0081042Y0035586D01*
X0082700Y0034899D01*
X0084495Y0034899D01*
X0086153Y0035586D01*
X0087423Y0036855D01*
X0088110Y0038514D01*
X0088110Y0040308D01*
X0087423Y0041967D01*
X0086153Y0043236D01*
X0084495Y0043923D01*
X0082700Y0043923D01*
X0081001Y0043195D02*
X0076195Y0043195D01*
X0076793Y0042596D02*
X0080402Y0042596D01*
X0079804Y0041998D02*
X0077392Y0041998D01*
X0077658Y0041399D02*
X0079538Y0041399D01*
X0079290Y0040801D02*
X0077906Y0040801D01*
X0078110Y0040202D02*
X0079086Y0040202D01*
X0079086Y0039604D02*
X0078110Y0039604D01*
X0078110Y0039005D02*
X0079086Y0039005D01*
X0079130Y0038407D02*
X0078065Y0038407D01*
X0077817Y0037808D02*
X0079378Y0037808D01*
X0079626Y0037210D02*
X0077569Y0037210D01*
X0077178Y0036611D02*
X0080017Y0036611D01*
X0080616Y0036013D02*
X0076580Y0036013D01*
X0075738Y0035414D02*
X0081457Y0035414D01*
X0081965Y0033618D02*
X0075230Y0033618D01*
X0076369Y0033020D02*
X0080826Y0033020D01*
X0080227Y0032421D02*
X0076968Y0032421D01*
X0077482Y0031823D02*
X0079713Y0031823D01*
X0079465Y0031224D02*
X0077730Y0031224D01*
X0077978Y0030626D02*
X0079217Y0030626D01*
X0079086Y0030027D02*
X0078110Y0030027D01*
X0078110Y0029429D02*
X0079086Y0029429D01*
X0079086Y0028830D02*
X0078110Y0028830D01*
X0077993Y0028232D02*
X0079203Y0028232D01*
X0079450Y0027633D02*
X0077745Y0027633D01*
X0077497Y0027035D02*
X0079698Y0027035D01*
X0080192Y0026436D02*
X0077004Y0026436D01*
X0076999Y0025838D02*
X0080790Y0025838D01*
X0081879Y0025239D02*
X0077598Y0025239D01*
X0078196Y0024641D02*
X0109767Y0024641D01*
X0109767Y0025239D02*
X0085316Y0025239D01*
X0086405Y0025838D02*
X0109767Y0025838D01*
X0109767Y0026436D02*
X0087004Y0026436D01*
X0087497Y0027035D02*
X0109767Y0027035D01*
X0109767Y0027633D02*
X0098054Y0027633D01*
X0098652Y0028232D02*
X0109767Y0028232D01*
X0109767Y0028830D02*
X0099003Y0028830D01*
X0099003Y0029429D02*
X0109767Y0029429D01*
X0109767Y0030027D02*
X0099003Y0030027D01*
X0099003Y0030626D02*
X0109767Y0030626D01*
X0109767Y0031224D02*
X0099003Y0031224D01*
X0099003Y0031823D02*
X0109767Y0031823D01*
X0109767Y0032421D02*
X0099003Y0032421D01*
X0101624Y0033020D02*
X0102224Y0033020D01*
X0102224Y0033618D02*
X0101624Y0033618D01*
X0101624Y0034217D02*
X0102224Y0034217D01*
X0102224Y0034815D02*
X0101624Y0034815D01*
X0102225Y0035414D02*
X0109767Y0035414D01*
X0109767Y0036013D02*
X0105173Y0036013D01*
X0105173Y0036611D02*
X0109767Y0036611D01*
X0109767Y0037210D02*
X0105113Y0037210D01*
X0104716Y0037808D02*
X0109767Y0037808D01*
X0109767Y0038407D02*
X0105148Y0038407D01*
X0108874Y0039005D02*
X0109767Y0039005D01*
X0109767Y0039604D02*
X0109473Y0039604D01*
X0109767Y0034815D02*
X0105173Y0034815D01*
X0105173Y0034217D02*
X0109767Y0034217D01*
X0109767Y0033618D02*
X0105173Y0033618D01*
X0104958Y0033020D02*
X0109767Y0033020D01*
X0113767Y0032421D02*
X0131987Y0032421D01*
X0131987Y0031823D02*
X0113767Y0031823D01*
X0113767Y0031224D02*
X0131987Y0031224D01*
X0131987Y0030626D02*
X0113767Y0030626D01*
X0113767Y0030027D02*
X0131987Y0030027D01*
X0131987Y0029429D02*
X0113767Y0029429D01*
X0113767Y0028830D02*
X0131987Y0028830D01*
X0131987Y0028232D02*
X0113767Y0028232D01*
X0113767Y0027633D02*
X0131987Y0027633D01*
X0131987Y0027035D02*
X0113767Y0027035D01*
X0113767Y0026436D02*
X0131987Y0026436D01*
X0131987Y0025838D02*
X0113767Y0025838D01*
X0113767Y0025239D02*
X0131987Y0025239D01*
X0131987Y0024641D02*
X0113767Y0024641D01*
X0113767Y0024042D02*
X0131987Y0024042D01*
X0131987Y0023444D02*
X0113767Y0023444D01*
X0113767Y0022845D02*
X0131987Y0022845D01*
X0131987Y0022247D02*
X0113767Y0022247D01*
X0113767Y0021648D02*
X0131987Y0021648D01*
X0131987Y0021050D02*
X0113767Y0021050D01*
X0113730Y0020451D02*
X0131987Y0020451D01*
X0131987Y0019853D02*
X0113132Y0019853D01*
X0109767Y0023444D02*
X0079393Y0023444D01*
X0078795Y0024042D02*
X0109767Y0024042D01*
X0095003Y0031823D02*
X0087482Y0031823D01*
X0086968Y0032421D02*
X0095003Y0032421D01*
X0095003Y0033020D02*
X0086369Y0033020D01*
X0085230Y0033618D02*
X0095003Y0033618D01*
X0095003Y0034217D02*
X0068987Y0034217D01*
X0068987Y0034815D02*
X0095003Y0034815D01*
X0095003Y0035414D02*
X0085738Y0035414D01*
X0086580Y0036013D02*
X0095003Y0036013D01*
X0095003Y0036611D02*
X0087178Y0036611D01*
X0087569Y0037210D02*
X0095003Y0037210D01*
X0095003Y0037808D02*
X0087817Y0037808D01*
X0088065Y0038407D02*
X0095003Y0038407D01*
X0095003Y0039005D02*
X0088110Y0039005D01*
X0088110Y0039604D02*
X0095003Y0039604D01*
X0095003Y0040202D02*
X0088110Y0040202D01*
X0087906Y0040801D02*
X0095003Y0040801D01*
X0095003Y0041399D02*
X0087658Y0041399D01*
X0087392Y0041998D02*
X0095003Y0041998D01*
X0095003Y0042596D02*
X0086793Y0042596D01*
X0086195Y0043195D02*
X0095003Y0043195D01*
X0095003Y0043793D02*
X0084808Y0043793D01*
X0084715Y0044990D02*
X0095003Y0044990D01*
X0095003Y0044392D02*
X0068987Y0044392D01*
X0068987Y0044990D02*
X0072481Y0044990D01*
X0072387Y0043793D02*
X0068987Y0043793D01*
X0068987Y0043195D02*
X0071001Y0043195D01*
X0070402Y0042596D02*
X0068987Y0042596D01*
X0068987Y0041998D02*
X0069804Y0041998D01*
X0069538Y0041399D02*
X0068987Y0041399D01*
X0068987Y0040801D02*
X0069290Y0040801D01*
X0069086Y0040202D02*
X0068987Y0040202D01*
X0068987Y0039604D02*
X0069086Y0039604D01*
X0069086Y0039005D02*
X0068987Y0039005D01*
X0068987Y0038407D02*
X0069130Y0038407D01*
X0068987Y0037808D02*
X0069378Y0037808D01*
X0069626Y0037210D02*
X0068987Y0037210D01*
X0068987Y0036611D02*
X0070017Y0036611D01*
X0070616Y0036013D02*
X0068987Y0036013D01*
X0068987Y0035414D02*
X0071457Y0035414D01*
X0071965Y0033618D02*
X0068987Y0033618D01*
X0068987Y0033020D02*
X0070826Y0033020D01*
X0070227Y0032421D02*
X0068987Y0032421D01*
X0068987Y0031823D02*
X0069713Y0031823D01*
X0069465Y0031224D02*
X0068987Y0031224D01*
X0068987Y0030626D02*
X0069217Y0030626D01*
X0069086Y0030027D02*
X0068987Y0030027D01*
X0068987Y0029429D02*
X0069086Y0029429D01*
X0069086Y0028830D02*
X0068987Y0028830D01*
X0068987Y0028232D02*
X0069203Y0028232D01*
X0068987Y0027633D02*
X0069450Y0027633D01*
X0069698Y0027035D02*
X0068987Y0027035D01*
X0068987Y0026436D02*
X0070192Y0026436D01*
X0070790Y0025838D02*
X0068987Y0025838D01*
X0068987Y0025239D02*
X0071879Y0025239D01*
X0072540Y0024641D02*
X0068987Y0024641D01*
X0068987Y0024042D02*
X0073138Y0024042D01*
X0073737Y0023444D02*
X0068987Y0023444D01*
X0068987Y0022845D02*
X0074335Y0022845D01*
X0074934Y0022247D02*
X0068987Y0022247D01*
X0068987Y0021648D02*
X0075532Y0021648D01*
X0076131Y0021050D02*
X0068987Y0021050D01*
X0068987Y0020451D02*
X0076729Y0020451D01*
X0077328Y0019853D02*
X0068987Y0019853D01*
X0068987Y0019254D02*
X0131987Y0019254D01*
X0131987Y0018656D02*
X0068987Y0018656D01*
X0068987Y0018057D02*
X0131987Y0018057D01*
X0131987Y0017459D02*
X0068987Y0017459D01*
X0068987Y0016860D02*
X0131987Y0016860D01*
X0131987Y0016262D02*
X0068987Y0016262D01*
X0068987Y0015663D02*
X0131987Y0015663D01*
X0131987Y0015065D02*
X0069280Y0015065D01*
X0068987Y0045589D02*
X0071039Y0045589D01*
X0070441Y0046187D02*
X0068987Y0046187D01*
X0068987Y0046786D02*
X0069842Y0046786D01*
X0069554Y0047384D02*
X0068987Y0047384D01*
X0068987Y0047983D02*
X0069306Y0047983D01*
X0069086Y0048581D02*
X0068987Y0048581D01*
X0068987Y0049180D02*
X0069086Y0049180D01*
X0069086Y0049778D02*
X0068987Y0049778D01*
X0068987Y0050377D02*
X0069114Y0050377D01*
X0068987Y0050975D02*
X0069362Y0050975D01*
X0069610Y0051574D02*
X0068987Y0051574D01*
X0068987Y0052172D02*
X0069978Y0052172D01*
X0077466Y0056960D02*
X0078319Y0056960D01*
X0078917Y0057559D02*
X0077714Y0057559D01*
X0077962Y0058157D02*
X0079233Y0058157D01*
X0079086Y0058756D02*
X0078110Y0058756D01*
X0078110Y0059354D02*
X0079086Y0059354D01*
X0079086Y0059953D02*
X0078110Y0059953D01*
X0078009Y0060551D02*
X0079187Y0060551D01*
X0079434Y0061150D02*
X0077761Y0061150D01*
X0077513Y0061748D02*
X0079682Y0061748D01*
X0080153Y0062347D02*
X0077042Y0062347D01*
X0076444Y0062946D02*
X0080752Y0062946D01*
X0081786Y0063544D02*
X0075410Y0063544D01*
X0074495Y0064899D02*
X0076153Y0065586D01*
X0077423Y0066855D01*
X0078110Y0068514D01*
X0078110Y0070308D01*
X0077423Y0071967D01*
X0076153Y0073236D01*
X0074495Y0073923D01*
X0072700Y0073923D01*
X0071042Y0073236D01*
X0069773Y0071967D01*
X0069086Y0070308D01*
X0069086Y0068514D01*
X0069773Y0066855D01*
X0071042Y0065586D01*
X0072700Y0064899D01*
X0074495Y0064899D01*
X0075558Y0065340D02*
X0081637Y0065340D01*
X0081042Y0065586D02*
X0082700Y0064899D01*
X0084495Y0064899D01*
X0086153Y0065586D01*
X0087423Y0066855D01*
X0088110Y0068514D01*
X0088110Y0070308D01*
X0087423Y0071967D01*
X0086153Y0073236D01*
X0084495Y0073923D01*
X0082700Y0073923D01*
X0081042Y0073236D01*
X0079773Y0071967D01*
X0079086Y0070308D01*
X0079086Y0068514D01*
X0079773Y0066855D01*
X0081042Y0065586D01*
X0080690Y0065938D02*
X0076505Y0065938D01*
X0077104Y0066537D02*
X0080091Y0066537D01*
X0079657Y0067135D02*
X0077539Y0067135D01*
X0077786Y0067734D02*
X0079409Y0067734D01*
X0079161Y0068332D02*
X0078034Y0068332D01*
X0078110Y0068931D02*
X0079086Y0068931D01*
X0079086Y0069529D02*
X0078110Y0069529D01*
X0078110Y0070128D02*
X0079086Y0070128D01*
X0079259Y0070726D02*
X0077937Y0070726D01*
X0077689Y0071325D02*
X0079507Y0071325D01*
X0079755Y0071923D02*
X0077441Y0071923D01*
X0076868Y0072522D02*
X0080328Y0072522D01*
X0080926Y0073120D02*
X0076269Y0073120D01*
X0074988Y0073719D02*
X0082207Y0073719D01*
X0084988Y0073719D02*
X0094019Y0073719D01*
X0094019Y0074317D02*
X0062386Y0074317D01*
X0062386Y0073719D02*
X0072207Y0073719D01*
X0070926Y0073120D02*
X0062386Y0073120D01*
X0062386Y0072522D02*
X0070328Y0072522D01*
X0069755Y0071923D02*
X0062386Y0071923D01*
X0062386Y0071325D02*
X0069507Y0071325D01*
X0069259Y0070726D02*
X0062386Y0070726D01*
X0062386Y0070128D02*
X0069086Y0070128D01*
X0069086Y0069529D02*
X0062386Y0069529D01*
X0062386Y0068931D02*
X0069086Y0068931D01*
X0069161Y0068332D02*
X0062386Y0068332D01*
X0062386Y0067734D02*
X0069409Y0067734D01*
X0069657Y0067135D02*
X0062386Y0067135D01*
X0062386Y0066537D02*
X0070091Y0066537D01*
X0070690Y0065938D02*
X0062386Y0065938D01*
X0062386Y0065340D02*
X0071637Y0065340D01*
X0071786Y0063544D02*
X0062386Y0063544D01*
X0062386Y0062946D02*
X0070752Y0062946D01*
X0070153Y0062347D02*
X0062386Y0062347D01*
X0062386Y0061748D02*
X0069682Y0061748D01*
X0063780Y0061150D02*
X0062386Y0061150D01*
X0062386Y0060551D02*
X0063181Y0060551D01*
X0062583Y0059953D02*
X0062386Y0059953D01*
X0062386Y0064143D02*
X0091061Y0064143D01*
X0090168Y0063544D02*
X0085410Y0063544D01*
X0086444Y0062946D02*
X0089706Y0062946D01*
X0089458Y0062347D02*
X0087042Y0062347D01*
X0087513Y0061748D02*
X0089393Y0061748D01*
X0089393Y0061150D02*
X0087761Y0061150D01*
X0088009Y0060551D02*
X0089629Y0060551D01*
X0089981Y0059953D02*
X0088110Y0059953D01*
X0088110Y0059354D02*
X0090082Y0059354D01*
X0090082Y0058756D02*
X0088110Y0058756D01*
X0087962Y0058157D02*
X0090082Y0058157D01*
X0090082Y0057559D02*
X0087714Y0057559D01*
X0087466Y0056960D02*
X0090082Y0056960D01*
X0090082Y0056362D02*
X0086929Y0056362D01*
X0086331Y0055763D02*
X0090082Y0055763D01*
X0090082Y0055165D02*
X0085136Y0055165D01*
X0081581Y0054566D02*
X0090082Y0054566D01*
X0094082Y0057559D02*
X0094344Y0057559D01*
X0094019Y0063544D02*
X0093996Y0063544D01*
X0094019Y0064143D02*
X0093103Y0064143D01*
X0094019Y0064741D02*
X0062386Y0064741D01*
X0062386Y0074916D02*
X0094019Y0074916D01*
X0094019Y0075514D02*
X0062386Y0075514D01*
X0062386Y0076113D02*
X0094019Y0076113D01*
X0094019Y0076711D02*
X0062386Y0076711D01*
X0062386Y0077310D02*
X0094019Y0077310D01*
X0094019Y0077908D02*
X0062386Y0077908D01*
X0062386Y0078507D02*
X0094019Y0078507D01*
X0094019Y0079105D02*
X0062386Y0079105D01*
X0062386Y0079704D02*
X0094019Y0079704D01*
X0094019Y0080302D02*
X0062386Y0080302D01*
X0062386Y0080901D02*
X0094019Y0080901D01*
X0094019Y0081499D02*
X0062386Y0081499D01*
X0062386Y0082098D02*
X0094019Y0082098D01*
X0094019Y0082696D02*
X0062386Y0082696D01*
X0062386Y0083295D02*
X0094019Y0083295D01*
X0094019Y0083893D02*
X0062386Y0083893D01*
X0062386Y0084492D02*
X0094374Y0084492D01*
X0094972Y0085090D02*
X0062386Y0085090D01*
X0062386Y0085689D02*
X0108192Y0085689D01*
X0108192Y0086287D02*
X0062386Y0086287D01*
X0062386Y0086886D02*
X0108192Y0086886D01*
X0108192Y0087484D02*
X0062386Y0087484D01*
X0062386Y0088083D02*
X0108192Y0088083D01*
X0107127Y0088681D02*
X0100944Y0088681D01*
X0103638Y0089280D02*
X0106822Y0089280D01*
X0106822Y0089879D02*
X0104236Y0089879D01*
X0104712Y0090477D02*
X0106822Y0090477D01*
X0106822Y0091076D02*
X0104712Y0091076D01*
X0104872Y0091674D02*
X0107022Y0091674D01*
X0097497Y0092273D02*
X0096900Y0092273D01*
X0096900Y0092871D02*
X0097500Y0092871D01*
X0097500Y0093470D02*
X0096900Y0093470D01*
X0096900Y0094068D02*
X0097500Y0094068D01*
X0097500Y0094667D02*
X0096900Y0094667D01*
X0096900Y0095864D02*
X0097500Y0095864D01*
X0097500Y0096462D02*
X0096900Y0096462D01*
X0096900Y0097061D02*
X0097500Y0097061D01*
X0097500Y0097659D02*
X0096900Y0097659D01*
X0096900Y0098258D02*
X0097500Y0098258D01*
X0099276Y0098258D02*
X0100244Y0098258D01*
X0095124Y0098258D02*
X0062386Y0098258D01*
X0062386Y0098856D02*
X0071616Y0098856D01*
X0070621Y0099455D02*
X0062386Y0099455D01*
X0062386Y0100053D02*
X0069995Y0100053D01*
X0069576Y0100652D02*
X0062386Y0100652D01*
X0062386Y0101250D02*
X0069284Y0101250D01*
X0069093Y0101849D02*
X0062386Y0101849D01*
X0062386Y0102447D02*
X0068998Y0102447D01*
X0073002Y0102447D02*
X0073602Y0102447D01*
X0073602Y0101849D02*
X0073002Y0101849D01*
X0073002Y0101250D02*
X0073602Y0101250D01*
X0073602Y0100652D02*
X0073002Y0100652D01*
X0073002Y0100053D02*
X0073602Y0100053D01*
X0073602Y0099455D02*
X0073002Y0099455D01*
X0073002Y0098856D02*
X0073602Y0098856D01*
X0071711Y0097061D02*
X0062386Y0097061D01*
X0062386Y0097659D02*
X0094505Y0097659D01*
X0094365Y0097061D02*
X0084894Y0097061D01*
X0086057Y0096462D02*
X0094365Y0096462D01*
X0093864Y0103046D02*
X0134477Y0103046D01*
X0133879Y0103644D02*
X0092786Y0103644D01*
X0089931Y0106637D02*
X0130886Y0106637D01*
X0131484Y0106038D02*
X0089333Y0106038D01*
X0080722Y0106637D02*
X0075341Y0106637D01*
X0076198Y0106038D02*
X0080124Y0106038D01*
X0079525Y0105440D02*
X0076741Y0105440D01*
X0077120Y0104841D02*
X0079249Y0104841D01*
X0079002Y0104243D02*
X0077379Y0104243D01*
X0077540Y0103644D02*
X0078791Y0103644D01*
X0073602Y0104243D02*
X0073002Y0104243D01*
X0073002Y0104841D02*
X0073602Y0104841D01*
X0073602Y0105440D02*
X0073002Y0105440D01*
X0073002Y0106038D02*
X0073602Y0106038D01*
X0073602Y0106637D02*
X0073002Y0106637D01*
X0075332Y0109031D02*
X0080727Y0109031D01*
X0080129Y0109629D02*
X0076193Y0109629D01*
X0076737Y0110228D02*
X0079530Y0110228D01*
X0079251Y0110826D02*
X0077118Y0110826D01*
X0077378Y0111425D02*
X0079003Y0111425D01*
X0078791Y0112023D02*
X0077539Y0112023D01*
X0077614Y0113136D02*
X0077614Y0113176D01*
X0077508Y0113846D01*
X0077298Y0114491D01*
X0076990Y0115096D01*
X0076591Y0115645D01*
X0076111Y0116125D01*
X0075562Y0116524D01*
X0074958Y0116832D01*
X0074312Y0117042D01*
X0073642Y0117148D01*
X0073602Y0117148D01*
X0073602Y0113136D01*
X0077614Y0113136D01*
X0077607Y0113220D02*
X0078791Y0113220D01*
X0078791Y0112622D02*
X0073602Y0112622D01*
X0073602Y0113220D02*
X0073002Y0113220D01*
X0073002Y0113819D02*
X0073602Y0113819D01*
X0073602Y0114417D02*
X0073002Y0114417D01*
X0073002Y0115016D02*
X0073602Y0115016D01*
X0073602Y0115615D02*
X0073002Y0115615D01*
X0073002Y0116213D02*
X0073602Y0116213D01*
X0073602Y0116812D02*
X0073002Y0116812D01*
X0073002Y0118524D02*
X0073002Y0122536D01*
X0068991Y0122536D01*
X0068991Y0122497D01*
X0069097Y0121827D01*
X0069307Y0121181D01*
X0069615Y0120576D01*
X0070014Y0120027D01*
X0070493Y0119547D01*
X0071043Y0119148D01*
X0071647Y0118840D01*
X0072293Y0118631D01*
X0072963Y0118524D01*
X0073002Y0118524D01*
X0073002Y0118607D02*
X0073602Y0118607D01*
X0073602Y0118524D02*
X0073642Y0118524D01*
X0074312Y0118631D01*
X0074958Y0118840D01*
X0075562Y0119148D01*
X0076111Y0119547D01*
X0076591Y0120027D01*
X0076990Y0120576D01*
X0077298Y0121181D01*
X0077508Y0121827D01*
X0077614Y0122497D01*
X0077614Y0122536D01*
X0073602Y0122536D01*
X0073602Y0118524D01*
X0074164Y0118607D02*
X0081723Y0118607D01*
X0080552Y0119206D02*
X0075641Y0119206D01*
X0076368Y0119804D02*
X0079954Y0119804D01*
X0079427Y0120403D02*
X0076864Y0120403D01*
X0077207Y0121001D02*
X0079179Y0121001D01*
X0078931Y0121600D02*
X0077434Y0121600D01*
X0077567Y0122198D02*
X0078791Y0122198D01*
X0078791Y0122797D02*
X0073602Y0122797D01*
X0073602Y0122536D02*
X0073602Y0123136D01*
X0073002Y0123136D01*
X0073002Y0122536D01*
X0073602Y0122536D01*
X0073602Y0122198D02*
X0073002Y0122198D01*
X0073002Y0121600D02*
X0073602Y0121600D01*
X0073602Y0121001D02*
X0073002Y0121001D01*
X0073002Y0120403D02*
X0073602Y0120403D01*
X0073602Y0119804D02*
X0073002Y0119804D01*
X0073002Y0119206D02*
X0073602Y0119206D01*
X0072441Y0118607D02*
X0062386Y0118607D01*
X0062386Y0119206D02*
X0070964Y0119206D01*
X0070237Y0119804D02*
X0062386Y0119804D01*
X0062386Y0120403D02*
X0069741Y0120403D01*
X0069398Y0121001D02*
X0062386Y0121001D01*
X0062386Y0121600D02*
X0069171Y0121600D01*
X0069038Y0122198D02*
X0062386Y0122198D01*
X0062386Y0122797D02*
X0073002Y0122797D01*
X0073002Y0123136D02*
X0068991Y0123136D01*
X0068991Y0123176D01*
X0069097Y0123846D01*
X0069307Y0124491D01*
X0069615Y0125096D01*
X0070014Y0125645D01*
X0070493Y0126125D01*
X0071043Y0126524D01*
X0071647Y0126832D01*
X0072293Y0127042D01*
X0072963Y0127148D01*
X0073002Y0127148D01*
X0073002Y0123136D01*
X0073002Y0123395D02*
X0073602Y0123395D01*
X0073602Y0123136D02*
X0073602Y0127148D01*
X0073642Y0127148D01*
X0074312Y0127042D01*
X0074958Y0126832D01*
X0075562Y0126524D01*
X0076111Y0126125D01*
X0076591Y0125645D01*
X0076990Y0125096D01*
X0077298Y0124491D01*
X0077508Y0123846D01*
X0077614Y0123176D01*
X0077614Y0123136D01*
X0073602Y0123136D01*
X0073602Y0123994D02*
X0073002Y0123994D01*
X0073002Y0124592D02*
X0073602Y0124592D01*
X0073602Y0125191D02*
X0073002Y0125191D01*
X0073002Y0125789D02*
X0073602Y0125789D01*
X0073602Y0126388D02*
X0073002Y0126388D01*
X0073002Y0126986D02*
X0073602Y0126986D01*
X0074483Y0126986D02*
X0081532Y0126986D01*
X0080473Y0126388D02*
X0075750Y0126388D01*
X0076447Y0125789D02*
X0079875Y0125789D01*
X0079394Y0125191D02*
X0076922Y0125191D01*
X0077247Y0124592D02*
X0079146Y0124592D01*
X0078898Y0123994D02*
X0077460Y0123994D01*
X0077579Y0123395D02*
X0078791Y0123395D01*
X0080747Y0129011D02*
X0082405Y0128324D01*
X0084200Y0128324D01*
X0085858Y0129011D01*
X0087127Y0130280D01*
X0087814Y0131939D01*
X0087814Y0133734D01*
X0087127Y0135392D01*
X0085858Y0136661D01*
X0084200Y0137348D01*
X0082405Y0137348D01*
X0080747Y0136661D01*
X0079478Y0135392D01*
X0078791Y0133734D01*
X0078791Y0131939D01*
X0079478Y0130280D01*
X0080747Y0129011D01*
X0080378Y0129380D02*
X0075881Y0129380D01*
X0076111Y0129547D02*
X0076591Y0130027D01*
X0076990Y0130576D01*
X0077298Y0131181D01*
X0077508Y0131827D01*
X0077614Y0132497D01*
X0077614Y0132536D01*
X0073602Y0132536D01*
X0073602Y0128524D01*
X0073642Y0128524D01*
X0074312Y0128631D01*
X0074958Y0128840D01*
X0075562Y0129148D01*
X0076111Y0129547D01*
X0076543Y0129979D02*
X0079779Y0129979D01*
X0079355Y0130577D02*
X0076991Y0130577D01*
X0077296Y0131176D02*
X0079107Y0131176D01*
X0078859Y0131774D02*
X0077491Y0131774D01*
X0077595Y0132373D02*
X0078791Y0132373D01*
X0078791Y0132971D02*
X0073602Y0132971D01*
X0073602Y0133136D02*
X0077614Y0133136D01*
X0077614Y0133176D01*
X0077508Y0133846D01*
X0077298Y0134491D01*
X0076990Y0135096D01*
X0076591Y0135645D01*
X0076111Y0136125D01*
X0075562Y0136524D01*
X0074958Y0136832D01*
X0074312Y0137042D01*
X0073642Y0137148D01*
X0073602Y0137148D01*
X0073602Y0133136D01*
X0073002Y0133136D01*
X0073002Y0132536D01*
X0068991Y0132536D01*
X0068991Y0132497D01*
X0069097Y0131827D01*
X0069307Y0131181D01*
X0069615Y0130576D01*
X0070014Y0130027D01*
X0070493Y0129547D01*
X0071043Y0129148D01*
X0071647Y0128840D01*
X0072293Y0128631D01*
X0072963Y0128524D01*
X0073002Y0128524D01*
X0073002Y0132536D01*
X0073602Y0132536D01*
X0073602Y0133136D01*
X0073602Y0133570D02*
X0073002Y0133570D01*
X0073002Y0133136D02*
X0073002Y0137148D01*
X0072963Y0137148D01*
X0072293Y0137042D01*
X0071647Y0136832D01*
X0071043Y0136524D01*
X0070493Y0136125D01*
X0070014Y0135645D01*
X0069615Y0135096D01*
X0069307Y0134491D01*
X0069097Y0133846D01*
X0068991Y0133176D01*
X0068991Y0133136D01*
X0073002Y0133136D01*
X0073002Y0132971D02*
X0062386Y0132971D01*
X0062386Y0132373D02*
X0069010Y0132373D01*
X0069114Y0131774D02*
X0062386Y0131774D01*
X0062386Y0131176D02*
X0069309Y0131176D01*
X0069614Y0130577D02*
X0062386Y0130577D01*
X0062386Y0129979D02*
X0070062Y0129979D01*
X0070723Y0129380D02*
X0062386Y0129380D01*
X0062386Y0128782D02*
X0071827Y0128782D01*
X0073002Y0128782D02*
X0073602Y0128782D01*
X0073602Y0129380D02*
X0073002Y0129380D01*
X0073002Y0129979D02*
X0073602Y0129979D01*
X0073602Y0130577D02*
X0073002Y0130577D01*
X0073002Y0131176D02*
X0073602Y0131176D01*
X0073602Y0131774D02*
X0073002Y0131774D01*
X0073002Y0132373D02*
X0073602Y0132373D01*
X0073602Y0134168D02*
X0073002Y0134168D01*
X0073002Y0134767D02*
X0073602Y0134767D01*
X0073602Y0135365D02*
X0073002Y0135365D01*
X0073002Y0135964D02*
X0073602Y0135964D01*
X0073602Y0136562D02*
X0073002Y0136562D01*
X0071118Y0136562D02*
X0062386Y0136562D01*
X0062386Y0135964D02*
X0070332Y0135964D01*
X0069810Y0135365D02*
X0062386Y0135365D01*
X0062386Y0134767D02*
X0069447Y0134767D01*
X0069202Y0134168D02*
X0062386Y0134168D01*
X0062386Y0133570D02*
X0069053Y0133570D01*
X0074777Y0128782D02*
X0081301Y0128782D01*
X0085304Y0128782D02*
X0131387Y0128782D01*
X0131387Y0129380D02*
X0086227Y0129380D01*
X0086826Y0129979D02*
X0101428Y0129979D01*
X0100555Y0130340D02*
X0102393Y0129579D01*
X0104382Y0129579D01*
X0106220Y0130340D01*
X0107626Y0131747D01*
X0108387Y0133585D01*
X0108387Y0135574D01*
X0107626Y0137411D01*
X0106220Y0138818D01*
X0104382Y0139579D01*
X0102393Y0139579D01*
X0100555Y0138818D01*
X0099149Y0137411D01*
X0098387Y0135574D01*
X0098387Y0133585D01*
X0099149Y0131747D01*
X0100555Y0130340D01*
X0100318Y0130577D02*
X0087250Y0130577D01*
X0087498Y0131176D02*
X0099720Y0131176D01*
X0099137Y0131774D02*
X0087746Y0131774D01*
X0087814Y0132373D02*
X0098889Y0132373D01*
X0098641Y0132971D02*
X0087814Y0132971D01*
X0087814Y0133570D02*
X0098394Y0133570D01*
X0098387Y0134168D02*
X0087634Y0134168D01*
X0087386Y0134767D02*
X0098387Y0134767D01*
X0098387Y0135365D02*
X0087138Y0135365D01*
X0086555Y0135964D02*
X0098549Y0135964D01*
X0098797Y0136562D02*
X0085957Y0136562D01*
X0084652Y0137161D02*
X0099045Y0137161D01*
X0099497Y0137759D02*
X0062386Y0137759D01*
X0062386Y0137161D02*
X0081953Y0137161D01*
X0080648Y0136562D02*
X0075487Y0136562D01*
X0076273Y0135964D02*
X0080049Y0135964D01*
X0079467Y0135365D02*
X0076795Y0135365D01*
X0077158Y0134767D02*
X0079219Y0134767D01*
X0078971Y0134168D02*
X0077403Y0134168D01*
X0077552Y0133570D02*
X0078791Y0133570D01*
X0085073Y0126986D02*
X0131387Y0126986D01*
X0131387Y0126388D02*
X0086132Y0126388D01*
X0086730Y0125789D02*
X0131419Y0125789D01*
X0132017Y0125191D02*
X0087211Y0125191D01*
X0087459Y0124592D02*
X0132616Y0124592D01*
X0133214Y0123994D02*
X0087707Y0123994D01*
X0087814Y0123395D02*
X0133813Y0123395D01*
X0134411Y0122797D02*
X0087814Y0122797D01*
X0087814Y0122198D02*
X0135010Y0122198D01*
X0135608Y0121600D02*
X0087674Y0121600D01*
X0087426Y0121001D02*
X0136207Y0121001D01*
X0136805Y0120403D02*
X0087178Y0120403D01*
X0086651Y0119804D02*
X0137404Y0119804D01*
X0138002Y0119206D02*
X0086052Y0119206D01*
X0081110Y0116812D02*
X0074998Y0116812D01*
X0075990Y0116213D02*
X0080299Y0116213D01*
X0079700Y0115615D02*
X0076614Y0115615D01*
X0077031Y0115016D02*
X0079322Y0115016D01*
X0079074Y0114417D02*
X0077322Y0114417D01*
X0077512Y0113819D02*
X0078826Y0113819D01*
X0069025Y0123395D02*
X0062386Y0123395D01*
X0062386Y0123994D02*
X0069145Y0123994D01*
X0069358Y0124592D02*
X0062386Y0124592D01*
X0062386Y0125191D02*
X0069683Y0125191D01*
X0070158Y0125789D02*
X0062386Y0125789D01*
X0062386Y0126388D02*
X0070855Y0126388D01*
X0072122Y0126986D02*
X0062386Y0126986D01*
X0062386Y0127585D02*
X0131387Y0127585D01*
X0131387Y0128183D02*
X0062386Y0128183D01*
X0062386Y0138358D02*
X0100095Y0138358D01*
X0100890Y0138956D02*
X0062386Y0138956D01*
X0062386Y0139555D02*
X0102335Y0139555D01*
X0104440Y0139555D02*
X0122335Y0139555D01*
X0120890Y0138956D02*
X0115369Y0138956D01*
X0115230Y0139027D02*
X0114511Y0139261D01*
X0113765Y0139379D01*
X0113687Y0139379D01*
X0113687Y0134879D01*
X0113087Y0134879D01*
X0113087Y0134279D01*
X0108587Y0134279D01*
X0108587Y0134201D01*
X0108706Y0133455D01*
X0108939Y0132737D01*
X0109282Y0132063D01*
X0109726Y0131452D01*
X0110260Y0130918D01*
X0110872Y0130474D01*
X0111545Y0130131D01*
X0112263Y0129897D01*
X0113010Y0129779D01*
X0113087Y0129779D01*
X0113087Y0134279D01*
X0113687Y0134279D01*
X0113687Y0129779D01*
X0113765Y0129779D01*
X0114511Y0129897D01*
X0115230Y0130131D01*
X0115903Y0130474D01*
X0116514Y0130918D01*
X0117049Y0131452D01*
X0117493Y0132063D01*
X0117836Y0132737D01*
X0118069Y0133455D01*
X0118187Y0134201D01*
X0118187Y0134279D01*
X0113688Y0134279D01*
X0113688Y0134879D01*
X0118187Y0134879D01*
X0118187Y0134957D01*
X0118069Y0135703D01*
X0117836Y0136422D01*
X0117493Y0137095D01*
X0117049Y0137706D01*
X0116514Y0138240D01*
X0115903Y0138684D01*
X0115230Y0139027D01*
X0116353Y0138358D02*
X0120095Y0138358D01*
X0119497Y0137759D02*
X0116995Y0137759D01*
X0117445Y0137161D02*
X0119045Y0137161D01*
X0118797Y0136562D02*
X0117764Y0136562D01*
X0117985Y0135964D02*
X0118549Y0135964D01*
X0118387Y0135365D02*
X0118123Y0135365D01*
X0118387Y0134767D02*
X0113688Y0134767D01*
X0113687Y0135365D02*
X0113087Y0135365D01*
X0113087Y0134879D02*
X0113087Y0139379D01*
X0113010Y0139379D01*
X0112263Y0139261D01*
X0111545Y0139027D01*
X0110872Y0138684D01*
X0110260Y0138240D01*
X0109726Y0137706D01*
X0109282Y0137095D01*
X0108939Y0136422D01*
X0108706Y0135703D01*
X0108587Y0134957D01*
X0108587Y0134879D01*
X0113087Y0134879D01*
X0113087Y0134767D02*
X0108387Y0134767D01*
X0108387Y0135365D02*
X0108652Y0135365D01*
X0108790Y0135964D02*
X0108226Y0135964D01*
X0107978Y0136562D02*
X0109011Y0136562D01*
X0109330Y0137161D02*
X0107730Y0137161D01*
X0107278Y0137759D02*
X0109780Y0137759D01*
X0110422Y0138358D02*
X0106680Y0138358D01*
X0105885Y0138956D02*
X0111406Y0138956D01*
X0113087Y0138956D02*
X0113687Y0138956D01*
X0113687Y0138358D02*
X0113087Y0138358D01*
X0113087Y0137759D02*
X0113687Y0137759D01*
X0113687Y0137161D02*
X0113087Y0137161D01*
X0113087Y0136562D02*
X0113687Y0136562D01*
X0113687Y0135964D02*
X0113087Y0135964D01*
X0113087Y0134168D02*
X0113687Y0134168D01*
X0113687Y0133570D02*
X0113087Y0133570D01*
X0113087Y0132971D02*
X0113687Y0132971D01*
X0113687Y0132373D02*
X0113087Y0132373D01*
X0113087Y0131774D02*
X0113687Y0131774D01*
X0113687Y0131176D02*
X0113087Y0131176D01*
X0113087Y0130577D02*
X0113687Y0130577D01*
X0113687Y0129979D02*
X0113087Y0129979D01*
X0112013Y0129979D02*
X0105347Y0129979D01*
X0106457Y0130577D02*
X0110729Y0130577D01*
X0110003Y0131176D02*
X0107055Y0131176D01*
X0107638Y0131774D02*
X0109492Y0131774D01*
X0109124Y0132373D02*
X0107886Y0132373D01*
X0108133Y0132971D02*
X0108863Y0132971D01*
X0108687Y0133570D02*
X0108381Y0133570D01*
X0108387Y0134168D02*
X0108593Y0134168D01*
X0114762Y0129979D02*
X0121428Y0129979D01*
X0120318Y0130577D02*
X0116046Y0130577D01*
X0116772Y0131176D02*
X0119720Y0131176D01*
X0119137Y0131774D02*
X0117283Y0131774D01*
X0117650Y0132373D02*
X0118889Y0132373D01*
X0118641Y0132971D02*
X0117912Y0132971D01*
X0118087Y0133570D02*
X0118394Y0133570D01*
X0118387Y0134168D02*
X0118182Y0134168D01*
X0125347Y0129979D02*
X0131387Y0129979D01*
X0130318Y0130577D02*
X0126457Y0130577D01*
X0127055Y0131176D02*
X0129720Y0131176D01*
X0129137Y0131774D02*
X0127638Y0131774D01*
X0127886Y0132373D02*
X0128889Y0132373D01*
X0128641Y0132971D02*
X0128133Y0132971D01*
X0128381Y0133570D02*
X0128394Y0133570D01*
X0128387Y0134168D02*
X0128387Y0134168D01*
X0128387Y0134767D02*
X0128387Y0134767D01*
X0128387Y0135365D02*
X0128387Y0135365D01*
X0128226Y0135964D02*
X0128549Y0135964D01*
X0128797Y0136562D02*
X0127978Y0136562D01*
X0127730Y0137161D02*
X0129045Y0137161D01*
X0129497Y0137759D02*
X0127278Y0137759D01*
X0126680Y0138358D02*
X0130095Y0138358D01*
X0130890Y0138956D02*
X0125885Y0138956D01*
X0124440Y0139555D02*
X0132335Y0139555D01*
X0134440Y0139555D02*
X0142335Y0139555D01*
X0140890Y0138956D02*
X0135885Y0138956D01*
X0136680Y0138358D02*
X0140095Y0138358D01*
X0139497Y0137759D02*
X0137278Y0137759D01*
X0137730Y0137161D02*
X0139045Y0137161D01*
X0138797Y0136562D02*
X0137978Y0136562D01*
X0138226Y0135964D02*
X0138549Y0135964D01*
X0138387Y0135365D02*
X0138387Y0135365D01*
X0138387Y0134767D02*
X0138387Y0134767D01*
X0138387Y0134168D02*
X0138387Y0134168D01*
X0138381Y0133570D02*
X0138394Y0133570D01*
X0138641Y0132971D02*
X0138133Y0132971D01*
X0137886Y0132373D02*
X0138889Y0132373D01*
X0139137Y0131774D02*
X0137638Y0131774D01*
X0137055Y0131176D02*
X0139720Y0131176D01*
X0140318Y0130577D02*
X0136457Y0130577D01*
X0135387Y0129979D02*
X0141428Y0129979D01*
X0145347Y0129979D02*
X0151428Y0129979D01*
X0150318Y0130577D02*
X0146457Y0130577D01*
X0147055Y0131176D02*
X0149720Y0131176D01*
X0149137Y0131774D02*
X0147638Y0131774D01*
X0147886Y0132373D02*
X0148889Y0132373D01*
X0148641Y0132971D02*
X0148133Y0132971D01*
X0148381Y0133570D02*
X0148394Y0133570D01*
X0148387Y0133585D02*
X0148387Y0135574D01*
X0148387Y0133585D01*
X0148387Y0134168D02*
X0148387Y0134168D01*
X0148387Y0134767D02*
X0148387Y0134767D01*
X0148387Y0135365D02*
X0148387Y0135365D01*
X0148226Y0135964D02*
X0148549Y0135964D01*
X0148797Y0136562D02*
X0147978Y0136562D01*
X0147730Y0137161D02*
X0149045Y0137161D01*
X0149497Y0137759D02*
X0147278Y0137759D01*
X0146680Y0138358D02*
X0150095Y0138358D01*
X0150890Y0138956D02*
X0145885Y0138956D01*
X0144440Y0139555D02*
X0152335Y0139555D01*
X0154440Y0139555D02*
X0162335Y0139555D01*
X0160890Y0138956D02*
X0155885Y0138956D01*
X0156680Y0138358D02*
X0160095Y0138358D01*
X0159497Y0137759D02*
X0157278Y0137759D01*
X0157730Y0137161D02*
X0159045Y0137161D01*
X0158797Y0136562D02*
X0157978Y0136562D01*
X0158226Y0135964D02*
X0158549Y0135964D01*
X0158387Y0135574D02*
X0158387Y0133585D01*
X0158387Y0135574D01*
X0158387Y0135365D02*
X0158387Y0135365D01*
X0158387Y0134767D02*
X0158387Y0134767D01*
X0158387Y0134168D02*
X0158387Y0134168D01*
X0158381Y0133570D02*
X0158394Y0133570D01*
X0158641Y0132971D02*
X0158133Y0132971D01*
X0157886Y0132373D02*
X0158889Y0132373D01*
X0159137Y0131774D02*
X0157638Y0131774D01*
X0157055Y0131176D02*
X0159720Y0131176D01*
X0160318Y0130577D02*
X0156457Y0130577D01*
X0155347Y0129979D02*
X0161428Y0129979D01*
X0164063Y0125789D02*
X0150023Y0125789D01*
X0150325Y0125191D02*
X0163761Y0125191D01*
X0163735Y0124592D02*
X0150350Y0124592D01*
X0150350Y0123994D02*
X0163735Y0123994D01*
X0163735Y0122797D02*
X0150350Y0122797D01*
X0150350Y0122198D02*
X0163735Y0122198D01*
X0163735Y0121600D02*
X0150350Y0121600D01*
X0150106Y0121001D02*
X0163979Y0121001D01*
X0163669Y0120403D02*
X0150416Y0120403D01*
X0144050Y0123994D02*
X0138871Y0123994D01*
X0138273Y0124592D02*
X0144050Y0124592D01*
X0144076Y0125191D02*
X0137674Y0125191D01*
X0137076Y0125789D02*
X0144378Y0125789D01*
X0170035Y0122797D02*
X0172562Y0122797D01*
X0172562Y0122198D02*
X0170035Y0122198D01*
X0170035Y0121600D02*
X0172562Y0121600D01*
X0172562Y0121001D02*
X0169791Y0121001D01*
X0170101Y0120403D02*
X0172562Y0120403D01*
X0172562Y0119804D02*
X0170235Y0119804D01*
X0170235Y0119206D02*
X0172562Y0119206D01*
X0172562Y0118607D02*
X0170235Y0118607D01*
X0170235Y0118009D02*
X0172562Y0118009D01*
X0172562Y0117410D02*
X0170376Y0117410D01*
X0170974Y0116812D02*
X0172562Y0116812D01*
X0172562Y0116213D02*
X0171573Y0116213D01*
X0172171Y0115615D02*
X0172562Y0115615D01*
X0141300Y0103644D02*
X0139535Y0103644D01*
X0140134Y0103046D02*
X0140779Y0103046D01*
X0140779Y0102447D02*
X0140732Y0102447D01*
X0136871Y0100652D02*
X0112192Y0100652D01*
X0112192Y0101250D02*
X0136273Y0101250D01*
X0135674Y0101849D02*
X0111803Y0101849D01*
X0111205Y0102447D02*
X0135076Y0102447D01*
X0140779Y0097659D02*
X0124660Y0097659D01*
X0125259Y0097061D02*
X0140779Y0097061D01*
X0141276Y0096462D02*
X0125512Y0096462D01*
X0121315Y0097659D02*
X0120306Y0097659D01*
X0120649Y0097061D02*
X0120716Y0097061D01*
X0094019Y0073120D02*
X0086269Y0073120D01*
X0086868Y0072522D02*
X0094019Y0072522D01*
X0094019Y0071923D02*
X0087441Y0071923D01*
X0087689Y0071325D02*
X0094019Y0071325D01*
X0094019Y0070726D02*
X0087937Y0070726D01*
X0088110Y0070128D02*
X0094019Y0070128D01*
X0094019Y0069529D02*
X0088110Y0069529D01*
X0088110Y0068931D02*
X0094019Y0068931D01*
X0094019Y0068332D02*
X0088034Y0068332D01*
X0087786Y0067734D02*
X0094019Y0067734D01*
X0094019Y0067135D02*
X0087539Y0067135D01*
X0087104Y0066537D02*
X0094019Y0066537D01*
X0094019Y0065938D02*
X0086505Y0065938D01*
X0085558Y0065340D02*
X0094019Y0065340D01*
X0095003Y0046187D02*
X0086755Y0046187D01*
X0086156Y0045589D02*
X0095003Y0045589D01*
X0122363Y0068332D02*
X0136706Y0068332D01*
X0139462Y0053369D02*
X0139589Y0053369D01*
X0140232Y0046786D02*
X0140818Y0046786D01*
X0140691Y0046187D02*
X0143170Y0046187D01*
X0143769Y0045589D02*
X0141289Y0045589D01*
X0142355Y0044990D02*
X0144367Y0044990D01*
X0144966Y0044392D02*
X0142953Y0044392D01*
X0143552Y0043793D02*
X0145564Y0043793D01*
X0146163Y0043195D02*
X0144579Y0043195D01*
X0145723Y0042596D02*
X0146761Y0042596D01*
X0146987Y0041998D02*
X0146290Y0041998D01*
X0146538Y0041399D02*
X0146987Y0041399D01*
X0146987Y0040801D02*
X0146676Y0040801D01*
X0146676Y0040202D02*
X0146987Y0040202D01*
X0146987Y0039604D02*
X0146515Y0039604D01*
X0146266Y0039005D02*
X0146987Y0039005D01*
X0146987Y0038407D02*
X0145668Y0038407D01*
X0146987Y0037808D02*
X0138288Y0037808D01*
X0138287Y0037210D02*
X0137687Y0037210D01*
X0137687Y0036611D02*
X0138287Y0036611D01*
X0138287Y0036013D02*
X0137687Y0036013D01*
X0137687Y0035414D02*
X0138287Y0035414D01*
X0140951Y0035414D02*
X0146987Y0035414D01*
X0146987Y0036013D02*
X0141222Y0036013D01*
X0141236Y0036611D02*
X0146987Y0036611D01*
X0146987Y0037210D02*
X0141236Y0037210D01*
X0141236Y0038407D02*
X0142307Y0038407D01*
X0141709Y0039005D02*
X0141236Y0039005D01*
X0141203Y0039604D02*
X0141460Y0039604D01*
X0141298Y0040202D02*
X0140881Y0040202D01*
X0157987Y0040202D02*
X0160094Y0040202D01*
X0159866Y0040801D02*
X0157987Y0040801D01*
X0157987Y0041399D02*
X0159539Y0041399D01*
X0159539Y0041998D02*
X0157987Y0041998D01*
X0157987Y0042596D02*
X0159539Y0042596D01*
X0159539Y0043195D02*
X0157987Y0043195D01*
X0157987Y0043793D02*
X0159539Y0043793D01*
X0159539Y0044392D02*
X0158269Y0044392D01*
X0158867Y0044990D02*
X0159539Y0044990D01*
X0159466Y0045589D02*
X0159686Y0045589D01*
X0160064Y0046187D02*
X0160284Y0046187D01*
X0159772Y0039604D02*
X0157987Y0039604D01*
X0157987Y0039005D02*
X0159739Y0039005D01*
X0159739Y0038407D02*
X0157987Y0038407D01*
X0157987Y0037808D02*
X0162687Y0037808D01*
X0162687Y0037210D02*
X0163287Y0037210D01*
X0163288Y0037808D02*
X0171987Y0037808D01*
X0171987Y0037210D02*
X0166236Y0037210D01*
X0166236Y0036611D02*
X0171987Y0036611D01*
X0171987Y0036013D02*
X0166222Y0036013D01*
X0165951Y0035414D02*
X0171987Y0035414D01*
X0171987Y0034815D02*
X0157987Y0034815D01*
X0157987Y0034217D02*
X0171987Y0034217D01*
X0171987Y0033618D02*
X0157987Y0033618D01*
X0157987Y0033020D02*
X0171987Y0033020D01*
X0171987Y0032421D02*
X0157987Y0032421D01*
X0157987Y0031823D02*
X0171987Y0031823D01*
X0171987Y0031224D02*
X0157987Y0031224D01*
X0157987Y0030626D02*
X0171987Y0030626D01*
X0171987Y0030027D02*
X0157987Y0030027D01*
X0157987Y0029429D02*
X0171987Y0029429D01*
X0171987Y0028830D02*
X0157987Y0028830D01*
X0157987Y0028232D02*
X0171987Y0028232D01*
X0171987Y0027633D02*
X0157987Y0027633D01*
X0157987Y0027035D02*
X0171987Y0027035D01*
X0171987Y0026436D02*
X0157987Y0026436D01*
X0157987Y0025838D02*
X0171987Y0025838D01*
X0171987Y0025239D02*
X0157987Y0025239D01*
X0157987Y0024641D02*
X0171987Y0024641D01*
X0171987Y0024042D02*
X0157987Y0024042D01*
X0157987Y0023444D02*
X0171987Y0023444D01*
X0171987Y0022845D02*
X0157987Y0022845D01*
X0157987Y0022247D02*
X0171987Y0022247D01*
X0171987Y0021648D02*
X0157987Y0021648D01*
X0157987Y0021050D02*
X0171987Y0021050D01*
X0171987Y0020451D02*
X0157987Y0020451D01*
X0157987Y0019853D02*
X0171987Y0019853D01*
X0171987Y0019254D02*
X0157987Y0019254D01*
X0157987Y0018656D02*
X0171987Y0018656D01*
X0171987Y0018057D02*
X0157987Y0018057D01*
X0157987Y0017459D02*
X0171987Y0017459D01*
X0171987Y0016860D02*
X0157987Y0016860D01*
X0157987Y0016262D02*
X0171987Y0016262D01*
X0171987Y0015663D02*
X0157987Y0015663D01*
X0158255Y0015065D02*
X0171987Y0015065D01*
X0171987Y0014466D02*
X0158510Y0014466D01*
X0158676Y0013868D02*
X0171987Y0013868D01*
X0171987Y0013269D02*
X0158676Y0013269D01*
X0158542Y0012671D02*
X0171987Y0012671D01*
X0171987Y0012072D02*
X0158294Y0012072D01*
X0157735Y0011474D02*
X0171987Y0011474D01*
X0171511Y0008481D02*
X0148768Y0008481D01*
X0134816Y0011529D02*
X0134816Y0011529D01*
X0157987Y0035414D02*
X0160024Y0035414D01*
X0159753Y0036013D02*
X0157987Y0036013D01*
X0157987Y0036611D02*
X0159739Y0036611D01*
X0159739Y0037210D02*
X0157987Y0037210D01*
X0162687Y0036611D02*
X0163287Y0036611D01*
X0163287Y0036013D02*
X0162687Y0036013D01*
X0162687Y0035414D02*
X0163287Y0035414D01*
X0166236Y0038407D02*
X0168307Y0038407D01*
X0167709Y0039005D02*
X0166236Y0039005D01*
X0166203Y0039604D02*
X0167460Y0039604D01*
X0167298Y0040202D02*
X0165881Y0040202D01*
X0166109Y0040801D02*
X0166888Y0040801D01*
X0171668Y0038407D02*
X0171987Y0038407D01*
X0175987Y0038407D02*
X0199934Y0038407D01*
X0199934Y0039005D02*
X0175987Y0039005D01*
X0175987Y0039604D02*
X0199934Y0039604D01*
X0199934Y0040202D02*
X0175987Y0040202D01*
X0175987Y0040801D02*
X0199934Y0040801D01*
X0199934Y0041399D02*
X0175987Y0041399D01*
X0175987Y0041998D02*
X0199934Y0041998D01*
X0199934Y0042596D02*
X0175987Y0042596D01*
X0175987Y0043195D02*
X0199934Y0043195D01*
X0199934Y0043793D02*
X0175961Y0043793D01*
X0175363Y0044392D02*
X0199934Y0044392D01*
X0199934Y0044990D02*
X0174764Y0044990D01*
X0174166Y0045589D02*
X0199934Y0045589D01*
X0199934Y0046187D02*
X0173567Y0046187D01*
X0172969Y0046786D02*
X0199934Y0046786D01*
X0199934Y0047384D02*
X0172370Y0047384D01*
X0171772Y0047983D02*
X0199934Y0047983D01*
X0199934Y0048581D02*
X0171173Y0048581D01*
X0170575Y0049180D02*
X0199934Y0049180D01*
X0199934Y0049778D02*
X0169976Y0049778D01*
X0169378Y0050377D02*
X0199934Y0050377D01*
X0199934Y0050975D02*
X0169031Y0050975D01*
X0175987Y0037808D02*
X0199934Y0037808D01*
X0199934Y0037210D02*
X0175987Y0037210D01*
X0175987Y0036611D02*
X0199934Y0036611D01*
X0199934Y0036013D02*
X0175987Y0036013D01*
X0175987Y0035414D02*
X0199934Y0035414D01*
X0199934Y0034815D02*
X0175987Y0034815D01*
X0175987Y0034217D02*
X0199934Y0034217D01*
X0199934Y0033618D02*
X0175987Y0033618D01*
X0175987Y0033020D02*
X0199934Y0033020D01*
X0199934Y0032421D02*
X0175987Y0032421D01*
X0175987Y0031823D02*
X0199934Y0031823D01*
X0199934Y0031224D02*
X0175987Y0031224D01*
X0175987Y0030626D02*
X0199934Y0030626D01*
X0199934Y0030027D02*
X0175987Y0030027D01*
X0175987Y0029429D02*
X0199934Y0029429D01*
X0199934Y0028830D02*
X0175987Y0028830D01*
X0175987Y0028232D02*
X0199934Y0028232D01*
X0199934Y0027633D02*
X0175987Y0027633D01*
X0175987Y0027035D02*
X0199934Y0027035D01*
X0199934Y0026436D02*
X0175987Y0026436D01*
X0175987Y0025838D02*
X0199934Y0025838D01*
X0199934Y0025239D02*
X0175987Y0025239D01*
X0175987Y0024641D02*
X0199934Y0024641D01*
X0199934Y0024042D02*
X0175987Y0024042D01*
X0175987Y0023444D02*
X0199934Y0023444D01*
X0199934Y0022845D02*
X0175987Y0022845D01*
X0175987Y0022247D02*
X0199934Y0022247D01*
X0199934Y0021648D02*
X0175987Y0021648D01*
X0175987Y0021050D02*
X0199934Y0021050D01*
X0199934Y0020451D02*
X0175987Y0020451D01*
X0175987Y0019853D02*
X0199934Y0019853D01*
X0199934Y0019254D02*
X0175987Y0019254D01*
X0175987Y0018656D02*
X0199934Y0018656D01*
X0199934Y0018057D02*
X0175987Y0018057D01*
X0175987Y0017459D02*
X0199934Y0017459D01*
X0199934Y0016860D02*
X0175987Y0016860D01*
X0175987Y0016262D02*
X0199934Y0016262D01*
X0199934Y0015663D02*
X0175987Y0015663D01*
X0175987Y0015065D02*
X0199934Y0015065D01*
X0199934Y0014466D02*
X0175987Y0014466D01*
X0175987Y0013868D02*
X0199934Y0013868D01*
X0199934Y0013269D02*
X0175987Y0013269D01*
X0175987Y0012671D02*
X0199934Y0012671D01*
X0199934Y0012072D02*
X0175987Y0012072D01*
X0175987Y0011474D02*
X0199934Y0011474D01*
X0199934Y0010875D02*
X0176341Y0010875D01*
X0176588Y0010277D02*
X0199934Y0010277D01*
X0199934Y0009678D02*
X0176676Y0009678D01*
X0176676Y0009079D02*
X0199934Y0009079D01*
X0199934Y0008481D02*
X0176464Y0008481D01*
X0071543Y0088681D02*
X0062386Y0088681D01*
X0062386Y0089280D02*
X0070478Y0089280D01*
X0069879Y0089879D02*
X0062386Y0089879D01*
X0062386Y0090477D02*
X0069396Y0090477D01*
X0069148Y0091076D02*
X0062386Y0091076D01*
X0062386Y0091674D02*
X0068900Y0091674D01*
X0068791Y0092273D02*
X0062386Y0092273D01*
X0062386Y0092871D02*
X0068791Y0092871D01*
X0068791Y0093470D02*
X0062386Y0093470D01*
X0062386Y0094068D02*
X0068929Y0094068D01*
X0069177Y0094667D02*
X0062386Y0094667D01*
X0062386Y0095265D02*
X0069425Y0095265D01*
X0069949Y0095864D02*
X0062386Y0095864D01*
X0062386Y0096462D02*
X0070548Y0096462D01*
X0062386Y0140153D02*
X0199934Y0140153D01*
X0199934Y0140752D02*
X0062386Y0140752D01*
X0062386Y0141350D02*
X0199934Y0141350D01*
X0199934Y0141949D02*
X0062386Y0141949D01*
X0062386Y0142548D02*
X0199934Y0142548D01*
X0199934Y0143146D02*
X0062386Y0143146D01*
X0062386Y0143745D02*
X0199934Y0143745D01*
X0199934Y0144343D02*
X0062386Y0144343D01*
X0062386Y0144942D02*
X0199934Y0144942D01*
X0199934Y0145540D02*
X0062386Y0145540D01*
D19*
X0063987Y0012529D02*
X0066987Y0009529D01*
X0146987Y0009529D01*
X0148987Y0011529D01*
X0148987Y0043198D01*
X0142169Y0050017D01*
X0140200Y0050017D02*
X0140200Y0052773D01*
X0140987Y0053561D01*
X0135673Y0053561D01*
X0136263Y0050017D02*
X0133987Y0047742D01*
X0133987Y0013529D01*
X0132987Y0012529D01*
X0068987Y0012529D01*
X0066987Y0014529D01*
X0066987Y0054529D01*
X0078716Y0054529D01*
X0083598Y0059411D01*
X0092082Y0058418D02*
X0092082Y0061655D01*
X0096019Y0059687D02*
X0096019Y0083309D01*
X0110192Y0083309D01*
X0110192Y0090198D01*
X0110192Y0092167D02*
X0113736Y0092167D01*
X0113736Y0089608D01*
X0113736Y0096694D01*
X0110192Y0096104D02*
X0110192Y0100631D01*
X0109798Y0101025D01*
X0092082Y0101025D01*
X0089365Y0108899D02*
X0083302Y0102836D01*
X0089365Y0108899D02*
X0131452Y0108899D01*
X0140310Y0100041D01*
X0143460Y0100041D01*
X0150940Y0100041D02*
X0150940Y0090986D01*
X0147200Y0087246D01*
X0158987Y0082738D02*
X0158987Y0118072D01*
X0166885Y0118072D01*
X0170822Y0114135D01*
X0170822Y0109883D01*
X0167082Y0109883D02*
X0163932Y0109883D01*
X0162948Y0110868D01*
X0155074Y0108899D02*
X0151924Y0108899D01*
X0150940Y0109883D01*
X0147200Y0109883D02*
X0147200Y0118072D01*
X0158987Y0118072D01*
X0147200Y0118072D02*
X0141964Y0118072D01*
X0133387Y0126649D01*
X0133387Y0134579D01*
X0137358Y0112836D02*
X0140310Y0109883D01*
X0143460Y0109883D01*
X0122987Y0095529D02*
X0121594Y0094135D01*
X0117279Y0094135D01*
X0117279Y0092167D02*
X0123387Y0092167D01*
X0123387Y0074479D01*
X0117987Y0078529D02*
X0117279Y0079238D01*
X0117279Y0090198D01*
X0110192Y0094135D02*
X0102712Y0094135D01*
X0102712Y0095120D01*
X0102712Y0091183D01*
X0099956Y0091183D01*
X0103387Y0074479D02*
X0104877Y0072989D01*
X0104877Y0057324D01*
X0102909Y0057324D02*
X0102909Y0064608D01*
X0101924Y0065592D01*
X0107239Y0057718D02*
X0106846Y0057324D01*
X0107239Y0057718D02*
X0111767Y0057718D01*
X0107436Y0053781D02*
X0106863Y0053208D01*
X0105800Y0053208D01*
X0104877Y0052286D01*
X0104877Y0050238D01*
X0102909Y0050238D02*
X0102909Y0048190D01*
X0101924Y0047206D01*
X0101924Y0040789D01*
X0107830Y0040789D01*
X0107830Y0043939D01*
X0111767Y0046317D02*
X0109968Y0048116D01*
X0109968Y0048238D01*
X0107968Y0050238D01*
X0106846Y0050238D01*
X0107436Y0053781D02*
X0100350Y0053781D01*
X0100940Y0050238D02*
X0097003Y0046301D01*
X0097003Y0029411D01*
X0083598Y0029411D01*
X0078692Y0021317D02*
X0073598Y0026411D01*
X0073598Y0029411D01*
X0078692Y0021317D02*
X0111767Y0021317D01*
X0111767Y0046317D01*
X0115704Y0047285D02*
X0118657Y0050238D01*
X0120625Y0050238D02*
X0120625Y0041773D01*
X0119641Y0040789D01*
X0125547Y0040789D01*
X0125547Y0041970D01*
X0129484Y0045317D02*
X0129484Y0036065D01*
X0137987Y0043285D02*
X0141232Y0043285D01*
X0143987Y0040529D01*
X0138232Y0043529D02*
X0137987Y0043285D01*
X0138232Y0043529D02*
X0138232Y0050017D01*
X0140987Y0053561D02*
X0142759Y0053561D01*
X0142169Y0057104D02*
X0144169Y0059104D01*
X0144169Y0066474D01*
X0143987Y0066655D01*
X0140200Y0067667D02*
X0133387Y0074479D01*
X0140200Y0067667D02*
X0140200Y0057104D01*
X0138232Y0057104D02*
X0138232Y0061285D01*
X0135987Y0063529D01*
X0127515Y0061655D02*
X0127515Y0060277D01*
X0124562Y0057324D01*
X0122594Y0057324D02*
X0122594Y0065273D01*
X0113387Y0074479D01*
X0115704Y0065592D02*
X0117673Y0065592D01*
X0120625Y0062639D01*
X0120625Y0057324D01*
X0122594Y0053781D02*
X0125153Y0053781D01*
X0118066Y0053781D01*
X0122594Y0053781D02*
X0122594Y0050238D01*
X0124562Y0050238D02*
X0129484Y0045317D01*
X0115704Y0047285D02*
X0115704Y0040002D01*
X0092082Y0049844D02*
X0092082Y0057718D01*
X0092082Y0058418D01*
X0073598Y0059411D02*
X0064869Y0059411D01*
X0063987Y0058529D01*
X0063987Y0012529D01*
X0155987Y0013529D02*
X0155987Y0044939D01*
X0161035Y0049986D01*
X0163003Y0049986D02*
X0163003Y0043301D01*
X0162987Y0043285D01*
X0167232Y0043285D01*
X0169987Y0040529D01*
X0173987Y0042939D02*
X0173987Y0009529D01*
X0173987Y0042939D02*
X0166940Y0049986D01*
X0164972Y0049986D02*
X0164972Y0053513D01*
X0164987Y0053529D01*
X0160444Y0053529D01*
X0163003Y0057072D02*
X0162725Y0057350D01*
X0162725Y0059398D01*
X0160594Y0061529D01*
X0155987Y0061529D01*
X0164972Y0057072D02*
X0164972Y0072895D01*
X0163387Y0074479D01*
X0173387Y0074479D02*
X0173387Y0063520D01*
X0166940Y0057072D01*
X0167531Y0053529D02*
X0164987Y0053529D01*
X0166885Y0089214D02*
X0167082Y0089411D01*
X0167082Y0100041D01*
X0174562Y0100041D02*
X0174562Y0093348D01*
X0174759Y0093151D01*
X0174562Y0109883D02*
X0174562Y0133404D01*
X0173387Y0134579D01*
X0097987Y0112836D02*
X0083302Y0112836D01*
D20*
X0097987Y0112836D03*
X0092082Y0101025D03*
X0099956Y0091183D03*
X0107987Y0079529D03*
X0117987Y0078529D03*
X0108987Y0068529D03*
X0101924Y0065592D03*
X0096019Y0059687D03*
X0092082Y0061655D03*
X0092082Y0049844D03*
X0107830Y0043939D03*
X0112987Y0050529D03*
X0111767Y0057718D03*
X0115704Y0065592D03*
X0127515Y0061655D03*
X0131987Y0057529D03*
X0135987Y0063529D03*
X0128987Y0067529D03*
X0143987Y0066655D03*
X0149987Y0062529D03*
X0155987Y0061529D03*
X0158987Y0069529D03*
X0158987Y0082738D03*
X0166885Y0089214D03*
X0174759Y0093151D03*
X0155074Y0108899D03*
X0162948Y0110868D03*
X0137358Y0112836D03*
X0122987Y0095529D03*
X0147200Y0087246D03*
X0152987Y0051529D03*
X0143987Y0040529D03*
X0129484Y0036065D03*
X0125547Y0041970D03*
X0115704Y0040002D03*
X0103987Y0026529D03*
X0122987Y0023529D03*
X0140987Y0022529D03*
X0155987Y0013529D03*
X0164987Y0022529D03*
X0173987Y0009529D03*
X0183987Y0023529D03*
X0169987Y0040529D03*
M02*
